<?xml version="1.0" encoding="utf-8"?>
<!-- Generator: Adobe Illustrator 18.0.0, SVG Export Plug-In . SVG Version: 6.00 Build 0)  -->
<!DOCTYPE svg PUBLIC "-//W3C//DTD SVG 1.1//EN" "http://www.w3.org/Graphics/SVG/1.1/DTD/svg11.dtd">
<svg version="1.1" id="Calque_1" xmlns="http://www.w3.org/2000/svg" xmlns:xlink="http://www.w3.org/1999/xlink" x="0px" y="0px"
	 viewBox="0 0 330 156.9" enable-background="new 0 0 330 156.9" xml:space="preserve">
<g>
	<path fill="#679F28" d="M254.2,60.8c-0.3,0-0.5,0-0.8-0.1c-4-0.6-8-2.2-11.4-4.4L186,18.9c-8.8-5.8-19-8.9-29.5-8.9h-32
		c-2.8,0-5-2.2-5-5s2.2-5,5-5h32c12.5,0,24.7,3.7,35.1,10.6L247.6,48c2.2,1.5,4.7,2.5,7.4,2.9c2.7,0.4,4.6,3,4.2,5.7
		C258.7,59,256.6,60.8,254.2,60.8z"/>
	<path fill="#679F28" d="M124.5,10h-36c-2.8,0-5-2.2-5-5s2.2-5,5-5h36c2.8,0,5,2.2,5,5S127.3,10,124.5,10z"/>
	<path fill="#679F28" d="M37,127.5h-9.4C12.4,127.5,0,115.1,0,99.9V86.2c0-2.8,2.2-5,5-5s5,2.2,5,5v13.7c0,9.7,7.9,17.6,17.6,17.6
		H37c2.8,0,5,2.2,5,5S39.8,127.5,37,127.5z"/>
	<path fill="#679F28" d="M302.4,127.5h-23.5c-2.8,0-5-2.2-5-5s2.2-5,5-5h23.5c9.7,0,17.6-7.9,17.6-17.6v-4c0-5.1-1.6-9.9-5-14.6
		c-5.6-7.8-15.2-13.4-26.4-15.1l-35.2-5.5c-2.7-0.4-4.6-3-4.2-5.7s3-4.6,5.7-4.2l35.2,5.5c14.1,2.2,25.8,9,33,19.2
		c4.5,6.4,6.8,13.2,6.8,20.4v4C330,115.1,317.6,127.5,302.4,127.5z"/>
	<path fill="#679F28" d="M220.2,127.5H95.8c-2.8,0-5-2.2-5-5s2.2-5,5-5h124.4c2.8,0,5,2.2,5,5S222.9,127.5,220.2,127.5z"/>
	<path fill="#679F28" d="M254.2,60.8C254.2,60.8,254.2,60.8,254.2,60.8L12.3,60c-2.8,0-5-2.3-5-5c0-2.8,2.2-5,5-5c0,0,0,0,0,0
		l241.9,0.8c2.8,0,5,2.3,5,5C259.2,58.6,256.9,60.8,254.2,60.8z"/>
	<path fill="#679F28" d="M66.4,156.9c-19,0-34.4-15.4-34.4-34.4c0-2.8,2.2-5,5-5s5,2.2,5,5c0,13.4,10.9,24.4,24.4,24.4
		s24.4-10.9,24.4-24.4c0-2.8,2.2-5,5-5s5,2.2,5,5C100.8,141.4,85.4,156.9,66.4,156.9z"/>
	<path fill="#679F28" d="M95.8,127.5c-2.8,0-5-2.2-5-5c0-13.4-10.9-24.4-24.4-24.4S42,109,42,122.5c0,2.8-2.2,5-5,5s-5-2.2-5-5
		c0-19,15.4-34.4,34.4-34.4s34.4,15.4,34.4,34.4C100.8,125.2,98.5,127.5,95.8,127.5z"/>
	<path fill="#679F28" d="M249.5,156.9c-19,0-34.4-15.4-34.4-34.4c0-2.8,2.2-5,5-5s5,2.2,5,5c0,13.4,10.9,24.4,24.4,24.4
		s24.4-10.9,24.4-24.4c0-2.8,2.2-5,5-5s5,2.2,5,5C283.9,141.4,268.5,156.9,249.5,156.9z"/>
	<path fill="#679F28" d="M278.9,127.5c-2.8,0-5-2.2-5-5c0-13.4-10.9-24.4-24.4-24.4s-24.4,10.9-24.4,24.4c0,2.8-2.2,5-5,5
		s-5-2.2-5-5c0-19,15.4-34.4,34.4-34.4s34.4,15.4,34.4,34.4C283.9,125.2,281.7,127.5,278.9,127.5z"/>
	<path fill="#679F28" d="M5,91.2c-0.1,0-0.1,0-0.2,0C2,91.1-0.1,88.8,0,86c0-0.9,1-21.7,12.2-42.8C22.8,23.5,44.6,0,88.5,0
		c2.8,0,5,2.2,5,5s-2.2,5-5,5c-31.3,0-54,12.8-67.5,38C10.9,67,10,86.2,10,86.4C9.9,89.1,7.7,91.2,5,91.2z"/>
	<path fill="#679F28" d="M134.5,60c-2.8,0-5-2.2-5-5V5c0-2.8,2.2-5,5-5s5,2.2,5,5v50C139.5,57.8,137.3,60,134.5,60z"/>
	<path fill="#679F28" d="M54.5,60c-0.5,0-1.1-0.1-1.6-0.3c-2.6-0.9-4-3.7-3.1-6.4L65.7,7.3c0.9-2.6,3.7-4,6.4-3.1
		c2.6,0.9,4,3.7,3.1,6.4L59.3,56.6C58.5,58.7,56.6,60,54.5,60z"/>
</g>
</svg>
