<?xml version="1.0" encoding="UTF-8" standalone="no"?><svg xmlns="http://www.w3.org/2000/svg" xmlns:xlink="http://www.w3.org/1999/xlink" height="1116" version="1.1" width="1031.03173828125"><defs/><g><g transform="translate(10,2) scale(1,1)"><rect fill="#C0C0C0" height="220" opacity="0.2" stroke="none" width="344" x="303" y="15"/></g><g transform="translate(10,2) scale(1,1)"><rect fill="#ffffff" height="220" stroke="none" width="344" x="296" y="8"/></g><g transform="translate(10,2) scale(1,1)"><path d="M 296 8 L 640 8 L 640 228 L 296 228 L 296 8 Z Z" fill="none" stroke="#000000" stroke-miterlimit="10"/></g><g transform="translate(10,2) scale(1,1)"><path d="M 296 33 L 640 33" fill="none" stroke="#000000" stroke-miterlimit="10"/></g><g transform="translate(10,2) scale(1,1)"><path d="M 296 146 L 640 146" fill="none" stroke="#000000" stroke-miterlimit="10"/></g><g transform="translate(10,2) scale(1,1)"><g><path fill="none" stroke="none"/><text fill="#000000" font-family="Arial" font-size="13px" font-style="normal" font-weight="bold" stroke="none" text-decoration="none" x="436.214111328125" y="26">Utilisateur</text></g></g><g transform="translate(10,2) scale(1,1)"><g><path fill="none" stroke="none"/><text fill="#000000" font-family="Arial" font-size="13px" font-style="normal" font-weight="normal" stroke="none" text-decoration="none" x="301" y="48">+nom</text></g></g><g transform="translate(10,2) scale(1,1)"><g><path fill="none" stroke="none"/><text fill="#000000" font-family="Arial" font-size="13px" font-style="normal" font-weight="normal" stroke="none" text-decoration="none" x="301" y="64">+prénom</text></g></g><g transform="translate(10,2) scale(1,1)"><g><path fill="none" stroke="none"/><text fill="#000000" font-family="Arial" font-size="13px" font-style="normal" font-weight="normal" stroke="none" text-decoration="none" x="301" y="79">+adresse email</text></g></g><g transform="translate(10,2) scale(1,1)"><g><path fill="none" stroke="none"/><text fill="#000000" font-family="Arial" font-size="13px" font-style="normal" font-weight="normal" stroke="none" text-decoration="none" x="301" y="94">+adresse</text></g></g><g transform="translate(10,2) scale(1,1)"><g><path fill="none" stroke="none"/><text fill="#000000" font-family="Arial" font-size="13px" font-style="normal" font-weight="normal" stroke="none" text-decoration="none" x="301" y="109">+état</text></g></g><g transform="translate(10,2) scale(1,1)"><g><path fill="none" stroke="none"/><text fill="#000000" font-family="Arial" font-size="13px" font-style="normal" font-weight="normal" stroke="none" text-decoration="none" x="301" y="123">+username</text></g></g><g transform="translate(10,2) scale(1,1)"><g><path fill="none" stroke="none"/><text fill="#000000" font-family="Arial" font-size="13px" font-style="normal" font-weight="normal" stroke="none" text-decoration="none" x="301" y="139">+mot de passe</text></g></g><g transform="translate(10,2) scale(1,1)"><g><path fill="none" stroke="none"/><text fill="#000000" font-family="Arial" font-size="13px" font-style="normal" font-weight="normal" stroke="none" text-decoration="none" x="301" y="162">+s_authentifier(username, password)</text></g></g><g transform="translate(10,2) scale(1,1)"><g><path fill="none" stroke="none"/><text fill="#000000" font-family="Arial" font-size="13px" font-style="normal" font-weight="normal" stroke="none" text-decoration="none" x="301" y="177">+se_deconnecter()</text></g></g><g transform="translate(10,2) scale(1,1)"><g><path fill="none" stroke="none"/><text fill="#000000" font-family="Arial" font-size="13px" font-style="normal" font-weight="normal" stroke="none" text-decoration="none" x="301" y="192">+consulter_statstiques()</text></g></g><g transform="translate(10,2) scale(1,1)"><g><path fill="none" stroke="none"/><text fill="#000000" font-family="Arial" font-size="13px" font-style="normal" font-weight="normal" stroke="none" text-decoration="none" x="301" y="207">+réinstaller_mot_de_passe()</text></g></g><g transform="translate(10,2) scale(1,1)"><rect fill="#C0C0C0" height="100" opacity="0.2" stroke="none" width="184" x="439" y="295"/></g><g transform="translate(10,2) scale(1,1)"><rect fill="#ffffff" height="100" stroke="none" width="184" x="432" y="288"/></g><g transform="translate(10,2) scale(1,1)"><path d="M 432 288 L 616 288 L 616 388 L 432 388 L 432 288 Z Z" fill="none" stroke="#000000" stroke-miterlimit="10"/></g><g transform="translate(10,2) scale(1,1)"><path d="M 432 313 L 616 313" fill="none" stroke="#000000" stroke-miterlimit="10"/></g><g transform="translate(10,2) scale(1,1)"><path d="M 432 336 L 616 336" fill="none" stroke="#000000" stroke-miterlimit="10"/></g><g transform="translate(10,2) scale(1,1)"><g><path fill="none" stroke="none"/><text fill="#000000" font-family="Arial" font-size="13px" font-style="normal" font-weight="bold" stroke="none" text-decoration="none" x="496.908203125" y="306">Employé</text></g></g><g transform="translate(10,2) scale(1,1)"><g><path fill="none" stroke="none"/><text fill="#000000" font-family="Arial" font-size="13px" font-style="normal" font-weight="normal" stroke="none" text-decoration="none" x="437" y="329">+position</text></g></g><g transform="translate(10,2) scale(1,1)"><g><path fill="none" stroke="none"/><text fill="#000000" font-family="Arial" font-size="13px" font-style="normal" font-weight="normal" stroke="none" text-decoration="none" x="437" y="352">+consulter_reclamations()</text></g></g><g transform="translate(10,2) scale(1,1)"><g><path fill="none" stroke="none"/><text fill="#000000" font-family="Arial" font-size="13px" font-style="normal" font-weight="normal" stroke="none" text-decoration="none" x="437" y="367">+consulter_congés()</text></g></g><g transform="translate(10,2) scale(1,1)"><g><path fill="none" stroke="none"/><text fill="#000000" font-family="Arial" font-size="13px" font-style="normal" font-weight="normal" stroke="none" text-decoration="none" x="437" y="382">+envoyer_msg_dans_forum()</text></g></g><g transform="translate(10,2) scale(1,1)"><rect fill="#C0C0C0" height="96" opacity="0.2" stroke="none" width="141.59619140625" x="711" y="295"/></g><g transform="translate(10,2) scale(1,1)"><rect fill="#ffffff" height="96" stroke="none" width="141.59619140625" x="704" y="288"/></g><g transform="translate(10,2) scale(1,1)"><path d="M 704 288 L 845.59619140625 288 L 845.59619140625 384 L 704 384 L 704 288 Z Z" fill="none" stroke="#000000" stroke-miterlimit="10"/></g><g transform="translate(10,2) scale(1,1)"><path d="M 704 313 L 845.59619140625 313" fill="none" stroke="#000000" stroke-miterlimit="10"/></g><g transform="translate(10,2) scale(1,1)"><path d="M 704 323 L 845.59619140625 323" fill="none" stroke="#000000" stroke-miterlimit="10"/></g><g transform="translate(10,2) scale(1,1)"><g><path fill="none" stroke="none"/><text fill="#000000" font-family="Arial" font-size="13px" font-style="normal" font-weight="bold" stroke="none" text-decoration="none" x="756.7421875" y="306">Client</text></g></g><g transform="translate(10,2) scale(1,1)"><g><path fill="none" stroke="none"/><text fill="#000000" font-family="Arial" font-size="13px" font-style="normal" font-weight="normal" stroke="none" text-decoration="none" x="709" y="339">+ajouter_souscription()</text></g></g><g transform="translate(10,2) scale(1,1)"><rect fill="#C0C0C0" height="96" opacity="0.2" stroke="none" width="179.16796875" x="215" y="295"/></g><g transform="translate(10,2) scale(1,1)"><rect fill="#ffffff" height="96" stroke="none" width="179.16796875" x="208" y="288"/></g><g transform="translate(10,2) scale(1,1)"><path d="M 208 288 L 387.16796875 288 L 387.16796875 384 L 208 384 L 208 288 Z Z" fill="none" stroke="#000000" stroke-miterlimit="10"/></g><g transform="translate(10,2) scale(1,1)"><path d="M 208 313 L 387.16796875 313" fill="none" stroke="#000000" stroke-miterlimit="10"/></g><g transform="translate(10,2) scale(1,1)"><path d="M 208 323 L 387.16796875 323" fill="none" stroke="#000000" stroke-miterlimit="10"/></g><g transform="translate(10,2) scale(1,1)"><g><path fill="none" stroke="none"/><text fill="#000000" font-family="Arial" font-size="13px" font-style="normal" font-weight="bold" stroke="none" text-decoration="none" x="231.47314453125" y="306">Ressource Humaines</text></g></g><g transform="translate(10,2) scale(1,1)"><g><path fill="none" stroke="none"/><text fill="#000000" font-family="Arial" font-size="13px" font-style="normal" font-weight="normal" stroke="none" text-decoration="none" x="213" y="339">+consulter_devzone()</text></g></g><g transform="translate(10,2) scale(1,1)"><g><path fill="none" stroke="none"/><text fill="#000000" font-family="Arial" font-size="13px" font-style="normal" font-weight="normal" stroke="none" text-decoration="none" x="213" y="354">+envoyer_msg_dans_forum()</text></g></g><g transform="translate(10,2) scale(1,1)"><rect fill="#C0C0C0" height="72" opacity="0.2" stroke="none" width="72.57177734375" x="351" y="567"/></g><g transform="translate(10,2) scale(1,1)"><rect fill="#ffffff" height="72" stroke="none" width="72.57177734375" x="344" y="560"/></g><g transform="translate(10,2) scale(1,1)"><path d="M 344 560 L 416.57177734375 560 L 416.57177734375 632 L 344 632 L 344 560 Z Z" fill="none" stroke="#000000" stroke-miterlimit="10"/></g><g transform="translate(10,2) scale(1,1)"><path d="M 344 585 L 416.57177734375 585" fill="none" stroke="#000000" stroke-miterlimit="10"/></g><g transform="translate(10,2) scale(1,1)"><path d="M 344 595 L 416.57177734375 595" fill="none" stroke="#000000" stroke-miterlimit="10"/></g><g transform="translate(10,2) scale(1,1)"><g><path fill="none" stroke="none"/><text fill="#000000" font-family="Arial" font-size="13px" font-style="normal" font-weight="bold" stroke="none" text-decoration="none" x="348.5" y="578">Encadrent</text></g></g><g transform="translate(10,2) scale(1,1)"><rect fill="#C0C0C0" height="72" opacity="0.2" stroke="none" width="72.2353515625" x="511" y="567"/></g><g transform="translate(10,2) scale(1,1)"><rect fill="#ffffff" height="72" stroke="none" width="72.2353515625" x="504" y="560"/></g><g transform="translate(10,2) scale(1,1)"><path d="M 504 560 L 576.2353515625 560 L 576.2353515625 632 L 504 632 L 504 560 Z Z" fill="none" stroke="#000000" stroke-miterlimit="10"/></g><g transform="translate(10,2) scale(1,1)"><path d="M 504 585 L 576.2353515625 585" fill="none" stroke="#000000" stroke-miterlimit="10"/></g><g transform="translate(10,2) scale(1,1)"><path d="M 504 623 L 576.2353515625 623" fill="none" stroke="#000000" stroke-miterlimit="10"/></g><g transform="translate(10,2) scale(1,1)"><g><path fill="none" stroke="none"/><text fill="#000000" font-family="Arial" font-size="13px" font-style="normal" font-weight="bold" stroke="none" text-decoration="none" x="512.660888671875" y="578">Stagiaire</text></g></g><g transform="translate(10,2) scale(1,1)"><g><path fill="none" stroke="none"/><text fill="#000000" font-family="Arial" font-size="13px" font-style="normal" font-weight="normal" stroke="none" text-decoration="none" x="509" y="601">+faculté</text></g></g><g transform="translate(10,2) scale(1,1)"><g><path fill="none" stroke="none"/><text fill="#000000" font-family="Arial" font-size="13px" font-style="normal" font-weight="normal" stroke="none" text-decoration="none" x="509" y="616">+specialité</text></g></g><g transform="translate(10,2) scale(1,1)"><rect fill="#C0C0C0" height="70" opacity="0.2" stroke="none" width="143.7861328125" x="631" y="839"/></g><g transform="translate(10,2) scale(1,1)"><rect fill="#ffffff" height="70" stroke="none" width="143.7861328125" x="624" y="832"/></g><g transform="translate(10,2) scale(1,1)"><path d="M 624 832 L 767.7861328125 832 L 767.7861328125 902 L 624 902 L 624 832 Z Z" fill="none" stroke="#000000" stroke-miterlimit="10"/></g><g transform="translate(10,2) scale(1,1)"><path d="M 624 857 L 767.7861328125 857" fill="none" stroke="#000000" stroke-miterlimit="10"/></g><g transform="translate(10,2) scale(1,1)"><path d="M 624 880 L 767.7861328125 880" fill="none" stroke="#000000" stroke-miterlimit="10"/></g><g transform="translate(10,2) scale(1,1)"><g><path fill="none" stroke="none"/><text fill="#000000" font-family="Arial" font-size="13px" font-style="normal" font-weight="bold" stroke="none" text-decoration="none" x="631.962646484375" y="850">DeveloppeurLogiciel</text></g></g><g transform="translate(10,2) scale(1,1)"><g><path fill="none" stroke="none"/><text fill="#000000" font-family="Arial" font-size="13px" font-style="normal" font-weight="normal" stroke="none" text-decoration="none" x="629" y="873">+technologies_utilisées</text></g></g><g transform="translate(10,2) scale(1,1)"><g><path fill="none" stroke="none"/><text fill="#000000" font-family="Arial" font-size="13px" font-style="normal" font-weight="normal" stroke="none" text-decoration="none" x="629" y="896">+consulter_devzone()</text></g></g><g transform="translate(10,2) scale(1,1)"><rect fill="#C0C0C0" height="44" opacity="0.2" stroke="none" width="91.37353515625" x="687" y="687"/></g><g transform="translate(10,2) scale(1,1)"><rect fill="#ffffff" height="44" stroke="none" width="91.37353515625" x="680" y="680"/></g><g transform="translate(10,2) scale(1,1)"><path d="M 680 680 L 771.37353515625 680 L 771.37353515625 724 L 680 724 L 680 680 Z Z" fill="none" stroke="#000000" stroke-miterlimit="10"/></g><g transform="translate(10,2) scale(1,1)"><path d="M 680 705 L 771.37353515625 705" fill="none" stroke="#000000" stroke-miterlimit="10"/></g><g transform="translate(10,2) scale(1,1)"><path d="M 680 715 L 771.37353515625 715" fill="none" stroke="#000000" stroke-miterlimit="10"/></g><g transform="translate(10,2) scale(1,1)"><g><path fill="none" stroke="none"/><text fill="#000000" font-family="Arial" font-size="13px" font-style="normal" font-weight="bold" stroke="none" text-decoration="none" x="684.5" y="698">ServiceClient</text></g></g><g transform="translate(10,2) scale(1,1)"><path d="M 538 559 L 527 389" fill="none" stroke="#000000" stroke-miterlimit="10"/></g><g transform="translate(10,2) scale(1,1)"><path d="M 536.7138911318493 408.7393089817901 L 527 389 L 519.9109590540783 409.82655752799883" fill="#FFFFFF" stroke="none"/></g><g transform="translate(10,2) scale(1,1)"><path d="M 536.7138911318493 408.7393089817901 L 527 389 L 519.9109590540783 409.82655752799883 L 536.7138911318493 408.7393089817901" fill="none" stroke="#000000" stroke-miterlimit="10"/></g><g transform="translate(10,2) scale(1,1)"><path d="M 401 559 L 496 389" fill="none" stroke="#000000" stroke-miterlimit="10"/></g><g transform="translate(10,2) scale(1,1)"><path d="M 493.43420248300333 410.8498668897953 L 496 389 L 478.73551813078234 402.6358962223777" fill="#FFFFFF" stroke="none"/></g><g transform="translate(10,2) scale(1,1)"><path d="M 493.43420248300333 410.8498668897953 L 496 389 L 478.73551813078234 402.6358962223777 L 493.43420248300333 410.8498668897953" fill="none" stroke="#000000" stroke-miterlimit="10"/></g><g transform="translate(10,2) scale(1,1)"><path d="M 683 831 L 540 389" fill="none" stroke="#000000" stroke-miterlimit="10"/></g><g transform="translate(10,2) scale(1,1)"><path d="M 554.2668001399384 405.74689266004464 L 540 389 L 538.2463097610628 410.92999248850435" fill="#FFFFFF" stroke="none"/></g><g transform="translate(10,2) scale(1,1)"><path d="M 554.2668001399384 405.74689266004464 L 540 389 L 538.2463097610628 410.92999248850435 L 554.2668001399384 405.74689266004464" fill="none" stroke="#000000" stroke-miterlimit="10"/></g><g transform="translate(10,2) scale(1,1)"><path d="M 712 679 L 552 389" fill="none" stroke="#000000" stroke-miterlimit="10"/></g><g transform="translate(10,2) scale(1,1)"><path d="M 569.1902355495502 402.72937732568323 L 552 389 L 554.4471963188215 410.86346793574035" fill="#FFFFFF" stroke="none"/></g><g transform="translate(10,2) scale(1,1)"><path d="M 569.1902355495502 402.72937732568323 L 552 389 L 554.4471963188215 410.86346793574035 L 569.1902355495502 402.72937732568323" fill="none" stroke="#000000" stroke-miterlimit="10"/></g><g transform="translate(10,2) scale(1,1)"><path d="M 503 596 L 418 596" fill="none" stroke="#000000" stroke-miterlimit="10"/></g><g transform="translate(10,2) scale(1,1)"><g><path fill="none" stroke="none"/><text fill="#000000" font-family="Arial" font-size="13px" font-style="normal" font-weight="normal" stroke="none" text-decoration="none" x="420.5" y="616">+encadré par</text></g></g><g transform="translate(10,2) scale(1,1)"><g><path fill="none" stroke="none"/><text fill="#000000" font-family="Arial" font-size="13px" font-style="normal" font-weight="normal" stroke="none" text-decoration="none" x="471.5" y="588">1..*</text></g></g><g transform="translate(10,2) scale(1,1)"><g><path fill="none" stroke="none"/><text fill="#000000" font-family="Arial" font-size="13px" font-style="normal" font-weight="normal" stroke="none" text-decoration="none" x="435.5" y="588">1</text></g></g><g transform="translate(10,2) scale(1,1)"><rect fill="#C0C0C0" height="117" opacity="0.2" stroke="none" width="192" x="303" y="871"/></g><g transform="translate(10,2) scale(1,1)"><rect fill="#ffffff" height="117" stroke="none" width="192" x="296" y="864"/></g><g transform="translate(10,2) scale(1,1)"><path d="M 296 864 L 488 864 L 488 981 L 296 981 L 296 864 Z Z" fill="none" stroke="#000000" stroke-miterlimit="10"/></g><g transform="translate(10,2) scale(1,1)"><path d="M 296 889 L 488 889" fill="none" stroke="#000000" stroke-miterlimit="10"/></g><g transform="translate(10,2) scale(1,1)"><path d="M 296 957 L 488 957" fill="none" stroke="#000000" stroke-miterlimit="10"/></g><g transform="translate(10,2) scale(1,1)"><g><path fill="none" stroke="none"/><text fill="#000000" font-family="Arial" font-size="13px" font-style="normal" font-weight="bold" stroke="none" text-decoration="none" x="375.02001953125" y="882">tache</text></g></g><g transform="translate(10,2) scale(1,1)"><g><path fill="none" stroke="none"/><text fill="#000000" font-family="Arial" font-size="13px" font-style="normal" font-weight="normal" stroke="none" text-decoration="none" x="301" y="905">+titre</text></g></g><g transform="translate(10,2) scale(1,1)"><g><path fill="none" stroke="none"/><text fill="#000000" font-family="Arial" font-size="13px" font-style="normal" font-weight="normal" stroke="none" text-decoration="none" x="301" y="920">+description</text></g></g><g transform="translate(10,2) scale(1,1)"><g><path fill="none" stroke="none"/><text fill="#000000" font-family="Arial" font-size="13px" font-style="normal" font-weight="normal" stroke="none" text-decoration="none" x="301" y="935">+date_d_attribution</text></g></g><g transform="translate(10,2) scale(1,1)"><g><path fill="none" stroke="none"/><text fill="#000000" font-family="Arial" font-size="13px" font-style="normal" font-weight="normal" stroke="none" text-decoration="none" x="301" y="949.5">+note</text></g></g><g transform="translate(10,2) scale(1,1)"><path d="M 523 633 L 419 863" fill="none" stroke="#000000" stroke-miterlimit="10"/></g><g transform="translate(10,2) scale(1,1)"><g><path fill="none" stroke="none"/><text fill="#000000" font-family="Arial" font-size="13px" font-style="normal" font-weight="normal" stroke="none" text-decoration="none" x="475.5" y="742">+fait</text></g></g><g transform="translate(10,2) scale(1,1)"><g><path fill="none" stroke="none"/><text fill="#000000" font-family="Arial" font-size="13px" font-style="normal" font-weight="normal" stroke="none" text-decoration="none" x="498.5" y="652">1</text></g></g><g transform="translate(10,2) scale(1,1)"><g><path fill="none" stroke="none"/><text fill="#000000" font-family="Arial" font-size="13px" font-style="normal" font-weight="normal" stroke="none" text-decoration="none" x="406.5" y="843">1..*</text></g></g><g transform="translate(10,2) scale(1,1)"><rect fill="#C0C0C0" height="72" opacity="0.2" stroke="none" width="166.4853515625" x="623" y="1039"/></g><g transform="translate(10,2) scale(1,1)"><rect fill="#ffffff" height="72" stroke="none" width="166.4853515625" x="616" y="1032"/></g><g transform="translate(10,2) scale(1,1)"><path d="M 616 1032 L 782.4853515625 1032 L 782.4853515625 1104 L 616 1104 L 616 1032 Z Z" fill="none" stroke="#000000" stroke-miterlimit="10"/></g><g transform="translate(10,2) scale(1,1)"><path d="M 616 1057 L 782.4853515625 1057" fill="none" stroke="#000000" stroke-miterlimit="10"/></g><g transform="translate(10,2) scale(1,1)"><path d="M 616 1095 L 782.4853515625 1095" fill="none" stroke="#000000" stroke-miterlimit="10"/></g><g transform="translate(10,2) scale(1,1)"><g><path fill="none" stroke="none"/><text fill="#000000" font-family="Arial" font-size="13px" font-style="normal" font-weight="bold" stroke="none" text-decoration="none" x="620.5" y="1050">Code_de_developpement</text></g></g><g transform="translate(10,2) scale(1,1)"><g><path fill="none" stroke="none"/><text fill="#000000" font-family="Arial" font-size="13px" font-style="normal" font-weight="normal" stroke="none" text-decoration="none" x="621" y="1073">+language</text></g></g><g transform="translate(10,2) scale(1,1)"><g><path fill="none" stroke="none"/><text fill="#000000" font-family="Arial" font-size="13px" font-style="normal" font-weight="normal" stroke="none" text-decoration="none" x="621" y="1088">+titre</text></g></g><g transform="translate(10,2) scale(1,1)"><path d="M 696 903 L 698 1031" fill="none" stroke="#000000" stroke-miterlimit="10"/></g><g transform="translate(10,2) scale(1,1)"><g><path fill="none" stroke="none"/><text fill="#000000" font-family="Arial" font-size="13px" font-style="normal" font-weight="normal" stroke="none" text-decoration="none" x="648.5" y="971">+ajoute au production</text></g></g><g transform="translate(10,2) scale(1,1)"><g><path fill="none" stroke="none"/><text fill="#000000" font-family="Arial" font-size="13px" font-style="normal" font-weight="normal" stroke="none" text-decoration="none" x="679.5" y="929">1</text></g></g><g transform="translate(10,2) scale(1,1)"><g><path fill="none" stroke="none"/><text fill="#000000" font-family="Arial" font-size="13px" font-style="normal" font-weight="normal" stroke="none" text-decoration="none" x="675.5" y="1014">1..*</text></g></g><g transform="translate(10,2) scale(1,1)"><rect fill="#C0C0C0" height="88" opacity="0.2" stroke="none" width="152" x="735" y="471"/></g><g transform="translate(10,2) scale(1,1)"><rect fill="#ffffff" height="88" stroke="none" width="152" x="728" y="464"/></g><g transform="translate(10,2) scale(1,1)"><path d="M 728 464 L 880 464 L 880 552 L 728 552 L 728 464 Z Z" fill="none" stroke="#000000" stroke-miterlimit="10"/></g><g transform="translate(10,2) scale(1,1)"><path d="M 728 489 L 880 489" fill="none" stroke="#000000" stroke-miterlimit="10"/></g><g transform="translate(10,2) scale(1,1)"><path d="M 728 499 L 880 499" fill="none" stroke="#000000" stroke-miterlimit="10"/></g><g transform="translate(10,2) scale(1,1)"><g><path fill="none" stroke="none"/><text fill="#000000" font-family="Arial" font-size="13px" font-style="normal" font-weight="bold" stroke="none" text-decoration="none" x="764.2763671875" y="482">Souscription</text></g></g><g transform="translate(10,2) scale(1,1)"><path d="M 734 679 L 786 553" fill="none" stroke="#000000" stroke-miterlimit="10"/></g><g transform="translate(10,2) scale(1,1)"><g><path fill="none" stroke="none"/><text fill="#000000" font-family="Arial" font-size="13px" font-style="normal" font-weight="normal" stroke="none" text-decoration="none" x="729.509521484375" y="615">+gére</text></g></g><g transform="translate(10,2) scale(1,1)"><g><path fill="none" stroke="none"/><text fill="#000000" font-family="Arial" font-size="13px" font-style="normal" font-weight="normal" stroke="none" text-decoration="none" x="749.5" y="668">1</text></g></g><g transform="translate(10,2) scale(1,1)"><g><path fill="none" stroke="none"/><text fill="#000000" font-family="Arial" font-size="13px" font-style="normal" font-weight="normal" stroke="none" text-decoration="none" x="779.5" y="582">1..*</text></g></g><g transform="translate(10,2) scale(1,1)"><path d="M 783 385 L 796 463" fill="none" stroke="#000000" stroke-miterlimit="10"/></g><g transform="translate(10,2) scale(1,1)"><g><path fill="none" stroke="none"/><text fill="#000000" font-family="Arial" font-size="13px" font-style="normal" font-weight="normal" stroke="none" text-decoration="none" x="772.5" y="426">+demande</text></g></g><g transform="translate(10,2) scale(1,1)"><g><path fill="none" stroke="none"/><text fill="#000000" font-family="Arial" font-size="13px" font-style="normal" font-weight="normal" stroke="none" text-decoration="none" x="770.5" y="413">1</text></g></g><g transform="translate(10,2) scale(1,1)"><g><path fill="none" stroke="none"/><text fill="#000000" font-family="Arial" font-size="13px" font-style="normal" font-weight="normal" stroke="none" text-decoration="none" x="770.5" y="448">1..*</text></g></g><g transform="translate(10,2) scale(1,1)"><rect fill="#C0C0C0" height="87" opacity="0.2" stroke="none" width="151.71435546875" x="815" y="791"/></g><g transform="translate(10,2) scale(1,1)"><rect fill="#ffffff" height="87" stroke="none" width="151.71435546875" x="808" y="784"/></g><g transform="translate(10,2) scale(1,1)"><path d="M 808 784 L 959.71435546875 784 L 959.71435546875 871 L 808 871 L 808 784 Z Z" fill="none" stroke="#000000" stroke-miterlimit="10"/></g><g transform="translate(10,2) scale(1,1)"><path d="M 808 809 L 959.71435546875 809" fill="none" stroke="#000000" stroke-miterlimit="10"/></g><g transform="translate(10,2) scale(1,1)"><path d="M 808 862 L 959.71435546875 862" fill="none" stroke="#000000" stroke-miterlimit="10"/></g><g transform="translate(10,2) scale(1,1)"><g><path fill="none" stroke="none"/><text fill="#000000" font-family="Arial" font-size="13px" font-style="normal" font-weight="bold" stroke="none" text-decoration="none" x="814.870849609375" y="802">AssuranceAutomobile</text></g></g><g transform="translate(10,2) scale(1,1)"><g><path fill="none" stroke="none"/><text fill="#000000" font-family="Arial" font-size="13px" font-style="normal" font-weight="normal" stroke="none" text-decoration="none" x="813" y="824">+marque</text></g></g><g transform="translate(10,2) scale(1,1)"><g><path fill="none" stroke="none"/><text fill="#000000" font-family="Arial" font-size="13px" font-style="normal" font-weight="normal" stroke="none" text-decoration="none" x="813" y="840">+date_premiercirculation</text></g></g><g transform="translate(10,2) scale(1,1)"><g><path fill="none" stroke="none"/><text fill="#000000" font-family="Arial" font-size="13px" font-style="normal" font-weight="normal" stroke="none" text-decoration="none" x="813" y="854">+usage</text></g></g><g transform="translate(10,2) scale(1,1)"><rect fill="#C0C0C0" height="72" opacity="0.2" stroke="none" width="139.03173828125" x="879" y="655"/></g><g transform="translate(10,2) scale(1,1)"><rect fill="#ffffff" height="72" stroke="none" width="139.03173828125" x="872" y="648"/></g><g transform="translate(10,2) scale(1,1)"><path d="M 872 648 L 1011.03173828125 648 L 1011.03173828125 720 L 872 720 L 872 648 Z Z" fill="none" stroke="#000000" stroke-miterlimit="10"/></g><g transform="translate(10,2) scale(1,1)"><path d="M 872 673 L 1011.03173828125 673" fill="none" stroke="#000000" stroke-miterlimit="10"/></g><g transform="translate(10,2) scale(1,1)"><path d="M 872 711 L 1011.03173828125 711" fill="none" stroke="#000000" stroke-miterlimit="10"/></g><g transform="translate(10,2) scale(1,1)"><g><path fill="none" stroke="none"/><text fill="#000000" font-family="Arial" font-size="13px" font-style="normal" font-weight="bold" stroke="none" text-decoration="none" x="876.5" y="666">AssuranceHabitation</text></g></g><g transform="translate(10,2) scale(1,1)"><g><path fill="none" stroke="none"/><text fill="#000000" font-family="Arial" font-size="13px" font-style="normal" font-weight="normal" stroke="none" text-decoration="none" x="877" y="688.5">+type</text></g></g><g transform="translate(10,2) scale(1,1)"><g><path fill="none" stroke="none"/><text fill="#000000" font-family="Arial" font-size="13px" font-style="normal" font-weight="normal" stroke="none" text-decoration="none" x="877" y="704">+superficie</text></g></g><g transform="translate(10,2) scale(1,1)"><path d="M 872 783 L 815 553" fill="none" stroke="#000000" stroke-miterlimit="10"/></g><g transform="translate(10,2) scale(1,1)"><path d="M 828.061072787849 570.7033436850362 L 815 553 L 811.7174187684939 574.7537275072242" fill="#FFFFFF" stroke="none"/></g><g transform="translate(10,2) scale(1,1)"><path d="M 828.061072787849 570.7033436850362 L 815 553 L 811.7174187684939 574.7537275072242 L 828.061072787849 570.7033436850362" fill="none" stroke="#000000" stroke-miterlimit="10"/></g><g transform="translate(10,2) scale(1,1)"><path d="M 912 647 L 839 553" fill="none" stroke="#000000" stroke-miterlimit="10"/></g><g transform="translate(10,2) scale(1,1)"><path d="M 858.116122778606 563.8891620390763 L 839 553 L 844.817339727477 574.216940366017" fill="#FFFFFF" stroke="none"/></g><g transform="translate(10,2) scale(1,1)"><path d="M 858.116122778606 563.8891620390763 L 839 553 L 844.817339727477 574.216940366017 L 858.116122778606 563.8891620390763" fill="none" stroke="#000000" stroke-miterlimit="10"/></g><g transform="translate(10,2) scale(1,1)"><path d="M 335 287 L 381 229" fill="none" stroke="#000000" stroke-miterlimit="10"/></g><g transform="translate(10,2) scale(1,1)"><path d="M 374.96622997152724 250.15640846749523 L 381 229 L 361.7736404038284 239.69332018966512" fill="#FFFFFF" stroke="none"/></g><g transform="translate(10,2) scale(1,1)"><path d="M 374.96622997152724 250.15640846749523 L 381 229 L 361.7736404038284 239.69332018966512 L 374.96622997152724 250.15640846749523" fill="none" stroke="#000000" stroke-miterlimit="10"/></g><g transform="translate(10,2) scale(1,1)"><path d="M 511 287 L 496 229" fill="none" stroke="#000000" stroke-miterlimit="10"/></g><g transform="translate(10,2) scale(1,1)"><path d="M 509.23998164892305 246.56994268448767 L 496 229 L 492.93825518947875 250.7859064239991" fill="#FFFFFF" stroke="none"/></g><g transform="translate(10,2) scale(1,1)"><path d="M 509.23998164892305 246.56994268448767 L 496 229 L 492.93825518947875 250.7859064239991 L 509.23998164892305 246.56994268448767" fill="none" stroke="#000000" stroke-miterlimit="10"/></g><g transform="translate(10,2) scale(1,1)"><path d="M 705 287 L 624 229" fill="none" stroke="#000000" stroke-miterlimit="10"/></g><g transform="translate(10,2) scale(1,1)"><path d="M 645.4270766304605 233.98802436565558 L 624 229 L 635.6241653327236 247.6782970400812" fill="#FFFFFF" stroke="none"/></g><g transform="translate(10,2) scale(1,1)"><path d="M 645.4270766304605 233.98802436565558 L 624 229 L 635.6241653327236 247.6782970400812 L 645.4270766304605 233.98802436565558" fill="none" stroke="#000000" stroke-miterlimit="10"/></g><g transform="translate(10,2) scale(1,1)"><path d="M 381 633 L 390 863" fill="none" stroke="#000000" stroke-miterlimit="10"/></g><g transform="translate(10,2) scale(1,1)"><g><path fill="none" stroke="none"/><text fill="#000000" font-family="Arial" font-size="13px" font-style="normal" font-weight="normal" stroke="none" text-decoration="none" x="381.5" y="752">+assigne</text></g></g><g transform="translate(10,2) scale(1,1)"><g><path fill="none" stroke="none"/><text fill="#000000" font-family="Arial" font-size="13px" font-style="normal" font-weight="normal" stroke="none" text-decoration="none" x="365.5" y="660">1</text></g></g><g transform="translate(10,2) scale(1,1)"><g><path fill="none" stroke="none"/><text fill="#000000" font-family="Arial" font-size="13px" font-style="normal" font-weight="normal" stroke="none" text-decoration="none" x="366.5" y="846">1..*</text></g></g><g transform="translate(10,2) scale(1,1)"><rect fill="#C0C0C0" height="72" opacity="0.2" stroke="none" width="128" x="151" y="567"/></g><g transform="translate(10,2) scale(1,1)"><rect fill="#ffffff" height="72" stroke="none" width="128" x="144" y="560"/></g><g transform="translate(10,2) scale(1,1)"><path d="M 144 560 L 272 560 L 272 632 L 144 632 L 144 560 Z Z" fill="none" stroke="#000000" stroke-miterlimit="10"/></g><g transform="translate(10,2) scale(1,1)"><path d="M 144 585 L 272 585" fill="none" stroke="#000000" stroke-miterlimit="10"/></g><g transform="translate(10,2) scale(1,1)"><path d="M 144 608 L 272 608" fill="none" stroke="#000000" stroke-miterlimit="10"/></g><g transform="translate(10,2) scale(1,1)"><g><path fill="none" stroke="none"/><text fill="#000000" font-family="Arial" font-size="13px" font-style="normal" font-weight="bold" stroke="none" text-decoration="none" x="171.885009765625" y="578">sollicitation</text></g></g><g transform="translate(10,2) scale(1,1)"><g><path fill="none" stroke="none"/><text fill="#000000" font-family="Arial" font-size="13px" font-style="normal" font-weight="normal" stroke="none" text-decoration="none" x="149" y="601">+réponse</text></g></g><g transform="translate(10,2) scale(1,1)"><path d="M 280 385 L 221 559" fill="none" stroke="#000000" stroke-miterlimit="10"/></g><g transform="translate(10,2) scale(1,1)"><g><path fill="none" stroke="none"/><text fill="#000000" font-family="Arial" font-size="13px" font-style="normal" font-weight="normal" stroke="none" text-decoration="none" x="234.5" y="481">+répondre</text></g></g><g transform="translate(10,2) scale(1,1)"><g><path fill="none" stroke="none"/><text fill="#000000" font-family="Arial" font-size="13px" font-style="normal" font-weight="normal" stroke="none" text-decoration="none" x="257.5" y="406">1</text></g></g><g transform="translate(10,2) scale(1,1)"><g><path fill="none" stroke="none"/><text fill="#000000" font-family="Arial" font-size="13px" font-style="normal" font-weight="normal" stroke="none" text-decoration="none" x="206.5" y="539">1..*</text></g></g><g transform="translate(10,2) scale(1,1)"><path d="M 253 559 L 462 389" fill="none" stroke="#000000" stroke-miterlimit="10"/></g><g transform="translate(10,2) scale(1,1)"><g><path fill="none" stroke="none"/><text fill="#000000" font-family="Arial" font-size="13px" font-style="normal" font-weight="normal" stroke="none" text-decoration="none" x="330.5" y="467">+écrit</text></g></g><g transform="translate(10,2) scale(1,1)"><g><path fill="none" stroke="none"/><text fill="#000000" font-family="Arial" font-size="13px" font-style="normal" font-weight="normal" stroke="none" text-decoration="none" x="267.5" y="560">1..*</text></g></g><g transform="translate(10,2) scale(1,1)"><g><path fill="none" stroke="none"/><text fill="#000000" font-family="Arial" font-size="13px" font-style="normal" font-weight="normal" stroke="none" text-decoration="none" x="449.5" y="417">1</text></g></g><g transform="translate(10,2) scale(1,1)"><rect fill="#C0C0C0" height="87" opacity="0.2" stroke="none" width="114.14892578125" x="39" y="727"/></g><g transform="translate(10,2) scale(1,1)"><rect fill="#ffffff" height="87" stroke="none" width="114.14892578125" x="32" y="720"/></g><g transform="translate(10,2) scale(1,1)"><path d="M 32 720 L 146.14892578125 720 L 146.14892578125 807 L 32 807 L 32 720 Z Z" fill="none" stroke="#000000" stroke-miterlimit="10"/></g><g transform="translate(10,2) scale(1,1)"><path d="M 32 745 L 146.14892578125 745" fill="none" stroke="#000000" stroke-miterlimit="10"/></g><g transform="translate(10,2) scale(1,1)"><path d="M 32 798 L 146.14892578125 798" fill="none" stroke="#000000" stroke-miterlimit="10"/></g><g transform="translate(10,2) scale(1,1)"><g><path fill="none" stroke="none"/><text fill="#000000" font-family="Arial" font-size="13px" font-style="normal" font-weight="bold" stroke="none" text-decoration="none" x="50.423583984375" y="738">Réclamation</text></g></g><g transform="translate(10,2) scale(1,1)"><g><path fill="none" stroke="none"/><text fill="#000000" font-family="Arial" font-size="13px" font-style="normal" font-weight="normal" stroke="none" text-decoration="none" x="37" y="761">+sujet</text></g></g><g transform="translate(10,2) scale(1,1)"><g><path fill="none" stroke="none"/><text fill="#000000" font-family="Arial" font-size="13px" font-style="normal" font-weight="normal" stroke="none" text-decoration="none" x="37" y="776">+description</text></g></g><g transform="translate(10,2) scale(1,1)"><g><path fill="none" stroke="none"/><text fill="#000000" font-family="Arial" font-size="13px" font-style="normal" font-weight="normal" stroke="none" text-decoration="none" x="37" y="791">+date_soumission</text></g></g><g transform="translate(10,2) scale(1,1)"><rect fill="#C0C0C0" height="87" opacity="0.2" stroke="none" width="81.6552734375" x="199" y="735"/></g><g transform="translate(10,2) scale(1,1)"><rect fill="#ffffff" height="87" stroke="none" width="81.6552734375" x="192" y="728"/></g><g transform="translate(10,2) scale(1,1)"><path d="M 192 728 L 273.6552734375 728 L 273.6552734375 815 L 192 815 L 192 728 Z Z" fill="none" stroke="#000000" stroke-miterlimit="10"/></g><g transform="translate(10,2) scale(1,1)"><path d="M 192 753 L 273.6552734375 753" fill="none" stroke="#000000" stroke-miterlimit="10"/></g><g transform="translate(10,2) scale(1,1)"><path d="M 192 806 L 273.6552734375 806" fill="none" stroke="#000000" stroke-miterlimit="10"/></g><g transform="translate(10,2) scale(1,1)"><g><path fill="none" stroke="none"/><text fill="#000000" font-family="Arial" font-size="13px" font-style="normal" font-weight="bold" stroke="none" text-decoration="none" x="212.607177734375" y="746">Congé</text></g></g><g transform="translate(10,2) scale(1,1)"><g><path fill="none" stroke="none"/><text fill="#000000" font-family="Arial" font-size="13px" font-style="normal" font-weight="normal" stroke="none" text-decoration="none" x="197" y="769">+date_début</text></g></g><g transform="translate(10,2) scale(1,1)"><g><path fill="none" stroke="none"/><text fill="#000000" font-family="Arial" font-size="13px" font-style="normal" font-weight="normal" stroke="none" text-decoration="none" x="197" y="784">+date_fin</text></g></g><g transform="translate(10,2) scale(1,1)"><g><path fill="none" stroke="none"/><text fill="#000000" font-family="Arial" font-size="13px" font-style="normal" font-weight="normal" stroke="none" text-decoration="none" x="197" y="799">+raison</text></g></g><g transform="translate(10,2) scale(1,1)"><path d="M 120 719 L 182 633" fill="none" stroke="#000000" stroke-miterlimit="10"/></g><g transform="translate(10,2) scale(1,1)"><path d="M 176.94302620564994 654.4109088093724 L 182 633 L 163.28438072725845 644.5639783482063" fill="#FFFFFF" stroke="none"/></g><g transform="translate(10,2) scale(1,1)"><path d="M 176.94302620564994 654.4109088093724 L 182 633 L 163.28438072725845 644.5639783482063 L 176.94302620564994 654.4109088093724" fill="none" stroke="#000000" stroke-miterlimit="10"/></g><g transform="translate(10,2) scale(1,1)"><path d="M 226 727 L 213 633" fill="none" stroke="#000000" stroke-miterlimit="10"/></g><g transform="translate(10,2) scale(1,1)"><path d="M 224.12411045131228 651.9803626589959 L 213 633 L 207.44479078923513 654.287077080347" fill="#FFFFFF" stroke="none"/></g><g transform="translate(10,2) scale(1,1)"><path d="M 224.12411045131228 651.9803626589959 L 213 633 L 207.44479078923513 654.287077080347 L 224.12411045131228 651.9803626589959" fill="none" stroke="#000000" stroke-miterlimit="10"/></g><g transform="translate(10,2) scale(1,1)"><rect fill="#C0C0C0" height="102" opacity="0.2" stroke="none" width="145.91259765625" x="7" y="295"/></g><g transform="translate(10,2) scale(1,1)"><rect fill="#ffffff" height="102" stroke="none" width="145.91259765625" x="0" y="288"/></g><g transform="translate(10,2) scale(1,1)"><path d="M 0 288 L 145.91259765625 288 L 145.91259765625 390 L 0 390 L 0 288 Z Z" fill="none" stroke="#000000" stroke-miterlimit="10"/></g><g transform="translate(10,2) scale(1,1)"><path d="M 0 313 L 145.91259765625 313" fill="none" stroke="#000000" stroke-miterlimit="10"/></g><g transform="translate(10,2) scale(1,1)"><path d="M 0 323 L 145.91259765625 323" fill="none" stroke="#000000" stroke-miterlimit="10"/></g><g transform="translate(10,2) scale(1,1)"><g><path fill="none" stroke="none"/><text fill="#000000" font-family="Arial" font-size="13px" font-style="normal" font-weight="bold" stroke="none" text-decoration="none" x="5.76953125" y="306">Super_administrateur</text></g></g><g transform="translate(10,2) scale(1,1)"><g><path fill="none" stroke="none"/><text fill="#000000" font-family="Arial" font-size="13px" font-style="normal" font-weight="normal" stroke="none" text-decoration="none" x="5" y="339">+ajouter_utilisateur()</text></g></g><g transform="translate(10,2) scale(1,1)"><g><path fill="none" stroke="none"/><text fill="#000000" font-family="Arial" font-size="13px" font-style="normal" font-weight="normal" stroke="none" text-decoration="none" x="5" y="354">+supprimer_utilisateur()</text></g></g><g transform="translate(10,2) scale(1,1)"><g><path fill="none" stroke="none"/><text fill="#000000" font-family="Arial" font-size="13px" font-style="normal" font-weight="normal" stroke="none" text-decoration="none" x="5" y="369">+accepter_utilisateur()</text></g></g><g transform="translate(10,2) scale(1,1)"><g><path fill="none" stroke="none"/><text fill="#000000" font-family="Arial" font-size="13px" font-style="normal" font-weight="normal" stroke="none" text-decoration="none" x="5" y="384">+notifier_utilisateurs()</text></g></g><g transform="translate(10,2) scale(1,1)"><path d="M 147 297 L 295 215" fill="none" stroke="#000000" stroke-miterlimit="10"/></g><g transform="translate(10,2) scale(1,1)"><path d="M 281.30131942266524 232.21470738758433 L 295 215 L 273.14093374055506 217.48620640036117" fill="#FFFFFF" stroke="none"/></g><g transform="translate(10,2) scale(1,1)"><path d="M 281.30131942266524 232.21470738758433 L 295 215 L 273.14093374055506 217.48620640036117 L 281.30131942266524 232.21470738758433" fill="none" stroke="#000000" stroke-miterlimit="10"/></g><g transform="translate(10,2) scale(1,1)"><rect fill="#C0C0C0" height="72" opacity="0.2" stroke="none" width="80.49365234375" x="895" y="87"/></g><g transform="translate(10,2) scale(1,1)"><rect fill="#ffffff" height="72" stroke="none" width="80.49365234375" x="888" y="80"/></g><g transform="translate(10,2) scale(1,1)"><path d="M 888 80 L 968.49365234375 80 L 968.49365234375 152 L 888 152 L 888 80 Z Z" fill="none" stroke="#000000" stroke-miterlimit="10"/></g><g transform="translate(10,2) scale(1,1)"><path d="M 888 105 L 968.49365234375 105" fill="none" stroke="#000000" stroke-miterlimit="10"/></g><g transform="translate(10,2) scale(1,1)"><path d="M 888 143 L 968.49365234375 143" fill="none" stroke="#000000" stroke-miterlimit="10"/></g><g transform="translate(10,2) scale(1,1)"><g><path fill="none" stroke="none"/><text fill="#000000" font-family="Arial" font-size="13px" font-style="normal" font-weight="bold" stroke="none" text-decoration="none" x="892.5" y="98">Notification</text></g></g><g transform="translate(10,2) scale(1,1)"><g><path fill="none" stroke="none"/><text fill="#000000" font-family="Arial" font-size="13px" font-style="normal" font-weight="normal" stroke="none" text-decoration="none" x="893" y="120.5">+contenu</text></g></g><g transform="translate(10,2) scale(1,1)"><g><path fill="none" stroke="none"/><text fill="#000000" font-family="Arial" font-size="13px" font-style="normal" font-weight="normal" stroke="none" text-decoration="none" x="893" y="136">+date</text></g></g><g transform="translate(10,2) scale(1,1)"><path d="M 641 117 L 887 116" fill="none" stroke="#000000" stroke-miterlimit="10"/></g><g transform="translate(10,2) scale(1,1)"><path d="M 876.8545208275931 120.25079432133086 L 887 116 L 876.8202973887619 111.83182836884656" fill="none" stroke="#000000" stroke-miterlimit="10"/></g><g transform="translate(10,2) scale(1,1)"><g><path fill="none" stroke="none"/><text fill="#000000" font-family="Arial" font-size="13px" font-style="normal" font-weight="normal" stroke="none" text-decoration="none" x="735.5" y="106">+consulte</text></g></g><g transform="translate(10,2) scale(1,1)"><g><path fill="none" stroke="none"/><text fill="#000000" font-family="Arial" font-size="13px" font-style="normal" font-weight="normal" stroke="none" text-decoration="none" x="658.5" y="134">1</text></g></g><g transform="translate(10,2) scale(1,1)"><g><path fill="none" stroke="none"/><text fill="#000000" font-family="Arial" font-size="13px" font-style="normal" font-weight="normal" stroke="none" text-decoration="none" x="855.5" y="133">1..*</text></g></g></g></svg>