<?xml version="1.0" encoding="UTF-8" standalone="no"?><svg xmlns="http://www.w3.org/2000/svg" xmlns:xlink="http://www.w3.org/1999/xlink" height="1144" version="1.1" width="940.47265625"><defs/><g><g transform="translate(10,-30) scale(1,1)"><path d="M 0 1112 L 691 1112 L 691 1164 L 0 1164 L 0 1112" fill="none" stroke="#000000" stroke-miterlimit="10"/></g><g transform="translate(10,-30) scale(1,1)"><path d="M 0 1112 L 0 1134 L 144.63525390625 1134 L 155.63525390625 1123 L 155.63525390625 1112 L 0 1112" fill="#ffffff" stroke="none"/></g><g transform="translate(10,-30) scale(1,1)"><path d="M 0 1112 L 0 1134 L 144.63525390625 1134 L 155.63525390625 1123 L 155.63525390625 1112 L 0 1112 L 0 1112" fill="none" stroke="#000000" stroke-miterlimit="10"/></g><g transform="translate(10,-30) scale(1,1)"><g><path fill="none" stroke="none"/><text fill="#000000" font-family="Arial" font-size="13px" font-style="normal" font-weight="normal" stroke="none" text-decoration="none" x="24.72998046875" y="1128">SequenceDiagram1</text></g></g><g transform="translate(10,-30) scale(1,1)"><g><path fill="none" stroke="none"/><text fill="#000000" font-family="Arial" font-size="13px" font-style="normal" font-weight="bold" stroke="none" text-decoration="none" x="4.279541015625" y="1128">sd</text></g></g><g transform="translate(10,-30) scale(1,1)"><rect fill="#C0C0C0" height="39" opacity="0.2" stroke="none" width="81.130859375" x="79" y="47"/></g><g transform="translate(10,-30) scale(1,1)"><rect fill="#ffffff" height="39" stroke="none" width="81.130859375" x="72" y="40"/></g><g transform="translate(10,-30) scale(1,1)"><path d="M 72 40 L 153.130859375 40 L 153.130859375 79 L 72 79 L 72 40 Z Z" fill="none" stroke="#000000" stroke-miterlimit="10"/></g><g transform="translate(10,-30) scale(1,1)"><g><path fill="none" stroke="none"/><text fill="#000000" font-family="Arial" font-size="13px" font-style="normal" font-weight="bold" stroke="none" text-decoration="none" x="81.5" y="58">encadrant</text></g></g><g transform="translate(10,-30) scale(1,1)"><path d="M 113.5 80 L 113.5 968" fill="none" stroke="#000000" stroke-dasharray="3" stroke-miterlimit="10"/></g><g transform="translate(10,-30) scale(1,1)"><rect fill="#C0C0C0" height="39" opacity="0.2" stroke="none" width="89.8017578125" x="263" y="47"/></g><g transform="translate(10,-30) scale(1,1)"><rect fill="#ffffff" height="39" stroke="none" width="89.8017578125" x="256" y="40"/></g><g transform="translate(10,-30) scale(1,1)"><path d="M 256 40 L 345.8017578125 40 L 345.8017578125 79 L 256 79 L 256 40 Z Z" fill="none" stroke="#000000" stroke-miterlimit="10"/></g><g transform="translate(10,-30) scale(1,1)"><g><path fill="none" stroke="none"/><text fill="#000000" font-family="Arial" font-size="13px" font-style="normal" font-weight="bold" stroke="none" text-decoration="none" x="265.5" y="58">Interface Ui</text></g></g><g transform="translate(10,-30) scale(1,1)"><path d="M 301.5 80 L 301.5 974" fill="none" stroke="#000000" stroke-dasharray="3" stroke-miterlimit="10"/></g><g transform="translate(10,-30) scale(1,1)"><rect fill="#C0C0C0" height="39" opacity="0.2" stroke="none" width="124.47900390625" x="471" y="47"/></g><g transform="translate(10,-30) scale(1,1)"><rect fill="#ffffff" height="39" stroke="none" width="124.47900390625" x="464" y="40"/></g><g transform="translate(10,-30) scale(1,1)"><path d="M 464 40 L 588.47900390625 40 L 588.47900390625 79 L 464 79 L 464 40 Z Z" fill="none" stroke="#000000" stroke-miterlimit="10"/></g><g transform="translate(10,-30) scale(1,1)"><g><path fill="none" stroke="none"/><text fill="#000000" font-family="Arial" font-size="13px" font-style="normal" font-weight="bold" stroke="none" text-decoration="none" x="473.5" y="58">base de données</text></g></g><g transform="translate(10,-30) scale(1,1)"><path d="M 527.5 80 L 527.5 984" fill="none" stroke="#000000" stroke-dasharray="3" stroke-miterlimit="10"/></g><g transform="translate(10,-30) scale(1,1)"><rect fill="#C0C0C0" height="39" opacity="0.2" stroke="none" width="71.736328125" x="735" y="47"/></g><g transform="translate(10,-30) scale(1,1)"><rect fill="#ffffff" height="39" stroke="none" width="71.736328125" x="728" y="40"/></g><g transform="translate(10,-30) scale(1,1)"><path d="M 728 40 L 799.736328125 40 L 799.736328125 79 L 728 79 L 728 40 Z Z" fill="none" stroke="#000000" stroke-miterlimit="10"/></g><g transform="translate(10,-30) scale(1,1)"><g><path fill="none" stroke="none"/><text fill="#000000" font-family="Arial" font-size="13px" font-style="normal" font-weight="bold" stroke="none" text-decoration="none" x="743.273193359375" y="58">tâches</text></g></g><g transform="translate(10,-30) scale(1,1)"><path d="M 764.5 80 L 764.5 984" fill="none" stroke="#000000" stroke-dasharray="3" stroke-miterlimit="10"/></g><g transform="translate(10,-30) scale(1,1)"><rect fill="#C0C0C0" height="39" opacity="0.2" stroke="none" width="72.47265625" x="855" y="47"/></g><g transform="translate(10,-30) scale(1,1)"><rect fill="#ffffff" height="39" stroke="none" width="72.47265625" x="848" y="40"/></g><g transform="translate(10,-30) scale(1,1)"><path d="M 848 40 L 920.47265625 40 L 920.47265625 79 L 848 79 L 848 40 Z Z" fill="none" stroke="#000000" stroke-miterlimit="10"/></g><g transform="translate(10,-30) scale(1,1)"><g><path fill="none" stroke="none"/><text fill="#000000" font-family="Arial" font-size="13px" font-style="normal" font-weight="bold" stroke="none" text-decoration="none" x="857.5" y="58">stagiaire</text></g></g><g transform="translate(10,-30) scale(1,1)"><path d="M 885.5 80 L 885.5 976" fill="none" stroke="#000000" stroke-dasharray="3" stroke-miterlimit="10"/></g><g transform="translate(10,-30) scale(1,1)"><path d="M 113 128 L 294 128" fill="none" stroke="#000000" stroke-miterlimit="10"/></g><g transform="translate(10,-30) scale(1,1)"><path d="M 283.83732514237585 132.209517756016 L 294 128 L 283.83732514237585 123.79048224398402" fill="#000000" stroke="none"/></g><g transform="translate(10,-30) scale(1,1)"><path d="M 283.83732514237585 132.209517756016 L 294 128 L 283.83732514237585 123.79048224398402 L 283.83732514237585 132.209517756016" fill="none" stroke="#000000" stroke-miterlimit="10"/></g><g transform="translate(10,-30) scale(1,1)"><g><path fill="none" stroke="none"/><text fill="#000000" font-family="Arial" font-size="13px" font-style="normal" font-weight="normal" stroke="none" text-decoration="none" x="128.5" y="123">1 : OuvrirEspaceStagiaire</text></g></g><g transform="translate(10,-30) scale(1,1)"><rect fill="#ffffff" height="28" stroke="none" width="13" x="294" y="128"/></g><g transform="translate(10,-30) scale(1,1)"><path d="M 294 128 L 307 128 L 307 156 L 294 156 L 294 128 Z Z" fill="none" stroke="#000000" stroke-miterlimit="10"/></g><g transform="translate(10,-30) scale(1,1)"><path d="M 113 192 L 294 192" fill="none" stroke="#000000" stroke-miterlimit="10"/></g><g transform="translate(10,-30) scale(1,1)"><path d="M 283.83732514237585 196.209517756016 L 294 192 L 283.83732514237585 187.790482243984" fill="#000000" stroke="none"/></g><g transform="translate(10,-30) scale(1,1)"><path d="M 283.83732514237585 196.209517756016 L 294 192 L 283.83732514237585 187.790482243984 L 283.83732514237585 196.209517756016" fill="none" stroke="#000000" stroke-miterlimit="10"/></g><g transform="translate(10,-30) scale(1,1)"><g><path fill="none" stroke="none"/><text fill="#000000" font-family="Arial" font-size="13px" font-style="normal" font-weight="normal" stroke="none" text-decoration="none" x="132.5" y="187">2 : OuvrirTâcheStagiaire</text></g></g><g transform="translate(10,-30) scale(1,1)"><rect fill="#ffffff" height="28" stroke="none" width="13" x="294" y="192"/></g><g transform="translate(10,-30) scale(1,1)"><path d="M 294 192 L 307 192 L 307 220 L 294 220 L 294 192 Z Z" fill="none" stroke="#000000" stroke-miterlimit="10"/></g><g transform="translate(10,-30) scale(1,1)"><path d="M 307 199 L 520 199" fill="none" stroke="#000000" stroke-miterlimit="10"/></g><g transform="translate(10,-30) scale(1,1)"><path d="M 509.83732514237585 203.209517756016 L 520 199 L 509.83732514237585 194.790482243984" fill="#000000" stroke="none"/></g><g transform="translate(10,-30) scale(1,1)"><path d="M 509.83732514237585 203.209517756016 L 520 199 L 509.83732514237585 194.790482243984 L 509.83732514237585 203.209517756016" fill="none" stroke="#000000" stroke-miterlimit="10"/></g><g transform="translate(10,-30) scale(1,1)"><g><path fill="none" stroke="none"/><text fill="#000000" font-family="Arial" font-size="13px" font-style="normal" font-weight="normal" stroke="none" text-decoration="none" x="359.5" y="194">3 : ChargerTâches</text></g></g><g transform="translate(10,-30) scale(1,1)"><rect fill="#ffffff" height="41" stroke="none" width="13" x="520" y="199"/></g><g transform="translate(10,-30) scale(1,1)"><path d="M 520 199 L 533 199 L 533 240 L 520 240 L 520 199 Z Z" fill="none" stroke="#000000" stroke-miterlimit="10"/></g><g transform="translate(10,-30) scale(1,1)"><path d="M 533 210 L 757 210" fill="none" stroke="#000000" stroke-miterlimit="10"/></g><g transform="translate(10,-30) scale(1,1)"><path d="M 746.8373251423759 214.209517756016 L 757 210 L 746.8373251423758 205.790482243984" fill="#000000" stroke="none"/></g><g transform="translate(10,-30) scale(1,1)"><path d="M 746.8373251423759 214.209517756016 L 757 210 L 746.8373251423758 205.790482243984 L 746.8373251423759 214.209517756016" fill="none" stroke="#000000" stroke-miterlimit="10"/></g><g transform="translate(10,-30) scale(1,1)"><g><path fill="none" stroke="none"/><text fill="#000000" font-family="Arial" font-size="13px" font-style="normal" font-weight="normal" stroke="none" text-decoration="none" x="618.509521484375" y="205">4 : select</text></g></g><g transform="translate(10,-30) scale(1,1)"><rect fill="#ffffff" height="28" stroke="none" width="13" x="757" y="210"/></g><g transform="translate(10,-30) scale(1,1)"><path d="M 757 210 L 770 210 L 770 238 L 757 238 L 757 210 Z Z" fill="none" stroke="#000000" stroke-miterlimit="10"/></g><g transform="translate(10,-30) scale(1,1)"><path d="M 757 224 L 533 224" fill="none" stroke="#000000" stroke-dasharray="3" stroke-miterlimit="10"/></g><g transform="translate(10,-30) scale(1,1)"><path d="M 543.1626748576241 219.790482243984 L 533 224 L 543.1626748576241 228.209517756016" fill="none" stroke="#000000" stroke-miterlimit="10"/></g><g transform="translate(10,-30) scale(1,1)"><g><path fill="none" stroke="none"/><text fill="#000000" font-family="Arial" font-size="13px" font-style="normal" font-weight="normal" stroke="none" text-decoration="none" x="608.5" y="239">5 : response</text></g></g><g transform="translate(10,-30) scale(1,1)"><path d="M 527 275 L 307 275" fill="none" stroke="#000000" stroke-miterlimit="10"/></g><g transform="translate(10,-30) scale(1,1)"><path d="M 317.16267485762415 270.790482243984 L 307 275 L 317.16267485762415 279.209517756016" fill="#000000" stroke="none"/></g><g transform="translate(10,-30) scale(1,1)"><path d="M 317.16267485762415 270.790482243984 L 307 275 L 317.16267485762415 279.209517756016 L 317.16267485762415 270.790482243984" fill="none" stroke="#000000" stroke-miterlimit="10"/></g><g transform="translate(10,-30) scale(1,1)"><g><path fill="none" stroke="none"/><text fill="#000000" font-family="Arial" font-size="13px" font-style="normal" font-weight="normal" stroke="none" text-decoration="none" x="363.5" y="290">6 : AfficherTâches</text></g></g><g transform="translate(10,-30) scale(1,1)"><rect fill="#ffffff" height="28" stroke="none" width="13" x="294" y="275"/></g><g transform="translate(10,-30) scale(1,1)"><path d="M 294 275 L 307 275 L 307 303 L 294 303 L 294 275 Z Z" fill="none" stroke="#000000" stroke-miterlimit="10"/></g><g transform="translate(10,-30) scale(1,1)"><path d="M 113 336 L 294 336" fill="none" stroke="#000000" stroke-miterlimit="10"/></g><g transform="translate(10,-30) scale(1,1)"><path d="M 283.83732514237585 340.209517756016 L 294 336 L 283.83732514237585 331.790482243984" fill="#000000" stroke="none"/></g><g transform="translate(10,-30) scale(1,1)"><path d="M 283.83732514237585 340.209517756016 L 294 336 L 283.83732514237585 331.790482243984 L 283.83732514237585 340.209517756016" fill="none" stroke="#000000" stroke-miterlimit="10"/></g><g transform="translate(10,-30) scale(1,1)"><g><path fill="none" stroke="none"/><text fill="#000000" font-family="Arial" font-size="13px" font-style="normal" font-weight="normal" stroke="none" text-decoration="none" x="139.5" y="331">7 : saisir titre du tâche</text></g></g><g transform="translate(10,-30) scale(1,1)"><rect fill="#ffffff" height="28" stroke="none" width="13" x="294" y="336"/></g><g transform="translate(10,-30) scale(1,1)"><path d="M 294 336 L 307 336 L 307 364 L 294 364 L 294 336 Z Z" fill="none" stroke="#000000" stroke-miterlimit="10"/></g><g transform="translate(10,-30) scale(1,1)"><path d="M 113 392 L 294 392" fill="none" stroke="#000000" stroke-miterlimit="10"/></g><g transform="translate(10,-30) scale(1,1)"><path d="M 283.83732514237585 396.209517756016 L 294 392 L 283.83732514237585 387.790482243984" fill="#000000" stroke="none"/></g><g transform="translate(10,-30) scale(1,1)"><path d="M 283.83732514237585 396.209517756016 L 294 392 L 283.83732514237585 387.790482243984 L 283.83732514237585 396.209517756016" fill="none" stroke="#000000" stroke-miterlimit="10"/></g><g transform="translate(10,-30) scale(1,1)"><g><path fill="none" stroke="none"/><text fill="#000000" font-family="Arial" font-size="13px" font-style="normal" font-weight="normal" stroke="none" text-decoration="none" x="118.5" y="387">8 : saisir description du tâche</text></g></g><g transform="translate(10,-30) scale(1,1)"><rect fill="#ffffff" height="28" stroke="none" width="13" x="294" y="392"/></g><g transform="translate(10,-30) scale(1,1)"><path d="M 294 392 L 307 392 L 307 420 L 294 420 L 294 392 Z Z" fill="none" stroke="#000000" stroke-miterlimit="10"/></g><g transform="translate(10,-30) scale(1,1)"><path d="M 113 450 L 294 450" fill="none" stroke="#000000" stroke-miterlimit="10"/></g><g transform="translate(10,-30) scale(1,1)"><path d="M 283.83732514237585 454.209517756016 L 294 450 L 283.83732514237585 445.790482243984" fill="#000000" stroke="none"/></g><g transform="translate(10,-30) scale(1,1)"><path d="M 283.83732514237585 454.209517756016 L 294 450 L 283.83732514237585 445.790482243984 L 283.83732514237585 454.209517756016" fill="none" stroke="#000000" stroke-miterlimit="10"/></g><g transform="translate(10,-30) scale(1,1)"><g><path fill="none" stroke="none"/><text fill="#000000" font-family="Arial" font-size="13px" font-style="normal" font-weight="normal" stroke="none" text-decoration="none" x="119.5" y="445">9 : cliquer sur "ajouter tâche"</text></g></g><g transform="translate(10,-30) scale(1,1)"><rect fill="#ffffff" height="54" stroke="none" width="13" x="294" y="450"/></g><g transform="translate(10,-30) scale(1,1)"><path d="M 294 450 L 307 450 L 307 504 L 294 504 L 294 450 Z Z" fill="none" stroke="#000000" stroke-miterlimit="10"/></g><g transform="translate(10,-30) scale(1,1)"><path d="M 307 464 L 520 464" fill="none" stroke="#000000" stroke-miterlimit="10"/></g><g transform="translate(10,-30) scale(1,1)"><path d="M 509.83732514237585 468.209517756016 L 520 464 L 509.83732514237585 459.790482243984" fill="#000000" stroke="none"/></g><g transform="translate(10,-30) scale(1,1)"><path d="M 509.83732514237585 468.209517756016 L 520 464 L 509.83732514237585 459.790482243984 L 509.83732514237585 468.209517756016" fill="none" stroke="#000000" stroke-miterlimit="10"/></g><g transform="translate(10,-30) scale(1,1)"><g><path fill="none" stroke="none"/><text fill="#000000" font-family="Arial" font-size="13px" font-style="normal" font-weight="normal" stroke="none" text-decoration="none" x="368.5" y="459">10 : requête sql</text></g></g><g transform="translate(10,-30) scale(1,1)"><rect fill="#ffffff" height="44" stroke="none" width="13" x="520" y="464"/></g><g transform="translate(10,-30) scale(1,1)"><path d="M 520 464 L 533 464 L 533 508 L 520 508 L 520 464 Z Z" fill="none" stroke="#000000" stroke-miterlimit="10"/></g><g transform="translate(10,-30) scale(1,1)"><path d="M 533 480 L 757 480" fill="none" stroke="#000000" stroke-miterlimit="10"/></g><g transform="translate(10,-30) scale(1,1)"><path d="M 746.8373251423759 484.209517756016 L 757 480 L 746.8373251423758 475.790482243984" fill="#000000" stroke="none"/></g><g transform="translate(10,-30) scale(1,1)"><path d="M 746.8373251423759 484.209517756016 L 757 480 L 746.8373251423758 475.790482243984 L 746.8373251423759 484.209517756016" fill="none" stroke="#000000" stroke-miterlimit="10"/></g><g transform="translate(10,-30) scale(1,1)"><g><path fill="none" stroke="none"/><text fill="#000000" font-family="Arial" font-size="13px" font-style="normal" font-weight="normal" stroke="none" text-decoration="none" x="588.5" y="474">11 : CréationTâche</text></g></g><g transform="translate(10,-30) scale(1,1)"><rect fill="#ffffff" height="28" stroke="none" width="13" x="757" y="480"/></g><g transform="translate(10,-30) scale(1,1)"><path d="M 757 480 L 770 480 L 770 508 L 757 508 L 757 480 Z Z" fill="none" stroke="#000000" stroke-miterlimit="10"/></g><g transform="translate(10,-30) scale(1,1)"><path d="M 757 498 L 533 498" fill="none" stroke="#000000" stroke-dasharray="3" stroke-miterlimit="10"/></g><g transform="translate(10,-30) scale(1,1)"><path d="M 543.1626748576241 493.790482243984 L 533 498 L 543.1626748576241 502.209517756016" fill="none" stroke="#000000" stroke-miterlimit="10"/></g><g transform="translate(10,-30) scale(1,1)"><g><path fill="none" stroke="none"/><text fill="#000000" font-family="Arial" font-size="13px" font-style="normal" font-weight="normal" stroke="none" text-decoration="none" x="601.5" y="513">12 : tâche crée</text></g></g><g transform="translate(10,-30) scale(1,1)"><path d="M 885 577 L 307 577" fill="none" stroke="#000000" stroke-miterlimit="10"/></g><g transform="translate(10,-30) scale(1,1)"><path d="M 317.16267485762415 572.790482243984 L 307 577 L 317.16267485762415 581.209517756016" fill="#000000" stroke="none"/></g><g transform="translate(10,-30) scale(1,1)"><path d="M 317.16267485762415 572.790482243984 L 307 577 L 317.16267485762415 581.209517756016 L 317.16267485762415 572.790482243984" fill="none" stroke="#000000" stroke-miterlimit="10"/></g><g transform="translate(10,-30) scale(1,1)"><g><path fill="none" stroke="none"/><text fill="#000000" font-family="Arial" font-size="13px" font-style="normal" font-weight="normal" stroke="none" text-decoration="none" x="514.92333984375" y="592">13 : ajouter fichier du travail</text></g></g><g transform="translate(10,-30) scale(1,1)"><rect fill="#ffffff" height="28" stroke="none" width="13" x="294" y="577"/></g><g transform="translate(10,-30) scale(1,1)"><path d="M 294 577 L 307 577 L 307 605 L 294 605 L 294 577 Z Z" fill="none" stroke="#000000" stroke-miterlimit="10"/></g><g transform="translate(10,-30) scale(1,1)"><path d="M 885 648 L 307 648" fill="none" stroke="#000000" stroke-miterlimit="10"/></g><g transform="translate(10,-30) scale(1,1)"><path d="M 317.16267485762415 643.790482243984 L 307 648 L 317.16267485762415 652.209517756016" fill="#000000" stroke="none"/></g><g transform="translate(10,-30) scale(1,1)"><path d="M 317.16267485762415 643.790482243984 L 307 648 L 317.16267485762415 652.209517756016 L 317.16267485762415 643.790482243984" fill="none" stroke="#000000" stroke-miterlimit="10"/></g><g transform="translate(10,-30) scale(1,1)"><g><path fill="none" stroke="none"/><text fill="#000000" font-family="Arial" font-size="13px" font-style="normal" font-weight="normal" stroke="none" text-decoration="none" x="511.5" y="663">14 : cliquer sur ajouter travail</text></g></g><g transform="translate(10,-30) scale(1,1)"><rect fill="#ffffff" height="74" stroke="none" width="13" x="294" y="648"/></g><g transform="translate(10,-30) scale(1,1)"><path d="M 294 648 L 307 648 L 307 722 L 294 722 L 294 648 Z Z" fill="none" stroke="#000000" stroke-miterlimit="10"/></g><g transform="translate(10,-30) scale(1,1)"><path d="M 307 704 L 520 704" fill="none" stroke="#000000" stroke-miterlimit="10"/></g><g transform="translate(10,-30) scale(1,1)"><path d="M 509.83732514237585 708.209517756016 L 520 704 L 509.83732514237585 699.790482243984" fill="#000000" stroke="none"/></g><g transform="translate(10,-30) scale(1,1)"><path d="M 509.83732514237585 708.209517756016 L 520 704 L 509.83732514237585 699.790482243984 L 509.83732514237585 708.209517756016" fill="none" stroke="#000000" stroke-miterlimit="10"/></g><g transform="translate(10,-30) scale(1,1)"><g><path fill="none" stroke="none"/><text fill="#000000" font-family="Arial" font-size="13px" font-style="normal" font-weight="normal" stroke="none" text-decoration="none" x="368.5" y="699">15 : requête sql</text></g></g><g transform="translate(10,-30) scale(1,1)"><rect fill="#ffffff" height="48" stroke="none" width="13" x="520" y="704"/></g><g transform="translate(10,-30) scale(1,1)"><path d="M 520 704 L 533 704 L 533 752 L 520 752 L 520 704 Z Z" fill="none" stroke="#000000" stroke-miterlimit="10"/></g><g transform="translate(10,-30) scale(1,1)"><path d="M 533 720 L 757 720" fill="none" stroke="#000000" stroke-miterlimit="10"/></g><g transform="translate(10,-30) scale(1,1)"><path d="M 746.8373251423759 724.209517756016 L 757 720 L 746.8373251423758 715.790482243984" fill="#000000" stroke="none"/></g><g transform="translate(10,-30) scale(1,1)"><path d="M 746.8373251423759 724.209517756016 L 757 720 L 746.8373251423758 715.790482243984 L 746.8373251423759 724.209517756016" fill="none" stroke="#000000" stroke-miterlimit="10"/></g><g transform="translate(10,-30) scale(1,1)"><g><path fill="none" stroke="none"/><text fill="#000000" font-family="Arial" font-size="13px" font-style="normal" font-weight="normal" stroke="none" text-decoration="none" x="527.5" y="712">16 : FaireTâche(tâche,fichier)</text></g></g><g transform="translate(10,-30) scale(1,1)"><rect fill="#ffffff" height="44" stroke="none" width="13" x="757" y="720"/></g><g transform="translate(10,-30) scale(1,1)"><path d="M 757 720 L 770 720 L 770 764 L 757 764 L 757 720 Z Z" fill="none" stroke="#000000" stroke-miterlimit="10"/></g><g transform="translate(10,-30) scale(1,1)"><path d="M 757 744 L 533 744" fill="none" stroke="#000000" stroke-dasharray="3" stroke-miterlimit="10"/></g><g transform="translate(10,-30) scale(1,1)"><path d="M 543.1626748576241 739.790482243984 L 533 744 L 543.1626748576241 748.209517756016" fill="none" stroke="#000000" stroke-miterlimit="10"/></g><g transform="translate(10,-30) scale(1,1)"><g><path fill="none" stroke="none"/><text fill="#000000" font-family="Arial" font-size="13px" font-style="normal" font-weight="normal" stroke="none" text-decoration="none" x="599.5" y="762">17 : travail ajouté</text></g></g><g transform="translate(10,-30) scale(1,1)"><path d="M 527 768 L 301 768" fill="none" stroke="#000000" stroke-dasharray="3" stroke-miterlimit="10"/></g><g transform="translate(10,-30) scale(1,1)"><path d="M 311.16267485762415 763.790482243984 L 301 768 L 311.16267485762415 772.209517756016" fill="none" stroke="#000000" stroke-miterlimit="10"/></g><g transform="translate(10,-30) scale(1,1)"><g><path fill="none" stroke="none"/><text fill="#000000" font-family="Arial" font-size="13px" font-style="normal" font-weight="normal" stroke="none" text-decoration="none" x="360.5" y="783">18 : travail soumis</text></g></g><g transform="translate(10,-30) scale(1,1)"><path d="M 113 840 L 294 840" fill="none" stroke="#000000" stroke-miterlimit="10"/></g><g transform="translate(10,-30) scale(1,1)"><path d="M 283.83732514237585 844.209517756016 L 294 840 L 283.83732514237585 835.790482243984" fill="#000000" stroke="none"/></g><g transform="translate(10,-30) scale(1,1)"><path d="M 283.83732514237585 844.209517756016 L 294 840 L 283.83732514237585 835.790482243984 L 283.83732514237585 844.209517756016" fill="none" stroke="#000000" stroke-miterlimit="10"/></g><g transform="translate(10,-30) scale(1,1)"><g><path fill="none" stroke="none"/><text fill="#000000" font-family="Arial" font-size="13px" font-style="normal" font-weight="normal" stroke="none" text-decoration="none" x="131.5" y="835">19 : saisir note du Tâche</text></g></g><g transform="translate(10,-30) scale(1,1)"><rect fill="#ffffff" height="48" stroke="none" width="13" x="294" y="840"/></g><g transform="translate(10,-30) scale(1,1)"><path d="M 294 840 L 307 840 L 307 888 L 294 888 L 294 840 Z Z" fill="none" stroke="#000000" stroke-miterlimit="10"/></g><g transform="translate(10,-30) scale(1,1)"><path d="M 307 848 L 520 848" fill="none" stroke="#000000" stroke-miterlimit="10"/></g><g transform="translate(10,-30) scale(1,1)"><path d="M 509.83732514237585 852.209517756016 L 520 848 L 509.83732514237585 843.790482243984" fill="#000000" stroke="none"/></g><g transform="translate(10,-30) scale(1,1)"><path d="M 509.83732514237585 852.209517756016 L 520 848 L 509.83732514237585 843.790482243984 L 509.83732514237585 852.209517756016" fill="none" stroke="#000000" stroke-miterlimit="10"/></g><g transform="translate(10,-30) scale(1,1)"><g><path fill="none" stroke="none"/><text fill="#000000" font-family="Arial" font-size="13px" font-style="normal" font-weight="normal" stroke="none" text-decoration="none" x="368.5" y="843">20 : requête sql</text></g></g><g transform="translate(10,-30) scale(1,1)"><rect fill="#ffffff" height="56" stroke="none" width="13" x="520" y="848"/></g><g transform="translate(10,-30) scale(1,1)"><path d="M 520 848 L 533 848 L 533 904 L 520 904 L 520 848 Z Z" fill="none" stroke="#000000" stroke-miterlimit="10"/></g><g transform="translate(10,-30) scale(1,1)"><path d="M 533 857 L 757 857" fill="none" stroke="#000000" stroke-miterlimit="10"/></g><g transform="translate(10,-30) scale(1,1)"><path d="M 746.8373251423759 861.209517756016 L 757 857 L 746.8373251423758 852.790482243984" fill="#000000" stroke="none"/></g><g transform="translate(10,-30) scale(1,1)"><path d="M 746.8373251423759 861.209517756016 L 757 857 L 746.8373251423758 852.790482243984 L 746.8373251423759 861.209517756016" fill="none" stroke="#000000" stroke-miterlimit="10"/></g><g transform="translate(10,-30) scale(1,1)"><g><path fill="none" stroke="none"/><text fill="#000000" font-family="Arial" font-size="13px" font-style="normal" font-weight="normal" stroke="none" text-decoration="none" x="551.5" y="851">21 : NoterTâche(tâche,fichier)</text></g></g><g transform="translate(10,-30) scale(1,1)"><rect fill="#ffffff" height="28" stroke="none" width="13" x="757" y="857"/></g><g transform="translate(10,-30) scale(1,1)"><path d="M 757 857 L 770 857 L 770 885 L 757 885 L 757 857 Z Z" fill="none" stroke="#000000" stroke-miterlimit="10"/></g><g transform="translate(10,-30) scale(1,1)"><path d="M 757 882 L 533 882" fill="none" stroke="#000000" stroke-dasharray="3" stroke-miterlimit="10"/></g><g transform="translate(10,-30) scale(1,1)"><path d="M 543.1626748576241 877.790482243984 L 533 882 L 543.1626748576241 886.209517756016" fill="none" stroke="#000000" stroke-miterlimit="10"/></g><g transform="translate(10,-30) scale(1,1)"><g><path fill="none" stroke="none"/><text fill="#000000" font-family="Arial" font-size="13px" font-style="normal" font-weight="normal" stroke="none" text-decoration="none" x="595.5" y="897">22 : Tâche notée</text></g></g><g transform="translate(10,-30) scale(1,1)"><path d="M 527 932 L 307 932" fill="none" stroke="#000000" stroke-miterlimit="10"/></g><g transform="translate(10,-30) scale(1,1)"><path d="M 317.16267485762415 927.790482243984 L 307 932 L 317.16267485762415 936.209517756016" fill="#000000" stroke="none"/></g><g transform="translate(10,-30) scale(1,1)"><path d="M 317.16267485762415 927.790482243984 L 307 932 L 317.16267485762415 936.209517756016 L 317.16267485762415 927.790482243984" fill="none" stroke="#000000" stroke-miterlimit="10"/></g><g transform="translate(10,-30) scale(1,1)"><g><path fill="none" stroke="none"/><text fill="#000000" font-family="Arial" font-size="13px" font-style="normal" font-weight="normal" stroke="none" text-decoration="none" x="367.5" y="947">23 : note ajoutée</text></g></g><g transform="translate(10,-30) scale(1,1)"><rect fill="#ffffff" height="28" stroke="none" width="13" x="294" y="932"/></g><g transform="translate(10,-30) scale(1,1)"><path d="M 294 932 L 307 932 L 307 960 L 294 960 L 294 932 Z Z" fill="none" stroke="#000000" stroke-miterlimit="10"/></g></g></svg>