<?xml version="1.0" encoding="UTF-8" standalone="no"?><svg xmlns="http://www.w3.org/2000/svg" xmlns:xlink="http://www.w3.org/1999/xlink" height="1056" version="1.1" width="964"><defs/><g><g transform="translate(10,-30) scale(1,1)"><path d="M 0 1024 L 691 1024 L 691 1076 L 0 1076 L 0 1024" fill="none" stroke="#000000" stroke-miterlimit="10"/></g><g transform="translate(10,-30) scale(1,1)"><path d="M 0 1024 L 0 1046 L 144.63525390625 1046 L 155.63525390625 1035 L 155.63525390625 1024 L 0 1024" fill="#ffffff" stroke="none"/></g><g transform="translate(10,-30) scale(1,1)"><path d="M 0 1024 L 0 1046 L 144.63525390625 1046 L 155.63525390625 1035 L 155.63525390625 1024 L 0 1024 L 0 1024" fill="none" stroke="#000000" stroke-miterlimit="10"/></g><g transform="translate(10,-30) scale(1,1)"><g><path fill="none" stroke="none"/><text fill="#000000" font-family="Arial" font-size="13px" font-style="normal" font-weight="normal" stroke="none" text-decoration="none" x="24.72998046875" y="1040">SequenceDiagram1</text></g></g><g transform="translate(10,-30) scale(1,1)"><g><path fill="none" stroke="none"/><text fill="#000000" font-family="Arial" font-size="13px" font-style="normal" font-weight="bold" stroke="none" text-decoration="none" x="4.279541015625" y="1040">sd</text></g></g><g transform="translate(10,-30) scale(1,1)"><rect fill="#C0C0C0" height="39" opacity="0.2" stroke="none" width="71.736328125" x="47" y="47"/></g><g transform="translate(10,-30) scale(1,1)"><rect fill="#ffffff" height="39" stroke="none" width="71.736328125" x="40" y="40"/></g><g transform="translate(10,-30) scale(1,1)"><path d="M 40 40 L 111.736328125 40 L 111.736328125 79 L 40 79 L 40 40 Z Z" fill="none" stroke="#000000" stroke-miterlimit="10"/></g><g transform="translate(10,-30) scale(1,1)"><g><path fill="none" stroke="none"/><text fill="#000000" font-family="Arial" font-size="13px" font-style="normal" font-weight="bold" stroke="none" text-decoration="none" x="58.891357421875" y="58">client</text></g></g><g transform="translate(10,-30) scale(1,1)"><path d="M 76.5 80 L 76.5 656" fill="none" stroke="#000000" stroke-dasharray="3" stroke-miterlimit="10"/></g><g transform="translate(10,-30) scale(1,1)"><rect fill="#C0C0C0" height="39" opacity="0.2" stroke="none" width="89.8017578125" x="303" y="47"/></g><g transform="translate(10,-30) scale(1,1)"><rect fill="#ffffff" height="39" stroke="none" width="89.8017578125" x="296" y="40"/></g><g transform="translate(10,-30) scale(1,1)"><path d="M 296 40 L 385.8017578125 40 L 385.8017578125 79 L 296 79 L 296 40 Z Z" fill="none" stroke="#000000" stroke-miterlimit="10"/></g><g transform="translate(10,-30) scale(1,1)"><g><path fill="none" stroke="none"/><text fill="#000000" font-family="Arial" font-size="13px" font-style="normal" font-weight="bold" stroke="none" text-decoration="none" x="305.5" y="58">interface UI</text></g></g><g transform="translate(10,-30) scale(1,1)"><path d="M 341.5 80 L 341.5 656" fill="none" stroke="#000000" stroke-dasharray="3" stroke-miterlimit="10"/></g><g transform="translate(10,-30) scale(1,1)"><rect fill="#C0C0C0" height="39" opacity="0.2" stroke="none" width="124.47900390625" x="527" y="47"/></g><g transform="translate(10,-30) scale(1,1)"><rect fill="#ffffff" height="39" stroke="none" width="124.47900390625" x="520" y="40"/></g><g transform="translate(10,-30) scale(1,1)"><path d="M 520 40 L 644.47900390625 40 L 644.47900390625 79 L 520 79 L 520 40 Z Z" fill="none" stroke="#000000" stroke-miterlimit="10"/></g><g transform="translate(10,-30) scale(1,1)"><g><path fill="none" stroke="none"/><text fill="#000000" font-family="Arial" font-size="13px" font-style="normal" font-weight="bold" stroke="none" text-decoration="none" x="529.5" y="58">base de données</text></g></g><g transform="translate(10,-30) scale(1,1)"><path d="M 583.5 80 L 583.5 666" fill="none" stroke="#000000" stroke-dasharray="3" stroke-miterlimit="10"/></g><g transform="translate(10,-30) scale(1,1)"><rect fill="#C0C0C0" height="39" opacity="0.2" stroke="none" width="175.75537109375" x="759" y="47"/></g><g transform="translate(10,-30) scale(1,1)"><rect fill="#ffffff" height="39" stroke="none" width="175.75537109375" x="752" y="40"/></g><g transform="translate(10,-30) scale(1,1)"><path d="M 752 40 L 927.75537109375 40 L 927.75537109375 79 L 752 79 L 752 40 Z Z" fill="none" stroke="#000000" stroke-miterlimit="10"/></g><g transform="translate(10,-30) scale(1,1)"><g><path fill="none" stroke="none"/><text fill="#000000" font-family="Arial" font-size="13px" font-style="normal" font-weight="bold" stroke="none" text-decoration="none" x="761.85546875" y="58">Assurances Automobiles</text></g></g><g transform="translate(10,-30) scale(1,1)"><path d="M 840.5 80 L 840.5 656" fill="none" stroke="#000000" stroke-dasharray="3" stroke-miterlimit="10"/></g><g transform="translate(10,-30) scale(1,1)"><path d="M 76 113 L 334 113" fill="none" stroke="#000000" stroke-miterlimit="10"/></g><g transform="translate(10,-30) scale(1,1)"><path d="M 323.83732514237585 117.20951775601598 L 334 113 L 323.83732514237585 108.79048224398402" fill="#000000" stroke="none"/></g><g transform="translate(10,-30) scale(1,1)"><path d="M 323.83732514237585 117.20951775601598 L 334 113 L 323.83732514237585 108.79048224398402 L 323.83732514237585 117.20951775601598" fill="none" stroke="#000000" stroke-miterlimit="10"/></g><g transform="translate(10,-30) scale(1,1)"><g><path fill="none" stroke="none"/><text fill="#000000" font-family="Arial" font-size="13px" font-style="normal" font-weight="normal" stroke="none" text-decoration="none" x="113.397705078125" y="108">1 : ChargerPageAssuranceAuto</text></g></g><g transform="translate(10,-30) scale(1,1)"><rect fill="#ffffff" height="87" stroke="none" width="13" x="334" y="113"/></g><g transform="translate(10,-30) scale(1,1)"><path d="M 334 113 L 347 113 L 347 200 L 334 200 L 334 113 Z Z" fill="none" stroke="#000000" stroke-miterlimit="10"/></g><g transform="translate(10,-30) scale(1,1)"><path d="M 347 130 L 576 130" fill="none" stroke="#000000" stroke-miterlimit="10"/></g><g transform="translate(10,-30) scale(1,1)"><path d="M 565.8373251423759 134.209517756016 L 576 130 L 565.8373251423758 125.79048224398402" fill="#000000" stroke="none"/></g><g transform="translate(10,-30) scale(1,1)"><path d="M 565.8373251423759 134.209517756016 L 576 130 L 565.8373251423758 125.79048224398402 L 565.8373251423759 134.209517756016" fill="none" stroke="#000000" stroke-miterlimit="10"/></g><g transform="translate(10,-30) scale(1,1)"><g><path fill="none" stroke="none"/><text fill="#000000" font-family="Arial" font-size="13px" font-style="normal" font-weight="normal" stroke="none" text-decoration="none" x="353.397705078125" y="125">2 : ChargerDemandeAssurancesAuto</text></g></g><g transform="translate(10,-30) scale(1,1)"><rect fill="#ffffff" height="62" stroke="none" width="13" x="576" y="130"/></g><g transform="translate(10,-30) scale(1,1)"><path d="M 576 130 L 589 130 L 589 192 L 576 192 L 576 130 Z Z" fill="none" stroke="#000000" stroke-miterlimit="10"/></g><g transform="translate(10,-30) scale(1,1)"><path d="M 589 138 L 833 138" fill="none" stroke="#000000" stroke-miterlimit="10"/></g><g transform="translate(10,-30) scale(1,1)"><path d="M 822.8373251423759 142.209517756016 L 833 138 L 822.8373251423758 133.790482243984" fill="#000000" stroke="none"/></g><g transform="translate(10,-30) scale(1,1)"><path d="M 822.8373251423759 142.209517756016 L 833 138 L 822.8373251423758 133.790482243984 L 822.8373251423759 142.209517756016" fill="none" stroke="#000000" stroke-miterlimit="10"/></g><g transform="translate(10,-30) scale(1,1)"><g><path fill="none" stroke="none"/><text fill="#000000" font-family="Arial" font-size="13px" font-style="normal" font-weight="normal" stroke="none" text-decoration="none" x="684.509521484375" y="133">3 : select</text></g></g><g transform="translate(10,-30) scale(1,1)"><rect fill="#ffffff" height="28" stroke="none" width="13" x="833" y="138"/></g><g transform="translate(10,-30) scale(1,1)"><path d="M 833 138 L 846 138 L 846 166 L 833 166 L 833 138 Z Z" fill="none" stroke="#000000" stroke-miterlimit="10"/></g><g transform="translate(10,-30) scale(1,1)"><path d="M 833 154 L 589 154" fill="none" stroke="#000000" stroke-dasharray="3" stroke-miterlimit="10"/></g><g transform="translate(10,-30) scale(1,1)"><path d="M 599.1626748576241 149.790482243984 L 589 154 L 599.1626748576241 158.209517756016" fill="none" stroke="#000000" stroke-miterlimit="10"/></g><g transform="translate(10,-30) scale(1,1)"><g><path fill="none" stroke="none"/><text fill="#000000" font-family="Arial" font-size="13px" font-style="normal" font-weight="normal" stroke="none" text-decoration="none" x="674.5" y="169">4 : response</text></g></g><g transform="translate(10,-30) scale(1,1)"><path d="M 576 184 L 347 184" fill="none" stroke="#000000" stroke-dasharray="3" stroke-miterlimit="10"/></g><g transform="translate(10,-30) scale(1,1)"><path d="M 357.16267485762415 179.790482243984 L 347 184 L 357.16267485762415 188.209517756016" fill="none" stroke="#000000" stroke-miterlimit="10"/></g><g transform="translate(10,-30) scale(1,1)"><g><path fill="none" stroke="none"/><text fill="#000000" font-family="Arial" font-size="13px" font-style="normal" font-weight="normal" stroke="none" text-decoration="none" x="360.397705078125" y="199">5 : Charger(Page Assurance Auto)</text></g></g><g transform="translate(10,-30) scale(1,1)"><path d="M 76 248 L 334 248" fill="none" stroke="#000000" stroke-miterlimit="10"/></g><g transform="translate(10,-30) scale(1,1)"><path d="M 323.83732514237585 252.209517756016 L 334 248 L 323.83732514237585 243.790482243984" fill="#000000" stroke="none"/></g><g transform="translate(10,-30) scale(1,1)"><path d="M 323.83732514237585 252.209517756016 L 334 248 L 323.83732514237585 243.790482243984 L 323.83732514237585 252.209517756016" fill="none" stroke="#000000" stroke-miterlimit="10"/></g><g transform="translate(10,-30) scale(1,1)"><g><path fill="none" stroke="none"/><text fill="#000000" font-family="Arial" font-size="13px" font-style="normal" font-weight="normal" stroke="none" text-decoration="none" x="119.5" y="243">6 : saisir marque de la voiture</text></g></g><g transform="translate(10,-30) scale(1,1)"><rect fill="#ffffff" height="28" stroke="none" width="13" x="334" y="248"/></g><g transform="translate(10,-30) scale(1,1)"><path d="M 334 248 L 347 248 L 347 276 L 334 276 L 334 248 Z Z" fill="none" stroke="#000000" stroke-miterlimit="10"/></g><g transform="translate(10,-30) scale(1,1)"><path d="M 76 296 L 334 296" fill="none" stroke="#000000" stroke-miterlimit="10"/></g><g transform="translate(10,-30) scale(1,1)"><path d="M 323.83732514237585 300.209517756016 L 334 296 L 323.83732514237585 291.790482243984" fill="#000000" stroke="none"/></g><g transform="translate(10,-30) scale(1,1)"><path d="M 323.83732514237585 300.209517756016 L 334 296 L 323.83732514237585 291.790482243984 L 323.83732514237585 300.209517756016" fill="none" stroke="#000000" stroke-miterlimit="10"/></g><g transform="translate(10,-30) scale(1,1)"><g><path fill="none" stroke="none"/><text fill="#000000" font-family="Arial" font-size="13px" font-style="normal" font-weight="normal" stroke="none" text-decoration="none" x="97.2763671875" y="291">7 : saisir Date de première circulation</text></g></g><g transform="translate(10,-30) scale(1,1)"><rect fill="#ffffff" height="28" stroke="none" width="13" x="334" y="296"/></g><g transform="translate(10,-30) scale(1,1)"><path d="M 334 296 L 347 296 L 347 324 L 334 324 L 334 296 Z Z" fill="none" stroke="#000000" stroke-miterlimit="10"/></g><g transform="translate(10,-30) scale(1,1)"><path d="M 76 352 L 334 352" fill="none" stroke="#000000" stroke-miterlimit="10"/></g><g transform="translate(10,-30) scale(1,1)"><path d="M 323.83732514237585 356.209517756016 L 334 352 L 323.83732514237585 347.790482243984" fill="#000000" stroke="none"/></g><g transform="translate(10,-30) scale(1,1)"><path d="M 323.83732514237585 356.209517756016 L 334 352 L 323.83732514237585 347.790482243984 L 323.83732514237585 356.209517756016" fill="none" stroke="#000000" stroke-miterlimit="10"/></g><g transform="translate(10,-30) scale(1,1)"><g><path fill="none" stroke="none"/><text fill="#000000" font-family="Arial" font-size="13px" font-style="normal" font-weight="normal" stroke="none" text-decoration="none" x="161.5" y="347">8 : saisir usage</text></g></g><g transform="translate(10,-30) scale(1,1)"><rect fill="#ffffff" height="28" stroke="none" width="13" x="334" y="352"/></g><g transform="translate(10,-30) scale(1,1)"><path d="M 334 352 L 347 352 L 347 380 L 334 380 L 334 352 Z Z" fill="none" stroke="#000000" stroke-miterlimit="10"/></g><g transform="translate(10,-30) scale(1,1)"><path d="M 76 402 L 334 402" fill="none" stroke="#000000" stroke-miterlimit="10"/></g><g transform="translate(10,-30) scale(1,1)"><path d="M 323.83732514237585 406.209517756016 L 334 402 L 323.83732514237585 397.790482243984" fill="#000000" stroke="none"/></g><g transform="translate(10,-30) scale(1,1)"><path d="M 323.83732514237585 406.209517756016 L 334 402 L 323.83732514237585 397.790482243984 L 323.83732514237585 406.209517756016" fill="none" stroke="#000000" stroke-miterlimit="10"/></g><g transform="translate(10,-30) scale(1,1)"><g><path fill="none" stroke="none"/><text fill="#000000" font-family="Arial" font-size="13px" font-style="normal" font-weight="normal" stroke="none" text-decoration="none" x="110.5" y="397">9 : cliquer sur "ajouter demande"</text></g></g><g transform="translate(10,-30) scale(1,1)"><rect fill="#ffffff" height="54" stroke="none" width="13" x="334" y="402"/></g><g transform="translate(10,-30) scale(1,1)"><path d="M 334 402 L 347 402 L 347 456 L 334 456 L 334 402 Z Z" fill="none" stroke="#000000" stroke-miterlimit="10"/></g><g transform="translate(10,-30) scale(1,1)"><path d="M 347 409 L 576 409" fill="none" stroke="#000000" stroke-miterlimit="10"/></g><g transform="translate(10,-30) scale(1,1)"><path d="M 565.8373251423759 413.209517756016 L 576 409 L 565.8373251423758 404.790482243984" fill="#000000" stroke="none"/></g><g transform="translate(10,-30) scale(1,1)"><path d="M 565.8373251423759 413.209517756016 L 576 409 L 565.8373251423758 404.790482243984 L 565.8373251423759 413.209517756016" fill="none" stroke="#000000" stroke-miterlimit="10"/></g><g transform="translate(10,-30) scale(1,1)"><g><path fill="none" stroke="none"/><text fill="#000000" font-family="Arial" font-size="13px" font-style="normal" font-weight="normal" stroke="none" text-decoration="none" x="416.5" y="404">10 : requête sql</text></g></g><g transform="translate(10,-30) scale(1,1)"><rect fill="#ffffff" height="71" stroke="none" width="13" x="576" y="409"/></g><g transform="translate(10,-30) scale(1,1)"><path d="M 576 409 L 589 409 L 589 480 L 576 480 L 576 409 Z Z" fill="none" stroke="#000000" stroke-miterlimit="10"/></g><g transform="translate(10,-30) scale(1,1)"><path d="M 589 448 L 833 448" fill="none" stroke="#000000" stroke-miterlimit="10"/></g><g transform="translate(10,-30) scale(1,1)"><path d="M 822.8373251423759 452.209517756016 L 833 448 L 822.8373251423758 443.790482243984" fill="#000000" stroke="none"/></g><g transform="translate(10,-30) scale(1,1)"><path d="M 822.8373251423759 452.209517756016 L 833 448 L 822.8373251423758 443.790482243984 L 822.8373251423759 452.209517756016" fill="none" stroke="#000000" stroke-miterlimit="10"/></g><g transform="translate(10,-30) scale(1,1)"><g><path fill="none" stroke="none"/><text fill="#000000" font-family="Arial" font-size="13px" font-style="normal" font-weight="normal" stroke="none" text-decoration="none" x="582.982421875" y="443">11 : CréationDemandeAssuranceAutomobile</text></g></g><g transform="translate(10,-30) scale(1,1)"><rect fill="#ffffff" height="28" stroke="none" width="13" x="833" y="448"/></g><g transform="translate(10,-30) scale(1,1)"><path d="M 833 448 L 846 448 L 846 476 L 833 476 L 833 448 Z Z" fill="none" stroke="#000000" stroke-miterlimit="10"/></g><g transform="translate(10,-30) scale(1,1)"><path d="M 833 468 L 589 468" fill="none" stroke="#000000" stroke-dasharray="3" stroke-miterlimit="10"/></g><g transform="translate(10,-30) scale(1,1)"><path d="M 599.1626748576241 463.790482243984 L 589 468 L 599.1626748576241 472.209517756016" fill="none" stroke="#000000" stroke-miterlimit="10"/></g><g transform="translate(10,-30) scale(1,1)"><g><path fill="none" stroke="none"/><text fill="#000000" font-family="Arial" font-size="13px" font-style="normal" font-weight="normal" stroke="none" text-decoration="none" x="670.5" y="483">12 : response</text></g></g><g transform="translate(10,-30) scale(1,1)"><path d="M 583 534 L 347 534" fill="none" stroke="#000000" stroke-miterlimit="10"/></g><g transform="translate(10,-30) scale(1,1)"><path d="M 357.16267485762415 529.790482243984 L 347 534 L 357.16267485762415 538.209517756016" fill="#000000" stroke="none"/></g><g transform="translate(10,-30) scale(1,1)"><path d="M 357.16267485762415 529.790482243984 L 347 534 L 357.16267485762415 538.209517756016 L 357.16267485762415 529.790482243984" fill="none" stroke="#000000" stroke-miterlimit="10"/></g><g transform="translate(10,-30) scale(1,1)"><g><path fill="none" stroke="none"/><text fill="#000000" font-family="Arial" font-size="13px" font-style="normal" font-weight="normal" stroke="none" text-decoration="none" x="400.5" y="549">13 : Demande ajoutée</text></g></g><g transform="translate(10,-30) scale(1,1)"><rect fill="#ffffff" height="28" stroke="none" width="13" x="334" y="534"/></g><g transform="translate(10,-30) scale(1,1)"><path d="M 334 534 L 347 534 L 347 562 L 334 562 L 334 534 Z Z" fill="none" stroke="#000000" stroke-miterlimit="10"/></g><g transform="translate(10,-30) scale(1,1)"><path d="M 583 608 L 347 608" fill="none" stroke="#000000" stroke-miterlimit="10"/></g><g transform="translate(10,-30) scale(1,1)"><path d="M 357.16267485762415 603.790482243984 L 347 608 L 357.16267485762415 612.209517756016" fill="#000000" stroke="none"/></g><g transform="translate(10,-30) scale(1,1)"><path d="M 357.16267485762415 603.790482243984 L 347 608 L 357.16267485762415 612.209517756016 L 357.16267485762415 603.790482243984" fill="none" stroke="#000000" stroke-miterlimit="10"/></g><g transform="translate(10,-30) scale(1,1)"><g><path fill="none" stroke="none"/><text fill="#000000" font-family="Arial" font-size="13px" font-style="normal" font-weight="normal" stroke="none" text-decoration="none" x="433.430419921875" y="623">14 : Erreur</text></g></g><g transform="translate(10,-30) scale(1,1)"><rect fill="#ffffff" height="28" stroke="none" width="13" x="334" y="608"/></g><g transform="translate(10,-30) scale(1,1)"><path d="M 334 608 L 347 608 L 347 636 L 334 636 L 334 608 Z Z" fill="none" stroke="#000000" stroke-miterlimit="10"/></g><g transform="translate(10,-30) scale(1,1)"><path d="M 40 488 L 944 488 L 944 655 L 40 655 L 40 488" fill="none" stroke="#000000" stroke-miterlimit="10"/></g><g transform="translate(10,-30) scale(1,1)"><path d="M 40 488 L 40 510 L 90.68994140625 510 L 101.68994140625 499 L 101.68994140625 488 L 40 488" fill="#ffffff" stroke="none"/></g><g transform="translate(10,-30) scale(1,1)"><path d="M 40 488 L 40 510 L 90.68994140625 510 L 101.68994140625 499 L 101.68994140625 488 L 40 488 L 40 488" fill="none" stroke="#000000" stroke-miterlimit="10"/></g><g transform="translate(10,-30) scale(1,1)"><g><path fill="none" stroke="none"/><text fill="#000000" font-family="Arial" font-size="13px" font-style="normal" font-weight="normal" stroke="none" text-decoration="none" x="71.9599609375" y="504">alt</text></g></g><g transform="translate(10,-30) scale(1,1)"><g><path fill="none" stroke="none"/><text fill="#000000" font-family="Arial" font-size="13px" font-style="normal" font-weight="bold" stroke="none" text-decoration="none" x="44.279541015625" y="502.5">seq</text></g></g><g transform="translate(10,-30) scale(1,1)"><g><path fill="none" stroke="none"/><text fill="#000000" font-family="Arial" font-size="13px" font-style="normal" font-weight="normal" stroke="none" text-decoration="none" x="59.5" y="537">[données valides]</text></g></g><g transform="translate(10,-30) scale(1,1)"><path d="M 40 593 L 944 593" fill="none" stroke="#000000" stroke-dasharray="10,3" stroke-miterlimit="10"/></g></g></svg>