<?xml version="1.0" encoding="UTF-8" standalone="no"?><svg xmlns="http://www.w3.org/2000/svg" xmlns:xlink="http://www.w3.org/1999/xlink" height="1235" version="1.1" width="975.20263671875"><defs/><g><g transform="translate(-14,-30) scale(1,1)"><path d="M 24 664 L 715 664 L 715 1255 L 24 1255 L 24 664" fill="none" stroke="#000000" stroke-miterlimit="10"/></g><g transform="translate(-14,-30) scale(1,1)"><path d="M 24 664 L 24 686 L 168.63525390625 686 L 179.63525390625 675 L 179.63525390625 664 L 24 664" fill="#ffffff" stroke="none"/></g><g transform="translate(-14,-30) scale(1,1)"><path d="M 24 664 L 24 686 L 168.63525390625 686 L 179.63525390625 675 L 179.63525390625 664 L 24 664 L 24 664" fill="none" stroke="#000000" stroke-miterlimit="10"/></g><g transform="translate(-14,-30) scale(1,1)"><g><path fill="none" stroke="none"/><text fill="#000000" font-family="Arial" font-size="13px" font-style="normal" font-weight="normal" stroke="none" text-decoration="none" x="48.72998046875" y="680">SequenceDiagram1</text></g></g><g transform="translate(-14,-30) scale(1,1)"><g><path fill="none" stroke="none"/><text fill="#000000" font-family="Arial" font-size="13px" font-style="normal" font-weight="bold" stroke="none" text-decoration="none" x="28.279541015625" y="680">sd</text></g></g><g transform="translate(-14,-30) scale(1,1)"><rect fill="#C0C0C0" height="39" opacity="0.2" stroke="none" width="138.21533203125" x="87" y="47"/></g><g transform="translate(-14,-30) scale(1,1)"><rect fill="#ffffff" height="39" stroke="none" width="138.21533203125" x="80" y="40"/></g><g transform="translate(-14,-30) scale(1,1)"><path d="M 80 40 L 218.21533203125 40 L 218.21533203125 79 L 80 79 L 80 40 Z Z" fill="none" stroke="#000000" stroke-miterlimit="10"/></g><g transform="translate(-14,-30) scale(1,1)"><g><path fill="none" stroke="none"/><text fill="#000000" font-family="Arial" font-size="13px" font-style="normal" font-weight="bold" stroke="none" text-decoration="none" x="89.5" y="58">ressource humaine</text></g></g><g transform="translate(-14,-30) scale(1,1)"><path d="M 150.5 80 L 150.5 469" fill="none" stroke="#000000" stroke-dasharray="3" stroke-miterlimit="10"/></g><g transform="translate(-14,-30) scale(1,1)"><rect fill="#C0C0C0" height="39" opacity="0.2" stroke="none" width="89.8017578125" x="335" y="47"/></g><g transform="translate(-14,-30) scale(1,1)"><rect fill="#ffffff" height="39" stroke="none" width="89.8017578125" x="328" y="40"/></g><g transform="translate(-14,-30) scale(1,1)"><path d="M 328 40 L 417.8017578125 40 L 417.8017578125 79 L 328 79 L 328 40 Z Z" fill="none" stroke="#000000" stroke-miterlimit="10"/></g><g transform="translate(-14,-30) scale(1,1)"><g><path fill="none" stroke="none"/><text fill="#000000" font-family="Arial" font-size="13px" font-style="normal" font-weight="bold" stroke="none" text-decoration="none" x="337.5" y="58">interface UI</text></g></g><g transform="translate(-14,-30) scale(1,1)"><path d="M 373.5 80 L 373.5 469" fill="none" stroke="#000000" stroke-dasharray="3" stroke-miterlimit="10"/></g><g transform="translate(-14,-30) scale(1,1)"><rect fill="#C0C0C0" height="39" opacity="0.2" stroke="none" width="124.47900390625" x="583" y="47"/></g><g transform="translate(-14,-30) scale(1,1)"><rect fill="#ffffff" height="39" stroke="none" width="124.47900390625" x="576" y="40"/></g><g transform="translate(-14,-30) scale(1,1)"><path d="M 576 40 L 700.47900390625 40 L 700.47900390625 79 L 576 79 L 576 40 Z Z" fill="none" stroke="#000000" stroke-miterlimit="10"/></g><g transform="translate(-14,-30) scale(1,1)"><g><path fill="none" stroke="none"/><text fill="#000000" font-family="Arial" font-size="13px" font-style="normal" font-weight="bold" stroke="none" text-decoration="none" x="585.5" y="58">base de données</text></g></g><g transform="translate(-14,-30) scale(1,1)"><path d="M 639.5 80 L 639.5 466" fill="none" stroke="#000000" stroke-dasharray="3" stroke-miterlimit="10"/></g><g transform="translate(-14,-30) scale(1,1)"><rect fill="#C0C0C0" height="39" opacity="0.2" stroke="none" width="99.20263671875" x="887" y="47"/></g><g transform="translate(-14,-30) scale(1,1)"><rect fill="#ffffff" height="39" stroke="none" width="99.20263671875" x="880" y="40"/></g><g transform="translate(-14,-30) scale(1,1)"><path d="M 880 40 L 979.20263671875 40 L 979.20263671875 79 L 880 79 L 880 40 Z Z" fill="none" stroke="#000000" stroke-miterlimit="10"/></g><g transform="translate(-14,-30) scale(1,1)"><g><path fill="none" stroke="none"/><text fill="#000000" font-family="Arial" font-size="13px" font-style="normal" font-weight="bold" stroke="none" text-decoration="none" x="889.5" y="58">réclamations</text></g></g><g transform="translate(-14,-30) scale(1,1)"><path d="M 930.5 80 L 930.5 438" fill="none" stroke="#000000" stroke-dasharray="3" stroke-miterlimit="10"/></g><g transform="translate(-14,-30) scale(1,1)"><path d="M 150 117 L 366 117" fill="none" stroke="#000000" stroke-miterlimit="10"/></g><g transform="translate(-14,-30) scale(1,1)"><path d="M 355.83732514237585 121.20951775601598 L 366 117 L 355.83732514237585 112.79048224398402" fill="#000000" stroke="none"/></g><g transform="translate(-14,-30) scale(1,1)"><path d="M 355.83732514237585 121.20951775601598 L 366 117 L 355.83732514237585 112.79048224398402 L 355.83732514237585 121.20951775601598" fill="none" stroke="#000000" stroke-miterlimit="10"/></g><g transform="translate(-14,-30) scale(1,1)"><g><path fill="none" stroke="none"/><text fill="#000000" font-family="Arial" font-size="13px" font-style="normal" font-weight="normal" stroke="none" text-decoration="none" x="175.5" y="112">1 : OuvririPageRéclamations</text></g></g><g transform="translate(-14,-30) scale(1,1)"><rect fill="#ffffff" height="91" stroke="none" width="13" x="366" y="117"/></g><g transform="translate(-14,-30) scale(1,1)"><path d="M 366 117 L 379 117 L 379 208 L 366 208 L 366 117 Z Z" fill="none" stroke="#000000" stroke-miterlimit="10"/></g><g transform="translate(-14,-30) scale(1,1)"><path d="M 379 128 L 632 128" fill="none" stroke="#000000" stroke-miterlimit="10"/></g><g transform="translate(-14,-30) scale(1,1)"><path d="M 621.8373251423759 132.209517756016 L 632 128 L 621.8373251423758 123.79048224398402" fill="#000000" stroke="none"/></g><g transform="translate(-14,-30) scale(1,1)"><path d="M 621.8373251423759 132.209517756016 L 632 128 L 621.8373251423758 123.79048224398402 L 621.8373251423759 132.209517756016" fill="none" stroke="#000000" stroke-miterlimit="10"/></g><g transform="translate(-14,-30) scale(1,1)"><g><path fill="none" stroke="none"/><text fill="#000000" font-family="Arial" font-size="13px" font-style="normal" font-weight="normal" stroke="none" text-decoration="none" x="433.5" y="123">2 : ChargerRéclamations</text></g></g><g transform="translate(-14,-30) scale(1,1)"><rect fill="#ffffff" height="88" stroke="none" width="13" x="632" y="128"/></g><g transform="translate(-14,-30) scale(1,1)"><path d="M 632 128 L 645 128 L 645 216 L 632 216 L 632 128 Z Z" fill="none" stroke="#000000" stroke-miterlimit="10"/></g><g transform="translate(-14,-30) scale(1,1)"><path d="M 645 153 L 923 153" fill="none" stroke="#000000" stroke-miterlimit="10"/></g><g transform="translate(-14,-30) scale(1,1)"><path d="M 912.8373251423759 157.209517756016 L 923 153 L 912.8373251423758 148.790482243984" fill="#000000" stroke="none"/></g><g transform="translate(-14,-30) scale(1,1)"><path d="M 912.8373251423759 157.209517756016 L 923 153 L 912.8373251423758 148.790482243984 L 912.8373251423759 157.209517756016" fill="none" stroke="#000000" stroke-miterlimit="10"/></g><g transform="translate(-14,-30) scale(1,1)"><g><path fill="none" stroke="none"/><text fill="#000000" font-family="Arial" font-size="13px" font-style="normal" font-weight="normal" stroke="none" text-decoration="none" x="757.509521484375" y="148">3 : select</text></g></g><g transform="translate(-14,-30) scale(1,1)"><rect fill="#ffffff" height="28" stroke="none" width="13" x="923" y="153"/></g><g transform="translate(-14,-30) scale(1,1)"><path d="M 923 153 L 936 153 L 936 181 L 923 181 L 923 153 Z Z" fill="none" stroke="#000000" stroke-miterlimit="10"/></g><g transform="translate(-14,-30) scale(1,1)"><path d="M 930 184 L 645 184" fill="none" stroke="#000000" stroke-dasharray="3" stroke-miterlimit="10"/></g><g transform="translate(-14,-30) scale(1,1)"><path d="M 655.1626748576241 179.790482243984 L 645 184 L 655.1626748576241 188.209517756016" fill="none" stroke="#000000" stroke-miterlimit="10"/></g><g transform="translate(-14,-30) scale(1,1)"><g><path fill="none" stroke="none"/><text fill="#000000" font-family="Arial" font-size="13px" font-style="normal" font-weight="normal" stroke="none" text-decoration="none" x="750.5" y="199">4 : response</text></g></g><g transform="translate(-14,-30) scale(1,1)"><path d="M 632 200 L 379 200" fill="none" stroke="#000000" stroke-dasharray="3" stroke-miterlimit="10"/></g><g transform="translate(-14,-30) scale(1,1)"><path d="M 389.16267485762415 195.790482243984 L 379 200 L 389.16267485762415 204.209517756016" fill="none" stroke="#000000" stroke-miterlimit="10"/></g><g transform="translate(-14,-30) scale(1,1)"><g><path fill="none" stroke="none"/><text fill="#000000" font-family="Arial" font-size="13px" font-style="normal" font-weight="normal" stroke="none" text-decoration="none" x="427.5" y="215">5 : AfficherRéclamations</text></g></g><g transform="translate(-14,-30) scale(1,1)"><path d="M 150 277 L 366 277" fill="none" stroke="#000000" stroke-miterlimit="10"/></g><g transform="translate(-14,-30) scale(1,1)"><path d="M 355.83732514237585 281.209517756016 L 366 277 L 355.83732514237585 272.790482243984" fill="#000000" stroke="none"/></g><g transform="translate(-14,-30) scale(1,1)"><path d="M 355.83732514237585 281.209517756016 L 366 277 L 355.83732514237585 272.790482243984 L 355.83732514237585 281.209517756016" fill="none" stroke="#000000" stroke-miterlimit="10"/></g><g transform="translate(-14,-30) scale(1,1)"><g><path fill="none" stroke="none"/><text fill="#000000" font-family="Arial" font-size="13px" font-style="normal" font-weight="normal" stroke="none" text-decoration="none" x="147.5" y="272">6 : choisir une réclamation et répondre</text></g></g><g transform="translate(-14,-30) scale(1,1)"><rect fill="#ffffff" height="28" stroke="none" width="13" x="366" y="277"/></g><g transform="translate(-14,-30) scale(1,1)"><path d="M 366 277 L 379 277 L 379 305 L 366 305 L 366 277 Z Z" fill="none" stroke="#000000" stroke-miterlimit="10"/></g><g transform="translate(-14,-30) scale(1,1)"><path d="M 150 336 L 366 336" fill="none" stroke="#000000" stroke-miterlimit="10"/></g><g transform="translate(-14,-30) scale(1,1)"><path d="M 355.83732514237585 340.209517756016 L 366 336 L 355.83732514237585 331.790482243984" fill="#000000" stroke="none"/></g><g transform="translate(-14,-30) scale(1,1)"><path d="M 355.83732514237585 340.209517756016 L 366 336 L 355.83732514237585 331.790482243984 L 355.83732514237585 340.209517756016" fill="none" stroke="#000000" stroke-miterlimit="10"/></g><g transform="translate(-14,-30) scale(1,1)"><g><path fill="none" stroke="none"/><text fill="#000000" font-family="Arial" font-size="13px" font-style="normal" font-weight="normal" stroke="none" text-decoration="none" x="192.5" y="331">7 : enregistrer réponse</text></g></g><g transform="translate(-14,-30) scale(1,1)"><rect fill="#ffffff" height="119" stroke="none" width="13" x="366" y="336"/></g><g transform="translate(-14,-30) scale(1,1)"><path d="M 366 336 L 379 336 L 379 455 L 366 455 L 366 336 Z Z" fill="none" stroke="#000000" stroke-miterlimit="10"/></g><g transform="translate(-14,-30) scale(1,1)"><path d="M 379 344 L 632 344" fill="none" stroke="#000000" stroke-miterlimit="10"/></g><g transform="translate(-14,-30) scale(1,1)"><path d="M 621.8373251423759 348.209517756016 L 632 344 L 621.8373251423758 339.790482243984" fill="#000000" stroke="none"/></g><g transform="translate(-14,-30) scale(1,1)"><path d="M 621.8373251423759 348.209517756016 L 632 344 L 621.8373251423758 339.790482243984 L 621.8373251423759 348.209517756016" fill="none" stroke="#000000" stroke-miterlimit="10"/></g><g transform="translate(-14,-30) scale(1,1)"><g><path fill="none" stroke="none"/><text fill="#000000" font-family="Arial" font-size="13px" font-style="normal" font-weight="normal" stroke="none" text-decoration="none" x="473.444091796875" y="339">8 : requete</text></g></g><g transform="translate(-14,-30) scale(1,1)"><rect fill="#ffffff" height="96" stroke="none" width="13" x="632" y="344"/></g><g transform="translate(-14,-30) scale(1,1)"><path d="M 632 344 L 645 344 L 645 440 L 632 440 L 632 344 Z Z" fill="none" stroke="#000000" stroke-miterlimit="10"/></g><g transform="translate(-14,-30) scale(1,1)"><path d="M 645 360 L 923 360" fill="none" stroke="#000000" stroke-miterlimit="10"/></g><g transform="translate(-14,-30) scale(1,1)"><path d="M 912.8373251423759 364.209517756016 L 923 360 L 912.8373251423758 355.790482243984" fill="#000000" stroke="none"/></g><g transform="translate(-14,-30) scale(1,1)"><path d="M 912.8373251423759 364.209517756016 L 923 360 L 912.8373251423758 355.790482243984 L 912.8373251423759 364.209517756016" fill="none" stroke="#000000" stroke-miterlimit="10"/></g><g transform="translate(-14,-30) scale(1,1)"><g><path fill="none" stroke="none"/><text fill="#000000" font-family="Arial" font-size="13px" font-style="normal" font-weight="normal" stroke="none" text-decoration="none" x="701.5" y="355">9 : SetRéponse(réclamation)</text></g></g><g transform="translate(-14,-30) scale(1,1)"><rect fill="#ffffff" height="64" stroke="none" width="13" x="923" y="360"/></g><g transform="translate(-14,-30) scale(1,1)"><path d="M 923 360 L 936 360 L 936 424 L 923 424 L 923 360 Z Z" fill="none" stroke="#000000" stroke-miterlimit="10"/></g><g transform="translate(-14,-30) scale(1,1)"><path d="M 923 394 L 645 394" fill="none" stroke="#000000" stroke-dasharray="3" stroke-miterlimit="10"/></g><g transform="translate(-14,-30) scale(1,1)"><path d="M 655.1626748576241 389.790482243984 L 645 394 L 655.1626748576241 398.209517756016" fill="none" stroke="#000000" stroke-miterlimit="10"/></g><g transform="translate(-14,-30) scale(1,1)"><g><path fill="none" stroke="none"/><text fill="#000000" font-family="Arial" font-size="13px" font-style="normal" font-weight="normal" stroke="none" text-decoration="none" x="743.5" y="409">10 : response</text></g></g><g transform="translate(-14,-30) scale(1,1)"><path d="M 632 432 L 379 432" fill="none" stroke="#000000" stroke-dasharray="3" stroke-miterlimit="10"/></g><g transform="translate(-14,-30) scale(1,1)"><path d="M 389.16267485762415 427.790482243984 L 379 432 L 389.16267485762415 436.209517756016" fill="none" stroke="#000000" stroke-miterlimit="10"/></g><g transform="translate(-14,-30) scale(1,1)"><g><path fill="none" stroke="none"/><text fill="#000000" font-family="Arial" font-size="13px" font-style="normal" font-weight="normal" stroke="none" text-decoration="none" x="418.5" y="447">11 : AfficherNouvelleRéponse</text></g></g></g></svg>