<?xml version="1.0" encoding="UTF-8" standalone="no"?><svg xmlns="http://www.w3.org/2000/svg" xmlns:xlink="http://www.w3.org/1999/xlink" height="1056" version="1.1" width="1067.75537109375"><defs/><g><g transform="translate(10,-30) scale(1,1)"><path d="M 0 1024 L 691 1024 L 691 1076 L 0 1076 L 0 1024" fill="none" stroke="#000000" stroke-miterlimit="10"/></g><g transform="translate(10,-30) scale(1,1)"><path d="M 0 1024 L 0 1046 L 144.63525390625 1046 L 155.63525390625 1035 L 155.63525390625 1024 L 0 1024" fill="#ffffff" stroke="none"/></g><g transform="translate(10,-30) scale(1,1)"><path d="M 0 1024 L 0 1046 L 144.63525390625 1046 L 155.63525390625 1035 L 155.63525390625 1024 L 0 1024 L 0 1024" fill="none" stroke="#000000" stroke-miterlimit="10"/></g><g transform="translate(10,-30) scale(1,1)"><g><path fill="none" stroke="none"/><text fill="#000000" font-family="Arial" font-size="13px" font-style="normal" font-weight="normal" stroke="none" text-decoration="none" x="24.72998046875" y="1040">SequenceDiagram1</text></g></g><g transform="translate(10,-30) scale(1,1)"><g><path fill="none" stroke="none"/><text fill="#000000" font-family="Arial" font-size="13px" font-style="normal" font-weight="bold" stroke="none" text-decoration="none" x="4.279541015625" y="1040">sd</text></g></g><g transform="translate(10,-30) scale(1,1)"><rect fill="#C0C0C0" height="39" opacity="0.2" stroke="none" width="101.38623046875" x="47" y="47"/></g><g transform="translate(10,-30) scale(1,1)"><rect fill="#ffffff" height="39" stroke="none" width="101.38623046875" x="40" y="40"/></g><g transform="translate(10,-30) scale(1,1)"><path d="M 40 40 L 141.38623046875 40 L 141.38623046875 79 L 40 79 L 40 40 Z Z" fill="none" stroke="#000000" stroke-miterlimit="10"/></g><g transform="translate(10,-30) scale(1,1)"><g><path fill="none" stroke="none"/><text fill="#000000" font-family="Arial" font-size="13px" font-style="normal" font-weight="bold" stroke="none" text-decoration="none" x="49.5" y="58">service client</text></g></g><g transform="translate(10,-30) scale(1,1)"><path d="M 91.5 80 L 91.5 608" fill="none" stroke="#000000" stroke-dasharray="3" stroke-miterlimit="10"/></g><g transform="translate(10,-30) scale(1,1)"><rect fill="#C0C0C0" height="39" opacity="0.2" stroke="none" width="89.8017578125" x="303" y="47"/></g><g transform="translate(10,-30) scale(1,1)"><rect fill="#ffffff" height="39" stroke="none" width="89.8017578125" x="296" y="40"/></g><g transform="translate(10,-30) scale(1,1)"><path d="M 296 40 L 385.8017578125 40 L 385.8017578125 79 L 296 79 L 296 40 Z Z" fill="none" stroke="#000000" stroke-miterlimit="10"/></g><g transform="translate(10,-30) scale(1,1)"><g><path fill="none" stroke="none"/><text fill="#000000" font-family="Arial" font-size="13px" font-style="normal" font-weight="bold" stroke="none" text-decoration="none" x="305.5" y="58">interface UI</text></g></g><g transform="translate(10,-30) scale(1,1)"><path d="M 341.5 80 L 341.5 608" fill="none" stroke="#000000" stroke-dasharray="3" stroke-miterlimit="10"/></g><g transform="translate(10,-30) scale(1,1)"><rect fill="#C0C0C0" height="39" opacity="0.2" stroke="none" width="124.47900390625" x="623" y="47"/></g><g transform="translate(10,-30) scale(1,1)"><rect fill="#ffffff" height="39" stroke="none" width="124.47900390625" x="616" y="40"/></g><g transform="translate(10,-30) scale(1,1)"><path d="M 616 40 L 740.47900390625 40 L 740.47900390625 79 L 616 79 L 616 40 Z Z" fill="none" stroke="#000000" stroke-miterlimit="10"/></g><g transform="translate(10,-30) scale(1,1)"><g><path fill="none" stroke="none"/><text fill="#000000" font-family="Arial" font-size="13px" font-style="normal" font-weight="bold" stroke="none" text-decoration="none" x="625.5" y="58">base de données</text></g></g><g transform="translate(10,-30) scale(1,1)"><path d="M 679.5 80 L 679.5 608" fill="none" stroke="#000000" stroke-dasharray="3" stroke-miterlimit="10"/></g><g transform="translate(10,-30) scale(1,1)"><rect fill="#C0C0C0" height="39" opacity="0.2" stroke="none" width="175.75537109375" x="879" y="47"/></g><g transform="translate(10,-30) scale(1,1)"><rect fill="#ffffff" height="39" stroke="none" width="175.75537109375" x="872" y="40"/></g><g transform="translate(10,-30) scale(1,1)"><path d="M 872 40 L 1047.75537109375 40 L 1047.75537109375 79 L 872 79 L 872 40 Z Z" fill="none" stroke="#000000" stroke-miterlimit="10"/></g><g transform="translate(10,-30) scale(1,1)"><g><path fill="none" stroke="none"/><text fill="#000000" font-family="Arial" font-size="13px" font-style="normal" font-weight="bold" stroke="none" text-decoration="none" x="889.44091796875" y="58">Assurances Habitation</text></g></g><g transform="translate(10,-30) scale(1,1)"><path d="M 960.5 80 L 960.5 608" fill="none" stroke="#000000" stroke-dasharray="3" stroke-miterlimit="10"/></g><g transform="translate(10,-30) scale(1,1)"><path d="M 91 113 L 334 113" fill="none" stroke="#000000" stroke-miterlimit="10"/></g><g transform="translate(10,-30) scale(1,1)"><path d="M 323.83732514237585 117.20951775601598 L 334 113 L 323.83732514237585 108.79048224398402" fill="#000000" stroke="none"/></g><g transform="translate(10,-30) scale(1,1)"><path d="M 323.83732514237585 117.20951775601598 L 334 113 L 323.83732514237585 108.79048224398402 L 323.83732514237585 117.20951775601598" fill="none" stroke="#000000" stroke-miterlimit="10"/></g><g transform="translate(10,-30) scale(1,1)"><g><path fill="none" stroke="none"/><text fill="#000000" font-family="Arial" font-size="13px" font-style="normal" font-weight="normal" stroke="none" text-decoration="none" x="103.5" y="107">1 : ChargerPageAssuranceHabitation</text></g></g><g transform="translate(10,-30) scale(1,1)"><rect fill="#ffffff" height="87" stroke="none" width="13" x="334" y="113"/></g><g transform="translate(10,-30) scale(1,1)"><path d="M 334 113 L 347 113 L 347 200 L 334 200 L 334 113 Z Z" fill="none" stroke="#000000" stroke-miterlimit="10"/></g><g transform="translate(10,-30) scale(1,1)"><path d="M 347 130 L 672 130" fill="none" stroke="#000000" stroke-miterlimit="10"/></g><g transform="translate(10,-30) scale(1,1)"><path d="M 661.8373251423759 134.209517756016 L 672 130 L 661.8373251423758 125.79048224398402" fill="#000000" stroke="none"/></g><g transform="translate(10,-30) scale(1,1)"><path d="M 661.8373251423759 134.209517756016 L 672 130 L 661.8373251423758 125.79048224398402 L 661.8373251423759 134.209517756016" fill="none" stroke="#000000" stroke-miterlimit="10"/></g><g transform="translate(10,-30) scale(1,1)"><g><path fill="none" stroke="none"/><text fill="#000000" font-family="Arial" font-size="13px" font-style="normal" font-weight="normal" stroke="none" text-decoration="none" x="385.5" y="125">2 : ChargerDemandeAssurancesHabitation</text></g></g><g transform="translate(10,-30) scale(1,1)"><rect fill="#ffffff" height="62" stroke="none" width="13" x="672" y="130"/></g><g transform="translate(10,-30) scale(1,1)"><path d="M 672 130 L 685 130 L 685 192 L 672 192 L 672 130 Z Z" fill="none" stroke="#000000" stroke-miterlimit="10"/></g><g transform="translate(10,-30) scale(1,1)"><path d="M 685 138 L 953 138" fill="none" stroke="#000000" stroke-miterlimit="10"/></g><g transform="translate(10,-30) scale(1,1)"><path d="M 942.8373251423759 142.209517756016 L 953 138 L 942.8373251423758 133.790482243984" fill="#000000" stroke="none"/></g><g transform="translate(10,-30) scale(1,1)"><path d="M 942.8373251423759 142.209517756016 L 953 138 L 942.8373251423758 133.790482243984 L 942.8373251423759 142.209517756016" fill="none" stroke="#000000" stroke-miterlimit="10"/></g><g transform="translate(10,-30) scale(1,1)"><g><path fill="none" stroke="none"/><text fill="#000000" font-family="Arial" font-size="13px" font-style="normal" font-weight="normal" stroke="none" text-decoration="none" x="792.509521484375" y="133">3 : select</text></g></g><g transform="translate(10,-30) scale(1,1)"><rect fill="#ffffff" height="28" stroke="none" width="13" x="953" y="138"/></g><g transform="translate(10,-30) scale(1,1)"><path d="M 953 138 L 966 138 L 966 166 L 953 166 L 953 138 Z Z" fill="none" stroke="#000000" stroke-miterlimit="10"/></g><g transform="translate(10,-30) scale(1,1)"><path d="M 953 154 L 685 154" fill="none" stroke="#000000" stroke-dasharray="3" stroke-miterlimit="10"/></g><g transform="translate(10,-30) scale(1,1)"><path d="M 695.1626748576241 149.790482243984 L 685 154 L 695.1626748576241 158.209517756016" fill="none" stroke="#000000" stroke-miterlimit="10"/></g><g transform="translate(10,-30) scale(1,1)"><g><path fill="none" stroke="none"/><text fill="#000000" font-family="Arial" font-size="13px" font-style="normal" font-weight="normal" stroke="none" text-decoration="none" x="782.5" y="169">4 : response</text></g></g><g transform="translate(10,-30) scale(1,1)"><path d="M 672 184 L 347 184" fill="none" stroke="#000000" stroke-dasharray="3" stroke-miterlimit="10"/></g><g transform="translate(10,-30) scale(1,1)"><path d="M 357.16267485762415 179.790482243984 L 347 184 L 357.16267485762415 188.209517756016" fill="none" stroke="#000000" stroke-miterlimit="10"/></g><g transform="translate(10,-30) scale(1,1)"><g><path fill="none" stroke="none"/><text fill="#000000" font-family="Arial" font-size="13px" font-style="normal" font-weight="normal" stroke="none" text-decoration="none" x="392.5" y="199">5 : Charger(Page Assurance Habitation)</text></g></g><g transform="translate(10,-30) scale(1,1)"><path d="M 91 272 L 334 272" fill="none" stroke="#000000" stroke-miterlimit="10"/></g><g transform="translate(10,-30) scale(1,1)"><path d="M 323.83732514237585 276.209517756016 L 334 272 L 323.83732514237585 267.790482243984" fill="#000000" stroke="none"/></g><g transform="translate(10,-30) scale(1,1)"><path d="M 323.83732514237585 276.209517756016 L 334 272 L 323.83732514237585 267.790482243984 L 323.83732514237585 276.209517756016" fill="none" stroke="#000000" stroke-miterlimit="10"/></g><g transform="translate(10,-30) scale(1,1)"><g><path fill="none" stroke="none"/><text fill="#000000" font-family="Arial" font-size="13px" font-style="normal" font-weight="normal" stroke="none" text-decoration="none" x="147.75927734375" y="267">6 : répondre demande</text></g></g><g transform="translate(10,-30) scale(1,1)"><rect fill="#ffffff" height="54" stroke="none" width="13" x="334" y="272"/></g><g transform="translate(10,-30) scale(1,1)"><path d="M 334 272 L 347 272 L 347 326 L 334 326 L 334 272 Z Z" fill="none" stroke="#000000" stroke-miterlimit="10"/></g><g transform="translate(10,-30) scale(1,1)"><path d="M 347 320 L 672 320" fill="none" stroke="#000000" stroke-miterlimit="10"/></g><g transform="translate(10,-30) scale(1,1)"><path d="M 661.8373251423759 324.209517756016 L 672 320 L 661.8373251423758 315.790482243984" fill="#000000" stroke="none"/></g><g transform="translate(10,-30) scale(1,1)"><path d="M 661.8373251423759 324.209517756016 L 672 320 L 661.8373251423758 315.790482243984 L 661.8373251423759 324.209517756016" fill="none" stroke="#000000" stroke-miterlimit="10"/></g><g transform="translate(10,-30) scale(1,1)"><g><path fill="none" stroke="none"/><text fill="#000000" font-family="Arial" font-size="13px" font-style="normal" font-weight="normal" stroke="none" text-decoration="none" x="468.114990234375" y="315">7 : requête sql</text></g></g><g transform="translate(10,-30) scale(1,1)"><rect fill="#ffffff" height="71" stroke="none" width="13" x="672" y="320"/></g><g transform="translate(10,-30) scale(1,1)"><path d="M 672 320 L 685 320 L 685 391 L 672 391 L 672 320 Z Z" fill="none" stroke="#000000" stroke-miterlimit="10"/></g><g transform="translate(10,-30) scale(1,1)"><path d="M 685 344 L 953 344" fill="none" stroke="#000000" stroke-miterlimit="10"/></g><g transform="translate(10,-30) scale(1,1)"><path d="M 942.8373251423759 348.209517756016 L 953 344 L 942.8373251423758 339.790482243984" fill="#000000" stroke="none"/></g><g transform="translate(10,-30) scale(1,1)"><path d="M 942.8373251423759 348.209517756016 L 953 344 L 942.8373251423758 339.790482243984 L 942.8373251423759 348.209517756016" fill="none" stroke="#000000" stroke-miterlimit="10"/></g><g transform="translate(10,-30) scale(1,1)"><g><path fill="none" stroke="none"/><text fill="#000000" font-family="Arial" font-size="13px" font-style="normal" font-weight="normal" stroke="none" text-decoration="none" x="682.364990234375" y="339">8 : UpdateDemandeAssuranceHabitation(réponse)</text></g></g><g transform="translate(10,-30) scale(1,1)"><rect fill="#ffffff" height="28" stroke="none" width="13" x="953" y="344"/></g><g transform="translate(10,-30) scale(1,1)"><path d="M 953 344 L 966 344 L 966 372 L 953 372 L 953 344 Z Z" fill="none" stroke="#000000" stroke-miterlimit="10"/></g><g transform="translate(10,-30) scale(1,1)"><path d="M 953 368 L 685 368" fill="none" stroke="#000000" stroke-dasharray="3" stroke-miterlimit="10"/></g><g transform="translate(10,-30) scale(1,1)"><path d="M 695.1626748576241 363.790482243984 L 685 368 L 695.1626748576241 372.209517756016" fill="none" stroke="#000000" stroke-miterlimit="10"/></g><g transform="translate(10,-30) scale(1,1)"><g><path fill="none" stroke="none"/><text fill="#000000" font-family="Arial" font-size="13px" font-style="normal" font-weight="normal" stroke="none" text-decoration="none" x="782.114990234375" y="383">9 : response</text></g></g><g transform="translate(10,-30) scale(1,1)"><path d="M 679 456 L 347 456" fill="none" stroke="#000000" stroke-miterlimit="10"/></g><g transform="translate(10,-30) scale(1,1)"><path d="M 357.16267485762415 451.790482243984 L 347 456 L 357.16267485762415 460.209517756016" fill="#000000" stroke="none"/></g><g transform="translate(10,-30) scale(1,1)"><path d="M 357.16267485762415 451.790482243984 L 347 456 L 357.16267485762415 460.209517756016 L 357.16267485762415 451.790482243984" fill="none" stroke="#000000" stroke-miterlimit="10"/></g><g transform="translate(10,-30) scale(1,1)"><g><path fill="none" stroke="none"/><text fill="#000000" font-family="Arial" font-size="13px" font-style="normal" font-weight="normal" stroke="none" text-decoration="none" x="453.194091796875" y="450">10 : réponse ajoutée</text></g></g><g transform="translate(10,-30) scale(1,1)"><rect fill="#ffffff" height="28" stroke="none" width="13" x="334" y="456"/></g><g transform="translate(10,-30) scale(1,1)"><path d="M 334 456 L 347 456 L 347 484 L 334 484 L 334 456 Z Z" fill="none" stroke="#000000" stroke-miterlimit="10"/></g><g transform="translate(10,-30) scale(1,1)"><path d="M 679 560 L 347 560" fill="none" stroke="#000000" stroke-miterlimit="10"/></g><g transform="translate(10,-30) scale(1,1)"><path d="M 357.16267485762415 555.790482243984 L 347 560 L 357.16267485762415 564.209517756016" fill="#000000" stroke="none"/></g><g transform="translate(10,-30) scale(1,1)"><path d="M 357.16267485762415 555.790482243984 L 347 560 L 357.16267485762415 564.209517756016 L 357.16267485762415 555.790482243984" fill="none" stroke="#000000" stroke-miterlimit="10"/></g><g transform="translate(10,-30) scale(1,1)"><g><path fill="none" stroke="none"/><text fill="#000000" font-family="Arial" font-size="13px" font-style="normal" font-weight="normal" stroke="none" text-decoration="none" x="481.912841796875" y="575">11 : Erreur</text></g></g><g transform="translate(10,-30) scale(1,1)"><rect fill="#ffffff" height="28" stroke="none" width="13" x="334" y="560"/></g><g transform="translate(10,-30) scale(1,1)"><path d="M 334 560 L 347 560 L 347 588 L 334 588 L 334 560 Z Z" fill="none" stroke="#000000" stroke-miterlimit="10"/></g><g transform="translate(10,-30) scale(1,1)"><path d="M 40 392 L 1000 392 L 1000 608 L 40 608 L 40 392" fill="none" stroke="#000000" stroke-miterlimit="10"/></g><g transform="translate(10,-30) scale(1,1)"><path d="M 40 392 L 40 414 L 90.68994140625 414 L 101.68994140625 403 L 101.68994140625 392 L 40 392" fill="#ffffff" stroke="none"/></g><g transform="translate(10,-30) scale(1,1)"><path d="M 40 392 L 40 414 L 90.68994140625 414 L 101.68994140625 403 L 101.68994140625 392 L 40 392 L 40 392" fill="none" stroke="#000000" stroke-miterlimit="10"/></g><g transform="translate(10,-30) scale(1,1)"><g><path fill="none" stroke="none"/><text fill="#000000" font-family="Arial" font-size="13px" font-style="normal" font-weight="normal" stroke="none" text-decoration="none" x="71.9599609375" y="408">alt</text></g></g><g transform="translate(10,-30) scale(1,1)"><g><path fill="none" stroke="none"/><text fill="#000000" font-family="Arial" font-size="13px" font-style="normal" font-weight="bold" stroke="none" text-decoration="none" x="44.279541015625" y="406.5">seq</text></g></g><g transform="translate(10,-30) scale(1,1)"><g><path fill="none" stroke="none"/><text fill="#000000" font-family="Arial" font-size="13px" font-style="normal" font-weight="normal" stroke="none" text-decoration="none" x="59.5" y="441">[données valides]</text></g></g><g transform="translate(10,-30) scale(1,1)"><path d="M 40 497 L 1000 497" fill="none" stroke="#000000" stroke-dasharray="10,3" stroke-miterlimit="10"/></g></g></svg>