<?xml version="1.0" encoding="UTF-8" standalone="no"?><svg xmlns="http://www.w3.org/2000/svg" xmlns:xlink="http://www.w3.org/1999/xlink" height="1056" version="1.1" width="1043.75537109375"><defs/><g><g transform="translate(10,-30) scale(1,1)"><path d="M 0 1024 L 691 1024 L 691 1076 L 0 1076 L 0 1024" fill="none" stroke="#000000" stroke-miterlimit="10"/></g><g transform="translate(10,-30) scale(1,1)"><path d="M 0 1024 L 0 1046 L 144.63525390625 1046 L 155.63525390625 1035 L 155.63525390625 1024 L 0 1024" fill="#ffffff" stroke="none"/></g><g transform="translate(10,-30) scale(1,1)"><path d="M 0 1024 L 0 1046 L 144.63525390625 1046 L 155.63525390625 1035 L 155.63525390625 1024 L 0 1024 L 0 1024" fill="none" stroke="#000000" stroke-miterlimit="10"/></g><g transform="translate(10,-30) scale(1,1)"><g><path fill="none" stroke="none"/><text fill="#000000" font-family="Arial" font-size="13px" font-style="normal" font-weight="normal" stroke="none" text-decoration="none" x="24.72998046875" y="1040">SequenceDiagram1</text></g></g><g transform="translate(10,-30) scale(1,1)"><g><path fill="none" stroke="none"/><text fill="#000000" font-family="Arial" font-size="13px" font-style="normal" font-weight="bold" stroke="none" text-decoration="none" x="4.279541015625" y="1040">sd</text></g></g><g transform="translate(10,-30) scale(1,1)"><rect fill="#C0C0C0" height="39" opacity="0.2" stroke="none" width="101.38623046875" x="47" y="47"/></g><g transform="translate(10,-30) scale(1,1)"><rect fill="#ffffff" height="39" stroke="none" width="101.38623046875" x="40" y="40"/></g><g transform="translate(10,-30) scale(1,1)"><path d="M 40 40 L 141.38623046875 40 L 141.38623046875 79 L 40 79 L 40 40 Z Z" fill="none" stroke="#000000" stroke-miterlimit="10"/></g><g transform="translate(10,-30) scale(1,1)"><g><path fill="none" stroke="none"/><text fill="#000000" font-family="Arial" font-size="13px" font-style="normal" font-weight="bold" stroke="none" text-decoration="none" x="49.5" y="58">service client</text></g></g><g transform="translate(10,-30) scale(1,1)"><path d="M 91.5 80 L 91.5 608" fill="none" stroke="#000000" stroke-dasharray="3" stroke-miterlimit="10"/></g><g transform="translate(10,-30) scale(1,1)"><rect fill="#C0C0C0" height="39" opacity="0.2" stroke="none" width="89.8017578125" x="303" y="47"/></g><g transform="translate(10,-30) scale(1,1)"><rect fill="#ffffff" height="39" stroke="none" width="89.8017578125" x="296" y="40"/></g><g transform="translate(10,-30) scale(1,1)"><path d="M 296 40 L 385.8017578125 40 L 385.8017578125 79 L 296 79 L 296 40 Z Z" fill="none" stroke="#000000" stroke-miterlimit="10"/></g><g transform="translate(10,-30) scale(1,1)"><g><path fill="none" stroke="none"/><text fill="#000000" font-family="Arial" font-size="13px" font-style="normal" font-weight="bold" stroke="none" text-decoration="none" x="305.5" y="58">interface UI</text></g></g><g transform="translate(10,-30) scale(1,1)"><path d="M 341.5 80 L 341.5 608" fill="none" stroke="#000000" stroke-dasharray="3" stroke-miterlimit="10"/></g><g transform="translate(10,-30) scale(1,1)"><rect fill="#C0C0C0" height="39" opacity="0.2" stroke="none" width="124.47900390625" x="527" y="47"/></g><g transform="translate(10,-30) scale(1,1)"><rect fill="#ffffff" height="39" stroke="none" width="124.47900390625" x="520" y="40"/></g><g transform="translate(10,-30) scale(1,1)"><path d="M 520 40 L 644.47900390625 40 L 644.47900390625 79 L 520 79 L 520 40 Z Z" fill="none" stroke="#000000" stroke-miterlimit="10"/></g><g transform="translate(10,-30) scale(1,1)"><g><path fill="none" stroke="none"/><text fill="#000000" font-family="Arial" font-size="13px" font-style="normal" font-weight="bold" stroke="none" text-decoration="none" x="529.5" y="58">base de données</text></g></g><g transform="translate(10,-30) scale(1,1)"><path d="M 583.5 80 L 583.5 608" fill="none" stroke="#000000" stroke-dasharray="3" stroke-miterlimit="10"/></g><g transform="translate(10,-30) scale(1,1)"><rect fill="#C0C0C0" height="39" opacity="0.2" stroke="none" width="175.75537109375" x="855" y="47"/></g><g transform="translate(10,-30) scale(1,1)"><rect fill="#ffffff" height="39" stroke="none" width="175.75537109375" x="848" y="40"/></g><g transform="translate(10,-30) scale(1,1)"><path d="M 848 40 L 1023.75537109375 40 L 1023.75537109375 79 L 848 79 L 848 40 Z Z" fill="none" stroke="#000000" stroke-miterlimit="10"/></g><g transform="translate(10,-30) scale(1,1)"><g><path fill="none" stroke="none"/><text fill="#000000" font-family="Arial" font-size="13px" font-style="normal" font-weight="bold" stroke="none" text-decoration="none" x="857.85546875" y="58">Assurances Automobiles</text></g></g><g transform="translate(10,-30) scale(1,1)"><path d="M 936.5 80 L 936.5 608" fill="none" stroke="#000000" stroke-dasharray="3" stroke-miterlimit="10"/></g><g transform="translate(10,-30) scale(1,1)"><path d="M 91 113 L 334 113" fill="none" stroke="#000000" stroke-miterlimit="10"/></g><g transform="translate(10,-30) scale(1,1)"><path d="M 323.83732514237585 117.20951775601598 L 334 113 L 323.83732514237585 108.79048224398402" fill="#000000" stroke="none"/></g><g transform="translate(10,-30) scale(1,1)"><path d="M 323.83732514237585 117.20951775601598 L 334 113 L 323.83732514237585 108.79048224398402 L 323.83732514237585 117.20951775601598" fill="none" stroke="#000000" stroke-miterlimit="10"/></g><g transform="translate(10,-30) scale(1,1)"><g><path fill="none" stroke="none"/><text fill="#000000" font-family="Arial" font-size="13px" font-style="normal" font-weight="normal" stroke="none" text-decoration="none" x="120.397705078125" y="108">1 : ChargerPageAssuranceAuto</text></g></g><g transform="translate(10,-30) scale(1,1)"><rect fill="#ffffff" height="87" stroke="none" width="13" x="334" y="113"/></g><g transform="translate(10,-30) scale(1,1)"><path d="M 334 113 L 347 113 L 347 200 L 334 200 L 334 113 Z Z" fill="none" stroke="#000000" stroke-miterlimit="10"/></g><g transform="translate(10,-30) scale(1,1)"><path d="M 347 130 L 576 130" fill="none" stroke="#000000" stroke-miterlimit="10"/></g><g transform="translate(10,-30) scale(1,1)"><path d="M 565.8373251423759 134.209517756016 L 576 130 L 565.8373251423758 125.79048224398402" fill="#000000" stroke="none"/></g><g transform="translate(10,-30) scale(1,1)"><path d="M 565.8373251423759 134.209517756016 L 576 130 L 565.8373251423758 125.79048224398402 L 565.8373251423759 134.209517756016" fill="none" stroke="#000000" stroke-miterlimit="10"/></g><g transform="translate(10,-30) scale(1,1)"><g><path fill="none" stroke="none"/><text fill="#000000" font-family="Arial" font-size="13px" font-style="normal" font-weight="normal" stroke="none" text-decoration="none" x="353.397705078125" y="125">2 : ChargerDemandeAssurancesAuto</text></g></g><g transform="translate(10,-30) scale(1,1)"><rect fill="#ffffff" height="62" stroke="none" width="13" x="576" y="130"/></g><g transform="translate(10,-30) scale(1,1)"><path d="M 576 130 L 589 130 L 589 192 L 576 192 L 576 130 Z Z" fill="none" stroke="#000000" stroke-miterlimit="10"/></g><g transform="translate(10,-30) scale(1,1)"><path d="M 589 138 L 929 138" fill="none" stroke="#000000" stroke-miterlimit="10"/></g><g transform="translate(10,-30) scale(1,1)"><path d="M 918.8373251423759 142.209517756016 L 929 138 L 918.8373251423758 133.790482243984" fill="#000000" stroke="none"/></g><g transform="translate(10,-30) scale(1,1)"><path d="M 918.8373251423759 142.209517756016 L 929 138 L 918.8373251423758 133.790482243984 L 918.8373251423759 142.209517756016" fill="none" stroke="#000000" stroke-miterlimit="10"/></g><g transform="translate(10,-30) scale(1,1)"><g><path fill="none" stroke="none"/><text fill="#000000" font-family="Arial" font-size="13px" font-style="normal" font-weight="normal" stroke="none" text-decoration="none" x="732.509521484375" y="133">3 : select</text></g></g><g transform="translate(10,-30) scale(1,1)"><rect fill="#ffffff" height="28" stroke="none" width="13" x="929" y="138"/></g><g transform="translate(10,-30) scale(1,1)"><path d="M 929 138 L 942 138 L 942 166 L 929 166 L 929 138 Z Z" fill="none" stroke="#000000" stroke-miterlimit="10"/></g><g transform="translate(10,-30) scale(1,1)"><path d="M 929 154 L 589 154" fill="none" stroke="#000000" stroke-dasharray="3" stroke-miterlimit="10"/></g><g transform="translate(10,-30) scale(1,1)"><path d="M 599.1626748576241 149.790482243984 L 589 154 L 599.1626748576241 158.209517756016" fill="none" stroke="#000000" stroke-miterlimit="10"/></g><g transform="translate(10,-30) scale(1,1)"><g><path fill="none" stroke="none"/><text fill="#000000" font-family="Arial" font-size="13px" font-style="normal" font-weight="normal" stroke="none" text-decoration="none" x="722.5" y="169">4 : response</text></g></g><g transform="translate(10,-30) scale(1,1)"><path d="M 576 184 L 347 184" fill="none" stroke="#000000" stroke-dasharray="3" stroke-miterlimit="10"/></g><g transform="translate(10,-30) scale(1,1)"><path d="M 357.16267485762415 179.790482243984 L 347 184 L 357.16267485762415 188.209517756016" fill="none" stroke="#000000" stroke-miterlimit="10"/></g><g transform="translate(10,-30) scale(1,1)"><g><path fill="none" stroke="none"/><text fill="#000000" font-family="Arial" font-size="13px" font-style="normal" font-weight="normal" stroke="none" text-decoration="none" x="360.397705078125" y="199">5 : Charger(Page Assurance Auto)</text></g></g><g transform="translate(10,-30) scale(1,1)"><path d="M 91 272 L 334 272" fill="none" stroke="#000000" stroke-miterlimit="10"/></g><g transform="translate(10,-30) scale(1,1)"><path d="M 323.83732514237585 276.209517756016 L 334 272 L 323.83732514237585 267.790482243984" fill="#000000" stroke="none"/></g><g transform="translate(10,-30) scale(1,1)"><path d="M 323.83732514237585 276.209517756016 L 334 272 L 323.83732514237585 267.790482243984 L 323.83732514237585 276.209517756016" fill="none" stroke="#000000" stroke-miterlimit="10"/></g><g transform="translate(10,-30) scale(1,1)"><g><path fill="none" stroke="none"/><text fill="#000000" font-family="Arial" font-size="13px" font-style="normal" font-weight="normal" stroke="none" text-decoration="none" x="147.75927734375" y="267">6 : répondre demande</text></g></g><g transform="translate(10,-30) scale(1,1)"><rect fill="#ffffff" height="54" stroke="none" width="13" x="334" y="272"/></g><g transform="translate(10,-30) scale(1,1)"><path d="M 334 272 L 347 272 L 347 326 L 334 326 L 334 272 Z Z" fill="none" stroke="#000000" stroke-miterlimit="10"/></g><g transform="translate(10,-30) scale(1,1)"><path d="M 347 320 L 576 320" fill="none" stroke="#000000" stroke-miterlimit="10"/></g><g transform="translate(10,-30) scale(1,1)"><path d="M 565.8373251423759 324.209517756016 L 576 320 L 565.8373251423758 315.790482243984" fill="#000000" stroke="none"/></g><g transform="translate(10,-30) scale(1,1)"><path d="M 565.8373251423759 324.209517756016 L 576 320 L 565.8373251423758 315.790482243984 L 565.8373251423759 324.209517756016" fill="none" stroke="#000000" stroke-miterlimit="10"/></g><g transform="translate(10,-30) scale(1,1)"><g><path fill="none" stroke="none"/><text fill="#000000" font-family="Arial" font-size="13px" font-style="normal" font-weight="normal" stroke="none" text-decoration="none" x="420.114990234375" y="315">7 : requête sql</text></g></g><g transform="translate(10,-30) scale(1,1)"><rect fill="#ffffff" height="71" stroke="none" width="13" x="576" y="320"/></g><g transform="translate(10,-30) scale(1,1)"><path d="M 576 320 L 589 320 L 589 391 L 576 391 L 576 320 Z Z" fill="none" stroke="#000000" stroke-miterlimit="10"/></g><g transform="translate(10,-30) scale(1,1)"><path d="M 589 344 L 929 344" fill="none" stroke="#000000" stroke-miterlimit="10"/></g><g transform="translate(10,-30) scale(1,1)"><path d="M 918.8373251423759 348.209517756016 L 929 344 L 918.8373251423758 339.790482243984" fill="#000000" stroke="none"/></g><g transform="translate(10,-30) scale(1,1)"><path d="M 918.8373251423759 348.209517756016 L 929 344 L 918.8373251423758 339.790482243984 L 918.8373251423759 348.209517756016" fill="none" stroke="#000000" stroke-miterlimit="10"/></g><g transform="translate(10,-30) scale(1,1)"><g><path fill="none" stroke="none"/><text fill="#000000" font-family="Arial" font-size="13px" font-style="normal" font-weight="normal" stroke="none" text-decoration="none" x="619.114990234375" y="339">8 : UpdateDemandeAssuranceAutomobile(réponse)</text></g></g><g transform="translate(10,-30) scale(1,1)"><rect fill="#ffffff" height="28" stroke="none" width="13" x="929" y="344"/></g><g transform="translate(10,-30) scale(1,1)"><path d="M 929 344 L 942 344 L 942 372 L 929 372 L 929 344 Z Z" fill="none" stroke="#000000" stroke-miterlimit="10"/></g><g transform="translate(10,-30) scale(1,1)"><path d="M 929 368 L 589 368" fill="none" stroke="#000000" stroke-dasharray="3" stroke-miterlimit="10"/></g><g transform="translate(10,-30) scale(1,1)"><path d="M 599.1626748576241 363.790482243984 L 589 368 L 599.1626748576241 372.209517756016" fill="none" stroke="#000000" stroke-miterlimit="10"/></g><g transform="translate(10,-30) scale(1,1)"><g><path fill="none" stroke="none"/><text fill="#000000" font-family="Arial" font-size="13px" font-style="normal" font-weight="normal" stroke="none" text-decoration="none" x="722.114990234375" y="383">9 : response</text></g></g><g transform="translate(10,-30) scale(1,1)"><path d="M 583 456 L 347 456" fill="none" stroke="#000000" stroke-miterlimit="10"/></g><g transform="translate(10,-30) scale(1,1)"><path d="M 357.16267485762415 451.790482243984 L 347 456 L 357.16267485762415 460.209517756016" fill="#000000" stroke="none"/></g><g transform="translate(10,-30) scale(1,1)"><path d="M 357.16267485762415 451.790482243984 L 347 456 L 357.16267485762415 460.209517756016 L 357.16267485762415 451.790482243984" fill="none" stroke="#000000" stroke-miterlimit="10"/></g><g transform="translate(10,-30) scale(1,1)"><g><path fill="none" stroke="none"/><text fill="#000000" font-family="Arial" font-size="13px" font-style="normal" font-weight="normal" stroke="none" text-decoration="none" x="405.194091796875" y="450">10 : réponse ajoutée</text></g></g><g transform="translate(10,-30) scale(1,1)"><rect fill="#ffffff" height="28" stroke="none" width="13" x="334" y="456"/></g><g transform="translate(10,-30) scale(1,1)"><path d="M 334 456 L 347 456 L 347 484 L 334 484 L 334 456 Z Z" fill="none" stroke="#000000" stroke-miterlimit="10"/></g><g transform="translate(10,-30) scale(1,1)"><path d="M 583 560 L 347 560" fill="none" stroke="#000000" stroke-miterlimit="10"/></g><g transform="translate(10,-30) scale(1,1)"><path d="M 357.16267485762415 555.790482243984 L 347 560 L 357.16267485762415 564.209517756016" fill="#000000" stroke="none"/></g><g transform="translate(10,-30) scale(1,1)"><path d="M 357.16267485762415 555.790482243984 L 347 560 L 357.16267485762415 564.209517756016 L 357.16267485762415 555.790482243984" fill="none" stroke="#000000" stroke-miterlimit="10"/></g><g transform="translate(10,-30) scale(1,1)"><g><path fill="none" stroke="none"/><text fill="#000000" font-family="Arial" font-size="13px" font-style="normal" font-weight="normal" stroke="none" text-decoration="none" x="433.912841796875" y="575">11 : Erreur</text></g></g><g transform="translate(10,-30) scale(1,1)"><rect fill="#ffffff" height="28" stroke="none" width="13" x="334" y="560"/></g><g transform="translate(10,-30) scale(1,1)"><path d="M 334 560 L 347 560 L 347 588 L 334 588 L 334 560 Z Z" fill="none" stroke="#000000" stroke-miterlimit="10"/></g><g transform="translate(10,-30) scale(1,1)"><path d="M 40 400 L 968 400 L 968 608 L 40 608 L 40 400" fill="none" stroke="#000000" stroke-miterlimit="10"/></g><g transform="translate(10,-30) scale(1,1)"><path d="M 40 400 L 40 422 L 90.68994140625 422 L 101.68994140625 411 L 101.68994140625 400 L 40 400" fill="#ffffff" stroke="none"/></g><g transform="translate(10,-30) scale(1,1)"><path d="M 40 400 L 40 422 L 90.68994140625 422 L 101.68994140625 411 L 101.68994140625 400 L 40 400 L 40 400" fill="none" stroke="#000000" stroke-miterlimit="10"/></g><g transform="translate(10,-30) scale(1,1)"><g><path fill="none" stroke="none"/><text fill="#000000" font-family="Arial" font-size="13px" font-style="normal" font-weight="normal" stroke="none" text-decoration="none" x="71.9599609375" y="416">alt</text></g></g><g transform="translate(10,-30) scale(1,1)"><g><path fill="none" stroke="none"/><text fill="#000000" font-family="Arial" font-size="13px" font-style="normal" font-weight="bold" stroke="none" text-decoration="none" x="44.279541015625" y="414.5">seq</text></g></g><g transform="translate(10,-30) scale(1,1)"><g><path fill="none" stroke="none"/><text fill="#000000" font-family="Arial" font-size="13px" font-style="normal" font-weight="normal" stroke="none" text-decoration="none" x="59.5" y="449">[données valides]</text></g></g><g transform="translate(10,-30) scale(1,1)"><path d="M 40 505 L 968 505" fill="none" stroke="#000000" stroke-dasharray="10,3" stroke-miterlimit="10"/></g></g></svg>