<?xml version="1.0" encoding="UTF-8" standalone="no"?><svg xmlns="http://www.w3.org/2000/svg" xmlns:xlink="http://www.w3.org/1999/xlink" height="1371" version="1.1" width="931"><defs/><g><g transform="translate(-14,-30) scale(1,1)"><path d="M 24 800 L 715 800 L 715 1391 L 24 1391 L 24 800" fill="none" stroke="#000000" stroke-miterlimit="10"/></g><g transform="translate(-14,-30) scale(1,1)"><path d="M 24 800 L 24 822 L 168.63525390625 822 L 179.63525390625 811 L 179.63525390625 800 L 24 800" fill="#ffffff" stroke="none"/></g><g transform="translate(-14,-30) scale(1,1)"><path d="M 24 800 L 24 822 L 168.63525390625 822 L 179.63525390625 811 L 179.63525390625 800 L 24 800 L 24 800" fill="none" stroke="#000000" stroke-miterlimit="10"/></g><g transform="translate(-14,-30) scale(1,1)"><g><path fill="none" stroke="none"/><text fill="#000000" font-family="Arial" font-size="13px" font-style="normal" font-weight="normal" stroke="none" text-decoration="none" x="48.72998046875" y="816">SequenceDiagram1</text></g></g><g transform="translate(-14,-30) scale(1,1)"><g><path fill="none" stroke="none"/><text fill="#000000" font-family="Arial" font-size="13px" font-style="normal" font-weight="bold" stroke="none" text-decoration="none" x="28.279541015625" y="816">sd</text></g></g><g transform="translate(-14,-30) scale(1,1)"><rect fill="#C0C0C0" height="39" opacity="0.2" stroke="none" width="81.12451171875" x="135" y="47"/></g><g transform="translate(-14,-30) scale(1,1)"><rect fill="#ffffff" height="39" stroke="none" width="81.12451171875" x="128" y="40"/></g><g transform="translate(-14,-30) scale(1,1)"><path d="M 128 40 L 209.12451171875 40 L 209.12451171875 79 L 128 79 L 128 40 Z Z" fill="none" stroke="#000000" stroke-miterlimit="10"/></g><g transform="translate(-14,-30) scale(1,1)"><g><path fill="none" stroke="none"/><text fill="#000000" font-family="Arial" font-size="13px" font-style="normal" font-weight="bold" stroke="none" text-decoration="none" x="137.5" y="58">utilisateur</text></g></g><g transform="translate(-14,-30) scale(1,1)"><path d="M 169.5 80 L 169.5 568" fill="none" stroke="#000000" stroke-dasharray="3" stroke-miterlimit="10"/></g><g transform="translate(-14,-30) scale(1,1)"><rect fill="#C0C0C0" height="39" opacity="0.2" stroke="none" width="89.8017578125" x="351" y="47"/></g><g transform="translate(-14,-30) scale(1,1)"><rect fill="#ffffff" height="39" stroke="none" width="89.8017578125" x="344" y="40"/></g><g transform="translate(-14,-30) scale(1,1)"><path d="M 344 40 L 433.8017578125 40 L 433.8017578125 79 L 344 79 L 344 40 Z Z" fill="none" stroke="#000000" stroke-miterlimit="10"/></g><g transform="translate(-14,-30) scale(1,1)"><g><path fill="none" stroke="none"/><text fill="#000000" font-family="Arial" font-size="13px" font-style="normal" font-weight="bold" stroke="none" text-decoration="none" x="353.5" y="58">interface UI</text></g></g><g transform="translate(-14,-30) scale(1,1)"><path d="M 389.5 80 L 389.5 570" fill="none" stroke="#000000" stroke-dasharray="3" stroke-miterlimit="10"/></g><g transform="translate(-14,-30) scale(1,1)"><rect fill="#C0C0C0" height="39" opacity="0.2" stroke="none" width="124.47900390625" x="575" y="47"/></g><g transform="translate(-14,-30) scale(1,1)"><rect fill="#ffffff" height="39" stroke="none" width="124.47900390625" x="568" y="40"/></g><g transform="translate(-14,-30) scale(1,1)"><path d="M 568 40 L 692.47900390625 40 L 692.47900390625 79 L 568 79 L 568 40 Z Z" fill="none" stroke="#000000" stroke-miterlimit="10"/></g><g transform="translate(-14,-30) scale(1,1)"><g><path fill="none" stroke="none"/><text fill="#000000" font-family="Arial" font-size="13px" font-style="normal" font-weight="bold" stroke="none" text-decoration="none" x="577.5" y="58">base de données</text></g></g><g transform="translate(-14,-30) scale(1,1)"><path d="M 631.5 80 L 631.5 570" fill="none" stroke="#000000" stroke-dasharray="3" stroke-miterlimit="10"/></g><g transform="translate(-14,-30) scale(1,1)"><rect fill="#C0C0C0" height="39" opacity="0.2" stroke="none" width="99.20263671875" x="831" y="47"/></g><g transform="translate(-14,-30) scale(1,1)"><rect fill="#ffffff" height="39" stroke="none" width="99.20263671875" x="824" y="40"/></g><g transform="translate(-14,-30) scale(1,1)"><path d="M 824 40 L 923.20263671875 40 L 923.20263671875 79 L 824 79 L 824 40 Z Z" fill="none" stroke="#000000" stroke-miterlimit="10"/></g><g transform="translate(-14,-30) scale(1,1)"><g><path fill="none" stroke="none"/><text fill="#000000" font-family="Arial" font-size="13px" font-style="normal" font-weight="bold" stroke="none" text-decoration="none" x="833.5" y="58">réclamations</text></g></g><g transform="translate(-14,-30) scale(1,1)"><path d="M 874.5 80 L 874.5 568" fill="none" stroke="#000000" stroke-dasharray="3" stroke-miterlimit="10"/></g><g transform="translate(-14,-30) scale(1,1)"><path d="M 169 113 L 382 113" fill="none" stroke="#000000" stroke-miterlimit="10"/></g><g transform="translate(-14,-30) scale(1,1)"><path d="M 371.83732514237585 117.20951775601598 L 382 113 L 371.83732514237585 108.79048224398402" fill="#000000" stroke="none"/></g><g transform="translate(-14,-30) scale(1,1)"><path d="M 371.83732514237585 117.20951775601598 L 382 113 L 371.83732514237585 108.79048224398402 L 371.83732514237585 117.20951775601598" fill="none" stroke="#000000" stroke-miterlimit="10"/></g><g transform="translate(-14,-30) scale(1,1)"><g><path fill="none" stroke="none"/><text fill="#000000" font-family="Arial" font-size="13px" font-style="normal" font-weight="normal" stroke="none" text-decoration="none" x="193.5" y="108">1 : OuvrirPageRéclamations</text></g></g><g transform="translate(-14,-30) scale(1,1)"><rect fill="#ffffff" height="87" stroke="none" width="13" x="382" y="113"/></g><g transform="translate(-14,-30) scale(1,1)"><path d="M 382 113 L 395 113 L 395 200 L 382 200 L 382 113 Z Z" fill="none" stroke="#000000" stroke-miterlimit="10"/></g><g transform="translate(-14,-30) scale(1,1)"><path d="M 395 128 L 624 128" fill="none" stroke="#000000" stroke-miterlimit="10"/></g><g transform="translate(-14,-30) scale(1,1)"><path d="M 613.8373251423759 132.209517756016 L 624 128 L 613.8373251423758 123.79048224398402" fill="#000000" stroke="none"/></g><g transform="translate(-14,-30) scale(1,1)"><path d="M 613.8373251423759 132.209517756016 L 624 128 L 613.8373251423758 123.79048224398402 L 613.8373251423759 132.209517756016" fill="none" stroke="#000000" stroke-miterlimit="10"/></g><g transform="translate(-14,-30) scale(1,1)"><g><path fill="none" stroke="none"/><text fill="#000000" font-family="Arial" font-size="13px" font-style="normal" font-weight="normal" stroke="none" text-decoration="none" x="437.5" y="123">2 : ChargerRéclamations</text></g></g><g transform="translate(-14,-30) scale(1,1)"><rect fill="#ffffff" height="64" stroke="none" width="13" x="624" y="128"/></g><g transform="translate(-14,-30) scale(1,1)"><path d="M 624 128 L 637 128 L 637 192 L 624 192 L 624 128 Z Z" fill="none" stroke="#000000" stroke-miterlimit="10"/></g><g transform="translate(-14,-30) scale(1,1)"><path d="M 637 136 L 867 136" fill="none" stroke="#000000" stroke-miterlimit="10"/></g><g transform="translate(-14,-30) scale(1,1)"><path d="M 856.8373251423759 140.209517756016 L 867 136 L 856.8373251423758 131.790482243984" fill="#000000" stroke="none"/></g><g transform="translate(-14,-30) scale(1,1)"><path d="M 856.8373251423759 140.209517756016 L 867 136 L 856.8373251423758 131.790482243984 L 856.8373251423759 140.209517756016" fill="none" stroke="#000000" stroke-miterlimit="10"/></g><g transform="translate(-14,-30) scale(1,1)"><g><path fill="none" stroke="none"/><text fill="#000000" font-family="Arial" font-size="13px" font-style="normal" font-weight="normal" stroke="none" text-decoration="none" x="725.509521484375" y="131">3 : select</text></g></g><g transform="translate(-14,-30) scale(1,1)"><rect fill="#ffffff" height="28" stroke="none" width="13" x="867" y="136"/></g><g transform="translate(-14,-30) scale(1,1)"><path d="M 867 136 L 880 136 L 880 164 L 867 164 L 867 136 Z Z" fill="none" stroke="#000000" stroke-miterlimit="10"/></g><g transform="translate(-14,-30) scale(1,1)"><path d="M 867 152 L 637 152" fill="none" stroke="#000000" stroke-dasharray="3" stroke-miterlimit="10"/></g><g transform="translate(-14,-30) scale(1,1)"><path d="M 647.1626748576241 147.790482243984 L 637 152 L 647.1626748576241 156.209517756016" fill="none" stroke="#000000" stroke-miterlimit="10"/></g><g transform="translate(-14,-30) scale(1,1)"><g><path fill="none" stroke="none"/><text fill="#000000" font-family="Arial" font-size="13px" font-style="normal" font-weight="normal" stroke="none" text-decoration="none" x="715.5" y="167">4 : response</text></g></g><g transform="translate(-14,-30) scale(1,1)"><path d="M 624 176 L 395 176" fill="none" stroke="#000000" stroke-dasharray="3" stroke-miterlimit="10"/></g><g transform="translate(-14,-30) scale(1,1)"><path d="M 405.16267485762415 171.790482243984 L 395 176 L 405.16267485762415 180.209517756016" fill="none" stroke="#000000" stroke-miterlimit="10"/></g><g transform="translate(-14,-30) scale(1,1)"><g><path fill="none" stroke="none"/><text fill="#000000" font-family="Arial" font-size="13px" font-style="normal" font-weight="normal" stroke="none" text-decoration="none" x="437.5" y="191">5 : AfficherRéclamations</text></g></g><g transform="translate(-14,-30) scale(1,1)"><path d="M 169 216 L 382 216" fill="none" stroke="#000000" stroke-miterlimit="10"/></g><g transform="translate(-14,-30) scale(1,1)"><path d="M 371.83732514237585 220.209517756016 L 382 216 L 371.83732514237585 211.790482243984" fill="#000000" stroke="none"/></g><g transform="translate(-14,-30) scale(1,1)"><path d="M 371.83732514237585 220.209517756016 L 382 216 L 371.83732514237585 211.790482243984 L 371.83732514237585 220.209517756016" fill="none" stroke="#000000" stroke-miterlimit="10"/></g><g transform="translate(-14,-30) scale(1,1)"><g><path fill="none" stroke="none"/><text fill="#000000" font-family="Arial" font-size="13px" font-style="normal" font-weight="normal" stroke="none" text-decoration="none" x="193.5" y="211">6 : saisir titre de réclamation</text></g></g><g transform="translate(-14,-30) scale(1,1)"><rect fill="#ffffff" height="38" stroke="none" width="13" x="382" y="216"/></g><g transform="translate(-14,-30) scale(1,1)"><path d="M 382 216 L 395 216 L 395 254 L 382 254 L 382 216 Z Z" fill="none" stroke="#000000" stroke-miterlimit="10"/></g><g transform="translate(-14,-30) scale(1,1)"><path d="M 169 272 L 382 272" fill="none" stroke="#000000" stroke-miterlimit="10"/></g><g transform="translate(-14,-30) scale(1,1)"><path d="M 371.83732514237585 276.209517756016 L 382 272 L 371.83732514237585 267.790482243984" fill="#000000" stroke="none"/></g><g transform="translate(-14,-30) scale(1,1)"><path d="M 371.83732514237585 276.209517756016 L 382 272 L 371.83732514237585 267.790482243984 L 371.83732514237585 276.209517756016" fill="none" stroke="#000000" stroke-miterlimit="10"/></g><g transform="translate(-14,-30) scale(1,1)"><g><path fill="none" stroke="none"/><text fill="#000000" font-family="Arial" font-size="13px" font-style="normal" font-weight="normal" stroke="none" text-decoration="none" x="173.5" y="259">7 : saisir description de réclamation</text></g></g><g transform="translate(-14,-30) scale(1,1)"><rect fill="#ffffff" height="28" stroke="none" width="13" x="382" y="272"/></g><g transform="translate(-14,-30) scale(1,1)"><path d="M 382 272 L 395 272 L 395 300 L 382 300 L 382 272 Z Z" fill="none" stroke="#000000" stroke-miterlimit="10"/></g><g transform="translate(-14,-30) scale(1,1)"><path d="M 169 321 L 382 321" fill="none" stroke="#000000" stroke-miterlimit="10"/></g><g transform="translate(-14,-30) scale(1,1)"><path d="M 371.83732514237585 325.209517756016 L 382 321 L 371.83732514237585 316.790482243984" fill="#000000" stroke="none"/></g><g transform="translate(-14,-30) scale(1,1)"><path d="M 371.83732514237585 325.209517756016 L 382 321 L 371.83732514237585 316.790482243984 L 371.83732514237585 325.209517756016" fill="none" stroke="#000000" stroke-miterlimit="10"/></g><g transform="translate(-14,-30) scale(1,1)"><g><path fill="none" stroke="none"/><text fill="#000000" font-family="Arial" font-size="13px" font-style="normal" font-weight="normal" stroke="none" text-decoration="none" x="210.5" y="316">8 : ajouter réclamation</text></g></g><g transform="translate(-14,-30) scale(1,1)"><rect fill="#ffffff" height="28" stroke="none" width="13" x="382" y="321"/></g><g transform="translate(-14,-30) scale(1,1)"><path d="M 382 321 L 395 321 L 395 349 L 382 349 L 382 321 Z Z" fill="none" stroke="#000000" stroke-miterlimit="10"/></g><g transform="translate(-14,-30) scale(1,1)"><path d="M 395 344 L 624 344" fill="none" stroke="#000000" stroke-miterlimit="10"/></g><g transform="translate(-14,-30) scale(1,1)"><path d="M 613.8373251423759 348.209517756016 L 624 344 L 613.8373251423758 339.790482243984" fill="#000000" stroke="none"/></g><g transform="translate(-14,-30) scale(1,1)"><path d="M 613.8373251423759 348.209517756016 L 624 344 L 613.8373251423758 339.790482243984 L 613.8373251423759 348.209517756016" fill="none" stroke="#000000" stroke-miterlimit="10"/></g><g transform="translate(-14,-30) scale(1,1)"><g><path fill="none" stroke="none"/><text fill="#000000" font-family="Arial" font-size="13px" font-style="normal" font-weight="normal" stroke="none" text-decoration="none" x="468.114990234375" y="339">9 : requete sql</text></g></g><g transform="translate(-14,-30) scale(1,1)"><rect fill="#ffffff" height="48" stroke="none" width="13" x="624" y="344"/></g><g transform="translate(-14,-30) scale(1,1)"><path d="M 624 344 L 637 344 L 637 392 L 624 392 L 624 344 Z Z" fill="none" stroke="#000000" stroke-miterlimit="10"/></g><g transform="translate(-14,-30) scale(1,1)"><path d="M 637 360 L 867 360" fill="none" stroke="#000000" stroke-miterlimit="10"/></g><g transform="translate(-14,-30) scale(1,1)"><path d="M 856.8373251423759 364.209517756016 L 867 360 L 856.8373251423758 355.790482243984" fill="#000000" stroke="none"/></g><g transform="translate(-14,-30) scale(1,1)"><path d="M 856.8373251423759 364.209517756016 L 867 360 L 856.8373251423758 355.790482243984 L 856.8373251423759 364.209517756016" fill="none" stroke="#000000" stroke-miterlimit="10"/></g><g transform="translate(-14,-30) scale(1,1)"><g><path fill="none" stroke="none"/><text fill="#000000" font-family="Arial" font-size="13px" font-style="normal" font-weight="normal" stroke="none" text-decoration="none" x="671.5" y="354">10 : CréationRéclamation</text></g></g><g transform="translate(-14,-30) scale(1,1)"><rect fill="#ffffff" height="28" stroke="none" width="13" x="867" y="360"/></g><g transform="translate(-14,-30) scale(1,1)"><path d="M 867 360 L 880 360 L 880 388 L 867 388 L 867 360 Z Z" fill="none" stroke="#000000" stroke-miterlimit="10"/></g><g transform="translate(-14,-30) scale(1,1)"><path d="M 867 384 L 637 384" fill="none" stroke="#000000" stroke-dasharray="3" stroke-miterlimit="10"/></g><g transform="translate(-14,-30) scale(1,1)"><path d="M 647.1626748576241 379.790482243984 L 637 384 L 647.1626748576241 388.209517756016" fill="none" stroke="#000000" stroke-miterlimit="10"/></g><g transform="translate(-14,-30) scale(1,1)"><g><path fill="none" stroke="none"/><text fill="#000000" font-family="Arial" font-size="13px" font-style="normal" font-weight="normal" stroke="none" text-decoration="none" x="711.982421875" y="399">11 : response</text></g></g><g transform="translate(-14,-30) scale(1,1)"><path d="M 631 448 L 395 448" fill="none" stroke="#000000" stroke-miterlimit="10"/></g><g transform="translate(-14,-30) scale(1,1)"><path d="M 405.16267485762415 443.790482243984 L 395 448 L 405.16267485762415 452.209517756016" fill="#000000" stroke="none"/></g><g transform="translate(-14,-30) scale(1,1)"><path d="M 405.16267485762415 443.790482243984 L 395 448 L 405.16267485762415 452.209517756016 L 405.16267485762415 443.790482243984" fill="none" stroke="#000000" stroke-miterlimit="10"/></g><g transform="translate(-14,-30) scale(1,1)"><g><path fill="none" stroke="none"/><text fill="#000000" font-family="Arial" font-size="13px" font-style="normal" font-weight="normal" stroke="none" text-decoration="none" x="416.5" y="463">12 : AfficherNouvelleRéclamation</text></g></g><g transform="translate(-14,-30) scale(1,1)"><rect fill="#ffffff" height="28" stroke="none" width="13" x="382" y="448"/></g><g transform="translate(-14,-30) scale(1,1)"><path d="M 382 448 L 395 448 L 395 476 L 382 476 L 382 448 Z Z" fill="none" stroke="#000000" stroke-miterlimit="10"/></g><g transform="translate(-14,-30) scale(1,1)"><path d="M 631 528 L 395 528" fill="none" stroke="#000000" stroke-miterlimit="10"/></g><g transform="translate(-14,-30) scale(1,1)"><path d="M 405.16267485762415 523.790482243984 L 395 528 L 405.16267485762415 532.209517756016" fill="#000000" stroke="none"/></g><g transform="translate(-14,-30) scale(1,1)"><path d="M 405.16267485762415 523.790482243984 L 395 528 L 405.16267485762415 532.209517756016 L 405.16267485762415 523.790482243984" fill="none" stroke="#000000" stroke-miterlimit="10"/></g><g transform="translate(-14,-30) scale(1,1)"><g><path fill="none" stroke="none"/><text fill="#000000" font-family="Arial" font-size="13px" font-style="normal" font-weight="normal" stroke="none" text-decoration="none" x="482.15087890625" y="543">13 : erreur</text></g></g><g transform="translate(-14,-30) scale(1,1)"><rect fill="#ffffff" height="28" stroke="none" width="13" x="382" y="528"/></g><g transform="translate(-14,-30) scale(1,1)"><path d="M 382 528 L 395 528 L 395 556 L 382 556 L 382 528 Z Z" fill="none" stroke="#000000" stroke-miterlimit="10"/></g><g transform="translate(-14,-30) scale(1,1)"><path d="M 136 408 L 935 408 L 935 567 L 136 567 L 136 408" fill="none" stroke="#000000" stroke-miterlimit="10"/></g><g transform="translate(-14,-30) scale(1,1)"><path d="M 136 408 L 136 430 L 186.68994140625 430 L 197.68994140625 419 L 197.68994140625 408 L 136 408" fill="#ffffff" stroke="none"/></g><g transform="translate(-14,-30) scale(1,1)"><path d="M 136 408 L 136 430 L 186.68994140625 430 L 197.68994140625 419 L 197.68994140625 408 L 136 408 L 136 408" fill="none" stroke="#000000" stroke-miterlimit="10"/></g><g transform="translate(-14,-30) scale(1,1)"><g><path fill="none" stroke="none"/><text fill="#000000" font-family="Arial" font-size="13px" font-style="normal" font-weight="normal" stroke="none" text-decoration="none" x="167.9599609375" y="424">alt</text></g></g><g transform="translate(-14,-30) scale(1,1)"><g><path fill="none" stroke="none"/><text fill="#000000" font-family="Arial" font-size="13px" font-style="normal" font-weight="bold" stroke="none" text-decoration="none" x="140.279541015625" y="422.5">seq</text></g></g><g transform="translate(-14,-30) scale(1,1)"><g><path fill="none" stroke="none"/><text fill="#000000" font-family="Arial" font-size="13px" font-style="normal" font-weight="normal" stroke="none" text-decoration="none" x="155.5" y="457">[données valides]</text></g></g><g transform="translate(-14,-30) scale(1,1)"><path d="M 136 497 L 935 497" fill="none" stroke="#000000" stroke-dasharray="10,3" stroke-miterlimit="10"/></g></g></svg>