<?xml version="1.0" encoding="UTF-8" standalone="no"?><svg xmlns="http://www.w3.org/2000/svg" xmlns:xlink="http://www.w3.org/1999/xlink" height="1219" version="1.1" width="979.736328125"><defs/><g><g transform="translate(10,-30) scale(1,1)"><path d="M 0 648 L 691 648 L 691 1239 L 0 1239 L 0 648" fill="none" stroke="#000000" stroke-miterlimit="10"/></g><g transform="translate(10,-30) scale(1,1)"><path d="M 0 648 L 0 670 L 144.63525390625 670 L 155.63525390625 659 L 155.63525390625 648 L 0 648" fill="#ffffff" stroke="none"/></g><g transform="translate(10,-30) scale(1,1)"><path d="M 0 648 L 0 670 L 144.63525390625 670 L 155.63525390625 659 L 155.63525390625 648 L 0 648 L 0 648" fill="none" stroke="#000000" stroke-miterlimit="10"/></g><g transform="translate(10,-30) scale(1,1)"><g><path fill="none" stroke="none"/><text fill="#000000" font-family="Arial" font-size="13px" font-style="normal" font-weight="normal" stroke="none" text-decoration="none" x="24.72998046875" y="664">SequenceDiagram1</text></g></g><g transform="translate(10,-30) scale(1,1)"><g><path fill="none" stroke="none"/><text fill="#000000" font-family="Arial" font-size="13px" font-style="normal" font-weight="bold" stroke="none" text-decoration="none" x="4.279541015625" y="664">sd</text></g></g><g transform="translate(10,-30) scale(1,1)"><rect fill="#C0C0C0" height="39" opacity="0.2" stroke="none" width="81.12451171875" x="167" y="47"/></g><g transform="translate(10,-30) scale(1,1)"><rect fill="#ffffff" height="39" stroke="none" width="81.12451171875" x="160" y="40"/></g><g transform="translate(10,-30) scale(1,1)"><path d="M 160 40 L 241.12451171875 40 L 241.12451171875 79 L 160 79 L 160 40 Z Z" fill="none" stroke="#000000" stroke-miterlimit="10"/></g><g transform="translate(10,-30) scale(1,1)"><g><path fill="none" stroke="none"/><text fill="#000000" font-family="Arial" font-size="13px" font-style="normal" font-weight="bold" stroke="none" text-decoration="none" x="169.5" y="58">utilisateur</text></g></g><g transform="translate(10,-30) scale(1,1)"><path d="M 201.5 80 L 201.5 568" fill="none" stroke="#000000" stroke-dasharray="3" stroke-miterlimit="10"/></g><g transform="translate(10,-30) scale(1,1)"><rect fill="#C0C0C0" height="39" opacity="0.2" stroke="none" width="89.8017578125" x="423" y="47"/></g><g transform="translate(10,-30) scale(1,1)"><rect fill="#ffffff" height="39" stroke="none" width="89.8017578125" x="416" y="40"/></g><g transform="translate(10,-30) scale(1,1)"><path d="M 416 40 L 505.8017578125 40 L 505.8017578125 79 L 416 79 L 416 40 Z Z" fill="none" stroke="#000000" stroke-miterlimit="10"/></g><g transform="translate(10,-30) scale(1,1)"><g><path fill="none" stroke="none"/><text fill="#000000" font-family="Arial" font-size="13px" font-style="normal" font-weight="bold" stroke="none" text-decoration="none" x="425.5" y="58">interface UI</text></g></g><g transform="translate(10,-30) scale(1,1)"><path d="M 461.5 80 L 461.5 578" fill="none" stroke="#000000" stroke-dasharray="3" stroke-miterlimit="10"/></g><g transform="translate(10,-30) scale(1,1)"><rect fill="#C0C0C0" height="39" opacity="0.2" stroke="none" width="124.47900390625" x="663" y="47"/></g><g transform="translate(10,-30) scale(1,1)"><rect fill="#ffffff" height="39" stroke="none" width="124.47900390625" x="656" y="40"/></g><g transform="translate(10,-30) scale(1,1)"><path d="M 656 40 L 780.47900390625 40 L 780.47900390625 79 L 656 79 L 656 40 Z Z" fill="none" stroke="#000000" stroke-miterlimit="10"/></g><g transform="translate(10,-30) scale(1,1)"><g><path fill="none" stroke="none"/><text fill="#000000" font-family="Arial" font-size="13px" font-style="normal" font-weight="bold" stroke="none" text-decoration="none" x="665.5" y="58">base de données</text></g></g><g transform="translate(10,-30) scale(1,1)"><path d="M 719.5 80 L 719.5 578" fill="none" stroke="#000000" stroke-dasharray="3" stroke-miterlimit="10"/></g><g transform="translate(10,-30) scale(1,1)"><rect fill="#C0C0C0" height="39" opacity="0.2" stroke="none" width="71.736328125" x="895" y="47"/></g><g transform="translate(10,-30) scale(1,1)"><rect fill="#ffffff" height="39" stroke="none" width="71.736328125" x="888" y="40"/></g><g transform="translate(10,-30) scale(1,1)"><path d="M 888 40 L 959.736328125 40 L 959.736328125 79 L 888 79 L 888 40 Z Z" fill="none" stroke="#000000" stroke-miterlimit="10"/></g><g transform="translate(10,-30) scale(1,1)"><g><path fill="none" stroke="none"/><text fill="#000000" font-family="Arial" font-size="13px" font-style="normal" font-weight="bold" stroke="none" text-decoration="none" x="900.03271484375" y="58">Congés</text></g></g><g transform="translate(10,-30) scale(1,1)"><path d="M 924.5 80 L 924.5 568" fill="none" stroke="#000000" stroke-dasharray="3" stroke-miterlimit="10"/></g><g transform="translate(10,-30) scale(1,1)"><path d="M 201 110 L 454 110" fill="none" stroke="#000000" stroke-miterlimit="10"/></g><g transform="translate(10,-30) scale(1,1)"><path d="M 443.83732514237585 114.20951775601598 L 454 110 L 443.83732514237585 105.79048224398402" fill="#000000" stroke="none"/></g><g transform="translate(10,-30) scale(1,1)"><path d="M 443.83732514237585 114.20951775601598 L 454 110 L 443.83732514237585 105.79048224398402 L 443.83732514237585 114.20951775601598" fill="none" stroke="#000000" stroke-miterlimit="10"/></g><g transform="translate(10,-30) scale(1,1)"><g><path fill="none" stroke="none"/><text fill="#000000" font-family="Arial" font-size="13px" font-style="normal" font-weight="normal" stroke="none" text-decoration="none" x="262.5" y="105">1 : OuvrirPageCongés</text></g></g><g transform="translate(10,-30) scale(1,1)"><rect fill="#ffffff" height="74" stroke="none" width="13" x="454" y="110"/></g><g transform="translate(10,-30) scale(1,1)"><path d="M 454 110 L 467 110 L 467 184 L 454 184 L 454 110 Z Z" fill="none" stroke="#000000" stroke-miterlimit="10"/></g><g transform="translate(10,-30) scale(1,1)"><path d="M 467 120 L 712 120" fill="none" stroke="#000000" stroke-miterlimit="10"/></g><g transform="translate(10,-30) scale(1,1)"><path d="M 701.8373251423759 124.20951775601598 L 712 120 L 701.8373251423758 115.79048224398402" fill="#000000" stroke="none"/></g><g transform="translate(10,-30) scale(1,1)"><path d="M 701.8373251423759 124.20951775601598 L 712 120 L 701.8373251423758 115.79048224398402 L 701.8373251423759 124.20951775601598" fill="none" stroke="#000000" stroke-miterlimit="10"/></g><g transform="translate(10,-30) scale(1,1)"><g><path fill="none" stroke="none"/><text fill="#000000" font-family="Arial" font-size="13px" font-style="normal" font-weight="normal" stroke="none" text-decoration="none" x="534.5" y="115">2 : ChargerCongés</text></g></g><g transform="translate(10,-30) scale(1,1)"><rect fill="#ffffff" height="48" stroke="none" width="13" x="712" y="120"/></g><g transform="translate(10,-30) scale(1,1)"><path d="M 712 120 L 725 120 L 725 168 L 712 168 L 712 120 Z Z" fill="none" stroke="#000000" stroke-miterlimit="10"/></g><g transform="translate(10,-30) scale(1,1)"><path d="M 725 128 L 917 128" fill="none" stroke="#000000" stroke-miterlimit="10"/></g><g transform="translate(10,-30) scale(1,1)"><path d="M 906.8373251423759 132.209517756016 L 917 128 L 906.8373251423758 123.79048224398402" fill="#000000" stroke="none"/></g><g transform="translate(10,-30) scale(1,1)"><path d="M 906.8373251423759 132.209517756016 L 917 128 L 906.8373251423758 123.79048224398402 L 906.8373251423759 132.209517756016" fill="none" stroke="#000000" stroke-miterlimit="10"/></g><g transform="translate(10,-30) scale(1,1)"><g><path fill="none" stroke="none"/><text fill="#000000" font-family="Arial" font-size="13px" font-style="normal" font-weight="normal" stroke="none" text-decoration="none" x="794.509521484375" y="123">3 : select</text></g></g><g transform="translate(10,-30) scale(1,1)"><rect fill="#ffffff" height="28" stroke="none" width="13" x="917" y="128"/></g><g transform="translate(10,-30) scale(1,1)"><path d="M 917 128 L 930 128 L 930 156 L 917 156 L 917 128 Z Z" fill="none" stroke="#000000" stroke-miterlimit="10"/></g><g transform="translate(10,-30) scale(1,1)"><path d="M 917 152 L 725 152" fill="none" stroke="#000000" stroke-dasharray="3" stroke-miterlimit="10"/></g><g transform="translate(10,-30) scale(1,1)"><path d="M 735.1626748576241 147.790482243984 L 725 152 L 735.1626748576241 156.209517756016" fill="none" stroke="#000000" stroke-miterlimit="10"/></g><g transform="translate(10,-30) scale(1,1)"><g><path fill="none" stroke="none"/><text fill="#000000" font-family="Arial" font-size="13px" font-style="normal" font-weight="normal" stroke="none" text-decoration="none" x="784.5" y="167">4 : response</text></g></g><g transform="translate(10,-30) scale(1,1)"><path d="M 201 232 L 454 232" fill="none" stroke="#000000" stroke-miterlimit="10"/></g><g transform="translate(10,-30) scale(1,1)"><path d="M 443.83732514237585 236.209517756016 L 454 232 L 443.83732514237585 227.790482243984" fill="#000000" stroke="none"/></g><g transform="translate(10,-30) scale(1,1)"><path d="M 443.83732514237585 236.209517756016 L 454 232 L 443.83732514237585 227.790482243984 L 443.83732514237585 236.209517756016" fill="none" stroke="#000000" stroke-miterlimit="10"/></g><g transform="translate(10,-30) scale(1,1)"><g><path fill="none" stroke="none"/><text fill="#000000" font-family="Arial" font-size="13px" font-style="normal" font-weight="normal" stroke="none" text-decoration="none" x="250.5" y="227">5 : ajouter raison de congé</text></g></g><g transform="translate(10,-30) scale(1,1)"><rect fill="#ffffff" height="28" stroke="none" width="13" x="454" y="232"/></g><g transform="translate(10,-30) scale(1,1)"><path d="M 454 232 L 467 232 L 467 260 L 454 260 L 454 232 Z Z" fill="none" stroke="#000000" stroke-miterlimit="10"/></g><g transform="translate(10,-30) scale(1,1)"><path d="M 201 308 L 454 308" fill="none" stroke="#000000" stroke-miterlimit="10"/></g><g transform="translate(10,-30) scale(1,1)"><path d="M 443.83732514237585 312.209517756016 L 454 308 L 443.83732514237585 303.790482243984" fill="#000000" stroke="none"/></g><g transform="translate(10,-30) scale(1,1)"><path d="M 443.83732514237585 312.209517756016 L 454 308 L 443.83732514237585 303.790482243984 L 443.83732514237585 312.209517756016" fill="none" stroke="#000000" stroke-miterlimit="10"/></g><g transform="translate(10,-30) scale(1,1)"><g><path fill="none" stroke="none"/><text fill="#000000" font-family="Arial" font-size="13px" font-style="normal" font-weight="normal" stroke="none" text-decoration="none" x="247.5" y="303">6 : ajouter date départ et fin</text></g></g><g transform="translate(10,-30) scale(1,1)"><rect fill="#ffffff" height="28" stroke="none" width="13" x="454" y="308"/></g><g transform="translate(10,-30) scale(1,1)"><path d="M 454 308 L 467 308 L 467 336 L 454 336 L 454 308 Z Z" fill="none" stroke="#000000" stroke-miterlimit="10"/></g><g transform="translate(10,-30) scale(1,1)"><path d="M 201 362 L 454 362" fill="none" stroke="#000000" stroke-miterlimit="10"/></g><g transform="translate(10,-30) scale(1,1)"><path d="M 443.83732514237585 366.209517756016 L 454 362 L 443.83732514237585 357.790482243984" fill="#000000" stroke="none"/></g><g transform="translate(10,-30) scale(1,1)"><path d="M 443.83732514237585 366.209517756016 L 454 362 L 443.83732514237585 357.790482243984 L 443.83732514237585 366.209517756016" fill="none" stroke="#000000" stroke-miterlimit="10"/></g><g transform="translate(10,-30) scale(1,1)"><g><path fill="none" stroke="none"/><text fill="#000000" font-family="Arial" font-size="13px" font-style="normal" font-weight="normal" stroke="none" text-decoration="none" x="286.5" y="357">7 : enregistrer</text></g></g><g transform="translate(10,-30) scale(1,1)"><rect fill="#ffffff" height="54" stroke="none" width="13" x="454" y="362"/></g><g transform="translate(10,-30) scale(1,1)"><path d="M 454 362 L 467 362 L 467 416 L 454 416 L 454 362 Z Z" fill="none" stroke="#000000" stroke-miterlimit="10"/></g><g transform="translate(10,-30) scale(1,1)"><path d="M 467 368 L 712 368" fill="none" stroke="#000000" stroke-miterlimit="10"/></g><g transform="translate(10,-30) scale(1,1)"><path d="M 701.8373251423759 372.209517756016 L 712 368 L 701.8373251423758 363.790482243984" fill="#000000" stroke="none"/></g><g transform="translate(10,-30) scale(1,1)"><path d="M 701.8373251423759 372.209517756016 L 712 368 L 701.8373251423758 363.790482243984 L 701.8373251423759 372.209517756016" fill="none" stroke="#000000" stroke-miterlimit="10"/></g><g transform="translate(10,-30) scale(1,1)"><g><path fill="none" stroke="none"/><text fill="#000000" font-family="Arial" font-size="13px" font-style="normal" font-weight="normal" stroke="none" text-decoration="none" x="547.5" y="363">8 : requete sql</text></g></g><g transform="translate(10,-30) scale(1,1)"><rect fill="#ffffff" height="56" stroke="none" width="13" x="712" y="368"/></g><g transform="translate(10,-30) scale(1,1)"><path d="M 712 368 L 725 368 L 725 424 L 712 424 L 712 368 Z Z" fill="none" stroke="#000000" stroke-miterlimit="10"/></g><g transform="translate(10,-30) scale(1,1)"><path d="M 725 384 L 917 384" fill="none" stroke="#000000" stroke-miterlimit="10"/></g><g transform="translate(10,-30) scale(1,1)"><path d="M 906.8373251423759 388.209517756016 L 917 384 L 906.8373251423758 379.790482243984" fill="#000000" stroke="none"/></g><g transform="translate(10,-30) scale(1,1)"><path d="M 906.8373251423759 388.209517756016 L 917 384 L 906.8373251423758 379.790482243984 L 906.8373251423759 388.209517756016" fill="none" stroke="#000000" stroke-miterlimit="10"/></g><g transform="translate(10,-30) scale(1,1)"><g><path fill="none" stroke="none"/><text fill="#000000" font-family="Arial" font-size="13px" font-style="normal" font-weight="normal" stroke="none" text-decoration="none" x="740.5" y="379">9 : CréationDemandeCongé</text></g></g><g transform="translate(10,-30) scale(1,1)"><rect fill="#ffffff" height="28" stroke="none" width="13" x="917" y="384"/></g><g transform="translate(10,-30) scale(1,1)"><path d="M 917 384 L 930 384 L 930 412 L 917 412 L 917 384 Z Z" fill="none" stroke="#000000" stroke-miterlimit="10"/></g><g transform="translate(10,-30) scale(1,1)"><path d="M 917 408 L 725 408" fill="none" stroke="#000000" stroke-dasharray="3" stroke-miterlimit="10"/></g><g transform="translate(10,-30) scale(1,1)"><path d="M 735.1626748576241 403.790482243984 L 725 408 L 735.1626748576241 412.209517756016" fill="none" stroke="#000000" stroke-miterlimit="10"/></g><g transform="translate(10,-30) scale(1,1)"><g><path fill="none" stroke="none"/><text fill="#000000" font-family="Arial" font-size="13px" font-style="normal" font-weight="normal" stroke="none" text-decoration="none" x="780.5" y="423">10 : response</text></g></g><g transform="translate(10,-30) scale(1,1)"><path d="M 719 464 L 467 464" fill="none" stroke="#000000" stroke-miterlimit="10"/></g><g transform="translate(10,-30) scale(1,1)"><path d="M 477.16267485762415 459.790482243984 L 467 464 L 477.16267485762415 468.209517756016" fill="#000000" stroke="none"/></g><g transform="translate(10,-30) scale(1,1)"><path d="M 477.16267485762415 459.790482243984 L 467 464 L 477.16267485762415 468.209517756016 L 477.16267485762415 459.790482243984" fill="none" stroke="#000000" stroke-miterlimit="10"/></g><g transform="translate(10,-30) scale(1,1)"><g><path fill="none" stroke="none"/><text fill="#000000" font-family="Arial" font-size="13px" font-style="normal" font-weight="normal" stroke="none" text-decoration="none" x="485.220458984375" y="479">11 : AfficherNouvelleDemandeCongé</text></g></g><g transform="translate(10,-30) scale(1,1)"><rect fill="#ffffff" height="28" stroke="none" width="13" x="454" y="464"/></g><g transform="translate(10,-30) scale(1,1)"><path d="M 454 464 L 467 464 L 467 492 L 454 492 L 454 464 Z Z" fill="none" stroke="#000000" stroke-miterlimit="10"/></g><g transform="translate(10,-30) scale(1,1)"><path d="M 719 536 L 467 536" fill="none" stroke="#000000" stroke-miterlimit="10"/></g><g transform="translate(10,-30) scale(1,1)"><path d="M 477.16267485762415 531.790482243984 L 467 536 L 477.16267485762415 540.209517756016" fill="#000000" stroke="none"/></g><g transform="translate(10,-30) scale(1,1)"><path d="M 477.16267485762415 531.790482243984 L 467 536 L 477.16267485762415 540.209517756016 L 477.16267485762415 531.790482243984" fill="none" stroke="#000000" stroke-miterlimit="10"/></g><g transform="translate(10,-30) scale(1,1)"><g><path fill="none" stroke="none"/><text fill="#000000" font-family="Arial" font-size="13px" font-style="normal" font-weight="normal" stroke="none" text-decoration="none" x="562.15087890625" y="551">12 : erreur</text></g></g><g transform="translate(10,-30) scale(1,1)"><rect fill="#ffffff" height="28" stroke="none" width="13" x="454" y="536"/></g><g transform="translate(10,-30) scale(1,1)"><path d="M 454 536 L 467 536 L 467 564 L 454 564 L 454 536 Z Z" fill="none" stroke="#000000" stroke-miterlimit="10"/></g><g transform="translate(10,-30) scale(1,1)"><path d="M 128 432 L 951 432 L 951 567 L 128 567 L 128 432" fill="none" stroke="#000000" stroke-miterlimit="10"/></g><g transform="translate(10,-30) scale(1,1)"><path d="M 128 432 L 128 454 L 178.68994140625 454 L 189.68994140625 443 L 189.68994140625 432 L 128 432" fill="#ffffff" stroke="none"/></g><g transform="translate(10,-30) scale(1,1)"><path d="M 128 432 L 128 454 L 178.68994140625 454 L 189.68994140625 443 L 189.68994140625 432 L 128 432 L 128 432" fill="none" stroke="#000000" stroke-miterlimit="10"/></g><g transform="translate(10,-30) scale(1,1)"><g><path fill="none" stroke="none"/><text fill="#000000" font-family="Arial" font-size="13px" font-style="normal" font-weight="normal" stroke="none" text-decoration="none" x="159.9599609375" y="448">alt</text></g></g><g transform="translate(10,-30) scale(1,1)"><g><path fill="none" stroke="none"/><text fill="#000000" font-family="Arial" font-size="13px" font-style="normal" font-weight="bold" stroke="none" text-decoration="none" x="132.279541015625" y="446.5">seq</text></g></g><g transform="translate(10,-30) scale(1,1)"><g><path fill="none" stroke="none"/><text fill="#000000" font-family="Arial" font-size="13px" font-style="normal" font-weight="normal" stroke="none" text-decoration="none" x="147.5" y="481">[données valides]</text></g></g><g transform="translate(10,-30) scale(1,1)"><path d="M 128 498 L 951 498" fill="none" stroke="#000000" stroke-dasharray="10,3" stroke-miterlimit="10"/></g></g></svg>