<?xml version="1.0" encoding="UTF-8" standalone="no"?><svg xmlns="http://www.w3.org/2000/svg" xmlns:xlink="http://www.w3.org/1999/xlink" height="1056" version="1.1" width="995.75537109375"><defs/><g><g transform="translate(10,-30) scale(1,1)"><path d="M 0 1024 L 691 1024 L 691 1076 L 0 1076 L 0 1024" fill="none" stroke="#000000" stroke-miterlimit="10"/></g><g transform="translate(10,-30) scale(1,1)"><path d="M 0 1024 L 0 1046 L 144.63525390625 1046 L 155.63525390625 1035 L 155.63525390625 1024 L 0 1024" fill="#ffffff" stroke="none"/></g><g transform="translate(10,-30) scale(1,1)"><path d="M 0 1024 L 0 1046 L 144.63525390625 1046 L 155.63525390625 1035 L 155.63525390625 1024 L 0 1024 L 0 1024" fill="none" stroke="#000000" stroke-miterlimit="10"/></g><g transform="translate(10,-30) scale(1,1)"><g><path fill="none" stroke="none"/><text fill="#000000" font-family="Arial" font-size="13px" font-style="normal" font-weight="normal" stroke="none" text-decoration="none" x="24.72998046875" y="1040">SequenceDiagram1</text></g></g><g transform="translate(10,-30) scale(1,1)"><g><path fill="none" stroke="none"/><text fill="#000000" font-family="Arial" font-size="13px" font-style="normal" font-weight="bold" stroke="none" text-decoration="none" x="4.279541015625" y="1040">sd</text></g></g><g transform="translate(10,-30) scale(1,1)"><rect fill="#C0C0C0" height="39" opacity="0.2" stroke="none" width="71.736328125" x="39" y="47"/></g><g transform="translate(10,-30) scale(1,1)"><rect fill="#ffffff" height="39" stroke="none" width="71.736328125" x="32" y="40"/></g><g transform="translate(10,-30) scale(1,1)"><path d="M 32 40 L 103.736328125 40 L 103.736328125 79 L 32 79 L 32 40 Z Z" fill="none" stroke="#000000" stroke-miterlimit="10"/></g><g transform="translate(10,-30) scale(1,1)"><g><path fill="none" stroke="none"/><text fill="#000000" font-family="Arial" font-size="13px" font-style="normal" font-weight="bold" stroke="none" text-decoration="none" x="50.891357421875" y="58">client</text></g></g><g transform="translate(10,-30) scale(1,1)"><path d="M 68.5 80 L 68.5 656" fill="none" stroke="#000000" stroke-dasharray="3" stroke-miterlimit="10"/></g><g transform="translate(10,-30) scale(1,1)"><rect fill="#C0C0C0" height="39" opacity="0.2" stroke="none" width="89.8017578125" x="303" y="47"/></g><g transform="translate(10,-30) scale(1,1)"><rect fill="#ffffff" height="39" stroke="none" width="89.8017578125" x="296" y="40"/></g><g transform="translate(10,-30) scale(1,1)"><path d="M 296 40 L 385.8017578125 40 L 385.8017578125 79 L 296 79 L 296 40 Z Z" fill="none" stroke="#000000" stroke-miterlimit="10"/></g><g transform="translate(10,-30) scale(1,1)"><g><path fill="none" stroke="none"/><text fill="#000000" font-family="Arial" font-size="13px" font-style="normal" font-weight="bold" stroke="none" text-decoration="none" x="305.5" y="58">interface UI</text></g></g><g transform="translate(10,-30) scale(1,1)"><path d="M 341.5 80 L 341.5 656" fill="none" stroke="#000000" stroke-dasharray="3" stroke-miterlimit="10"/></g><g transform="translate(10,-30) scale(1,1)"><rect fill="#C0C0C0" height="39" opacity="0.2" stroke="none" width="124.47900390625" x="575" y="47"/></g><g transform="translate(10,-30) scale(1,1)"><rect fill="#ffffff" height="39" stroke="none" width="124.47900390625" x="568" y="40"/></g><g transform="translate(10,-30) scale(1,1)"><path d="M 568 40 L 692.47900390625 40 L 692.47900390625 79 L 568 79 L 568 40 Z Z" fill="none" stroke="#000000" stroke-miterlimit="10"/></g><g transform="translate(10,-30) scale(1,1)"><g><path fill="none" stroke="none"/><text fill="#000000" font-family="Arial" font-size="13px" font-style="normal" font-weight="bold" stroke="none" text-decoration="none" x="577.5" y="58">base de données</text></g></g><g transform="translate(10,-30) scale(1,1)"><path d="M 631.5 80 L 631.5 656" fill="none" stroke="#000000" stroke-dasharray="3" stroke-miterlimit="10"/></g><g transform="translate(10,-30) scale(1,1)"><rect fill="#C0C0C0" height="39" opacity="0.2" stroke="none" width="175.75537109375" x="807" y="47"/></g><g transform="translate(10,-30) scale(1,1)"><rect fill="#ffffff" height="39" stroke="none" width="175.75537109375" x="800" y="40"/></g><g transform="translate(10,-30) scale(1,1)"><path d="M 800 40 L 975.75537109375 40 L 975.75537109375 79 L 800 79 L 800 40 Z Z" fill="none" stroke="#000000" stroke-miterlimit="10"/></g><g transform="translate(10,-30) scale(1,1)"><g><path fill="none" stroke="none"/><text fill="#000000" font-family="Arial" font-size="13px" font-style="normal" font-weight="bold" stroke="none" text-decoration="none" x="817.44091796875" y="58">Assurances Habitation</text></g></g><g transform="translate(10,-30) scale(1,1)"><path d="M 888.5 80 L 888.5 656" fill="none" stroke="#000000" stroke-dasharray="3" stroke-miterlimit="10"/></g><g transform="translate(10,-30) scale(1,1)"><path d="M 68 113 L 334 113" fill="none" stroke="#000000" stroke-miterlimit="10"/></g><g transform="translate(10,-30) scale(1,1)"><path d="M 323.83732514237585 117.20951775601598 L 334 113 L 323.83732514237585 108.79048224398402" fill="#000000" stroke="none"/></g><g transform="translate(10,-30) scale(1,1)"><path d="M 323.83732514237585 117.20951775601598 L 334 113 L 323.83732514237585 108.79048224398402 L 323.83732514237585 117.20951775601598" fill="none" stroke="#000000" stroke-miterlimit="10"/></g><g transform="translate(10,-30) scale(1,1)"><g><path fill="none" stroke="none"/><text fill="#000000" font-family="Arial" font-size="13px" font-style="normal" font-weight="normal" stroke="none" text-decoration="none" x="93.5" y="108">1 : ChargerPageAssuranceHabitation</text></g></g><g transform="translate(10,-30) scale(1,1)"><rect fill="#ffffff" height="87" stroke="none" width="13" x="334" y="113"/></g><g transform="translate(10,-30) scale(1,1)"><path d="M 334 113 L 347 113 L 347 200 L 334 200 L 334 113 Z Z" fill="none" stroke="#000000" stroke-miterlimit="10"/></g><g transform="translate(10,-30) scale(1,1)"><path d="M 347 130 L 624 130" fill="none" stroke="#000000" stroke-miterlimit="10"/></g><g transform="translate(10,-30) scale(1,1)"><path d="M 613.8373251423759 134.209517756016 L 624 130 L 613.8373251423758 125.79048224398402" fill="#000000" stroke="none"/></g><g transform="translate(10,-30) scale(1,1)"><path d="M 613.8373251423759 134.209517756016 L 624 130 L 613.8373251423758 125.79048224398402 L 613.8373251423759 134.209517756016" fill="none" stroke="#000000" stroke-miterlimit="10"/></g><g transform="translate(10,-30) scale(1,1)"><g><path fill="none" stroke="none"/><text fill="#000000" font-family="Arial" font-size="13px" font-style="normal" font-weight="normal" stroke="none" text-decoration="none" x="361.5" y="125">2 : ChargerDemandeAssurancesHabitation</text></g></g><g transform="translate(10,-30) scale(1,1)"><rect fill="#ffffff" height="62" stroke="none" width="13" x="624" y="130"/></g><g transform="translate(10,-30) scale(1,1)"><path d="M 624 130 L 637 130 L 637 192 L 624 192 L 624 130 Z Z" fill="none" stroke="#000000" stroke-miterlimit="10"/></g><g transform="translate(10,-30) scale(1,1)"><path d="M 637 138 L 881 138" fill="none" stroke="#000000" stroke-miterlimit="10"/></g><g transform="translate(10,-30) scale(1,1)"><path d="M 870.8373251423759 142.209517756016 L 881 138 L 870.8373251423758 133.790482243984" fill="#000000" stroke="none"/></g><g transform="translate(10,-30) scale(1,1)"><path d="M 870.8373251423759 142.209517756016 L 881 138 L 870.8373251423758 133.790482243984 L 870.8373251423759 142.209517756016" fill="none" stroke="#000000" stroke-miterlimit="10"/></g><g transform="translate(10,-30) scale(1,1)"><g><path fill="none" stroke="none"/><text fill="#000000" font-family="Arial" font-size="13px" font-style="normal" font-weight="normal" stroke="none" text-decoration="none" x="732.509521484375" y="133">3 : select</text></g></g><g transform="translate(10,-30) scale(1,1)"><rect fill="#ffffff" height="28" stroke="none" width="13" x="881" y="138"/></g><g transform="translate(10,-30) scale(1,1)"><path d="M 881 138 L 894 138 L 894 166 L 881 166 L 881 138 Z Z" fill="none" stroke="#000000" stroke-miterlimit="10"/></g><g transform="translate(10,-30) scale(1,1)"><path d="M 881 154 L 637 154" fill="none" stroke="#000000" stroke-dasharray="3" stroke-miterlimit="10"/></g><g transform="translate(10,-30) scale(1,1)"><path d="M 647.1626748576241 149.790482243984 L 637 154 L 647.1626748576241 158.209517756016" fill="none" stroke="#000000" stroke-miterlimit="10"/></g><g transform="translate(10,-30) scale(1,1)"><g><path fill="none" stroke="none"/><text fill="#000000" font-family="Arial" font-size="13px" font-style="normal" font-weight="normal" stroke="none" text-decoration="none" x="722.5" y="169">4 : response</text></g></g><g transform="translate(10,-30) scale(1,1)"><path d="M 624 184 L 347 184" fill="none" stroke="#000000" stroke-dasharray="3" stroke-miterlimit="10"/></g><g transform="translate(10,-30) scale(1,1)"><path d="M 357.16267485762415 179.790482243984 L 347 184 L 357.16267485762415 188.209517756016" fill="none" stroke="#000000" stroke-miterlimit="10"/></g><g transform="translate(10,-30) scale(1,1)"><g><path fill="none" stroke="none"/><text fill="#000000" font-family="Arial" font-size="13px" font-style="normal" font-weight="normal" stroke="none" text-decoration="none" x="368.5" y="199">5 : Charger(Page Assurance Habitation)</text></g></g><g transform="translate(10,-30) scale(1,1)"><path d="M 68 248 L 334 248" fill="none" stroke="#000000" stroke-miterlimit="10"/></g><g transform="translate(10,-30) scale(1,1)"><path d="M 323.83732514237585 252.209517756016 L 334 248 L 323.83732514237585 243.790482243984" fill="#000000" stroke="none"/></g><g transform="translate(10,-30) scale(1,1)"><path d="M 323.83732514237585 252.209517756016 L 334 248 L 323.83732514237585 243.790482243984 L 323.83732514237585 252.209517756016" fill="none" stroke="#000000" stroke-miterlimit="10"/></g><g transform="translate(10,-30) scale(1,1)"><g><path fill="none" stroke="none"/><text fill="#000000" font-family="Arial" font-size="13px" font-style="normal" font-weight="normal" stroke="none" text-decoration="none" x="146.936767578125" y="243">6 : saisir superficie</text></g></g><g transform="translate(10,-30) scale(1,1)"><rect fill="#ffffff" height="28" stroke="none" width="13" x="334" y="248"/></g><g transform="translate(10,-30) scale(1,1)"><path d="M 334 248 L 347 248 L 347 276 L 334 276 L 334 248 Z Z" fill="none" stroke="#000000" stroke-miterlimit="10"/></g><g transform="translate(10,-30) scale(1,1)"><path d="M 68 296 L 334 296" fill="none" stroke="#000000" stroke-miterlimit="10"/></g><g transform="translate(10,-30) scale(1,1)"><path d="M 323.83732514237585 300.209517756016 L 334 296 L 323.83732514237585 291.790482243984" fill="#000000" stroke="none"/></g><g transform="translate(10,-30) scale(1,1)"><path d="M 323.83732514237585 300.209517756016 L 334 296 L 323.83732514237585 291.790482243984 L 323.83732514237585 300.209517756016" fill="none" stroke="#000000" stroke-miterlimit="10"/></g><g transform="translate(10,-30) scale(1,1)"><g><path fill="none" stroke="none"/><text fill="#000000" font-family="Arial" font-size="13px" font-style="normal" font-weight="normal" stroke="none" text-decoration="none" x="162.278564453125" y="291">7 : saisir type</text></g></g><g transform="translate(10,-30) scale(1,1)"><rect fill="#ffffff" height="28" stroke="none" width="13" x="334" y="296"/></g><g transform="translate(10,-30) scale(1,1)"><path d="M 334 296 L 347 296 L 347 324 L 334 324 L 334 296 Z Z" fill="none" stroke="#000000" stroke-miterlimit="10"/></g><g transform="translate(10,-30) scale(1,1)"><path d="M 68 402 L 334 402" fill="none" stroke="#000000" stroke-miterlimit="10"/></g><g transform="translate(10,-30) scale(1,1)"><path d="M 323.83732514237585 406.209517756016 L 334 402 L 323.83732514237585 397.790482243984" fill="#000000" stroke="none"/></g><g transform="translate(10,-30) scale(1,1)"><path d="M 323.83732514237585 406.209517756016 L 334 402 L 323.83732514237585 397.790482243984 L 323.83732514237585 406.209517756016" fill="none" stroke="#000000" stroke-miterlimit="10"/></g><g transform="translate(10,-30) scale(1,1)"><g><path fill="none" stroke="none"/><text fill="#000000" font-family="Arial" font-size="13px" font-style="normal" font-weight="normal" stroke="none" text-decoration="none" x="106.5" y="397">8 : cliquer sur "ajouter demande"</text></g></g><g transform="translate(10,-30) scale(1,1)"><rect fill="#ffffff" height="54" stroke="none" width="13" x="334" y="402"/></g><g transform="translate(10,-30) scale(1,1)"><path d="M 334 402 L 347 402 L 347 456 L 334 456 L 334 402 Z Z" fill="none" stroke="#000000" stroke-miterlimit="10"/></g><g transform="translate(10,-30) scale(1,1)"><path d="M 347 409 L 624 409" fill="none" stroke="#000000" stroke-miterlimit="10"/></g><g transform="translate(10,-30) scale(1,1)"><path d="M 613.8373251423759 413.209517756016 L 624 409 L 613.8373251423758 404.790482243984" fill="#000000" stroke="none"/></g><g transform="translate(10,-30) scale(1,1)"><path d="M 613.8373251423759 413.209517756016 L 624 409 L 613.8373251423758 404.790482243984 L 613.8373251423759 413.209517756016" fill="none" stroke="#000000" stroke-miterlimit="10"/></g><g transform="translate(10,-30) scale(1,1)"><g><path fill="none" stroke="none"/><text fill="#000000" font-family="Arial" font-size="13px" font-style="normal" font-weight="normal" stroke="none" text-decoration="none" x="444.114990234375" y="404">9 : requête sql</text></g></g><g transform="translate(10,-30) scale(1,1)"><rect fill="#ffffff" height="71" stroke="none" width="13" x="624" y="409"/></g><g transform="translate(10,-30) scale(1,1)"><path d="M 624 409 L 637 409 L 637 480 L 624 480 L 624 409 Z Z" fill="none" stroke="#000000" stroke-miterlimit="10"/></g><g transform="translate(10,-30) scale(1,1)"><path d="M 637 448 L 881 448" fill="none" stroke="#000000" stroke-miterlimit="10"/></g><g transform="translate(10,-30) scale(1,1)"><path d="M 870.8373251423759 452.209517756016 L 881 448 L 870.8373251423758 443.790482243984" fill="#000000" stroke="none"/></g><g transform="translate(10,-30) scale(1,1)"><path d="M 870.8373251423759 452.209517756016 L 881 448 L 870.8373251423758 443.790482243984 L 870.8373251423759 452.209517756016" fill="none" stroke="#000000" stroke-miterlimit="10"/></g><g transform="translate(10,-30) scale(1,1)"><g><path fill="none" stroke="none"/><text fill="#000000" font-family="Arial" font-size="13px" font-style="normal" font-weight="normal" stroke="none" text-decoration="none" x="633.75" y="443">10 : CréationDemandeAssuranceHabitation</text></g></g><g transform="translate(10,-30) scale(1,1)"><rect fill="#ffffff" height="28" stroke="none" width="13" x="881" y="448"/></g><g transform="translate(10,-30) scale(1,1)"><path d="M 881 448 L 894 448 L 894 476 L 881 476 L 881 448 Z Z" fill="none" stroke="#000000" stroke-miterlimit="10"/></g><g transform="translate(10,-30) scale(1,1)"><path d="M 881 468 L 637 468" fill="none" stroke="#000000" stroke-dasharray="3" stroke-miterlimit="10"/></g><g transform="translate(10,-30) scale(1,1)"><path d="M 647.1626748576241 463.790482243984 L 637 468 L 647.1626748576241 472.209517756016" fill="none" stroke="#000000" stroke-miterlimit="10"/></g><g transform="translate(10,-30) scale(1,1)"><g><path fill="none" stroke="none"/><text fill="#000000" font-family="Arial" font-size="13px" font-style="normal" font-weight="normal" stroke="none" text-decoration="none" x="718.982421875" y="483">11 : response</text></g></g><g transform="translate(10,-30) scale(1,1)"><path d="M 631 534 L 347 534" fill="none" stroke="#000000" stroke-miterlimit="10"/></g><g transform="translate(10,-30) scale(1,1)"><path d="M 357.16267485762415 529.790482243984 L 347 534 L 357.16267485762415 538.209517756016" fill="#000000" stroke="none"/></g><g transform="translate(10,-30) scale(1,1)"><path d="M 357.16267485762415 529.790482243984 L 347 534 L 357.16267485762415 538.209517756016 L 357.16267485762415 529.790482243984" fill="none" stroke="#000000" stroke-miterlimit="10"/></g><g transform="translate(10,-30) scale(1,1)"><g><path fill="none" stroke="none"/><text fill="#000000" font-family="Arial" font-size="13px" font-style="normal" font-weight="normal" stroke="none" text-decoration="none" x="424.5" y="549">12 : Demande ajoutée</text></g></g><g transform="translate(10,-30) scale(1,1)"><rect fill="#ffffff" height="28" stroke="none" width="13" x="334" y="534"/></g><g transform="translate(10,-30) scale(1,1)"><path d="M 334 534 L 347 534 L 347 562 L 334 562 L 334 534 Z Z" fill="none" stroke="#000000" stroke-miterlimit="10"/></g><g transform="translate(10,-30) scale(1,1)"><path d="M 631 608 L 347 608" fill="none" stroke="#000000" stroke-miterlimit="10"/></g><g transform="translate(10,-30) scale(1,1)"><path d="M 357.16267485762415 603.790482243984 L 347 608 L 357.16267485762415 612.209517756016" fill="#000000" stroke="none"/></g><g transform="translate(10,-30) scale(1,1)"><path d="M 357.16267485762415 603.790482243984 L 347 608 L 357.16267485762415 612.209517756016 L 357.16267485762415 603.790482243984" fill="none" stroke="#000000" stroke-miterlimit="10"/></g><g transform="translate(10,-30) scale(1,1)"><g><path fill="none" stroke="none"/><text fill="#000000" font-family="Arial" font-size="13px" font-style="normal" font-weight="normal" stroke="none" text-decoration="none" x="457.430419921875" y="623">13 : Erreur</text></g></g><g transform="translate(10,-30) scale(1,1)"><rect fill="#ffffff" height="28" stroke="none" width="13" x="334" y="608"/></g><g transform="translate(10,-30) scale(1,1)"><path d="M 334 608 L 347 608 L 347 636 L 334 636 L 334 608 Z Z" fill="none" stroke="#000000" stroke-miterlimit="10"/></g><g transform="translate(10,-30) scale(1,1)"><path d="M 40 488 L 944 488 L 944 655 L 40 655 L 40 488" fill="none" stroke="#000000" stroke-miterlimit="10"/></g><g transform="translate(10,-30) scale(1,1)"><path d="M 40 488 L 40 510 L 90.68994140625 510 L 101.68994140625 499 L 101.68994140625 488 L 40 488" fill="#ffffff" stroke="none"/></g><g transform="translate(10,-30) scale(1,1)"><path d="M 40 488 L 40 510 L 90.68994140625 510 L 101.68994140625 499 L 101.68994140625 488 L 40 488 L 40 488" fill="none" stroke="#000000" stroke-miterlimit="10"/></g><g transform="translate(10,-30) scale(1,1)"><g><path fill="none" stroke="none"/><text fill="#000000" font-family="Arial" font-size="13px" font-style="normal" font-weight="normal" stroke="none" text-decoration="none" x="71.9599609375" y="504">alt</text></g></g><g transform="translate(10,-30) scale(1,1)"><g><path fill="none" stroke="none"/><text fill="#000000" font-family="Arial" font-size="13px" font-style="normal" font-weight="bold" stroke="none" text-decoration="none" x="44.279541015625" y="502.5">seq</text></g></g><g transform="translate(10,-30) scale(1,1)"><g><path fill="none" stroke="none"/><text fill="#000000" font-family="Arial" font-size="13px" font-style="normal" font-weight="normal" stroke="none" text-decoration="none" x="59.5" y="537">[données valides]</text></g></g><g transform="translate(10,-30) scale(1,1)"><path d="M 40 593 L 944 593" fill="none" stroke="#000000" stroke-dasharray="10,3" stroke-miterlimit="10"/></g></g></svg>