<?xml version="1.0" encoding="UTF-8" standalone="no"?><svg xmlns="http://www.w3.org/2000/svg" xmlns:xlink="http://www.w3.org/1999/xlink" height="1467" version="1.1" width="1212.576171875"><defs/><g><g transform="translate(-6,-30) scale(1,1)"><path d="M 16 896 L 707 896 L 707 1487 L 16 1487 L 16 896" fill="none" stroke="#000000" stroke-miterlimit="10"/></g><g transform="translate(-6,-30) scale(1,1)"><path d="M 16 896 L 16 918 L 160.63525390625 918 L 171.63525390625 907 L 171.63525390625 896 L 16 896" fill="#ffffff" stroke="none"/></g><g transform="translate(-6,-30) scale(1,1)"><path d="M 16 896 L 16 918 L 160.63525390625 918 L 171.63525390625 907 L 171.63525390625 896 L 16 896 L 16 896" fill="none" stroke="#000000" stroke-miterlimit="10"/></g><g transform="translate(-6,-30) scale(1,1)"><g><path fill="none" stroke="none"/><text fill="#000000" font-family="Arial" font-size="13px" font-style="normal" font-weight="normal" stroke="none" text-decoration="none" x="40.72998046875" y="912">SequenceDiagram1</text></g></g><g transform="translate(-6,-30) scale(1,1)"><g><path fill="none" stroke="none"/><text fill="#000000" font-family="Arial" font-size="13px" font-style="normal" font-weight="bold" stroke="none" text-decoration="none" x="20.279541015625" y="912">sd</text></g></g><g transform="translate(-6,-30) scale(1,1)"><rect fill="#C0C0C0" height="39" opacity="0.2" stroke="none" width="138.21533203125" x="47" y="47"/></g><g transform="translate(-6,-30) scale(1,1)"><rect fill="#ffffff" height="39" stroke="none" width="138.21533203125" x="40" y="40"/></g><g transform="translate(-6,-30) scale(1,1)"><path d="M 40 40 L 178.21533203125 40 L 178.21533203125 79 L 40 79 L 40 40 Z Z" fill="none" stroke="#000000" stroke-miterlimit="10"/></g><g transform="translate(-6,-30) scale(1,1)"><g><path fill="none" stroke="none"/><text fill="#000000" font-family="Arial" font-size="13px" font-style="normal" font-weight="bold" stroke="none" text-decoration="none" x="70.4599609375" y="58">développeur</text></g></g><g transform="translate(-6,-30) scale(1,1)"><path d="M 110.5 80 L 110.5 624" fill="none" stroke="#000000" stroke-dasharray="3" stroke-miterlimit="10"/></g><g transform="translate(-6,-30) scale(1,1)"><rect fill="#C0C0C0" height="39" opacity="0.2" stroke="none" width="89.8017578125" x="335" y="47"/></g><g transform="translate(-6,-30) scale(1,1)"><rect fill="#ffffff" height="39" stroke="none" width="89.8017578125" x="328" y="40"/></g><g transform="translate(-6,-30) scale(1,1)"><path d="M 328 40 L 417.8017578125 40 L 417.8017578125 79 L 328 79 L 328 40 Z Z" fill="none" stroke="#000000" stroke-miterlimit="10"/></g><g transform="translate(-6,-30) scale(1,1)"><g><path fill="none" stroke="none"/><text fill="#000000" font-family="Arial" font-size="13px" font-style="normal" font-weight="bold" stroke="none" text-decoration="none" x="337.5" y="58">interface UI</text></g></g><g transform="translate(-6,-30) scale(1,1)"><path d="M 373.5 80 L 373.5 624" fill="none" stroke="#000000" stroke-dasharray="3" stroke-miterlimit="10"/></g><g transform="translate(-6,-30) scale(1,1)"><rect fill="#C0C0C0" height="39" opacity="0.2" stroke="none" width="124.47900390625" x="583" y="47"/></g><g transform="translate(-6,-30) scale(1,1)"><rect fill="#ffffff" height="39" stroke="none" width="124.47900390625" x="576" y="40"/></g><g transform="translate(-6,-30) scale(1,1)"><path d="M 576 40 L 700.47900390625 40 L 700.47900390625 79 L 576 79 L 576 40 Z Z" fill="none" stroke="#000000" stroke-miterlimit="10"/></g><g transform="translate(-6,-30) scale(1,1)"><g><path fill="none" stroke="none"/><text fill="#000000" font-family="Arial" font-size="13px" font-style="normal" font-weight="bold" stroke="none" text-decoration="none" x="585.5" y="58">base de données</text></g></g><g transform="translate(-6,-30) scale(1,1)"><path d="M 639.5 80 L 639.5 624" fill="none" stroke="#000000" stroke-dasharray="3" stroke-miterlimit="10"/></g><g transform="translate(-6,-30) scale(1,1)"><rect fill="#C0C0C0" height="39" opacity="0.2" stroke="none" width="99.20263671875" x="887" y="47"/></g><g transform="translate(-6,-30) scale(1,1)"><rect fill="#ffffff" height="39" stroke="none" width="99.20263671875" x="880" y="40"/></g><g transform="translate(-6,-30) scale(1,1)"><path d="M 880 40 L 979.20263671875 40 L 979.20263671875 79 L 880 79 L 880 40 Z Z" fill="none" stroke="#000000" stroke-miterlimit="10"/></g><g transform="translate(-6,-30) scale(1,1)"><g><path fill="none" stroke="none"/><text fill="#000000" font-family="Arial" font-size="13px" font-style="normal" font-weight="bold" stroke="none" text-decoration="none" x="909.736328125" y="58">Codes</text></g></g><g transform="translate(-6,-30) scale(1,1)"><path d="M 930.5 80 L 930.5 624" fill="none" stroke="#000000" stroke-dasharray="3" stroke-miterlimit="10"/></g><g transform="translate(-6,-30) scale(1,1)"><path d="M 110 117 L 366 117" fill="none" stroke="#000000" stroke-miterlimit="10"/></g><g transform="translate(-6,-30) scale(1,1)"><path d="M 355.83732514237585 121.20951775601598 L 366 117 L 355.83732514237585 112.79048224398402" fill="#000000" stroke="none"/></g><g transform="translate(-6,-30) scale(1,1)"><path d="M 355.83732514237585 121.20951775601598 L 366 117 L 355.83732514237585 112.79048224398402 L 355.83732514237585 121.20951775601598" fill="none" stroke="#000000" stroke-miterlimit="10"/></g><g transform="translate(-6,-30) scale(1,1)"><g><path fill="none" stroke="none"/><text fill="#000000" font-family="Arial" font-size="13px" font-style="normal" font-weight="normal" stroke="none" text-decoration="none" x="161.63818359375" y="112">1 : OuvririPageEspaceDev</text></g></g><g transform="translate(-6,-30) scale(1,1)"><rect fill="#ffffff" height="91" stroke="none" width="13" x="366" y="117"/></g><g transform="translate(-6,-30) scale(1,1)"><path d="M 366 117 L 379 117 L 379 208 L 366 208 L 366 117 Z Z" fill="none" stroke="#000000" stroke-miterlimit="10"/></g><g transform="translate(-6,-30) scale(1,1)"><path d="M 379 128 L 632 128" fill="none" stroke="#000000" stroke-miterlimit="10"/></g><g transform="translate(-6,-30) scale(1,1)"><path d="M 621.8373251423759 132.209517756016 L 632 128 L 621.8373251423758 123.79048224398402" fill="#000000" stroke="none"/></g><g transform="translate(-6,-30) scale(1,1)"><path d="M 621.8373251423759 132.209517756016 L 632 128 L 621.8373251423758 123.79048224398402 L 621.8373251423759 132.209517756016" fill="none" stroke="#000000" stroke-miterlimit="10"/></g><g transform="translate(-6,-30) scale(1,1)"><g><path fill="none" stroke="none"/><text fill="#000000" font-family="Arial" font-size="13px" font-style="normal" font-weight="normal" stroke="none" text-decoration="none" x="454.088623046875" y="123">2 : ChargerCodes</text></g></g><g transform="translate(-6,-30) scale(1,1)"><rect fill="#ffffff" height="88" stroke="none" width="13" x="632" y="128"/></g><g transform="translate(-6,-30) scale(1,1)"><path d="M 632 128 L 645 128 L 645 216 L 632 216 L 632 128 Z Z" fill="none" stroke="#000000" stroke-miterlimit="10"/></g><g transform="translate(-6,-30) scale(1,1)"><path d="M 645 153 L 923 153" fill="none" stroke="#000000" stroke-miterlimit="10"/></g><g transform="translate(-6,-30) scale(1,1)"><path d="M 912.8373251423759 157.209517756016 L 923 153 L 912.8373251423758 148.790482243984" fill="#000000" stroke="none"/></g><g transform="translate(-6,-30) scale(1,1)"><path d="M 912.8373251423759 157.209517756016 L 923 153 L 912.8373251423758 148.790482243984 L 912.8373251423759 157.209517756016" fill="none" stroke="#000000" stroke-miterlimit="10"/></g><g transform="translate(-6,-30) scale(1,1)"><g><path fill="none" stroke="none"/><text fill="#000000" font-family="Arial" font-size="13px" font-style="normal" font-weight="normal" stroke="none" text-decoration="none" x="757.509521484375" y="148">3 : select</text></g></g><g transform="translate(-6,-30) scale(1,1)"><rect fill="#ffffff" height="28" stroke="none" width="13" x="923" y="153"/></g><g transform="translate(-6,-30) scale(1,1)"><path d="M 923 153 L 936 153 L 936 181 L 923 181 L 923 153 Z Z" fill="none" stroke="#000000" stroke-miterlimit="10"/></g><g transform="translate(-6,-30) scale(1,1)"><path d="M 930 184 L 645 184" fill="none" stroke="#000000" stroke-dasharray="3" stroke-miterlimit="10"/></g><g transform="translate(-6,-30) scale(1,1)"><path d="M 655.1626748576241 179.790482243984 L 645 184 L 655.1626748576241 188.209517756016" fill="none" stroke="#000000" stroke-miterlimit="10"/></g><g transform="translate(-6,-30) scale(1,1)"><g><path fill="none" stroke="none"/><text fill="#000000" font-family="Arial" font-size="13px" font-style="normal" font-weight="normal" stroke="none" text-decoration="none" x="750.5" y="199">4 : response</text></g></g><g transform="translate(-6,-30) scale(1,1)"><path d="M 632 200 L 379 200" fill="none" stroke="#000000" stroke-dasharray="3" stroke-miterlimit="10"/></g><g transform="translate(-6,-30) scale(1,1)"><path d="M 389.16267485762415 195.790482243984 L 379 200 L 389.16267485762415 204.209517756016" fill="none" stroke="#000000" stroke-miterlimit="10"/></g><g transform="translate(-6,-30) scale(1,1)"><g><path fill="none" stroke="none"/><text fill="#000000" font-family="Arial" font-size="13px" font-style="normal" font-weight="normal" stroke="none" text-decoration="none" x="448.088623046875" y="215">5 : AfficherCodes</text></g></g><g transform="translate(-6,-30) scale(1,1)"><path d="M 110 277 L 366 277" fill="none" stroke="#000000" stroke-miterlimit="10"/></g><g transform="translate(-6,-30) scale(1,1)"><path d="M 355.83732514237585 281.209517756016 L 366 277 L 355.83732514237585 272.790482243984" fill="#000000" stroke="none"/></g><g transform="translate(-6,-30) scale(1,1)"><path d="M 355.83732514237585 281.209517756016 L 366 277 L 355.83732514237585 272.790482243984 L 355.83732514237585 281.209517756016" fill="none" stroke="#000000" stroke-miterlimit="10"/></g><g transform="translate(-6,-30) scale(1,1)"><g><path fill="none" stroke="none"/><text fill="#000000" font-family="Arial" font-size="13px" font-style="normal" font-weight="normal" stroke="none" text-decoration="none" x="162.929443359375" y="272">6 : saisir contexte du code</text></g></g><g transform="translate(-6,-30) scale(1,1)"><rect fill="#ffffff" height="28" stroke="none" width="13" x="366" y="277"/></g><g transform="translate(-6,-30) scale(1,1)"><path d="M 366 277 L 379 277 L 379 305 L 366 305 L 366 277 Z Z" fill="none" stroke="#000000" stroke-miterlimit="10"/></g><g transform="translate(-6,-30) scale(1,1)"><path d="M 110 333 L 366 333" fill="none" stroke="#000000" stroke-miterlimit="10"/></g><g transform="translate(-6,-30) scale(1,1)"><path d="M 355.83732514237585 337.209517756016 L 366 333 L 355.83732514237585 328.790482243984" fill="#000000" stroke="none"/></g><g transform="translate(-6,-30) scale(1,1)"><path d="M 355.83732514237585 337.209517756016 L 366 333 L 355.83732514237585 328.790482243984 L 355.83732514237585 337.209517756016" fill="none" stroke="#000000" stroke-miterlimit="10"/></g><g transform="translate(-6,-30) scale(1,1)"><g><path fill="none" stroke="none"/><text fill="#000000" font-family="Arial" font-size="13px" font-style="normal" font-weight="normal" stroke="none" text-decoration="none" x="155.5" y="328">7 : soumettre fichier du code</text></g></g><g transform="translate(-6,-30) scale(1,1)"><rect fill="#ffffff" height="28" stroke="none" width="13" x="366" y="333"/></g><g transform="translate(-6,-30) scale(1,1)"><path d="M 366 333 L 379 333 L 379 361 L 366 361 L 366 333 Z Z" fill="none" stroke="#000000" stroke-miterlimit="10"/></g><g transform="translate(-6,-30) scale(1,1)"><path d="M 110 400 L 366 400" fill="none" stroke="#000000" stroke-miterlimit="10"/></g><g transform="translate(-6,-30) scale(1,1)"><path d="M 355.83732514237585 404.209517756016 L 366 400 L 355.83732514237585 395.790482243984" fill="#000000" stroke="none"/></g><g transform="translate(-6,-30) scale(1,1)"><path d="M 355.83732514237585 404.209517756016 L 366 400 L 355.83732514237585 395.790482243984 L 355.83732514237585 404.209517756016" fill="none" stroke="#000000" stroke-miterlimit="10"/></g><g transform="translate(-6,-30) scale(1,1)"><g><path fill="none" stroke="none"/><text fill="#000000" font-family="Arial" font-size="13px" font-style="normal" font-weight="normal" stroke="none" text-decoration="none" x="156.5" y="395">8 : cliquer sur "ajouter code"</text></g></g><g transform="translate(-6,-30) scale(1,1)"><rect fill="#ffffff" height="40" stroke="none" width="13" x="366" y="400"/></g><g transform="translate(-6,-30) scale(1,1)"><path d="M 366 400 L 379 400 L 379 440 L 366 440 L 366 400 Z Z" fill="none" stroke="#000000" stroke-miterlimit="10"/></g><g transform="translate(-6,-30) scale(1,1)"><path d="M 379 417 L 632 417" fill="none" stroke="#000000" stroke-miterlimit="10"/></g><g transform="translate(-6,-30) scale(1,1)"><path d="M 621.8373251423759 421.209517756016 L 632 417 L 621.8373251423758 412.790482243984" fill="#000000" stroke="none"/></g><g transform="translate(-6,-30) scale(1,1)"><path d="M 621.8373251423759 421.209517756016 L 632 417 L 621.8373251423758 412.790482243984 L 621.8373251423759 421.209517756016" fill="none" stroke="#000000" stroke-miterlimit="10"/></g><g transform="translate(-6,-30) scale(1,1)"><g><path fill="none" stroke="none"/><text fill="#000000" font-family="Arial" font-size="13px" font-style="normal" font-weight="normal" stroke="none" text-decoration="none" x="463.5" y="412">9 : requete sql</text></g></g><g transform="translate(-6,-30) scale(1,1)"><rect fill="#ffffff" height="55" stroke="none" width="13" x="632" y="417"/></g><g transform="translate(-6,-30) scale(1,1)"><path d="M 632 417 L 645 417 L 645 472 L 632 472 L 632 417 Z Z" fill="none" stroke="#000000" stroke-miterlimit="10"/></g><g transform="translate(-6,-30) scale(1,1)"><path d="M 645 438 L 923 438" fill="none" stroke="#000000" stroke-miterlimit="10"/></g><g transform="translate(-6,-30) scale(1,1)"><path d="M 912.8373251423759 442.209517756016 L 923 438 L 912.8373251423758 433.790482243984" fill="#000000" stroke="none"/></g><g transform="translate(-6,-30) scale(1,1)"><path d="M 912.8373251423759 442.209517756016 L 923 438 L 912.8373251423758 433.790482243984 L 912.8373251423759 442.209517756016" fill="none" stroke="#000000" stroke-miterlimit="10"/></g><g transform="translate(-6,-30) scale(1,1)"><g><path fill="none" stroke="none"/><text fill="#000000" font-family="Arial" font-size="13px" font-style="normal" font-weight="normal" stroke="none" text-decoration="none" x="736.5" y="433">10 : CreateCode</text></g></g><g transform="translate(-6,-30) scale(1,1)"><rect fill="#ffffff" height="28" stroke="none" width="13" x="923" y="438"/></g><g transform="translate(-6,-30) scale(1,1)"><path d="M 923 438 L 936 438 L 936 466 L 923 466 L 923 438 Z Z" fill="none" stroke="#000000" stroke-miterlimit="10"/></g><g transform="translate(-6,-30) scale(1,1)"><path d="M 923 456 L 645 456" fill="none" stroke="#000000" stroke-dasharray="3" stroke-miterlimit="10"/></g><g transform="translate(-6,-30) scale(1,1)"><path d="M 655.1626748576241 451.790482243984 L 645 456 L 655.1626748576241 460.209517756016" fill="none" stroke="#000000" stroke-miterlimit="10"/></g><g transform="translate(-6,-30) scale(1,1)"><g><path fill="none" stroke="none"/><text fill="#000000" font-family="Arial" font-size="13px" font-style="normal" font-weight="normal" stroke="none" text-decoration="none" x="744.5" y="471">11 : response</text></g></g><g transform="translate(-6,-30) scale(1,1)"><path d="M 639 504 L 379 504" fill="none" stroke="#000000" stroke-miterlimit="10"/></g><g transform="translate(-6,-30) scale(1,1)"><path d="M 389.16267485762415 499.790482243984 L 379 504 L 389.16267485762415 508.209517756016" fill="#000000" stroke="none"/></g><g transform="translate(-6,-30) scale(1,1)"><path d="M 389.16267485762415 499.790482243984 L 379 504 L 389.16267485762415 508.209517756016 L 389.16267485762415 499.790482243984" fill="none" stroke="#000000" stroke-miterlimit="10"/></g><g transform="translate(-6,-30) scale(1,1)"><g><path fill="none" stroke="none"/><text fill="#000000" font-family="Arial" font-size="13px" font-style="normal" font-weight="normal" stroke="none" text-decoration="none" x="432.5" y="519">12 : AfficherNouvelleCode</text></g></g><g transform="translate(-6,-30) scale(1,1)"><rect fill="#ffffff" height="28" stroke="none" width="13" x="366" y="504"/></g><g transform="translate(-6,-30) scale(1,1)"><path d="M 366 504 L 379 504 L 379 532 L 366 532 L 366 504 Z Z" fill="none" stroke="#000000" stroke-miterlimit="10"/></g><g transform="translate(-6,-30) scale(1,1)"><path d="M 639 576 L 379 576" fill="none" stroke="#000000" stroke-miterlimit="10"/></g><g transform="translate(-6,-30) scale(1,1)"><path d="M 389.16267485762415 571.790482243984 L 379 576 L 389.16267485762415 580.209517756016" fill="#000000" stroke="none"/></g><g transform="translate(-6,-30) scale(1,1)"><path d="M 389.16267485762415 571.790482243984 L 379 576 L 389.16267485762415 580.209517756016 L 389.16267485762415 571.790482243984" fill="none" stroke="#000000" stroke-miterlimit="10"/></g><g transform="translate(-6,-30) scale(1,1)"><g><path fill="none" stroke="none"/><text fill="#000000" font-family="Arial" font-size="13px" font-style="normal" font-weight="normal" stroke="none" text-decoration="none" x="478.15087890625" y="591">13 : erreur</text></g></g><g transform="translate(-6,-30) scale(1,1)"><rect fill="#ffffff" height="28" stroke="none" width="13" x="366" y="576"/></g><g transform="translate(-6,-30) scale(1,1)"><path d="M 366 576 L 379 576 L 379 604 L 366 604 L 366 576 Z Z" fill="none" stroke="#000000" stroke-miterlimit="10"/></g><g transform="translate(-6,-30) scale(1,1)"><path d="M 1032 536 L 1208.576171875 536 L 1208.576171875 601 L 1032 601 L 1032 536" fill="none" stroke="#000000" stroke-miterlimit="10"/></g><g transform="translate(-6,-30) scale(1,1)"><path d="M 1032 536 L 1032 558 L 1191.076171875 558 L 1202.076171875 547 L 1202.076171875 536 L 1032 536" fill="#ffffff" stroke="none"/></g><g transform="translate(-6,-30) scale(1,1)"><path d="M 1032 536 L 1032 558 L 1191.076171875 558 L 1202.076171875 547 L 1202.076171875 536 L 1032 536 L 1032 536" fill="none" stroke="#000000" stroke-miterlimit="10"/></g><g transform="translate(-6,-30) scale(1,1)"><g><path fill="none" stroke="none"/><text fill="#000000" font-family="Arial" font-size="13px" font-style="normal" font-weight="normal" stroke="none" text-decoration="none" x="1063.9599609375" y="552">CombinedFragment1</text></g></g><g transform="translate(-6,-30) scale(1,1)"><g><path fill="none" stroke="none"/><text fill="#000000" font-family="Arial" font-size="13px" font-style="normal" font-weight="bold" stroke="none" text-decoration="none" x="1036.279541015625" y="550.5">seq</text></g></g><g transform="translate(-6,-30) scale(1,1)"><path d="M 64 224 L 975 224 L 975 624 L 64 624 L 64 224" fill="none" stroke="#000000" stroke-miterlimit="10"/></g><g transform="translate(-6,-30) scale(1,1)"><path d="M 64 224 L 64 246 L 119.03173828125 246 L 130.03173828125 235 L 130.03173828125 224 L 64 224" fill="#ffffff" stroke="none"/></g><g transform="translate(-6,-30) scale(1,1)"><path d="M 64 224 L 64 246 L 119.03173828125 246 L 130.03173828125 235 L 130.03173828125 224 L 64 224 L 64 224" fill="none" stroke="#000000" stroke-miterlimit="10"/></g><g transform="translate(-6,-30) scale(1,1)"><g><path fill="none" stroke="none"/><text fill="#000000" font-family="Arial" font-size="13px" font-style="normal" font-weight="normal" stroke="none" text-decoration="none" x="95.9599609375" y="239.5">opt</text></g></g><g transform="translate(-6,-30) scale(1,1)"><g><path fill="none" stroke="none"/><text fill="#000000" font-family="Arial" font-size="13px" font-style="normal" font-weight="bold" stroke="none" text-decoration="none" x="68.279541015625" y="238.5">seq</text></g></g><g transform="translate(-6,-30) scale(1,1)"><path d="M 152 480 L 831 480 L 831 616 L 152 616 L 152 480" fill="none" stroke="#000000" stroke-miterlimit="10"/></g><g transform="translate(-6,-30) scale(1,1)"><path d="M 152 480 L 152 502 L 202.68994140625 502 L 213.68994140625 491 L 213.68994140625 480 L 152 480" fill="#ffffff" stroke="none"/></g><g transform="translate(-6,-30) scale(1,1)"><path d="M 152 480 L 152 502 L 202.68994140625 502 L 213.68994140625 491 L 213.68994140625 480 L 152 480 L 152 480" fill="none" stroke="#000000" stroke-miterlimit="10"/></g><g transform="translate(-6,-30) scale(1,1)"><g><path fill="none" stroke="none"/><text fill="#000000" font-family="Arial" font-size="13px" font-style="normal" font-weight="normal" stroke="none" text-decoration="none" x="183.9599609375" y="496">alt</text></g></g><g transform="translate(-6,-30) scale(1,1)"><g><path fill="none" stroke="none"/><text fill="#000000" font-family="Arial" font-size="13px" font-style="normal" font-weight="bold" stroke="none" text-decoration="none" x="156.279541015625" y="494.5">seq</text></g></g><g transform="translate(-6,-30) scale(1,1)"><g><path fill="none" stroke="none"/><text fill="#000000" font-family="Arial" font-size="13px" font-style="normal" font-weight="normal" stroke="none" text-decoration="none" x="171.5" y="529">[extension fichier valide]</text></g></g><g transform="translate(-6,-30) scale(1,1)"><path d="M 152 546 L 831 546" fill="none" stroke="#000000" stroke-dasharray="10,3" stroke-miterlimit="10"/></g></g></svg>