<?xml version="1.0" encoding="UTF-8" standalone="no"?><svg xmlns="http://www.w3.org/2000/svg" xmlns:xlink="http://www.w3.org/1999/xlink" height="1467" version="1.1" width="1212.576171875"><defs/><g><g transform="translate(-6,-30) scale(1,1)"><path d="M 16 896 L 707 896 L 707 1487 L 16 1487 L 16 896" fill="none" stroke="#000000" stroke-miterlimit="10"/></g><g transform="translate(-6,-30) scale(1,1)"><path d="M 16 896 L 16 918 L 160.63525390625 918 L 171.63525390625 907 L 171.63525390625 896 L 16 896" fill="#ffffff" stroke="none"/></g><g transform="translate(-6,-30) scale(1,1)"><path d="M 16 896 L 16 918 L 160.63525390625 918 L 171.63525390625 907 L 171.63525390625 896 L 16 896 L 16 896" fill="none" stroke="#000000" stroke-miterlimit="10"/></g><g transform="translate(-6,-30) scale(1,1)"><g><path fill="none" stroke="none"/><text fill="#000000" font-family="Arial" font-size="13px" font-style="normal" font-weight="normal" stroke="none" text-decoration="none" x="40.72998046875" y="912">SequenceDiagram1</text></g></g><g transform="translate(-6,-30) scale(1,1)"><g><path fill="none" stroke="none"/><text fill="#000000" font-family="Arial" font-size="13px" font-style="normal" font-weight="bold" stroke="none" text-decoration="none" x="20.279541015625" y="912">sd</text></g></g><g transform="translate(-6,-30) scale(1,1)"><rect fill="#C0C0C0" height="39" opacity="0.2" stroke="none" width="138.21533203125" x="39" y="47"/></g><g transform="translate(-6,-30) scale(1,1)"><rect fill="#ffffff" height="39" stroke="none" width="138.21533203125" x="32" y="40"/></g><g transform="translate(-6,-30) scale(1,1)"><path d="M 32 40 L 170.21533203125 40 L 170.21533203125 79 L 32 79 L 32 40 Z Z" fill="none" stroke="#000000" stroke-miterlimit="10"/></g><g transform="translate(-6,-30) scale(1,1)"><g><path fill="none" stroke="none"/><text fill="#000000" font-family="Arial" font-size="13px" font-style="normal" font-weight="bold" stroke="none" text-decoration="none" x="74.736328125" y="58">employé</text></g></g><g transform="translate(-6,-30) scale(1,1)"><path d="M 102.5 80 L 102.5 544" fill="none" stroke="#000000" stroke-dasharray="3" stroke-miterlimit="10"/></g><g transform="translate(-6,-30) scale(1,1)"><rect fill="#C0C0C0" height="39" opacity="0.2" stroke="none" width="89.8017578125" x="335" y="47"/></g><g transform="translate(-6,-30) scale(1,1)"><rect fill="#ffffff" height="39" stroke="none" width="89.8017578125" x="328" y="40"/></g><g transform="translate(-6,-30) scale(1,1)"><path d="M 328 40 L 417.8017578125 40 L 417.8017578125 79 L 328 79 L 328 40 Z Z" fill="none" stroke="#000000" stroke-miterlimit="10"/></g><g transform="translate(-6,-30) scale(1,1)"><g><path fill="none" stroke="none"/><text fill="#000000" font-family="Arial" font-size="13px" font-style="normal" font-weight="bold" stroke="none" text-decoration="none" x="337.5" y="58">interface UI</text></g></g><g transform="translate(-6,-30) scale(1,1)"><path d="M 373.5 80 L 373.5 544" fill="none" stroke="#000000" stroke-dasharray="3" stroke-miterlimit="10"/></g><g transform="translate(-6,-30) scale(1,1)"><rect fill="#C0C0C0" height="39" opacity="0.2" stroke="none" width="124.47900390625" x="583" y="47"/></g><g transform="translate(-6,-30) scale(1,1)"><rect fill="#ffffff" height="39" stroke="none" width="124.47900390625" x="576" y="40"/></g><g transform="translate(-6,-30) scale(1,1)"><path d="M 576 40 L 700.47900390625 40 L 700.47900390625 79 L 576 79 L 576 40 Z Z" fill="none" stroke="#000000" stroke-miterlimit="10"/></g><g transform="translate(-6,-30) scale(1,1)"><g><path fill="none" stroke="none"/><text fill="#000000" font-family="Arial" font-size="13px" font-style="normal" font-weight="bold" stroke="none" text-decoration="none" x="585.5" y="58">base de données</text></g></g><g transform="translate(-6,-30) scale(1,1)"><path d="M 639.5 80 L 639.5 544" fill="none" stroke="#000000" stroke-dasharray="3" stroke-miterlimit="10"/></g><g transform="translate(-6,-30) scale(1,1)"><rect fill="#C0C0C0" height="39" opacity="0.2" stroke="none" width="99.20263671875" x="887" y="47"/></g><g transform="translate(-6,-30) scale(1,1)"><rect fill="#ffffff" height="39" stroke="none" width="99.20263671875" x="880" y="40"/></g><g transform="translate(-6,-30) scale(1,1)"><path d="M 880 40 L 979.20263671875 40 L 979.20263671875 79 L 880 79 L 880 40 Z Z" fill="none" stroke="#000000" stroke-miterlimit="10"/></g><g transform="translate(-6,-30) scale(1,1)"><g><path fill="none" stroke="none"/><text fill="#000000" font-family="Arial" font-size="13px" font-style="normal" font-weight="bold" stroke="none" text-decoration="none" x="898.5263671875" y="58">Messages</text></g></g><g transform="translate(-6,-30) scale(1,1)"><path d="M 930.5 80 L 930.5 544" fill="none" stroke="#000000" stroke-dasharray="3" stroke-miterlimit="10"/></g><g transform="translate(-6,-30) scale(1,1)"><path d="M 102 117 L 366 117" fill="none" stroke="#000000" stroke-miterlimit="10"/></g><g transform="translate(-6,-30) scale(1,1)"><path d="M 355.83732514237585 121.20951775601598 L 366 117 L 355.83732514237585 112.79048224398402" fill="#000000" stroke="none"/></g><g transform="translate(-6,-30) scale(1,1)"><path d="M 355.83732514237585 121.20951775601598 L 366 117 L 355.83732514237585 112.79048224398402 L 355.83732514237585 121.20951775601598" fill="none" stroke="#000000" stroke-miterlimit="10"/></g><g transform="translate(-6,-30) scale(1,1)"><g><path fill="none" stroke="none"/><text fill="#000000" font-family="Arial" font-size="13px" font-style="normal" font-weight="normal" stroke="none" text-decoration="none" x="172.09814453125" y="112">1 : OuvririPageForum</text></g></g><g transform="translate(-6,-30) scale(1,1)"><rect fill="#ffffff" height="91" stroke="none" width="13" x="366" y="117"/></g><g transform="translate(-6,-30) scale(1,1)"><path d="M 366 117 L 379 117 L 379 208 L 366 208 L 366 117 Z Z" fill="none" stroke="#000000" stroke-miterlimit="10"/></g><g transform="translate(-6,-30) scale(1,1)"><path d="M 379 128 L 632 128" fill="none" stroke="#000000" stroke-miterlimit="10"/></g><g transform="translate(-6,-30) scale(1,1)"><path d="M 621.8373251423759 132.209517756016 L 632 128 L 621.8373251423758 123.79048224398402" fill="#000000" stroke="none"/></g><g transform="translate(-6,-30) scale(1,1)"><path d="M 621.8373251423759 132.209517756016 L 632 128 L 621.8373251423758 123.79048224398402 L 621.8373251423759 132.209517756016" fill="none" stroke="#000000" stroke-miterlimit="10"/></g><g transform="translate(-6,-30) scale(1,1)"><g><path fill="none" stroke="none"/><text fill="#000000" font-family="Arial" font-size="13px" font-style="normal" font-weight="normal" stroke="none" text-decoration="none" x="441.253173828125" y="122">2 : ChargerMessages</text></g></g><g transform="translate(-6,-30) scale(1,1)"><rect fill="#ffffff" height="88" stroke="none" width="13" x="632" y="128"/></g><g transform="translate(-6,-30) scale(1,1)"><path d="M 632 128 L 645 128 L 645 216 L 632 216 L 632 128 Z Z" fill="none" stroke="#000000" stroke-miterlimit="10"/></g><g transform="translate(-6,-30) scale(1,1)"><path d="M 645 153 L 923 153" fill="none" stroke="#000000" stroke-miterlimit="10"/></g><g transform="translate(-6,-30) scale(1,1)"><path d="M 912.8373251423759 157.209517756016 L 923 153 L 912.8373251423758 148.790482243984" fill="#000000" stroke="none"/></g><g transform="translate(-6,-30) scale(1,1)"><path d="M 912.8373251423759 157.209517756016 L 923 153 L 912.8373251423758 148.790482243984 L 912.8373251423759 157.209517756016" fill="none" stroke="#000000" stroke-miterlimit="10"/></g><g transform="translate(-6,-30) scale(1,1)"><g><path fill="none" stroke="none"/><text fill="#000000" font-family="Arial" font-size="13px" font-style="normal" font-weight="normal" stroke="none" text-decoration="none" x="757.509521484375" y="148">3 : select</text></g></g><g transform="translate(-6,-30) scale(1,1)"><rect fill="#ffffff" height="28" stroke="none" width="13" x="923" y="153"/></g><g transform="translate(-6,-30) scale(1,1)"><path d="M 923 153 L 936 153 L 936 181 L 923 181 L 923 153 Z Z" fill="none" stroke="#000000" stroke-miterlimit="10"/></g><g transform="translate(-6,-30) scale(1,1)"><path d="M 930 184 L 645 184" fill="none" stroke="#000000" stroke-dasharray="3" stroke-miterlimit="10"/></g><g transform="translate(-6,-30) scale(1,1)"><path d="M 655.1626748576241 179.790482243984 L 645 184 L 655.1626748576241 188.209517756016" fill="none" stroke="#000000" stroke-miterlimit="10"/></g><g transform="translate(-6,-30) scale(1,1)"><g><path fill="none" stroke="none"/><text fill="#000000" font-family="Arial" font-size="13px" font-style="normal" font-weight="normal" stroke="none" text-decoration="none" x="750.5" y="199">4 : response</text></g></g><g transform="translate(-6,-30) scale(1,1)"><path d="M 632 200 L 379 200" fill="none" stroke="#000000" stroke-dasharray="3" stroke-miterlimit="10"/></g><g transform="translate(-6,-30) scale(1,1)"><path d="M 389.16267485762415 195.790482243984 L 379 200 L 389.16267485762415 204.209517756016" fill="none" stroke="#000000" stroke-miterlimit="10"/></g><g transform="translate(-6,-30) scale(1,1)"><g><path fill="none" stroke="none"/><text fill="#000000" font-family="Arial" font-size="13px" font-style="normal" font-weight="normal" stroke="none" text-decoration="none" x="437.253173828125" y="215">5 : AfficherMessages</text></g></g><g transform="translate(-6,-30) scale(1,1)"><path d="M 102 328 L 366 328" fill="none" stroke="#000000" stroke-miterlimit="10"/></g><g transform="translate(-6,-30) scale(1,1)"><path d="M 355.83732514237585 332.209517756016 L 366 328 L 355.83732514237585 323.790482243984" fill="#000000" stroke="none"/></g><g transform="translate(-6,-30) scale(1,1)"><path d="M 355.83732514237585 332.209517756016 L 366 328 L 355.83732514237585 323.790482243984 L 355.83732514237585 332.209517756016" fill="none" stroke="#000000" stroke-miterlimit="10"/></g><g transform="translate(-6,-30) scale(1,1)"><g><path fill="none" stroke="none"/><text fill="#000000" font-family="Arial" font-size="13px" font-style="normal" font-weight="normal" stroke="none" text-decoration="none" x="181.5" y="323">6 : saisir message</text></g></g><g transform="translate(-6,-30) scale(1,1)"><rect fill="#ffffff" height="28" stroke="none" width="13" x="366" y="328"/></g><g transform="translate(-6,-30) scale(1,1)"><path d="M 366 328 L 379 328 L 379 356 L 366 356 L 366 328 Z Z" fill="none" stroke="#000000" stroke-miterlimit="10"/></g><g transform="translate(-6,-30) scale(1,1)"><path d="M 102 390 L 366 390" fill="none" stroke="#000000" stroke-miterlimit="10"/></g><g transform="translate(-6,-30) scale(1,1)"><path d="M 355.83732514237585 394.209517756016 L 366 390 L 355.83732514237585 385.790482243984" fill="#000000" stroke="none"/></g><g transform="translate(-6,-30) scale(1,1)"><path d="M 355.83732514237585 394.209517756016 L 366 390 L 355.83732514237585 385.790482243984 L 355.83732514237585 394.209517756016" fill="none" stroke="#000000" stroke-miterlimit="10"/></g><g transform="translate(-6,-30) scale(1,1)"><g><path fill="none" stroke="none"/><text fill="#000000" font-family="Arial" font-size="13px" font-style="normal" font-weight="normal" stroke="none" text-decoration="none" x="165.5" y="385">7 : cliquer sur "envoyer"</text></g></g><g transform="translate(-6,-30) scale(1,1)"><rect fill="#ffffff" height="82" stroke="none" width="13" x="366" y="390"/></g><g transform="translate(-6,-30) scale(1,1)"><path d="M 366 390 L 379 390 L 379 472 L 366 472 L 366 390 Z Z" fill="none" stroke="#000000" stroke-miterlimit="10"/></g><g transform="translate(-6,-30) scale(1,1)"><path d="M 379 400 L 632 400" fill="none" stroke="#000000" stroke-miterlimit="10"/></g><g transform="translate(-6,-30) scale(1,1)"><path d="M 621.8373251423759 404.209517756016 L 632 400 L 621.8373251423758 395.790482243984" fill="#000000" stroke="none"/></g><g transform="translate(-6,-30) scale(1,1)"><path d="M 621.8373251423759 404.209517756016 L 632 400 L 621.8373251423758 395.790482243984 L 621.8373251423759 404.209517756016" fill="none" stroke="#000000" stroke-miterlimit="10"/></g><g transform="translate(-6,-30) scale(1,1)"><g><path fill="none" stroke="none"/><text fill="#000000" font-family="Arial" font-size="13px" font-style="normal" font-weight="normal" stroke="none" text-decoration="none" x="463.5" y="395">8 : requete sql</text></g></g><g transform="translate(-6,-30) scale(1,1)"><rect fill="#ffffff" height="80" stroke="none" width="13" x="632" y="400"/></g><g transform="translate(-6,-30) scale(1,1)"><path d="M 632 400 L 645 400 L 645 480 L 632 480 L 632 400 Z Z" fill="none" stroke="#000000" stroke-miterlimit="10"/></g><g transform="translate(-6,-30) scale(1,1)"><path d="M 645 408 L 923 408" fill="none" stroke="#000000" stroke-miterlimit="10"/></g><g transform="translate(-6,-30) scale(1,1)"><path d="M 912.8373251423759 412.209517756016 L 923 408 L 912.8373251423758 403.790482243984" fill="#000000" stroke="none"/></g><g transform="translate(-6,-30) scale(1,1)"><path d="M 912.8373251423759 412.209517756016 L 923 408 L 912.8373251423758 403.790482243984 L 912.8373251423759 412.209517756016" fill="none" stroke="#000000" stroke-miterlimit="10"/></g><g transform="translate(-6,-30) scale(1,1)"><g><path fill="none" stroke="none"/><text fill="#000000" font-family="Arial" font-size="13px" font-style="normal" font-weight="normal" stroke="none" text-decoration="none" x="729.5" y="403">9 : CreateMessage</text></g></g><g transform="translate(-6,-30) scale(1,1)"><rect fill="#ffffff" height="40" stroke="none" width="13" x="923" y="408"/></g><g transform="translate(-6,-30) scale(1,1)"><path d="M 923 408 L 936 408 L 936 448 L 923 448 L 923 408 Z Z" fill="none" stroke="#000000" stroke-miterlimit="10"/></g><g transform="translate(-6,-30) scale(1,1)"><path d="M 923 434 L 645 434" fill="none" stroke="#000000" stroke-dasharray="3" stroke-miterlimit="10"/></g><g transform="translate(-6,-30) scale(1,1)"><path d="M 655.1626748576241 429.790482243984 L 645 434 L 655.1626748576241 438.209517756016" fill="none" stroke="#000000" stroke-miterlimit="10"/></g><g transform="translate(-6,-30) scale(1,1)"><g><path fill="none" stroke="none"/><text fill="#000000" font-family="Arial" font-size="13px" font-style="normal" font-weight="normal" stroke="none" text-decoration="none" x="743.75" y="449">10 : response</text></g></g><g transform="translate(-6,-30) scale(1,1)"><path d="M 632 456 L 379 456" fill="none" stroke="#000000" stroke-dasharray="3" stroke-miterlimit="10"/></g><g transform="translate(-6,-30) scale(1,1)"><path d="M 389.16267485762415 451.790482243984 L 379 456 L 389.16267485762415 460.209517756016" fill="none" stroke="#000000" stroke-miterlimit="10"/></g><g transform="translate(-6,-30) scale(1,1)"><g><path fill="none" stroke="none"/><text fill="#000000" font-family="Arial" font-size="13px" font-style="normal" font-weight="normal" stroke="none" text-decoration="none" x="417.982421875" y="471">11 : AfficherNouveauMessage</text></g></g><g transform="translate(-6,-30) scale(1,1)"><path d="M 1032 536 L 1208.576171875 536 L 1208.576171875 601 L 1032 601 L 1032 536" fill="none" stroke="#000000" stroke-miterlimit="10"/></g><g transform="translate(-6,-30) scale(1,1)"><path d="M 1032 536 L 1032 558 L 1191.076171875 558 L 1202.076171875 547 L 1202.076171875 536 L 1032 536" fill="#ffffff" stroke="none"/></g><g transform="translate(-6,-30) scale(1,1)"><path d="M 1032 536 L 1032 558 L 1191.076171875 558 L 1202.076171875 547 L 1202.076171875 536 L 1032 536 L 1032 536" fill="none" stroke="#000000" stroke-miterlimit="10"/></g><g transform="translate(-6,-30) scale(1,1)"><g><path fill="none" stroke="none"/><text fill="#000000" font-family="Arial" font-size="13px" font-style="normal" font-weight="normal" stroke="none" text-decoration="none" x="1063.9599609375" y="552">CombinedFragment1</text></g></g><g transform="translate(-6,-30) scale(1,1)"><g><path fill="none" stroke="none"/><text fill="#000000" font-family="Arial" font-size="13px" font-style="normal" font-weight="bold" stroke="none" text-decoration="none" x="1036.279541015625" y="550.5">seq</text></g></g><g transform="translate(-6,-30) scale(1,1)"><path d="M 80 264 L 975 264 L 975 544 L 80 544 L 80 264" fill="none" stroke="#000000" stroke-miterlimit="10"/></g><g transform="translate(-6,-30) scale(1,1)"><path d="M 80 264 L 80 286 L 135.03173828125 286 L 146.03173828125 275 L 146.03173828125 264 L 80 264" fill="#ffffff" stroke="none"/></g><g transform="translate(-6,-30) scale(1,1)"><path d="M 80 264 L 80 286 L 135.03173828125 286 L 146.03173828125 275 L 146.03173828125 264 L 80 264 L 80 264" fill="none" stroke="#000000" stroke-miterlimit="10"/></g><g transform="translate(-6,-30) scale(1,1)"><g><path fill="none" stroke="none"/><text fill="#000000" font-family="Arial" font-size="13px" font-style="normal" font-weight="normal" stroke="none" text-decoration="none" x="111.9599609375" y="279.5">opt</text></g></g><g transform="translate(-6,-30) scale(1,1)"><g><path fill="none" stroke="none"/><text fill="#000000" font-family="Arial" font-size="13px" font-style="normal" font-weight="bold" stroke="none" text-decoration="none" x="84.279541015625" y="278.5">seq</text></g></g></g></svg>