<?xml version="1.0" encoding="UTF-8" standalone="no"?><svg xmlns="http://www.w3.org/2000/svg" xmlns:xlink="http://www.w3.org/1999/xlink" height="867" version="1.1" width="907"><defs/><g><g transform="translate(-30,-30) scale(1,1)"><path d="M 40 696 L 731 696 L 731 887 L 40 887 L 40 696" fill="none" stroke="#000000" stroke-miterlimit="10"/></g><g transform="translate(-30,-30) scale(1,1)"><path d="M 40 696 L 40 718 L 184.63525390625 718 L 195.63525390625 707 L 195.63525390625 696 L 40 696" fill="#ffffff" stroke="none"/></g><g transform="translate(-30,-30) scale(1,1)"><path d="M 40 696 L 40 718 L 184.63525390625 718 L 195.63525390625 707 L 195.63525390625 696 L 40 696 L 40 696" fill="none" stroke="#000000" stroke-miterlimit="10"/></g><g transform="translate(-30,-30) scale(1,1)"><g><path fill="none" stroke="none"/><text fill="#000000" font-family="Arial" font-size="13px" font-style="normal" font-weight="normal" stroke="none" text-decoration="none" x="64.72998046875" y="712">SequenceDiagram1</text></g></g><g transform="translate(-30,-30) scale(1,1)"><g><path fill="none" stroke="none"/><text fill="#000000" font-family="Arial" font-size="13px" font-style="normal" font-weight="bold" stroke="none" text-decoration="none" x="44.279541015625" y="712">sd</text></g></g><g transform="translate(-30,-30) scale(1,1)"><rect fill="#C0C0C0" height="39" opacity="0.2" stroke="none" width="81.12451171875" x="103" y="47"/></g><g transform="translate(-30,-30) scale(1,1)"><rect fill="#ffffff" height="39" stroke="none" width="81.12451171875" x="96" y="40"/></g><g transform="translate(-30,-30) scale(1,1)"><path d="M 96 40 L 177.12451171875 40 L 177.12451171875 79 L 96 79 L 96 40 Z Z" fill="none" stroke="#000000" stroke-miterlimit="10"/></g><g transform="translate(-30,-30) scale(1,1)"><g><path fill="none" stroke="none"/><text fill="#000000" font-family="Arial" font-size="13px" font-style="normal" font-weight="bold" stroke="none" text-decoration="none" x="105.5" y="58">utilisateur</text></g></g><g transform="translate(-30,-30) scale(1,1)"><path d="M 137.5 80 L 137.5 440" fill="none" stroke="#000000" stroke-dasharray="3" stroke-miterlimit="10"/></g><g transform="translate(-30,-30) scale(1,1)"><rect fill="#C0C0C0" height="39" opacity="0.2" stroke="none" width="89.8017578125" x="359" y="47"/></g><g transform="translate(-30,-30) scale(1,1)"><rect fill="#ffffff" height="39" stroke="none" width="89.8017578125" x="352" y="40"/></g><g transform="translate(-30,-30) scale(1,1)"><path d="M 352 40 L 441.8017578125 40 L 441.8017578125 79 L 352 79 L 352 40 Z Z" fill="none" stroke="#000000" stroke-miterlimit="10"/></g><g transform="translate(-30,-30) scale(1,1)"><g><path fill="none" stroke="none"/><text fill="#000000" font-family="Arial" font-size="13px" font-style="normal" font-weight="bold" stroke="none" text-decoration="none" x="361.5" y="58">interface Ui</text></g></g><g transform="translate(-30,-30) scale(1,1)"><path d="M 397.5 80 L 397.5 440" fill="none" stroke="#000000" stroke-dasharray="3" stroke-miterlimit="10"/></g><g transform="translate(-30,-30) scale(1,1)"><rect fill="#C0C0C0" height="39" opacity="0.2" stroke="none" width="89.8017578125" x="799" y="47"/></g><g transform="translate(-30,-30) scale(1,1)"><rect fill="#ffffff" height="39" stroke="none" width="89.8017578125" x="792" y="40"/></g><g transform="translate(-30,-30) scale(1,1)"><path d="M 792 40 L 881.8017578125 40 L 881.8017578125 79 L 792 79 L 792 40 Z Z" fill="none" stroke="#000000" stroke-miterlimit="10"/></g><g transform="translate(-30,-30) scale(1,1)"><g><path fill="none" stroke="none"/><text fill="#000000" font-family="Arial" font-size="13px" font-style="normal" font-weight="bold" stroke="none" text-decoration="none" x="801.5" y="58">Utilisateurs</text></g></g><g transform="translate(-30,-30) scale(1,1)"><path d="M 837.5 80 L 837.5 440" fill="none" stroke="#000000" stroke-dasharray="3" stroke-miterlimit="10"/></g><g transform="translate(-30,-30) scale(1,1)"><rect fill="#C0C0C0" height="39" opacity="0.2" stroke="none" width="124.47900390625" x="567" y="47"/></g><g transform="translate(-30,-30) scale(1,1)"><rect fill="#ffffff" height="39" stroke="none" width="124.47900390625" x="560" y="40"/></g><g transform="translate(-30,-30) scale(1,1)"><path d="M 560 40 L 684.47900390625 40 L 684.47900390625 79 L 560 79 L 560 40 Z Z" fill="none" stroke="#000000" stroke-miterlimit="10"/></g><g transform="translate(-30,-30) scale(1,1)"><g><path fill="none" stroke="none"/><text fill="#000000" font-family="Arial" font-size="13px" font-style="normal" font-weight="bold" stroke="none" text-decoration="none" x="569.5" y="58">base de données</text></g></g><g transform="translate(-30,-30) scale(1,1)"><path d="M 623.5 80 L 623.5 440" fill="none" stroke="#000000" stroke-dasharray="3" stroke-miterlimit="10"/></g><g transform="translate(-30,-30) scale(1,1)"><path d="M 137 121 L 390 121" fill="none" stroke="#000000" stroke-miterlimit="10"/></g><g transform="translate(-30,-30) scale(1,1)"><path d="M 379.83732514237585 125.20951775601598 L 390 121 L 379.83732514237585 116.79048224398402" fill="#000000" stroke="none"/></g><g transform="translate(-30,-30) scale(1,1)"><path d="M 379.83732514237585 125.20951775601598 L 390 121 L 379.83732514237585 116.79048224398402 L 379.83732514237585 125.20951775601598" fill="none" stroke="#000000" stroke-miterlimit="10"/></g><g transform="translate(-30,-30) scale(1,1)"><g><path fill="none" stroke="none"/><text fill="#000000" font-family="Arial" font-size="13px" font-style="normal" font-weight="normal" stroke="none" text-decoration="none" x="171.5" y="116">1 : saisir username et password</text></g></g><g transform="translate(-30,-30) scale(1,1)"><rect fill="#ffffff" height="28" stroke="none" width="13" x="390" y="121"/></g><g transform="translate(-30,-30) scale(1,1)"><path d="M 390 121 L 403 121 L 403 149 L 390 149 L 390 121 Z Z" fill="none" stroke="#000000" stroke-miterlimit="10"/></g><g transform="translate(-30,-30) scale(1,1)"><path d="M 137 160 L 390 160" fill="none" stroke="#000000" stroke-miterlimit="10"/></g><g transform="translate(-30,-30) scale(1,1)"><path d="M 379.83732514237585 164.209517756016 L 390 160 L 379.83732514237585 155.790482243984" fill="#000000" stroke="none"/></g><g transform="translate(-30,-30) scale(1,1)"><path d="M 379.83732514237585 164.209517756016 L 390 160 L 379.83732514237585 155.790482243984 L 379.83732514237585 164.209517756016" fill="none" stroke="#000000" stroke-miterlimit="10"/></g><g transform="translate(-30,-30) scale(1,1)"><g><path fill="none" stroke="none"/><text fill="#000000" font-family="Arial" font-size="13px" font-style="normal" font-weight="normal" stroke="none" text-decoration="none" x="180.5" y="155">2 : cliquer sur "se connecter"</text></g></g><g transform="translate(-30,-30) scale(1,1)"><rect fill="#ffffff" height="28" stroke="none" width="13" x="390" y="160"/></g><g transform="translate(-30,-30) scale(1,1)"><path d="M 390 160 L 403 160 L 403 188 L 390 188 L 390 160 Z Z" fill="none" stroke="#000000" stroke-miterlimit="10"/></g><g transform="translate(-30,-30) scale(1,1)"><path d="M 403 169 L 616 169" fill="none" stroke="#000000" stroke-miterlimit="10"/></g><g transform="translate(-30,-30) scale(1,1)"><path d="M 605.8373251423759 173.209517756016 L 616 169 L 605.8373251423758 164.790482243984" fill="#000000" stroke="none"/></g><g transform="translate(-30,-30) scale(1,1)"><path d="M 605.8373251423759 173.209517756016 L 616 169 L 605.8373251423758 164.790482243984 L 605.8373251423759 173.209517756016" fill="none" stroke="#000000" stroke-miterlimit="10"/></g><g transform="translate(-30,-30) scale(1,1)"><g><path fill="none" stroke="none"/><text fill="#000000" font-family="Arial" font-size="13px" font-style="normal" font-weight="normal" stroke="none" text-decoration="none" x="460.5" y="163">3 : requête sql</text></g></g><g transform="translate(-30,-30) scale(1,1)"><rect fill="#ffffff" height="63" stroke="none" width="13" x="616" y="169"/></g><g transform="translate(-30,-30) scale(1,1)"><path d="M 616 169 L 629 169 L 629 232 L 616 232 L 616 169 Z Z" fill="none" stroke="#000000" stroke-miterlimit="10"/></g><g transform="translate(-30,-30) scale(1,1)"><path d="M 629 175 L 830 175" fill="none" stroke="#000000" stroke-miterlimit="10"/></g><g transform="translate(-30,-30) scale(1,1)"><path d="M 819.8373251423759 179.209517756016 L 830 175 L 819.8373251423758 170.790482243984" fill="#000000" stroke="none"/></g><g transform="translate(-30,-30) scale(1,1)"><path d="M 819.8373251423759 179.209517756016 L 830 175 L 819.8373251423758 170.790482243984 L 819.8373251423759 179.209517756016" fill="none" stroke="#000000" stroke-miterlimit="10"/></g><g transform="translate(-30,-30) scale(1,1)"><g><path fill="none" stroke="none"/><text fill="#000000" font-family="Arial" font-size="13px" font-style="normal" font-weight="normal" stroke="none" text-decoration="none" x="702.509521484375" y="170">4 : select</text></g></g><g transform="translate(-30,-30) scale(1,1)"><rect fill="#ffffff" height="41" stroke="none" width="13" x="830" y="175"/></g><g transform="translate(-30,-30) scale(1,1)"><path d="M 830 175 L 843 175 L 843 216 L 830 216 L 830 175 Z Z" fill="none" stroke="#000000" stroke-miterlimit="10"/></g><g transform="translate(-30,-30) scale(1,1)"><path d="M 830 205 L 629 205" fill="none" stroke="#000000" stroke-dasharray="3" stroke-miterlimit="10"/></g><g transform="translate(-30,-30) scale(1,1)"><path d="M 639.1626748576241 200.790482243984 L 629 205 L 639.1626748576241 209.209517756016" fill="none" stroke="#000000" stroke-miterlimit="10"/></g><g transform="translate(-30,-30) scale(1,1)"><g><path fill="none" stroke="none"/><text fill="#000000" font-family="Arial" font-size="13px" font-style="normal" font-weight="normal" stroke="none" text-decoration="none" x="691.75" y="220">5 : response</text></g></g><g transform="translate(-30,-30) scale(1,1)"><path d="M 623 291 L 403 291" fill="none" stroke="#000000" stroke-miterlimit="10"/></g><g transform="translate(-30,-30) scale(1,1)"><path d="M 413.16267485762415 286.790482243984 L 403 291 L 413.16267485762415 295.209517756016" fill="#000000" stroke="none"/></g><g transform="translate(-30,-30) scale(1,1)"><path d="M 413.16267485762415 286.790482243984 L 403 291 L 413.16267485762415 295.209517756016 L 413.16267485762415 286.790482243984" fill="none" stroke="#000000" stroke-miterlimit="10"/></g><g transform="translate(-30,-30) scale(1,1)"><g><path fill="none" stroke="none"/><text fill="#000000" font-family="Arial" font-size="13px" font-style="normal" font-weight="normal" stroke="none" text-decoration="none" x="447.5" y="306">6 : ChargerDashboard</text></g></g><g transform="translate(-30,-30) scale(1,1)"><rect fill="#ffffff" height="28" stroke="none" width="13" x="390" y="291"/></g><g transform="translate(-30,-30) scale(1,1)"><path d="M 390 291 L 403 291 L 403 319 L 390 319 L 390 291 Z Z" fill="none" stroke="#000000" stroke-miterlimit="10"/></g><g transform="translate(-30,-30) scale(1,1)"><path d="M 623 392 L 403 392" fill="none" stroke="#000000" stroke-miterlimit="10"/></g><g transform="translate(-30,-30) scale(1,1)"><path d="M 413.16267485762415 387.790482243984 L 403 392 L 413.16267485762415 396.209517756016" fill="#000000" stroke="none"/></g><g transform="translate(-30,-30) scale(1,1)"><path d="M 413.16267485762415 387.790482243984 L 403 392 L 413.16267485762415 396.209517756016 L 413.16267485762415 387.790482243984" fill="none" stroke="#000000" stroke-miterlimit="10"/></g><g transform="translate(-30,-30) scale(1,1)"><g><path fill="none" stroke="none"/><text fill="#000000" font-family="Arial" font-size="13px" font-style="normal" font-weight="normal" stroke="none" text-decoration="none" x="485.15087890625" y="407">7 : erreur</text></g></g><g transform="translate(-30,-30) scale(1,1)"><rect fill="#ffffff" height="28" stroke="none" width="13" x="390" y="392"/></g><g transform="translate(-30,-30) scale(1,1)"><path d="M 390 392 L 403 392 L 403 420 L 390 420 L 390 392 Z Z" fill="none" stroke="#000000" stroke-miterlimit="10"/></g><g transform="translate(-30,-30) scale(1,1)"><path d="M 88 232 L 927 232 L 927 439 L 88 439 L 88 232" fill="none" stroke="#000000" stroke-miterlimit="10"/></g><g transform="translate(-30,-30) scale(1,1)"><path d="M 88 232 L 88 254 L 138.68994140625 254 L 149.68994140625 243 L 149.68994140625 232 L 88 232" fill="#ffffff" stroke="none"/></g><g transform="translate(-30,-30) scale(1,1)"><path d="M 88 232 L 88 254 L 138.68994140625 254 L 149.68994140625 243 L 149.68994140625 232 L 88 232 L 88 232" fill="none" stroke="#000000" stroke-miterlimit="10"/></g><g transform="translate(-30,-30) scale(1,1)"><g><path fill="none" stroke="none"/><text fill="#000000" font-family="Arial" font-size="13px" font-style="normal" font-weight="normal" stroke="none" text-decoration="none" x="119.9599609375" y="248">alt</text></g></g><g transform="translate(-30,-30) scale(1,1)"><g><path fill="none" stroke="none"/><text fill="#000000" font-family="Arial" font-size="13px" font-style="normal" font-weight="bold" stroke="none" text-decoration="none" x="92.279541015625" y="246.5">seq</text></g></g><g transform="translate(-30,-30) scale(1,1)"><g><path fill="none" stroke="none"/><text fill="#000000" font-family="Arial" font-size="13px" font-style="normal" font-weight="normal" stroke="none" text-decoration="none" x="107.5" y="281">[données valides]</text></g></g><g transform="translate(-30,-30) scale(1,1)"><path d="M 88 337 L 927 337" fill="none" stroke="#000000" stroke-dasharray="10,3" stroke-miterlimit="10"/></g></g></svg>