<?xml version="1.0" encoding="UTF-8" standalone="no"?><svg xmlns="http://www.w3.org/2000/svg" xmlns:xlink="http://www.w3.org/1999/xlink" height="1659" version="1.1" width="900.3544921875"><defs/><g><g transform="translate(-62,-30) scale(1,1)"><path d="M 88 1088 L 779 1088 L 779 1679 L 88 1679 L 88 1088" fill="none" stroke="#000000" stroke-miterlimit="10"/></g><g transform="translate(-62,-30) scale(1,1)"><path d="M 88 1088 L 88 1110 L 232.63525390625 1110 L 243.63525390625 1099 L 243.63525390625 1088 L 88 1088" fill="#ffffff" stroke="none"/></g><g transform="translate(-62,-30) scale(1,1)"><path d="M 88 1088 L 88 1110 L 232.63525390625 1110 L 243.63525390625 1099 L 243.63525390625 1088 L 88 1088 L 88 1088" fill="none" stroke="#000000" stroke-miterlimit="10"/></g><g transform="translate(-62,-30) scale(1,1)"><g><path fill="none" stroke="none"/><text fill="#000000" font-family="Arial" font-size="13px" font-style="normal" font-weight="normal" stroke="none" text-decoration="none" x="112.72998046875" y="1104">SequenceDiagram1</text></g></g><g transform="translate(-62,-30) scale(1,1)"><g><path fill="none" stroke="none"/><text fill="#000000" font-family="Arial" font-size="13px" font-style="normal" font-weight="bold" stroke="none" text-decoration="none" x="92.279541015625" y="1104">sd</text></g></g><g transform="translate(-62,-30) scale(1,1)"><rect fill="#C0C0C0" height="39" opacity="0.2" stroke="none" width="81.12451171875" x="143" y="47"/></g><g transform="translate(-62,-30) scale(1,1)"><rect fill="#ffffff" height="39" stroke="none" width="81.12451171875" x="136" y="40"/></g><g transform="translate(-62,-30) scale(1,1)"><path d="M 136 40 L 217.12451171875 40 L 217.12451171875 79 L 136 79 L 136 40 Z Z" fill="none" stroke="#000000" stroke-miterlimit="10"/></g><g transform="translate(-62,-30) scale(1,1)"><g><path fill="none" stroke="none"/><text fill="#000000" font-family="Arial" font-size="13px" font-style="normal" font-weight="bold" stroke="none" text-decoration="none" x="145.5" y="58">utilisateur</text></g></g><g transform="translate(-62,-30) scale(1,1)"><path d="M 177.5 80 L 177.5 608" fill="none" stroke="#000000" stroke-dasharray="3" stroke-miterlimit="10"/></g><g transform="translate(-62,-30) scale(1,1)"><rect fill="#C0C0C0" height="39" opacity="0.2" stroke="none" width="89.8017578125" x="359" y="47"/></g><g transform="translate(-62,-30) scale(1,1)"><rect fill="#ffffff" height="39" stroke="none" width="89.8017578125" x="352" y="40"/></g><g transform="translate(-62,-30) scale(1,1)"><path d="M 352 40 L 441.8017578125 40 L 441.8017578125 79 L 352 79 L 352 40 Z Z" fill="none" stroke="#000000" stroke-miterlimit="10"/></g><g transform="translate(-62,-30) scale(1,1)"><g><path fill="none" stroke="none"/><text fill="#000000" font-family="Arial" font-size="13px" font-style="normal" font-weight="bold" stroke="none" text-decoration="none" x="361.5" y="58">interface UI</text></g></g><g transform="translate(-62,-30) scale(1,1)"><path d="M 397.5 80 L 397.5 608" fill="none" stroke="#000000" stroke-dasharray="3" stroke-miterlimit="10"/></g><g transform="translate(-62,-30) scale(1,1)"><rect fill="#C0C0C0" height="39" opacity="0.2" stroke="none" width="124.47900390625" x="639" y="47"/></g><g transform="translate(-62,-30) scale(1,1)"><rect fill="#ffffff" height="39" stroke="none" width="124.47900390625" x="632" y="40"/></g><g transform="translate(-62,-30) scale(1,1)"><path d="M 632 40 L 756.47900390625 40 L 756.47900390625 79 L 632 79 L 632 40 Z Z" fill="none" stroke="#000000" stroke-miterlimit="10"/></g><g transform="translate(-62,-30) scale(1,1)"><g><path fill="none" stroke="none"/><text fill="#000000" font-family="Arial" font-size="13px" font-style="normal" font-weight="bold" stroke="none" text-decoration="none" x="641.5" y="58">base de données</text></g></g><g transform="translate(-62,-30) scale(1,1)"><path d="M 695.5 80 L 695.5 608" fill="none" stroke="#000000" stroke-dasharray="3" stroke-miterlimit="10"/></g><g transform="translate(-62,-30) scale(1,1)"><rect fill="#C0C0C0" height="39" opacity="0.2" stroke="none" width="88.3544921875" x="871" y="47"/></g><g transform="translate(-62,-30) scale(1,1)"><rect fill="#ffffff" height="39" stroke="none" width="88.3544921875" x="864" y="40"/></g><g transform="translate(-62,-30) scale(1,1)"><path d="M 864 40 L 952.3544921875 40 L 952.3544921875 79 L 864 79 L 864 40 Z Z" fill="none" stroke="#000000" stroke-miterlimit="10"/></g><g transform="translate(-62,-30) scale(1,1)"><g><path fill="none" stroke="none"/><text fill="#000000" font-family="Arial" font-size="13px" font-style="normal" font-weight="bold" stroke="none" text-decoration="none" x="873.5" y="58">utilisateurs</text></g></g><g transform="translate(-62,-30) scale(1,1)"><path d="M 909.5 80 L 909.5 608" fill="none" stroke="#000000" stroke-dasharray="3" stroke-miterlimit="10"/></g><g transform="translate(-62,-30) scale(1,1)"><path d="M 177 113 L 390 113" fill="none" stroke="#000000" stroke-miterlimit="10"/></g><g transform="translate(-62,-30) scale(1,1)"><path d="M 379.83732514237585 117.20951775601598 L 390 113 L 379.83732514237585 108.79048224398402" fill="#000000" stroke="none"/></g><g transform="translate(-62,-30) scale(1,1)"><path d="M 379.83732514237585 117.20951775601598 L 390 113 L 379.83732514237585 108.79048224398402 L 379.83732514237585 117.20951775601598" fill="none" stroke="#000000" stroke-miterlimit="10"/></g><g transform="translate(-62,-30) scale(1,1)"><g><path fill="none" stroke="none"/><text fill="#000000" font-family="Arial" font-size="13px" font-style="normal" font-weight="normal" stroke="none" text-decoration="none" x="212.950439453125" y="108">1 : ouvrir page de profile</text></g></g><g transform="translate(-62,-30) scale(1,1)"><rect fill="#ffffff" height="87" stroke="none" width="13" x="390" y="113"/></g><g transform="translate(-62,-30) scale(1,1)"><path d="M 390 113 L 403 113 L 403 200 L 390 200 L 390 113 Z Z" fill="none" stroke="#000000" stroke-miterlimit="10"/></g><g transform="translate(-62,-30) scale(1,1)"><path d="M 403 128 L 688 128" fill="none" stroke="#000000" stroke-miterlimit="10"/></g><g transform="translate(-62,-30) scale(1,1)"><path d="M 677.8373251423759 132.209517756016 L 688 128 L 677.8373251423758 123.79048224398402" fill="#000000" stroke="none"/></g><g transform="translate(-62,-30) scale(1,1)"><path d="M 677.8373251423759 132.209517756016 L 688 128 L 677.8373251423758 123.79048224398402 L 677.8373251423759 132.209517756016" fill="none" stroke="#000000" stroke-miterlimit="10"/></g><g transform="translate(-62,-30) scale(1,1)"><g><path fill="none" stroke="none"/><text fill="#000000" font-family="Arial" font-size="13px" font-style="normal" font-weight="normal" stroke="none" text-decoration="none" x="451.5" y="123">2 : récpurer_données(utilisateur)</text></g></g><g transform="translate(-62,-30) scale(1,1)"><rect fill="#ffffff" height="72" stroke="none" width="13" x="688" y="128"/></g><g transform="translate(-62,-30) scale(1,1)"><path d="M 688 128 L 701 128 L 701 200 L 688 200 L 688 128 Z Z" fill="none" stroke="#000000" stroke-miterlimit="10"/></g><g transform="translate(-62,-30) scale(1,1)"><path d="M 701 144 L 902 144" fill="none" stroke="#000000" stroke-miterlimit="10"/></g><g transform="translate(-62,-30) scale(1,1)"><path d="M 891.8373251423759 148.209517756016 L 902 144 L 891.8373251423758 139.790482243984" fill="#000000" stroke="none"/></g><g transform="translate(-62,-30) scale(1,1)"><path d="M 891.8373251423759 148.209517756016 L 902 144 L 891.8373251423758 139.790482243984 L 891.8373251423759 148.209517756016" fill="none" stroke="#000000" stroke-miterlimit="10"/></g><g transform="translate(-62,-30) scale(1,1)"><g><path fill="none" stroke="none"/><text fill="#000000" font-family="Arial" font-size="13px" font-style="normal" font-weight="normal" stroke="none" text-decoration="none" x="774.509521484375" y="139">3 : select</text></g></g><g transform="translate(-62,-30) scale(1,1)"><rect fill="#ffffff" height="40" stroke="none" width="13" x="902" y="144"/></g><g transform="translate(-62,-30) scale(1,1)"><path d="M 902 144 L 915 144 L 915 184 L 902 184 L 902 144 Z Z" fill="none" stroke="#000000" stroke-miterlimit="10"/></g><g transform="translate(-62,-30) scale(1,1)"><path d="M 902 176 L 701 176" fill="none" stroke="#000000" stroke-dasharray="3" stroke-miterlimit="10"/></g><g transform="translate(-62,-30) scale(1,1)"><path d="M 711.1626748576241 171.790482243984 L 701 176 L 711.1626748576241 180.209517756016" fill="none" stroke="#000000" stroke-miterlimit="10"/></g><g transform="translate(-62,-30) scale(1,1)"><g><path fill="none" stroke="none"/><text fill="#000000" font-family="Arial" font-size="13px" font-style="normal" font-weight="normal" stroke="none" text-decoration="none" x="764.5" y="191">4 : response</text></g></g><g transform="translate(-62,-30) scale(1,1)"><path d="M 688 192 L 403 192" fill="none" stroke="#000000" stroke-dasharray="3" stroke-miterlimit="10"/></g><g transform="translate(-62,-30) scale(1,1)"><path d="M 413.16267485762415 187.790482243984 L 403 192 L 413.16267485762415 196.209517756016" fill="none" stroke="#000000" stroke-miterlimit="10"/></g><g transform="translate(-62,-30) scale(1,1)"><g><path fill="none" stroke="none"/><text fill="#000000" font-family="Arial" font-size="13px" font-style="normal" font-weight="normal" stroke="none" text-decoration="none" x="459.5" y="207">5 : AfficherCordonnéesProfile</text></g></g><g transform="translate(-62,-30) scale(1,1)"><path d="M 177 272 L 390 272" fill="none" stroke="#000000" stroke-miterlimit="10"/></g><g transform="translate(-62,-30) scale(1,1)"><path d="M 379.83732514237585 276.209517756016 L 390 272 L 379.83732514237585 267.790482243984" fill="#000000" stroke="none"/></g><g transform="translate(-62,-30) scale(1,1)"><path d="M 379.83732514237585 276.209517756016 L 390 272 L 379.83732514237585 267.790482243984 L 379.83732514237585 276.209517756016" fill="none" stroke="#000000" stroke-miterlimit="10"/></g><g transform="translate(-62,-30) scale(1,1)"><g><path fill="none" stroke="none"/><text fill="#000000" font-family="Arial" font-size="13px" font-style="normal" font-weight="normal" stroke="none" text-decoration="none" x="224.5" y="267">6 : modifier données</text></g></g><g transform="translate(-62,-30) scale(1,1)"><rect fill="#ffffff" height="28" stroke="none" width="13" x="390" y="272"/></g><g transform="translate(-62,-30) scale(1,1)"><path d="M 390 272 L 403 272 L 403 300 L 390 300 L 390 272 Z Z" fill="none" stroke="#000000" stroke-miterlimit="10"/></g><g transform="translate(-62,-30) scale(1,1)"><path d="M 177 320 L 390 320" fill="none" stroke="#000000" stroke-miterlimit="10"/></g><g transform="translate(-62,-30) scale(1,1)"><path d="M 379.83732514237585 324.209517756016 L 390 320 L 379.83732514237585 315.790482243984" fill="#000000" stroke="none"/></g><g transform="translate(-62,-30) scale(1,1)"><path d="M 379.83732514237585 324.209517756016 L 390 320 L 379.83732514237585 315.790482243984 L 379.83732514237585 324.209517756016" fill="none" stroke="#000000" stroke-miterlimit="10"/></g><g transform="translate(-62,-30) scale(1,1)"><g><path fill="none" stroke="none"/><text fill="#000000" font-family="Arial" font-size="13px" font-style="normal" font-weight="normal" stroke="none" text-decoration="none" x="230.5" y="314">7 : enregistrer</text></g></g><g transform="translate(-62,-30) scale(1,1)"><rect fill="#ffffff" height="40" stroke="none" width="13" x="390" y="320"/></g><g transform="translate(-62,-30) scale(1,1)"><path d="M 390 320 L 403 320 L 403 360 L 390 360 L 390 320 Z Z" fill="none" stroke="#000000" stroke-miterlimit="10"/></g><g transform="translate(-62,-30) scale(1,1)"><path d="M 403 336 L 688 336" fill="none" stroke="#000000" stroke-miterlimit="10"/></g><g transform="translate(-62,-30) scale(1,1)"><path d="M 677.8373251423759 340.209517756016 L 688 336 L 677.8373251423758 331.790482243984" fill="#000000" stroke="none"/></g><g transform="translate(-62,-30) scale(1,1)"><path d="M 677.8373251423759 340.209517756016 L 688 336 L 677.8373251423758 331.790482243984 L 677.8373251423759 340.209517756016" fill="none" stroke="#000000" stroke-miterlimit="10"/></g><g transform="translate(-62,-30) scale(1,1)"><g><path fill="none" stroke="none"/><text fill="#000000" font-family="Arial" font-size="13px" font-style="normal" font-weight="normal" stroke="none" text-decoration="none" x="514.986328125" y="336">8 : vérifier</text></g></g><g transform="translate(-62,-30) scale(1,1)"><rect fill="#ffffff" height="56" stroke="none" width="13" x="688" y="336"/></g><g transform="translate(-62,-30) scale(1,1)"><path d="M 688 336 L 701 336 L 701 392 L 688 392 L 688 336 Z Z" fill="none" stroke="#000000" stroke-miterlimit="10"/></g><g transform="translate(-62,-30) scale(1,1)"><path d="M 701 352 L 902 352" fill="none" stroke="#000000" stroke-miterlimit="10"/></g><g transform="translate(-62,-30) scale(1,1)"><path d="M 891.8373251423759 356.209517756016 L 902 352 L 891.8373251423758 347.790482243984" fill="#000000" stroke="none"/></g><g transform="translate(-62,-30) scale(1,1)"><path d="M 891.8373251423759 356.209517756016 L 902 352 L 891.8373251423758 347.790482243984 L 891.8373251423759 356.209517756016" fill="none" stroke="#000000" stroke-miterlimit="10"/></g><g transform="translate(-62,-30) scale(1,1)"><g><path fill="none" stroke="none"/><text fill="#000000" font-family="Arial" font-size="13px" font-style="normal" font-weight="normal" stroke="none" text-decoration="none" x="714.5" y="347">9 : VérifierSelonTypeDonnées</text></g></g><g transform="translate(-62,-30) scale(1,1)"><rect fill="#ffffff" height="32" stroke="none" width="13" x="902" y="352"/></g><g transform="translate(-62,-30) scale(1,1)"><path d="M 902 352 L 915 352 L 915 384 L 902 384 L 902 352 Z Z" fill="none" stroke="#000000" stroke-miterlimit="10"/></g><g transform="translate(-62,-30) scale(1,1)"><path d="M 902 368 L 701 368" fill="none" stroke="#000000" stroke-dasharray="3" stroke-miterlimit="10"/></g><g transform="translate(-62,-30) scale(1,1)"><path d="M 711.1626748576241 363.790482243984 L 701 368 L 711.1626748576241 372.209517756016" fill="none" stroke="#000000" stroke-miterlimit="10"/></g><g transform="translate(-62,-30) scale(1,1)"><g><path fill="none" stroke="none"/><text fill="#000000" font-family="Arial" font-size="13px" font-style="normal" font-weight="normal" stroke="none" text-decoration="none" x="760.5" y="383">10 : response</text></g></g><g transform="translate(-62,-30) scale(1,1)"><path d="M 695 440 L 403 440" fill="none" stroke="#000000" stroke-miterlimit="10"/></g><g transform="translate(-62,-30) scale(1,1)"><path d="M 413.16267485762415 435.790482243984 L 403 440 L 413.16267485762415 444.209517756016" fill="#000000" stroke="none"/></g><g transform="translate(-62,-30) scale(1,1)"><path d="M 413.16267485762415 435.790482243984 L 403 440 L 413.16267485762415 444.209517756016 L 413.16267485762415 435.790482243984" fill="none" stroke="#000000" stroke-miterlimit="10"/></g><g transform="translate(-62,-30) scale(1,1)"><g><path fill="none" stroke="none"/><text fill="#000000" font-family="Arial" font-size="13px" font-style="normal" font-weight="normal" stroke="none" text-decoration="none" x="481.5" y="455">11 : Données Modifées</text></g></g><g transform="translate(-62,-30) scale(1,1)"><rect fill="#ffffff" height="28" stroke="none" width="13" x="390" y="440"/></g><g transform="translate(-62,-30) scale(1,1)"><path d="M 390 440 L 403 440 L 403 468 L 390 468 L 390 440 Z Z" fill="none" stroke="#000000" stroke-miterlimit="10"/></g><g transform="translate(-62,-30) scale(1,1)"><path d="M 695 504 L 403 504" fill="none" stroke="#000000" stroke-miterlimit="10"/></g><g transform="translate(-62,-30) scale(1,1)"><path d="M 413.16267485762415 499.790482243984 L 403 504 L 413.16267485762415 508.209517756016" fill="#000000" stroke="none"/></g><g transform="translate(-62,-30) scale(1,1)"><path d="M 413.16267485762415 499.790482243984 L 403 504 L 413.16267485762415 508.209517756016 L 413.16267485762415 499.790482243984" fill="none" stroke="#000000" stroke-miterlimit="10"/></g><g transform="translate(-62,-30) scale(1,1)"><g><path fill="none" stroke="none"/><text fill="#000000" font-family="Arial" font-size="13px" font-style="normal" font-weight="normal" stroke="none" text-decoration="none" x="518.15087890625" y="519">12 : erreur</text></g></g><g transform="translate(-62,-30) scale(1,1)"><rect fill="#ffffff" height="28" stroke="none" width="13" x="390" y="504"/></g><g transform="translate(-62,-30) scale(1,1)"><path d="M 390 504 L 403 504 L 403 532 L 390 532 L 390 504 Z Z" fill="none" stroke="#000000" stroke-miterlimit="10"/></g><g transform="translate(-62,-30) scale(1,1)"><path d="M 72 240 L 927 240 L 927 608 L 72 608 L 72 240" fill="none" stroke="#000000" stroke-miterlimit="10"/></g><g transform="translate(-62,-30) scale(1,1)"><path d="M 72 240 L 72 262 L 127.03173828125 262 L 138.03173828125 251 L 138.03173828125 240 L 72 240" fill="#ffffff" stroke="none"/></g><g transform="translate(-62,-30) scale(1,1)"><path d="M 72 240 L 72 262 L 127.03173828125 262 L 138.03173828125 251 L 138.03173828125 240 L 72 240 L 72 240" fill="none" stroke="#000000" stroke-miterlimit="10"/></g><g transform="translate(-62,-30) scale(1,1)"><g><path fill="none" stroke="none"/><text fill="#000000" font-family="Arial" font-size="13px" font-style="normal" font-weight="normal" stroke="none" text-decoration="none" x="103.9599609375" y="255.5">opt</text></g></g><g transform="translate(-62,-30) scale(1,1)"><g><path fill="none" stroke="none"/><text fill="#000000" font-family="Arial" font-size="13px" font-style="normal" font-weight="bold" stroke="none" text-decoration="none" x="76.279541015625" y="254.5">seq</text></g></g><g transform="translate(-62,-30) scale(1,1)"><path d="M 256 408 L 815 408 L 815 528 L 256 528 L 256 408" fill="none" stroke="#000000" stroke-miterlimit="10"/></g><g transform="translate(-62,-30) scale(1,1)"><path d="M 256 408 L 256 430 L 306.68994140625 430 L 317.68994140625 419 L 317.68994140625 408 L 256 408" fill="#ffffff" stroke="none"/></g><g transform="translate(-62,-30) scale(1,1)"><path d="M 256 408 L 256 430 L 306.68994140625 430 L 317.68994140625 419 L 317.68994140625 408 L 256 408 L 256 408" fill="none" stroke="#000000" stroke-miterlimit="10"/></g><g transform="translate(-62,-30) scale(1,1)"><g><path fill="none" stroke="none"/><text fill="#000000" font-family="Arial" font-size="13px" font-style="normal" font-weight="normal" stroke="none" text-decoration="none" x="287.9599609375" y="424">alt</text></g></g><g transform="translate(-62,-30) scale(1,1)"><g><path fill="none" stroke="none"/><text fill="#000000" font-family="Arial" font-size="13px" font-style="normal" font-weight="bold" stroke="none" text-decoration="none" x="260.279541015625" y="422.5">seq</text></g></g><g transform="translate(-62,-30) scale(1,1)"><g><path fill="none" stroke="none"/><text fill="#000000" font-family="Arial" font-size="13px" font-style="normal" font-weight="normal" stroke="none" text-decoration="none" x="275.5" y="457">[données valides]</text></g></g><g transform="translate(-62,-30) scale(1,1)"><path d="M 256 474 L 815 474" fill="none" stroke="#000000" stroke-dasharray="10,3" stroke-miterlimit="10"/></g></g></svg>