<?xml version="1.0" encoding="UTF-8" standalone="no"?><svg xmlns="http://www.w3.org/2000/svg" xmlns:xlink="http://www.w3.org/1999/xlink" height="1555" version="1.1" width="976.68359375"><defs/><g><g transform="translate(10,-30) scale(1,1)"><path d="M 0 984 L 691 984 L 691 1575 L 0 1575 L 0 984" fill="none" stroke="#000000" stroke-miterlimit="10"/></g><g transform="translate(10,-30) scale(1,1)"><path d="M 0 984 L 0 1006 L 144.63525390625 1006 L 155.63525390625 995 L 155.63525390625 984 L 0 984" fill="#ffffff" stroke="none"/></g><g transform="translate(10,-30) scale(1,1)"><path d="M 0 984 L 0 1006 L 144.63525390625 1006 L 155.63525390625 995 L 155.63525390625 984 L 0 984 L 0 984" fill="none" stroke="#000000" stroke-miterlimit="10"/></g><g transform="translate(10,-30) scale(1,1)"><g><path fill="none" stroke="none"/><text fill="#000000" font-family="Arial" font-size="13px" font-style="normal" font-weight="normal" stroke="none" text-decoration="none" x="24.72998046875" y="1000">SequenceDiagram1</text></g></g><g transform="translate(10,-30) scale(1,1)"><g><path fill="none" stroke="none"/><text fill="#000000" font-family="Arial" font-size="13px" font-style="normal" font-weight="bold" stroke="none" text-decoration="none" x="4.279541015625" y="1000">sd</text></g></g><g transform="translate(10,-30) scale(1,1)"><rect fill="#C0C0C0" height="39" opacity="0.2" stroke="none" width="81.8544921875" x="79" y="47"/></g><g transform="translate(10,-30) scale(1,1)"><rect fill="#ffffff" height="39" stroke="none" width="81.8544921875" x="72" y="40"/></g><g transform="translate(10,-30) scale(1,1)"><path d="M 72 40 L 153.8544921875 40 L 153.8544921875 79 L 72 79 L 72 40 Z Z" fill="none" stroke="#000000" stroke-miterlimit="10"/></g><g transform="translate(10,-30) scale(1,1)"><g><path fill="none" stroke="none"/><text fill="#000000" font-family="Arial" font-size="13px" font-style="normal" font-weight="bold" stroke="none" text-decoration="none" x="81.5" y="58">urilisateur</text></g></g><g transform="translate(10,-30) scale(1,1)"><path d="M 113.5 80 L 113.5 792" fill="none" stroke="#000000" stroke-dasharray="3" stroke-miterlimit="10"/></g><g transform="translate(10,-30) scale(1,1)"><rect fill="#C0C0C0" height="39" opacity="0.2" stroke="none" width="89.8017578125" x="423" y="47"/></g><g transform="translate(10,-30) scale(1,1)"><rect fill="#ffffff" height="39" stroke="none" width="89.8017578125" x="416" y="40"/></g><g transform="translate(10,-30) scale(1,1)"><path d="M 416 40 L 505.8017578125 40 L 505.8017578125 79 L 416 79 L 416 40 Z Z" fill="none" stroke="#000000" stroke-miterlimit="10"/></g><g transform="translate(10,-30) scale(1,1)"><g><path fill="none" stroke="none"/><text fill="#000000" font-family="Arial" font-size="13px" font-style="normal" font-weight="bold" stroke="none" text-decoration="none" x="425.5" y="58">interface UI</text></g></g><g transform="translate(10,-30) scale(1,1)"><path d="M 461.5 80 L 461.5 792" fill="none" stroke="#000000" stroke-dasharray="3" stroke-miterlimit="10"/></g><g transform="translate(10,-30) scale(1,1)"><rect fill="#C0C0C0" height="39" opacity="0.2" stroke="none" width="124.47900390625" x="655" y="47"/></g><g transform="translate(10,-30) scale(1,1)"><rect fill="#ffffff" height="39" stroke="none" width="124.47900390625" x="648" y="40"/></g><g transform="translate(10,-30) scale(1,1)"><path d="M 648 40 L 772.47900390625 40 L 772.47900390625 79 L 648 79 L 648 40 Z Z" fill="none" stroke="#000000" stroke-miterlimit="10"/></g><g transform="translate(10,-30) scale(1,1)"><g><path fill="none" stroke="none"/><text fill="#000000" font-family="Arial" font-size="13px" font-style="normal" font-weight="bold" stroke="none" text-decoration="none" x="657.5" y="58">base de données</text></g></g><g transform="translate(10,-30) scale(1,1)"><path d="M 711.5 80 L 711.5 792" fill="none" stroke="#000000" stroke-dasharray="3" stroke-miterlimit="10"/></g><g transform="translate(10,-30) scale(1,1)"><rect fill="#C0C0C0" height="39" opacity="0.2" stroke="none" width="92.68359375" x="871" y="47"/></g><g transform="translate(10,-30) scale(1,1)"><rect fill="#ffffff" height="39" stroke="none" width="92.68359375" x="864" y="40"/></g><g transform="translate(10,-30) scale(1,1)"><path d="M 864 40 L 956.68359375 40 L 956.68359375 79 L 864 79 L 864 40 Z Z" fill="none" stroke="#000000" stroke-miterlimit="10"/></g><g transform="translate(10,-30) scale(1,1)"><g><path fill="none" stroke="none"/><text fill="#000000" font-family="Arial" font-size="13px" font-style="normal" font-weight="bold" stroke="none" text-decoration="none" x="873.5" y="58">utilistateurs</text></g></g><g transform="translate(10,-30) scale(1,1)"><path d="M 911.5 80 L 911.5 792" fill="none" stroke="#000000" stroke-dasharray="3" stroke-miterlimit="10"/></g><g transform="translate(10,-30) scale(1,1)"><path d="M 113 112 L 454 112" fill="none" stroke="#000000" stroke-miterlimit="10"/></g><g transform="translate(10,-30) scale(1,1)"><path d="M 443.83732514237585 116.20951775601598 L 454 112 L 443.83732514237585 107.79048224398402" fill="#000000" stroke="none"/></g><g transform="translate(10,-30) scale(1,1)"><path d="M 443.83732514237585 116.20951775601598 L 454 112 L 443.83732514237585 107.79048224398402 L 443.83732514237585 116.20951775601598" fill="none" stroke="#000000" stroke-miterlimit="10"/></g><g transform="translate(10,-30) scale(1,1)"><g><path fill="none" stroke="none"/><text fill="#000000" font-family="Arial" font-size="13px" font-style="normal" font-weight="normal" stroke="none" text-decoration="none" x="190.114990234375" y="106">1 : cliquer sur password oubliée</text></g></g><g transform="translate(10,-30) scale(1,1)"><rect fill="#ffffff" height="28" stroke="none" width="13" x="454" y="112"/></g><g transform="translate(10,-30) scale(1,1)"><path d="M 454 112 L 467 112 L 467 140 L 454 140 L 454 112 Z Z" fill="none" stroke="#000000" stroke-miterlimit="10"/></g><g transform="translate(10,-30) scale(1,1)"><path d="M 113 160 L 454 160" fill="none" stroke="#000000" stroke-miterlimit="10"/></g><g transform="translate(10,-30) scale(1,1)"><path d="M 443.83732514237585 164.209517756016 L 454 160 L 443.83732514237585 155.790482243984" fill="#000000" stroke="none"/></g><g transform="translate(10,-30) scale(1,1)"><path d="M 443.83732514237585 164.209517756016 L 454 160 L 443.83732514237585 155.790482243984 L 443.83732514237585 164.209517756016" fill="none" stroke="#000000" stroke-miterlimit="10"/></g><g transform="translate(10,-30) scale(1,1)"><g><path fill="none" stroke="none"/><text fill="#000000" font-family="Arial" font-size="13px" font-style="normal" font-weight="normal" stroke="none" text-decoration="none" x="215.5" y="155">2 : écrire adresse email</text></g></g><g transform="translate(10,-30) scale(1,1)"><rect fill="#ffffff" height="28" stroke="none" width="13" x="454" y="160"/></g><g transform="translate(10,-30) scale(1,1)"><path d="M 454 160 L 467 160 L 467 188 L 454 188 L 454 160 Z Z" fill="none" stroke="#000000" stroke-miterlimit="10"/></g><g transform="translate(10,-30) scale(1,1)"><path d="M 467 178 L 704 178" fill="none" stroke="#000000" stroke-miterlimit="10"/></g><g transform="translate(10,-30) scale(1,1)"><path d="M 693.8373251423759 182.209517756016 L 704 178 L 693.8373251423758 173.790482243984" fill="#000000" stroke="none"/></g><g transform="translate(10,-30) scale(1,1)"><path d="M 693.8373251423759 182.209517756016 L 704 178 L 693.8373251423758 173.790482243984 L 693.8373251423759 182.209517756016" fill="none" stroke="#000000" stroke-miterlimit="10"/></g><g transform="translate(10,-30) scale(1,1)"><g><path fill="none" stroke="none"/><text fill="#000000" font-family="Arial" font-size="13px" font-style="normal" font-weight="normal" stroke="none" text-decoration="none" x="555.986328125" y="173">3 : vérifier</text></g></g><g transform="translate(10,-30) scale(1,1)"><rect fill="#ffffff" height="46" stroke="none" width="13" x="704" y="178"/></g><g transform="translate(10,-30) scale(1,1)"><path d="M 704 178 L 717 178 L 717 224 L 704 224 L 704 178 Z Z" fill="none" stroke="#000000" stroke-miterlimit="10"/></g><g transform="translate(10,-30) scale(1,1)"><path d="M 717 184 L 904 184" fill="none" stroke="#000000" stroke-miterlimit="10"/></g><g transform="translate(10,-30) scale(1,1)"><path d="M 893.8373251423759 188.209517756016 L 904 184 L 893.8373251423758 179.790482243984" fill="#000000" stroke="none"/></g><g transform="translate(10,-30) scale(1,1)"><path d="M 893.8373251423759 188.209517756016 L 904 184 L 893.8373251423758 179.790482243984 L 893.8373251423759 188.209517756016" fill="none" stroke="#000000" stroke-miterlimit="10"/></g><g transform="translate(10,-30) scale(1,1)"><g><path fill="none" stroke="none"/><text fill="#000000" font-family="Arial" font-size="13px" font-style="normal" font-weight="normal" stroke="none" text-decoration="none" x="783.509521484375" y="179">4 : select</text></g></g><g transform="translate(10,-30) scale(1,1)"><rect fill="#ffffff" height="28" stroke="none" width="13" x="904" y="184"/></g><g transform="translate(10,-30) scale(1,1)"><path d="M 904 184 L 917 184 L 917 212 L 904 212 L 904 184 Z Z" fill="none" stroke="#000000" stroke-miterlimit="10"/></g><g transform="translate(10,-30) scale(1,1)"><path d="M 904 208 L 717 208" fill="none" stroke="#000000" stroke-dasharray="3" stroke-miterlimit="10"/></g><g transform="translate(10,-30) scale(1,1)"><path d="M 727.1626748576241 203.790482243984 L 717 208 L 727.1626748576241 212.209517756016" fill="none" stroke="#000000" stroke-miterlimit="10"/></g><g transform="translate(10,-30) scale(1,1)"><g><path fill="none" stroke="none"/><text fill="#000000" font-family="Arial" font-size="13px" font-style="normal" font-weight="normal" stroke="none" text-decoration="none" x="773.5" y="223">5 : response</text></g></g><g transform="translate(10,-30) scale(1,1)"><path d="M 711 304 L 467 304" fill="none" stroke="#000000" stroke-miterlimit="10"/></g><g transform="translate(10,-30) scale(1,1)"><path d="M 477.16267485762415 299.790482243984 L 467 304 L 477.16267485762415 308.209517756016" fill="#000000" stroke="none"/></g><g transform="translate(10,-30) scale(1,1)"><path d="M 477.16267485762415 299.790482243984 L 467 304 L 477.16267485762415 308.209517756016 L 477.16267485762415 299.790482243984" fill="none" stroke="#000000" stroke-miterlimit="10"/></g><g transform="translate(10,-30) scale(1,1)"><g><path fill="none" stroke="none"/><text fill="#000000" font-family="Arial" font-size="13px" font-style="normal" font-weight="normal" stroke="none" text-decoration="none" x="532.5" y="319">6 : adresse trouvée</text></g></g><g transform="translate(10,-30) scale(1,1)"><rect fill="#ffffff" height="28" stroke="none" width="13" x="454" y="304"/></g><g transform="translate(10,-30) scale(1,1)"><path d="M 454 304 L 467 304 L 467 332 L 454 332 L 454 304 Z Z" fill="none" stroke="#000000" stroke-miterlimit="10"/></g><g transform="translate(10,-30) scale(1,1)"><path d="M 711 336 L 741 336 L 741 356 L 717 356" fill="none" stroke="#000000" stroke-miterlimit="10"/></g><g transform="translate(10,-30) scale(1,1)"><path d="M 727.1626748576241 351.790482243984 L 717 356 L 727.1626748576241 360.209517756016" fill="#000000" stroke="none"/></g><g transform="translate(10,-30) scale(1,1)"><path d="M 727.1626748576241 351.790482243984 L 717 356 L 727.1626748576241 360.209517756016 L 727.1626748576241 351.790482243984" fill="none" stroke="#000000" stroke-miterlimit="10"/></g><g transform="translate(10,-30) scale(1,1)"><g><path fill="none" stroke="none"/><text fill="#000000" font-family="Arial" font-size="13px" font-style="normal" font-weight="normal" stroke="none" text-decoration="none" x="702.5" y="379">7 : envoyer mail au utilisateur</text></g></g><g transform="translate(10,-30) scale(1,1)"><rect fill="#ffffff" height="68" stroke="none" width="13" x="704" y="356"/></g><g transform="translate(10,-30) scale(1,1)"><path d="M 704 356 L 717 356 L 717 424 L 704 424 L 704 356 Z Z" fill="none" stroke="#000000" stroke-miterlimit="10"/></g><g transform="translate(10,-30) scale(1,1)"><path d="M 113 384 L 143 384 L 143 404 L 119 404" fill="none" stroke="#000000" stroke-miterlimit="10"/></g><g transform="translate(10,-30) scale(1,1)"><path d="M 129.16267485762415 399.790482243984 L 119 404 L 129.16267485762415 408.209517756016" fill="#000000" stroke="none"/></g><g transform="translate(10,-30) scale(1,1)"><path d="M 129.16267485762415 399.790482243984 L 119 404 L 129.16267485762415 408.209517756016 L 129.16267485762415 399.790482243984" fill="none" stroke="#000000" stroke-miterlimit="10"/></g><g transform="translate(10,-30) scale(1,1)"><g><path fill="none" stroke="none"/><text fill="#000000" font-family="Arial" font-size="13px" font-style="normal" font-weight="normal" stroke="none" text-decoration="none" x="150.5" y="398">8 : consulter boite mail et ouvrir le lien</text></g></g><g transform="translate(10,-30) scale(1,1)"><rect fill="#ffffff" height="28" stroke="none" width="13" x="106" y="404"/></g><g transform="translate(10,-30) scale(1,1)"><path d="M 106 404 L 119 404 L 119 432 L 106 432 L 106 404 Z Z" fill="none" stroke="#000000" stroke-miterlimit="10"/></g><g transform="translate(10,-30) scale(1,1)"><path d="M 113 456 L 454 456" fill="none" stroke="#000000" stroke-miterlimit="10"/></g><g transform="translate(10,-30) scale(1,1)"><path d="M 443.83732514237585 460.209517756016 L 454 456 L 443.83732514237585 451.790482243984" fill="#000000" stroke="none"/></g><g transform="translate(10,-30) scale(1,1)"><path d="M 443.83732514237585 460.209517756016 L 454 456 L 443.83732514237585 451.790482243984 L 443.83732514237585 460.209517756016" fill="none" stroke="#000000" stroke-miterlimit="10"/></g><g transform="translate(10,-30) scale(1,1)"><g><path fill="none" stroke="none"/><text fill="#000000" font-family="Arial" font-size="13px" font-style="normal" font-weight="normal" stroke="none" text-decoration="none" x="200.5" y="451">9 : saisir-nouveau_password</text></g></g><g transform="translate(10,-30) scale(1,1)"><rect fill="#ffffff" height="64" stroke="none" width="13" x="454" y="456"/></g><g transform="translate(10,-30) scale(1,1)"><path d="M 454 456 L 467 456 L 467 520 L 454 520 L 454 456 Z Z" fill="none" stroke="#000000" stroke-miterlimit="10"/></g><g transform="translate(10,-30) scale(1,1)"><path d="M 467 464 L 704 464" fill="none" stroke="#000000" stroke-miterlimit="10"/></g><g transform="translate(10,-30) scale(1,1)"><path d="M 693.8373251423759 468.209517756016 L 704 464 L 693.8373251423758 459.790482243984" fill="#000000" stroke="none"/></g><g transform="translate(10,-30) scale(1,1)"><path d="M 693.8373251423759 468.209517756016 L 704 464 L 693.8373251423758 459.790482243984 L 693.8373251423759 468.209517756016" fill="none" stroke="#000000" stroke-miterlimit="10"/></g><g transform="translate(10,-30) scale(1,1)"><g><path fill="none" stroke="none"/><text fill="#000000" font-family="Arial" font-size="13px" font-style="normal" font-weight="normal" stroke="none" text-decoration="none" x="552.986328125" y="459">10 : vérifier</text></g></g><g transform="translate(10,-30) scale(1,1)"><rect fill="#ffffff" height="56" stroke="none" width="13" x="704" y="464"/></g><g transform="translate(10,-30) scale(1,1)"><path d="M 704 464 L 717 464 L 717 520 L 704 520 L 704 464 Z Z" fill="none" stroke="#000000" stroke-miterlimit="10"/></g><g transform="translate(10,-30) scale(1,1)"><path d="M 717 480 L 904 480" fill="none" stroke="#000000" stroke-miterlimit="10"/></g><g transform="translate(10,-30) scale(1,1)"><path d="M 893.8373251423759 484.209517756016 L 904 480 L 893.8373251423758 475.790482243984" fill="#000000" stroke="none"/></g><g transform="translate(10,-30) scale(1,1)"><path d="M 893.8373251423759 484.209517756016 L 904 480 L 893.8373251423758 475.790482243984 L 893.8373251423759 484.209517756016" fill="none" stroke="#000000" stroke-miterlimit="10"/></g><g transform="translate(10,-30) scale(1,1)"><g><path fill="none" stroke="none"/><text fill="#000000" font-family="Arial" font-size="13px" font-style="normal" font-weight="normal" stroke="none" text-decoration="none" x="729.5" y="475">11 : setpassword(utilisateur)</text></g></g><g transform="translate(10,-30) scale(1,1)"><rect fill="#ffffff" height="48" stroke="none" width="13" x="904" y="480"/></g><g transform="translate(10,-30) scale(1,1)"><path d="M 904 480 L 917 480 L 917 528 L 904 528 L 904 480 Z Z" fill="none" stroke="#000000" stroke-miterlimit="10"/></g><g transform="translate(10,-30) scale(1,1)"><path d="M 904 520 L 711 520" fill="none" stroke="#000000" stroke-dasharray="3" stroke-miterlimit="10"/></g><g transform="translate(10,-30) scale(1,1)"><path d="M 721.1626748576241 515.790482243984 L 711 520 L 721.1626748576241 524.209517756016" fill="none" stroke="#000000" stroke-miterlimit="10"/></g><g transform="translate(10,-30) scale(1,1)"><g><path fill="none" stroke="none"/><text fill="#000000" font-family="Arial" font-size="13px" font-style="normal" font-weight="normal" stroke="none" text-decoration="none" x="765.5" y="531">12 : response</text></g></g><g transform="translate(10,-30) scale(1,1)"><path d="M 711 584 L 467 584" fill="none" stroke="#000000" stroke-miterlimit="10"/></g><g transform="translate(10,-30) scale(1,1)"><path d="M 477.16267485762415 579.790482243984 L 467 584 L 477.16267485762415 588.209517756016" fill="#000000" stroke="none"/></g><g transform="translate(10,-30) scale(1,1)"><path d="M 477.16267485762415 579.790482243984 L 467 584 L 477.16267485762415 588.209517756016 L 477.16267485762415 579.790482243984" fill="none" stroke="#000000" stroke-miterlimit="10"/></g><g transform="translate(10,-30) scale(1,1)"><g><path fill="none" stroke="none"/><text fill="#000000" font-family="Arial" font-size="13px" font-style="normal" font-weight="normal" stroke="none" text-decoration="none" x="522.5" y="599">13 : password modifée</text></g></g><g transform="translate(10,-30) scale(1,1)"><rect fill="#ffffff" height="28" stroke="none" width="13" x="454" y="584"/></g><g transform="translate(10,-30) scale(1,1)"><path d="M 454 584 L 467 584 L 467 612 L 454 612 L 454 584 Z Z" fill="none" stroke="#000000" stroke-miterlimit="10"/></g><g transform="translate(10,-30) scale(1,1)"><path d="M 711 648 L 467 648" fill="none" stroke="#000000" stroke-miterlimit="10"/></g><g transform="translate(10,-30) scale(1,1)"><path d="M 477.16267485762415 643.790482243984 L 467 648 L 477.16267485762415 652.209517756016" fill="#000000" stroke="none"/></g><g transform="translate(10,-30) scale(1,1)"><path d="M 477.16267485762415 643.790482243984 L 467 648 L 477.16267485762415 652.209517756016 L 477.16267485762415 643.790482243984" fill="none" stroke="#000000" stroke-miterlimit="10"/></g><g transform="translate(10,-30) scale(1,1)"><g><path fill="none" stroke="none"/><text fill="#000000" font-family="Arial" font-size="13px" font-style="normal" font-weight="normal" stroke="none" text-decoration="none" x="558.15087890625" y="663">14 : erreur</text></g></g><g transform="translate(10,-30) scale(1,1)"><rect fill="#ffffff" height="28" stroke="none" width="13" x="454" y="648"/></g><g transform="translate(10,-30) scale(1,1)"><path d="M 454 648 L 467 648 L 467 676 L 454 676 L 454 648 Z Z" fill="none" stroke="#000000" stroke-miterlimit="10"/></g><g transform="translate(10,-30) scale(1,1)"><path d="M 711 736 L 467 736" fill="none" stroke="#000000" stroke-miterlimit="10"/></g><g transform="translate(10,-30) scale(1,1)"><path d="M 477.16267485762415 731.790482243984 L 467 736 L 477.16267485762415 740.209517756016" fill="#000000" stroke="none"/></g><g transform="translate(10,-30) scale(1,1)"><path d="M 477.16267485762415 731.790482243984 L 467 736 L 477.16267485762415 740.209517756016 L 477.16267485762415 731.790482243984" fill="none" stroke="#000000" stroke-miterlimit="10"/></g><g transform="translate(10,-30) scale(1,1)"><g><path fill="none" stroke="none"/><text fill="#000000" font-family="Arial" font-size="13px" font-style="normal" font-weight="normal" stroke="none" text-decoration="none" x="495.5" y="755">15 : adresse non trouvée</text></g></g><g transform="translate(10,-30) scale(1,1)"><rect fill="#ffffff" height="28" stroke="none" width="13" x="454" y="736"/></g><g transform="translate(10,-30) scale(1,1)"><path d="M 454 736 L 467 736 L 467 764 L 454 764 L 454 736 Z Z" fill="none" stroke="#000000" stroke-miterlimit="10"/></g><g transform="translate(10,-30) scale(1,1)"><path d="M 16 240 L 944 240 L 944 792 L 16 792 L 16 240" fill="none" stroke="#000000" stroke-miterlimit="10"/></g><g transform="translate(10,-30) scale(1,1)"><path d="M 16 240 L 16 262 L 66.68994140625 262 L 77.68994140625 251 L 77.68994140625 240 L 16 240" fill="#ffffff" stroke="none"/></g><g transform="translate(10,-30) scale(1,1)"><path d="M 16 240 L 16 262 L 66.68994140625 262 L 77.68994140625 251 L 77.68994140625 240 L 16 240 L 16 240" fill="none" stroke="#000000" stroke-miterlimit="10"/></g><g transform="translate(10,-30) scale(1,1)"><g><path fill="none" stroke="none"/><text fill="#000000" font-family="Arial" font-size="13px" font-style="normal" font-weight="normal" stroke="none" text-decoration="none" x="47.9599609375" y="256">alt</text></g></g><g transform="translate(10,-30) scale(1,1)"><g><path fill="none" stroke="none"/><text fill="#000000" font-family="Arial" font-size="13px" font-style="normal" font-weight="bold" stroke="none" text-decoration="none" x="20.279541015625" y="254.5">seq</text></g></g><g transform="translate(10,-30) scale(1,1)"><g><path fill="none" stroke="none"/><text fill="#000000" font-family="Arial" font-size="13px" font-style="normal" font-weight="normal" stroke="none" text-decoration="none" x="35.5" y="289">[adresse trouvée]</text></g></g><g transform="translate(10,-30) scale(1,1)"><path d="M 16 713 L 944 713" fill="none" stroke="#000000" stroke-dasharray="10,3" stroke-miterlimit="10"/></g><g transform="translate(10,-30) scale(1,1)"><path d="M 168 560 L 783 560 L 783 678 L 168 678 L 168 560" fill="none" stroke="#000000" stroke-miterlimit="10"/></g><g transform="translate(10,-30) scale(1,1)"><path d="M 168 560 L 168 582 L 218.68994140625 582 L 229.68994140625 571 L 229.68994140625 560 L 168 560" fill="#ffffff" stroke="none"/></g><g transform="translate(10,-30) scale(1,1)"><path d="M 168 560 L 168 582 L 218.68994140625 582 L 229.68994140625 571 L 229.68994140625 560 L 168 560 L 168 560" fill="none" stroke="#000000" stroke-miterlimit="10"/></g><g transform="translate(10,-30) scale(1,1)"><g><path fill="none" stroke="none"/><text fill="#000000" font-family="Arial" font-size="13px" font-style="normal" font-weight="normal" stroke="none" text-decoration="none" x="199.9599609375" y="576">alt</text></g></g><g transform="translate(10,-30) scale(1,1)"><g><path fill="none" stroke="none"/><text fill="#000000" font-family="Arial" font-size="13px" font-style="normal" font-weight="bold" stroke="none" text-decoration="none" x="172.279541015625" y="574.5">seq</text></g></g><g transform="translate(10,-30) scale(1,1)"><g><path fill="none" stroke="none"/><text fill="#000000" font-family="Arial" font-size="13px" font-style="normal" font-weight="normal" stroke="none" text-decoration="none" x="187.5" y="609">[password valide]</text></g></g><g transform="translate(10,-30) scale(1,1)"><path d="M 168 626 L 783 626" fill="none" stroke="#000000" stroke-dasharray="10,3" stroke-miterlimit="10"/></g></g></svg>