<?xml version="1.0" encoding="UTF-8" standalone="no"?><svg xmlns="http://www.w3.org/2000/svg" xmlns:xlink="http://www.w3.org/1999/xlink" height="1083" version="1.1" width="1000.68359375"><defs/><g><g transform="translate(2,-30) scale(1,1)"><path d="M 8 512 L 699 512 L 699 1103 L 8 1103 L 8 512" fill="none" stroke="#000000" stroke-miterlimit="10"/></g><g transform="translate(2,-30) scale(1,1)"><path d="M 8 512 L 8 534 L 152.63525390625 534 L 163.63525390625 523 L 163.63525390625 512 L 8 512" fill="#ffffff" stroke="none"/></g><g transform="translate(2,-30) scale(1,1)"><path d="M 8 512 L 8 534 L 152.63525390625 534 L 163.63525390625 523 L 163.63525390625 512 L 8 512 L 8 512" fill="none" stroke="#000000" stroke-miterlimit="10"/></g><g transform="translate(2,-30) scale(1,1)"><g><path fill="none" stroke="none"/><text fill="#000000" font-family="Arial" font-size="13px" font-style="normal" font-weight="normal" stroke="none" text-decoration="none" x="32.72998046875" y="528">SequenceDiagram1</text></g></g><g transform="translate(2,-30) scale(1,1)"><g><path fill="none" stroke="none"/><text fill="#000000" font-family="Arial" font-size="13px" font-style="normal" font-weight="bold" stroke="none" text-decoration="none" x="12.279541015625" y="528">sd</text></g></g><g transform="translate(2,-30) scale(1,1)"><rect fill="#C0C0C0" height="39" opacity="0.2" stroke="none" width="81.12451171875" x="207" y="47"/></g><g transform="translate(2,-30) scale(1,1)"><rect fill="#ffffff" height="39" stroke="none" width="81.12451171875" x="200" y="40"/></g><g transform="translate(2,-30) scale(1,1)"><path d="M 200 40 L 281.12451171875 40 L 281.12451171875 79 L 200 79 L 200 40 Z Z" fill="none" stroke="#000000" stroke-miterlimit="10"/></g><g transform="translate(2,-30) scale(1,1)"><g><path fill="none" stroke="none"/><text fill="#000000" font-family="Arial" font-size="13px" font-style="normal" font-weight="bold" stroke="none" text-decoration="none" x="209.5" y="58">utilisateur</text></g></g><g transform="translate(2,-30) scale(1,1)"><path d="M 241.5 80 L 241.5 239" fill="none" stroke="#000000" stroke-dasharray="3" stroke-miterlimit="10"/></g><g transform="translate(2,-30) scale(1,1)"><rect fill="#C0C0C0" height="39" opacity="0.2" stroke="none" width="89.8017578125" x="447" y="47"/></g><g transform="translate(2,-30) scale(1,1)"><rect fill="#ffffff" height="39" stroke="none" width="89.8017578125" x="440" y="40"/></g><g transform="translate(2,-30) scale(1,1)"><path d="M 440 40 L 529.8017578125 40 L 529.8017578125 79 L 440 79 L 440 40 Z Z" fill="none" stroke="#000000" stroke-miterlimit="10"/></g><g transform="translate(2,-30) scale(1,1)"><g><path fill="none" stroke="none"/><text fill="#000000" font-family="Arial" font-size="13px" font-style="normal" font-weight="bold" stroke="none" text-decoration="none" x="449.5" y="58">Interface UI</text></g></g><g transform="translate(2,-30) scale(1,1)"><path d="M 485.5 80 L 485.5 239" fill="none" stroke="#000000" stroke-dasharray="3" stroke-miterlimit="10"/></g><g transform="translate(2,-30) scale(1,1)"><rect fill="#C0C0C0" height="39" opacity="0.2" stroke="none" width="124.47900390625" x="671" y="47"/></g><g transform="translate(2,-30) scale(1,1)"><rect fill="#ffffff" height="39" stroke="none" width="124.47900390625" x="664" y="40"/></g><g transform="translate(2,-30) scale(1,1)"><path d="M 664 40 L 788.47900390625 40 L 788.47900390625 79 L 664 79 L 664 40 Z Z" fill="none" stroke="#000000" stroke-miterlimit="10"/></g><g transform="translate(2,-30) scale(1,1)"><g><path fill="none" stroke="none"/><text fill="#000000" font-family="Arial" font-size="13px" font-style="normal" font-weight="bold" stroke="none" text-decoration="none" x="673.5" y="58">base de données</text></g></g><g transform="translate(2,-30) scale(1,1)"><path d="M 727.5 80 L 727.5 239" fill="none" stroke="#000000" stroke-dasharray="3" stroke-miterlimit="10"/></g><g transform="translate(2,-30) scale(1,1)"><rect fill="#C0C0C0" height="39" opacity="0.2" stroke="none" width="92.68359375" x="903" y="47"/></g><g transform="translate(2,-30) scale(1,1)"><rect fill="#ffffff" height="39" stroke="none" width="92.68359375" x="896" y="40"/></g><g transform="translate(2,-30) scale(1,1)"><path d="M 896 40 L 988.68359375 40 L 988.68359375 79 L 896 79 L 896 40 Z Z" fill="none" stroke="#000000" stroke-miterlimit="10"/></g><g transform="translate(2,-30) scale(1,1)"><g><path fill="none" stroke="none"/><text fill="#000000" font-family="Arial" font-size="13px" font-style="normal" font-weight="bold" stroke="none" text-decoration="none" x="905.5" y="58">Statistiques</text></g></g><g transform="translate(2,-30) scale(1,1)"><path d="M 943.5 80 L 943.5 239" fill="none" stroke="#000000" stroke-dasharray="3" stroke-miterlimit="10"/></g><g transform="translate(2,-30) scale(1,1)"><path d="M 241 128 L 478 128" fill="none" stroke="#000000" stroke-miterlimit="10"/></g><g transform="translate(2,-30) scale(1,1)"><path d="M 467.83732514237585 132.209517756016 L 478 128 L 467.83732514237585 123.79048224398402" fill="#000000" stroke="none"/></g><g transform="translate(2,-30) scale(1,1)"><path d="M 467.83732514237585 132.209517756016 L 478 128 L 467.83732514237585 123.79048224398402 L 467.83732514237585 132.209517756016" fill="none" stroke="#000000" stroke-miterlimit="10"/></g><g transform="translate(2,-30) scale(1,1)"><g><path fill="none" stroke="none"/><text fill="#000000" font-family="Arial" font-size="13px" font-style="normal" font-weight="normal" stroke="none" text-decoration="none" x="278.5" y="114">1 : ouvrir_page_statistiques</text></g></g><g transform="translate(2,-30) scale(1,1)"><rect fill="#ffffff" height="80" stroke="none" width="13" x="478" y="128"/></g><g transform="translate(2,-30) scale(1,1)"><path d="M 478 128 L 491 128 L 491 208 L 478 208 L 478 128 Z Z" fill="none" stroke="#000000" stroke-miterlimit="10"/></g><g transform="translate(2,-30) scale(1,1)"><path d="M 491 137 L 720 137" fill="none" stroke="#000000" stroke-miterlimit="10"/></g><g transform="translate(2,-30) scale(1,1)"><path d="M 709.8373251423759 141.209517756016 L 720 137 L 709.8373251423758 132.790482243984" fill="#000000" stroke="none"/></g><g transform="translate(2,-30) scale(1,1)"><path d="M 709.8373251423759 141.209517756016 L 720 137 L 709.8373251423758 132.790482243984 L 709.8373251423759 141.209517756016" fill="none" stroke="#000000" stroke-miterlimit="10"/></g><g transform="translate(2,-30) scale(1,1)"><g><path fill="none" stroke="none"/><text fill="#000000" font-family="Arial" font-size="13px" font-style="normal" font-weight="normal" stroke="none" text-decoration="none" x="539.5" y="132">2 : chager_statistiques</text></g></g><g transform="translate(2,-30) scale(1,1)"><rect fill="#ffffff" height="79" stroke="none" width="13" x="720" y="137"/></g><g transform="translate(2,-30) scale(1,1)"><path d="M 720 137 L 733 137 L 733 216 L 720 216 L 720 137 Z Z" fill="none" stroke="#000000" stroke-miterlimit="10"/></g><g transform="translate(2,-30) scale(1,1)"><path d="M 733 155 L 936 155" fill="none" stroke="#000000" stroke-miterlimit="10"/></g><g transform="translate(2,-30) scale(1,1)"><path d="M 925.8373251423759 159.209517756016 L 936 155 L 925.8373251423758 150.790482243984" fill="#000000" stroke="none"/></g><g transform="translate(2,-30) scale(1,1)"><path d="M 925.8373251423759 159.209517756016 L 936 155 L 925.8373251423758 150.790482243984 L 925.8373251423759 159.209517756016" fill="none" stroke="#000000" stroke-miterlimit="10"/></g><g transform="translate(2,-30) scale(1,1)"><g><path fill="none" stroke="none"/><text fill="#000000" font-family="Arial" font-size="13px" font-style="normal" font-weight="normal" stroke="none" text-decoration="none" x="807.509521484375" y="150">3 : select</text></g></g><g transform="translate(2,-30) scale(1,1)"><rect fill="#ffffff" height="37" stroke="none" width="13" x="936" y="155"/></g><g transform="translate(2,-30) scale(1,1)"><path d="M 936 155 L 949 155 L 949 192 L 936 192 L 936 155 Z Z" fill="none" stroke="#000000" stroke-miterlimit="10"/></g><g transform="translate(2,-30) scale(1,1)"><path d="M 943 192 L 733 192" fill="none" stroke="#000000" stroke-dasharray="3" stroke-miterlimit="10"/></g><g transform="translate(2,-30) scale(1,1)"><path d="M 743.1626748576241 187.790482243984 L 733 192 L 743.1626748576241 196.209517756016" fill="none" stroke="#000000" stroke-miterlimit="10"/></g><g transform="translate(2,-30) scale(1,1)"><g><path fill="none" stroke="none"/><text fill="#000000" font-family="Arial" font-size="13px" font-style="normal" font-weight="normal" stroke="none" text-decoration="none" x="801.5" y="207">4 : response</text></g></g><g transform="translate(2,-30) scale(1,1)"><path d="M 720 202 L 491 202" fill="none" stroke="#000000" stroke-dasharray="3" stroke-miterlimit="10"/></g><g transform="translate(2,-30) scale(1,1)"><path d="M 501.16267485762415 197.790482243984 L 491 202 L 501.16267485762415 206.209517756016" fill="none" stroke="#000000" stroke-miterlimit="10"/></g><g transform="translate(2,-30) scale(1,1)"><g><path fill="none" stroke="none"/><text fill="#000000" font-family="Arial" font-size="13px" font-style="normal" font-weight="normal" stroke="none" text-decoration="none" x="539.5" y="217">5 : AfficherStatistiques</text></g></g></g></svg>