<?xml version="1.0" encoding="UTF-8" standalone="no"?><svg xmlns="http://www.w3.org/2000/svg" xmlns:xlink="http://www.w3.org/1999/xlink" height="1187" version="1.1" width="955"><defs/><g><g transform="translate(2,-30) scale(1,1)"><path d="M 8 616 L 699 616 L 699 1207 L 8 1207 L 8 616" fill="none" stroke="#000000" stroke-miterlimit="10"/></g><g transform="translate(2,-30) scale(1,1)"><path d="M 8 616 L 8 638 L 152.63525390625 638 L 163.63525390625 627 L 163.63525390625 616 L 8 616" fill="#ffffff" stroke="none"/></g><g transform="translate(2,-30) scale(1,1)"><path d="M 8 616 L 8 638 L 152.63525390625 638 L 163.63525390625 627 L 163.63525390625 616 L 8 616 L 8 616" fill="none" stroke="#000000" stroke-miterlimit="10"/></g><g transform="translate(2,-30) scale(1,1)"><g><path fill="none" stroke="none"/><text fill="#000000" font-family="Arial" font-size="13px" font-style="normal" font-weight="normal" stroke="none" text-decoration="none" x="32.72998046875" y="632">SequenceDiagram1</text></g></g><g transform="translate(2,-30) scale(1,1)"><g><path fill="none" stroke="none"/><text fill="#000000" font-family="Arial" font-size="13px" font-style="normal" font-weight="bold" stroke="none" text-decoration="none" x="12.279541015625" y="632">sd</text></g></g><g transform="translate(2,-30) scale(1,1)"><rect fill="#C0C0C0" height="39" opacity="0.2" stroke="none" width="81.12451171875" x="159" y="47"/></g><g transform="translate(2,-30) scale(1,1)"><rect fill="#ffffff" height="39" stroke="none" width="81.12451171875" x="152" y="40"/></g><g transform="translate(2,-30) scale(1,1)"><path d="M 152 40 L 233.12451171875 40 L 233.12451171875 79 L 152 79 L 152 40 Z Z" fill="none" stroke="#000000" stroke-miterlimit="10"/></g><g transform="translate(2,-30) scale(1,1)"><g><path fill="none" stroke="none"/><text fill="#000000" font-family="Arial" font-size="13px" font-style="normal" font-weight="bold" stroke="none" text-decoration="none" x="161.5" y="58">utilisateur</text></g></g><g transform="translate(2,-30) scale(1,1)"><path d="M 193.5 80 L 193.5 440" fill="none" stroke="#000000" stroke-dasharray="3" stroke-miterlimit="10"/></g><g transform="translate(2,-30) scale(1,1)"><rect fill="#C0C0C0" height="39" opacity="0.2" stroke="none" width="89.8017578125" x="375" y="47"/></g><g transform="translate(2,-30) scale(1,1)"><rect fill="#ffffff" height="39" stroke="none" width="89.8017578125" x="368" y="40"/></g><g transform="translate(2,-30) scale(1,1)"><path d="M 368 40 L 457.8017578125 40 L 457.8017578125 79 L 368 79 L 368 40 Z Z" fill="none" stroke="#000000" stroke-miterlimit="10"/></g><g transform="translate(2,-30) scale(1,1)"><g><path fill="none" stroke="none"/><text fill="#000000" font-family="Arial" font-size="13px" font-style="normal" font-weight="bold" stroke="none" text-decoration="none" x="377.5" y="58">interface UI</text></g></g><g transform="translate(2,-30) scale(1,1)"><path d="M 413.5 80 L 413.5 440" fill="none" stroke="#000000" stroke-dasharray="3" stroke-miterlimit="10"/></g><g transform="translate(2,-30) scale(1,1)"><rect fill="#C0C0C0" height="39" opacity="0.2" stroke="none" width="124.47900390625" x="599" y="47"/></g><g transform="translate(2,-30) scale(1,1)"><rect fill="#ffffff" height="39" stroke="none" width="124.47900390625" x="592" y="40"/></g><g transform="translate(2,-30) scale(1,1)"><path d="M 592 40 L 716.47900390625 40 L 716.47900390625 79 L 592 79 L 592 40 Z Z" fill="none" stroke="#000000" stroke-miterlimit="10"/></g><g transform="translate(2,-30) scale(1,1)"><g><path fill="none" stroke="none"/><text fill="#000000" font-family="Arial" font-size="13px" font-style="normal" font-weight="bold" stroke="none" text-decoration="none" x="601.5" y="58">base de données</text></g></g><g transform="translate(2,-30) scale(1,1)"><path d="M 655.5 80 L 655.5 440" fill="none" stroke="#000000" stroke-dasharray="3" stroke-miterlimit="10"/></g><g transform="translate(2,-30) scale(1,1)"><rect fill="#C0C0C0" height="39" opacity="0.2" stroke="none" width="96.2763671875" x="831" y="47"/></g><g transform="translate(2,-30) scale(1,1)"><rect fill="#ffffff" height="39" stroke="none" width="96.2763671875" x="824" y="40"/></g><g transform="translate(2,-30) scale(1,1)"><path d="M 824 40 L 920.2763671875 40 L 920.2763671875 79 L 824 79 L 824 40 Z Z" fill="none" stroke="#000000" stroke-miterlimit="10"/></g><g transform="translate(2,-30) scale(1,1)"><g><path fill="none" stroke="none"/><text fill="#000000" font-family="Arial" font-size="13px" font-style="normal" font-weight="bold" stroke="none" text-decoration="none" x="833.5" y="58">notifications</text></g></g><g transform="translate(2,-30) scale(1,1)"><path d="M 873.5 80 L 873.5 440" fill="none" stroke="#000000" stroke-dasharray="3" stroke-miterlimit="10"/></g><g transform="translate(2,-30) scale(1,1)"><path d="M 193 112 L 406 112" fill="none" stroke="#000000" stroke-miterlimit="10"/></g><g transform="translate(2,-30) scale(1,1)"><path d="M 395.83732514237585 116.20951775601598 L 406 112 L 395.83732514237585 107.79048224398402" fill="#000000" stroke="none"/></g><g transform="translate(2,-30) scale(1,1)"><path d="M 395.83732514237585 116.20951775601598 L 406 112 L 395.83732514237585 107.79048224398402 L 395.83732514237585 116.20951775601598" fill="none" stroke="#000000" stroke-miterlimit="10"/></g><g transform="translate(2,-30) scale(1,1)"><g><path fill="none" stroke="none"/><text fill="#000000" font-family="Arial" font-size="13px" font-style="normal" font-weight="normal" stroke="none" text-decoration="none" x="221.5" y="107">1 : OuvrirPgaeNotifications</text></g></g><g transform="translate(2,-30) scale(1,1)"><rect fill="#ffffff" height="96" stroke="none" width="13" x="406" y="112"/></g><g transform="translate(2,-30) scale(1,1)"><path d="M 406 112 L 419 112 L 419 208 L 406 208 L 406 112 Z Z" fill="none" stroke="#000000" stroke-miterlimit="10"/></g><g transform="translate(2,-30) scale(1,1)"><path d="M 419 128 L 648 128" fill="none" stroke="#000000" stroke-miterlimit="10"/></g><g transform="translate(2,-30) scale(1,1)"><path d="M 637.8373251423759 132.209517756016 L 648 128 L 637.8373251423758 123.79048224398402" fill="#000000" stroke="none"/></g><g transform="translate(2,-30) scale(1,1)"><path d="M 637.8373251423759 132.209517756016 L 648 128 L 637.8373251423758 123.79048224398402 L 637.8373251423759 132.209517756016" fill="none" stroke="#000000" stroke-miterlimit="10"/></g><g transform="translate(2,-30) scale(1,1)"><g><path fill="none" stroke="none"/><text fill="#000000" font-family="Arial" font-size="13px" font-style="normal" font-weight="normal" stroke="none" text-decoration="none" x="428.5" y="123">2 : charger_notifications(utilisateurs)</text></g></g><g transform="translate(2,-30) scale(1,1)"><rect fill="#ffffff" height="80" stroke="none" width="13" x="648" y="128"/></g><g transform="translate(2,-30) scale(1,1)"><path d="M 648 128 L 661 128 L 661 208 L 648 208 L 648 128 Z Z" fill="none" stroke="#000000" stroke-miterlimit="10"/></g><g transform="translate(2,-30) scale(1,1)"><path d="M 661 144 L 866 144" fill="none" stroke="#000000" stroke-miterlimit="10"/></g><g transform="translate(2,-30) scale(1,1)"><path d="M 855.8373251423759 148.209517756016 L 866 144 L 855.8373251423758 139.790482243984" fill="#000000" stroke="none"/></g><g transform="translate(2,-30) scale(1,1)"><path d="M 855.8373251423759 148.209517756016 L 866 144 L 855.8373251423758 139.790482243984 L 855.8373251423759 148.209517756016" fill="none" stroke="#000000" stroke-miterlimit="10"/></g><g transform="translate(2,-30) scale(1,1)"><g><path fill="none" stroke="none"/><text fill="#000000" font-family="Arial" font-size="13px" font-style="normal" font-weight="normal" stroke="none" text-decoration="none" x="736.509521484375" y="139">3 : select</text></g></g><g transform="translate(2,-30) scale(1,1)"><rect fill="#ffffff" height="56" stroke="none" width="13" x="866" y="144"/></g><g transform="translate(2,-30) scale(1,1)"><path d="M 866 144 L 879 144 L 879 200 L 866 200 L 866 144 Z Z" fill="none" stroke="#000000" stroke-miterlimit="10"/></g><g transform="translate(2,-30) scale(1,1)"><path d="M 866 184 L 661 184" fill="none" stroke="#000000" stroke-dasharray="3" stroke-miterlimit="10"/></g><g transform="translate(2,-30) scale(1,1)"><path d="M 671.1626748576241 179.790482243984 L 661 184 L 671.1626748576241 188.209517756016" fill="none" stroke="#000000" stroke-miterlimit="10"/></g><g transform="translate(2,-30) scale(1,1)"><g><path fill="none" stroke="none"/><text fill="#000000" font-family="Arial" font-size="13px" font-style="normal" font-weight="normal" stroke="none" text-decoration="none" x="726.5" y="199">4 : response</text></g></g><g transform="translate(2,-30) scale(1,1)"><path d="M 648 192 L 419 192" fill="none" stroke="#000000" stroke-dasharray="3" stroke-miterlimit="10"/></g><g transform="translate(2,-30) scale(1,1)"><path d="M 429.16267485762415 187.790482243984 L 419 192 L 429.16267485762415 196.209517756016" fill="none" stroke="#000000" stroke-miterlimit="10"/></g><g transform="translate(2,-30) scale(1,1)"><g><path fill="none" stroke="none"/><text fill="#000000" font-family="Arial" font-size="13px" font-style="normal" font-weight="normal" stroke="none" text-decoration="none" x="462.5" y="207">5 : Afficher_Notifications</text></g></g><g transform="translate(2,-30) scale(1,1)"><path d="M 193 288 L 406 288" fill="none" stroke="#000000" stroke-miterlimit="10"/></g><g transform="translate(2,-30) scale(1,1)"><path d="M 395.83732514237585 292.209517756016 L 406 288 L 395.83732514237585 283.790482243984" fill="#000000" stroke="none"/></g><g transform="translate(2,-30) scale(1,1)"><path d="M 395.83732514237585 292.209517756016 L 406 288 L 395.83732514237585 283.790482243984 L 395.83732514237585 292.209517756016" fill="none" stroke="#000000" stroke-miterlimit="10"/></g><g transform="translate(2,-30) scale(1,1)"><g><path fill="none" stroke="none"/><text fill="#000000" font-family="Arial" font-size="13px" font-style="normal" font-weight="normal" stroke="none" text-decoration="none" x="246.5" y="283">6 : voir notification</text></g></g><g transform="translate(2,-30) scale(1,1)"><rect fill="#ffffff" height="28" stroke="none" width="13" x="406" y="288"/></g><g transform="translate(2,-30) scale(1,1)"><path d="M 406 288 L 419 288 L 419 316 L 406 316 L 406 288 Z Z" fill="none" stroke="#000000" stroke-miterlimit="10"/></g><g transform="translate(2,-30) scale(1,1)"><path d="M 193 353 L 406 353" fill="none" stroke="#000000" stroke-miterlimit="10"/></g><g transform="translate(2,-30) scale(1,1)"><path d="M 395.83732514237585 357.209517756016 L 406 353 L 395.83732514237585 348.790482243984" fill="#000000" stroke="none"/></g><g transform="translate(2,-30) scale(1,1)"><path d="M 395.83732514237585 357.209517756016 L 406 353 L 395.83732514237585 348.790482243984 L 395.83732514237585 357.209517756016" fill="none" stroke="#000000" stroke-miterlimit="10"/></g><g transform="translate(2,-30) scale(1,1)"><g><path fill="none" stroke="none"/><text fill="#000000" font-family="Arial" font-size="13px" font-style="normal" font-weight="normal" stroke="none" text-decoration="none" x="227.75" y="348">7 : supprimer notification</text></g></g><g transform="translate(2,-30) scale(1,1)"><rect fill="#ffffff" height="47" stroke="none" width="13" x="406" y="353"/></g><g transform="translate(2,-30) scale(1,1)"><path d="M 406 353 L 419 353 L 419 400 L 406 400 L 406 353 Z Z" fill="none" stroke="#000000" stroke-miterlimit="10"/></g><g transform="translate(2,-30) scale(1,1)"><path d="M 419 360 L 648 360" fill="none" stroke="#000000" stroke-miterlimit="10"/></g><g transform="translate(2,-30) scale(1,1)"><path d="M 637.8373251423759 364.209517756016 L 648 360 L 637.8373251423758 355.790482243984" fill="#000000" stroke="none"/></g><g transform="translate(2,-30) scale(1,1)"><path d="M 637.8373251423759 364.209517756016 L 648 360 L 637.8373251423758 355.790482243984 L 637.8373251423759 364.209517756016" fill="none" stroke="#000000" stroke-miterlimit="10"/></g><g transform="translate(2,-30) scale(1,1)"><g><path fill="none" stroke="none"/><text fill="#000000" font-family="Arial" font-size="13px" font-style="normal" font-weight="normal" stroke="none" text-decoration="none" x="491.5" y="355">8 : requete sql</text></g></g><g transform="translate(2,-30) scale(1,1)"><rect fill="#ffffff" height="28" stroke="none" width="13" x="648" y="360"/></g><g transform="translate(2,-30) scale(1,1)"><path d="M 648 360 L 661 360 L 661 388 L 648 388 L 648 360 Z Z" fill="none" stroke="#000000" stroke-miterlimit="10"/></g><g transform="translate(2,-30) scale(1,1)"><path d="M 661 368 L 866 368" fill="none" stroke="#000000" stroke-miterlimit="10"/></g><g transform="translate(2,-30) scale(1,1)"><path d="M 855.8373251423759 372.209517756016 L 866 368 L 855.8373251423758 363.790482243984" fill="#000000" stroke="none"/></g><g transform="translate(2,-30) scale(1,1)"><path d="M 855.8373251423759 372.209517756016 L 866 368 L 855.8373251423758 363.790482243984 L 855.8373251423759 372.209517756016" fill="none" stroke="#000000" stroke-miterlimit="10"/></g><g transform="translate(2,-30) scale(1,1)"><g><path fill="none" stroke="none"/><text fill="#000000" font-family="Arial" font-size="13px" font-style="normal" font-weight="normal" stroke="none" text-decoration="none" x="708.5" y="363">9 : supprimer(notif)</text></g></g><g transform="translate(2,-30) scale(1,1)"><rect fill="#ffffff" height="28" stroke="none" width="13" x="866" y="368"/></g><g transform="translate(2,-30) scale(1,1)"><path d="M 866 368 L 879 368 L 879 396 L 866 396 L 866 368 Z Z" fill="none" stroke="#000000" stroke-miterlimit="10"/></g><g transform="translate(2,-30) scale(1,1)"><path d="M 866 384 L 661 384" fill="none" stroke="#000000" stroke-dasharray="3" stroke-miterlimit="10"/></g><g transform="translate(2,-30) scale(1,1)"><path d="M 671.1626748576241 379.790482243984 L 661 384 L 671.1626748576241 388.209517756016" fill="none" stroke="#000000" stroke-miterlimit="10"/></g><g transform="translate(2,-30) scale(1,1)"><g><path fill="none" stroke="none"/><text fill="#000000" font-family="Arial" font-size="13px" font-style="normal" font-weight="normal" stroke="none" text-decoration="none" x="684.5" y="399">10 : notification_supprimée</text></g></g><g transform="translate(2,-30) scale(1,1)"><path d="M 112 256 L 943 256 L 943 440 L 112 440 L 112 256" fill="none" stroke="#000000" stroke-miterlimit="10"/></g><g transform="translate(2,-30) scale(1,1)"><path d="M 112 256 L 112 278 L 167.03173828125 278 L 178.03173828125 267 L 178.03173828125 256 L 112 256" fill="#ffffff" stroke="none"/></g><g transform="translate(2,-30) scale(1,1)"><path d="M 112 256 L 112 278 L 167.03173828125 278 L 178.03173828125 267 L 178.03173828125 256 L 112 256 L 112 256" fill="none" stroke="#000000" stroke-miterlimit="10"/></g><g transform="translate(2,-30) scale(1,1)"><g><path fill="none" stroke="none"/><text fill="#000000" font-family="Arial" font-size="13px" font-style="normal" font-weight="normal" stroke="none" text-decoration="none" x="143.9599609375" y="271.5">opt</text></g></g><g transform="translate(2,-30) scale(1,1)"><g><path fill="none" stroke="none"/><text fill="#000000" font-family="Arial" font-size="13px" font-style="normal" font-weight="bold" stroke="none" text-decoration="none" x="116.279541015625" y="270.5">seq</text></g></g></g></svg>