<?xml version="1.0" encoding="UTF-8" standalone="no"?><svg xmlns="http://www.w3.org/2000/svg" xmlns:xlink="http://www.w3.org/1999/xlink" height="542" version="1.1" width="740"><defs/><g><g transform="translate(-198,-118) scale(1,1)"><path d="M 266.88298313210225 145.68 C 266.88298313210225 140.886167936 270.76882545704774 137 275.562255859375 137 C 280.35568626170226 137 284.24152858664775 140.886167936 284.24152858664775 145.68 C 284.24152858664775 150.47383206400002 280.35568626170226 154.36 275.562255859375 154.36 C 270.76882545704774 154.36 266.88298313210225 150.47383206400002 266.88298313210225 145.68 Z" fill="#ffffff" stroke="none"/></g><g transform="translate(-198,-118) scale(1,1)"><path d="M 266.88298313210225 145.68 C 266.88298313210225 140.886167936 270.76882545704774 137 275.562255859375 137 C 280.35568626170226 137 284.24152858664775 140.886167936 284.24152858664775 145.68 C 284.24152858664775 150.47383206400002 280.35568626170226 154.36 275.562255859375 154.36 C 270.76882545704774 154.36 266.88298313210225 150.47383206400002 266.88298313210225 145.68 Z" fill="none" stroke="#000000" stroke-miterlimit="10"/></g><g transform="translate(-198,-118) scale(1,1)"><path d="M 275.562255859375 154.36 L 275.562255859375 171.64" fill="none" stroke="#000000" stroke-miterlimit="10"/></g><g transform="translate(-198,-118) scale(1,1)"><path d="M 266.37243767755683 160.84 L 284.75207404119317 160.84" fill="none" stroke="#000000" stroke-miterlimit="10"/></g><g transform="translate(-198,-118) scale(1,1)"><path d="M 275.562255859375 171.64 L 262.79861949573865 189" fill="none" stroke="#000000" stroke-miterlimit="10"/></g><g transform="translate(-198,-118) scale(1,1)"><path d="M 275.562255859375 171.64 L 288.32589222301135 189" fill="none" stroke="#000000" stroke-miterlimit="10"/></g><g transform="translate(-198,-118) scale(1,1)"><g><path fill="none" stroke="none"/><text fill="#000000" font-family="Arial" font-size="13px" font-style="normal" font-weight="bold" stroke="none" text-decoration="none" x="244.5" y="208">utilisateur</text></g></g><g transform="translate(-198,-118) scale(1,1)"><path d="M 407 184 C 407 174.6111584 435.4299152 167 470.5 167 C 505.5700848 167 534 174.6111584 534 184 C 534 193.3888416 505.5700848 201 470.5 201 C 435.4299152 201 407 193.3888416 407 184 Z" fill="#C0C0C0" opacity="0.2" stroke="none"/></g><g transform="translate(-198,-118) scale(1,1)"><path d="M 400 177 C 400 167.6111584 428.4299152 160 463.5 160 C 498.5700848 160 527 167.6111584 527 177 C 527 186.3888416 498.5700848 194 463.5 194 C 428.4299152 194 400 186.3888416 400 177 Z" fill="#ffffff" stroke="none"/></g><g transform="translate(-198,-118) scale(1,1)"><path d="M 400 177 C 400 167.6111584 428.4299152 160 463.5 160 C 498.5700848 160 527 167.6111584 527 177 C 527 186.3888416 498.5700848 194 463.5 194 C 428.4299152 194 400 186.3888416 400 177 Z" fill="none" stroke="#000000" stroke-miterlimit="10"/></g><g transform="translate(-198,-118) scale(1,1)"><g><path fill="none" stroke="none"/><text fill="#000000" font-family="Arial" font-size="13px" font-style="normal" font-weight="bold" stroke="none" text-decoration="none" x="422.947998046875" y="182.5">s'authentifier</text></g></g><g transform="translate(-198,-118) scale(1,1)"><path d="M 655 152 C 655 142.6111584 689.2502128 135 731.5 135 C 773.7497872 135 808 142.6111584 808 152 C 808 161.3888416 773.7497872 169 731.5 169 C 689.2502128 169 655 161.3888416 655 152 Z" fill="#C0C0C0" opacity="0.2" stroke="none"/></g><g transform="translate(-198,-118) scale(1,1)"><path d="M 648 145 C 648 135.6111584 682.2502128 128 724.5 128 C 766.7497872 128 801 135.6111584 801 145 C 801 154.3888416 766.7497872 162 724.5 162 C 682.2502128 162 648 154.3888416 648 145 Z" fill="#ffffff" stroke="none"/></g><g transform="translate(-198,-118) scale(1,1)"><path d="M 648 145 C 648 135.6111584 682.2502128 128 724.5 128 C 766.7497872 128 801 135.6111584 801 145 C 801 154.3888416 766.7497872 162 724.5 162 C 682.2502128 162 648 154.3888416 648 145 Z" fill="none" stroke="#000000" stroke-miterlimit="10"/></g><g transform="translate(-198,-118) scale(1,1)"><g><path fill="none" stroke="none"/><text fill="#000000" font-family="Arial" font-size="13px" font-style="normal" font-weight="bold" stroke="none" text-decoration="none" x="674.997802734375" y="150.5">saisir username</text></g></g><g transform="translate(-198,-118) scale(1,1)"><path d="M 647 200 C 647 190.6111584 687.9659408 183 738.5 183 C 789.0340592 183 830 190.6111584 830 200 C 830 209.3888416 789.0340592 217 738.5 217 C 687.9659408 217 647 209.3888416 647 200 Z" fill="#C0C0C0" opacity="0.2" stroke="none"/></g><g transform="translate(-198,-118) scale(1,1)"><path d="M 640 193 C 640 183.6111584 680.9659408 176 731.5 176 C 782.0340592 176 823 183.6111584 823 193 C 823 202.3888416 782.0340592 210 731.5 210 C 680.9659408 210 640 202.3888416 640 193 Z" fill="#ffffff" stroke="none"/></g><g transform="translate(-198,-118) scale(1,1)"><path d="M 640 193 C 640 183.6111584 680.9659408 176 731.5 176 C 782.0340592 176 823 183.6111584 823 193 C 823 202.3888416 782.0340592 210 731.5 210 C 680.9659408 210 640 202.3888416 640 193 Z" fill="none" stroke="#000000" stroke-miterlimit="10"/></g><g transform="translate(-198,-118) scale(1,1)"><g><path fill="none" stroke="none"/><text fill="#000000" font-family="Arial" font-size="13px" font-style="normal" font-weight="bold" stroke="none" text-decoration="none" x="671.16552734375" y="198.5">saisir mot de passe</text></g></g><g transform="translate(-198,-118) scale(1,1)"><path d="M 528 169 L 647 154" fill="none" stroke="#000000" stroke-dasharray="3" stroke-miterlimit="10"/></g><g transform="translate(-198,-118) scale(1,1)"><path d="M 637.443557196333 159.44742149463784 L 647 154 L 636.390665810666 151.09448316834548" fill="none" stroke="#000000" stroke-miterlimit="10"/></g><g transform="translate(-198,-118) scale(1,1)"><g><path fill="none" stroke="none"/><text fill="#000000" font-family="Arial" font-size="13px" font-style="normal" font-weight="normal" stroke="none" text-decoration="none" x="562.5" y="155">«include»</text></g></g><g transform="translate(-198,-118) scale(1,1)"><path d="M 528 181 L 639 188" fill="none" stroke="#000000" stroke-dasharray="3" stroke-miterlimit="10"/></g><g transform="translate(-198,-118) scale(1,1)"><path d="M 628.5925345082892 191.56155331826545 L 639 188 L 629.1224120729433 183.15920907874923" fill="none" stroke="#000000" stroke-miterlimit="10"/></g><g transform="translate(-198,-118) scale(1,1)"><g><path fill="none" stroke="none"/><text fill="#000000" font-family="Arial" font-size="13px" font-style="normal" font-weight="normal" stroke="none" text-decoration="none" x="547.5" y="193">«include»</text></g></g><g transform="translate(-198,-118) scale(1,1)"><path d="M 312 175 L 399 176" fill="none" stroke="#000000" stroke-miterlimit="10"/></g><g transform="translate(-198,-118) scale(1,1)"><path d="M 388.78961434563166 180.09243506839985 L 399 176 L 388.88637847683515 171.67395565369748" fill="none" stroke="#000000" stroke-miterlimit="10"/></g><g transform="translate(-198,-118) scale(1,1)"><path d="M 298.88298313210225 417.68 C 298.88298313210225 412.886167936 302.76882545704774 409 307.562255859375 409 C 312.35568626170226 409 316.24152858664775 412.886167936 316.24152858664775 417.68 C 316.24152858664775 422.473832064 312.35568626170226 426.36 307.562255859375 426.36 C 302.76882545704774 426.36 298.88298313210225 422.473832064 298.88298313210225 417.68 Z" fill="#ffffff" stroke="none"/></g><g transform="translate(-198,-118) scale(1,1)"><path d="M 298.88298313210225 417.68 C 298.88298313210225 412.886167936 302.76882545704774 409 307.562255859375 409 C 312.35568626170226 409 316.24152858664775 412.886167936 316.24152858664775 417.68 C 316.24152858664775 422.473832064 312.35568626170226 426.36 307.562255859375 426.36 C 302.76882545704774 426.36 298.88298313210225 422.473832064 298.88298313210225 417.68 Z" fill="none" stroke="#000000" stroke-miterlimit="10"/></g><g transform="translate(-198,-118) scale(1,1)"><path d="M 307.562255859375 426.36 L 307.562255859375 443.64" fill="none" stroke="#000000" stroke-miterlimit="10"/></g><g transform="translate(-198,-118) scale(1,1)"><path d="M 298.37243767755683 432.84 L 316.75207404119317 432.84" fill="none" stroke="#000000" stroke-miterlimit="10"/></g><g transform="translate(-198,-118) scale(1,1)"><path d="M 307.562255859375 443.64 L 294.79861949573865 461" fill="none" stroke="#000000" stroke-miterlimit="10"/></g><g transform="translate(-198,-118) scale(1,1)"><path d="M 307.562255859375 443.64 L 320.32589222301135 461" fill="none" stroke="#000000" stroke-miterlimit="10"/></g><g transform="translate(-198,-118) scale(1,1)"><g><path fill="none" stroke="none"/><text fill="#000000" font-family="Arial" font-size="13px" font-style="normal" font-weight="bold" stroke="none" text-decoration="none" x="276.5" y="480">utilisateur</text></g></g><g transform="translate(-198,-118) scale(1,1)"><path d="M 471 456 C 471 446.6111584 497.862912 439 531 439 C 564.137088 439 591 446.6111584 591 456 C 591 465.3888416 564.137088 473 531 473 C 497.862912 473 471 465.3888416 471 456 Z" fill="#C0C0C0" opacity="0.2" stroke="none"/></g><g transform="translate(-198,-118) scale(1,1)"><path d="M 464 449 C 464 439.6111584 490.862912 432 524 432 C 557.137088 432 584 439.6111584 584 449 C 584 458.3888416 557.137088 466 524 466 C 490.862912 466 464 458.3888416 464 449 Z" fill="#ffffff" stroke="none"/></g><g transform="translate(-198,-118) scale(1,1)"><path d="M 464 449 C 464 439.6111584 490.862912 432 524 432 C 557.137088 432 584 439.6111584 584 449 C 584 458.3888416 557.137088 466 524 466 C 490.862912 466 464 458.3888416 464 449 Z" fill="none" stroke="#000000" stroke-miterlimit="10"/></g><g transform="translate(-198,-118) scale(1,1)"><g><path fill="none" stroke="none"/><text fill="#000000" font-family="Arial" font-size="13px" font-style="normal" font-weight="bold" stroke="none" text-decoration="none" x="486.07275390625" y="454.5">gérer profile</text></g></g><g transform="translate(-198,-118) scale(1,1)"><path d="M 671 432 C 671 422.6111584 706.1456432 415 749.5 415 C 792.8543568 415 828 422.6111584 828 432 C 828 441.3888416 792.8543568 449 749.5 449 C 706.1456432 449 671 441.3888416 671 432 Z" fill="#C0C0C0" opacity="0.2" stroke="none"/></g><g transform="translate(-198,-118) scale(1,1)"><path d="M 664 425 C 664 415.6111584 699.1456432 408 742.5 408 C 785.8543568 408 821 415.6111584 821 425 C 821 434.3888416 785.8543568 442 742.5 442 C 699.1456432 442 664 434.3888416 664 425 Z" fill="#ffffff" stroke="none"/></g><g transform="translate(-198,-118) scale(1,1)"><path d="M 664 425 C 664 415.6111584 699.1456432 408 742.5 408 C 785.8543568 408 821 415.6111584 821 425 C 821 434.3888416 785.8543568 442 742.5 442 C 699.1456432 442 664 434.3888416 664 425 Z" fill="none" stroke="#000000" stroke-miterlimit="10"/></g><g transform="translate(-198,-118) scale(1,1)"><g><path fill="none" stroke="none"/><text fill="#000000" font-family="Arial" font-size="13px" font-style="normal" font-weight="bold" stroke="none" text-decoration="none" x="691.575927734375" y="430.5">consulter profile</text></g></g><g transform="translate(-198,-118) scale(1,1)"><path d="M 687 480 C 687 470.6111584 719.6832096 463 760 463 C 800.3167904 463 833 470.6111584 833 480 C 833 489.3888416 800.3167904 497 760 497 C 719.6832096 497 687 489.3888416 687 480 Z" fill="#C0C0C0" opacity="0.2" stroke="none"/></g><g transform="translate(-198,-118) scale(1,1)"><path d="M 680 473 C 680 463.6111584 712.6832096 456 753 456 C 793.3167904 456 826 463.6111584 826 473 C 826 482.3888416 793.3167904 490 753 490 C 712.6832096 490 680 482.3888416 680 473 Z" fill="#ffffff" stroke="none"/></g><g transform="translate(-198,-118) scale(1,1)"><path d="M 680 473 C 680 463.6111584 712.6832096 456 753 456 C 793.3167904 456 826 463.6111584 826 473 C 826 482.3888416 793.3167904 490 753 490 C 712.6832096 490 680 482.3888416 680 473 Z" fill="none" stroke="#000000" stroke-miterlimit="10"/></g><g transform="translate(-198,-118) scale(1,1)"><g><path fill="none" stroke="none"/><text fill="#000000" font-family="Arial" font-size="13px" font-style="normal" font-weight="bold" stroke="none" text-decoration="none" x="705.69091796875" y="478.5">modifier profile</text></g></g><g transform="translate(-198,-118) scale(1,1)"><path d="M 585 442 L 663 434" fill="none" stroke="#000000" stroke-dasharray="3" stroke-miterlimit="10"/></g><g transform="translate(-198,-118) scale(1,1)"><path d="M 653.3198520059386 439.2244363153426 L 663 434 L 652.4608673640539 430.84933605696585" fill="none" stroke="#000000" stroke-miterlimit="10"/></g><g transform="translate(-198,-118) scale(1,1)"><g><path fill="none" stroke="none"/><text fill="#000000" font-family="Arial" font-size="13px" font-style="normal" font-weight="normal" stroke="none" text-decoration="none" x="592.5" y="426">«include»</text></g></g><g transform="translate(-198,-118) scale(1,1)"><path d="M 585 455 L 679 465" fill="none" stroke="#000000" stroke-dasharray="3" stroke-miterlimit="10"/></g><g transform="translate(-198,-118) scale(1,1)"><path d="M 668.4490405181841 468.11082850910805 L 679 465 L 669.3396570684847 459.73903293628223" fill="none" stroke="#000000" stroke-miterlimit="10"/></g><g transform="translate(-198,-118) scale(1,1)"><g><path fill="none" stroke="none"/><text fill="#000000" font-family="Arial" font-size="13px" font-style="normal" font-weight="normal" stroke="none" text-decoration="none" x="607.5" y="474">«include»</text></g></g><g transform="translate(-198,-118) scale(1,1)"><path d="M 344 447 L 463 448" fill="none" stroke="#000000" stroke-miterlimit="10"/></g><g transform="translate(-198,-118) scale(1,1)"><path d="M 452.8023110996862 452.1239715193508 L 463 448 L 452.8730567994042 443.7052332529105" fill="none" stroke="#000000" stroke-miterlimit="10"/></g><g transform="translate(-198,-118) scale(1,1)"><path d="M 242.88298313210228 561.6800000000001 C 242.88298313210228 556.8861679360001 246.7688254570477 553 251.562255859375 553 C 256.35568626170226 553 260.24152858664775 556.8861679360001 260.24152858664775 561.6800000000001 C 260.24152858664775 566.473832064 256.35568626170226 570.36 251.562255859375 570.36 C 246.7688254570477 570.36 242.88298313210228 566.473832064 242.88298313210228 561.6800000000001 Z" fill="#ffffff" stroke="none"/></g><g transform="translate(-198,-118) scale(1,1)"><path d="M 242.88298313210228 561.6800000000001 C 242.88298313210228 556.8861679360001 246.7688254570477 553 251.562255859375 553 C 256.35568626170226 553 260.24152858664775 556.8861679360001 260.24152858664775 561.6800000000001 C 260.24152858664775 566.473832064 256.35568626170226 570.36 251.562255859375 570.36 C 246.7688254570477 570.36 242.88298313210228 566.473832064 242.88298313210228 561.6800000000001 Z" fill="none" stroke="#000000" stroke-miterlimit="10"/></g><g transform="translate(-198,-118) scale(1,1)"><path d="M 251.562255859375 570.36 L 251.562255859375 587.64" fill="none" stroke="#000000" stroke-miterlimit="10"/></g><g transform="translate(-198,-118) scale(1,1)"><path d="M 242.37243767755683 576.84 L 260.75207404119317 576.84" fill="none" stroke="#000000" stroke-miterlimit="10"/></g><g transform="translate(-198,-118) scale(1,1)"><path d="M 251.562255859375 587.64 L 238.79861949573865 605" fill="none" stroke="#000000" stroke-miterlimit="10"/></g><g transform="translate(-198,-118) scale(1,1)"><path d="M 251.562255859375 587.64 L 264.32589222301135 605" fill="none" stroke="#000000" stroke-miterlimit="10"/></g><g transform="translate(-198,-118) scale(1,1)"><g><path fill="none" stroke="none"/><text fill="#000000" font-family="Arial" font-size="13px" font-style="normal" font-weight="bold" stroke="none" text-decoration="none" x="220.5" y="624">utilisateur</text></g></g><g transform="translate(-198,-118) scale(1,1)"><path d="M 351 600 C 351 590.6111584 398.010096 583 456 583 C 513.989904 583 561 590.6111584 561 600 C 561 609.3888416 513.989904 617 456 617 C 398.010096 617 351 609.3888416 351 600 Z" fill="#C0C0C0" opacity="0.2" stroke="none"/></g><g transform="translate(-198,-118) scale(1,1)"><path d="M 344 593 C 344 583.6111584 391.010096 576 449 576 C 506.989904 576 554 583.6111584 554 593 C 554 602.3888416 506.989904 610 449 610 C 391.010096 610 344 602.3888416 344 593 Z" fill="#ffffff" stroke="none"/></g><g transform="translate(-198,-118) scale(1,1)"><path d="M 344 593 C 344 583.6111584 391.010096 576 449 576 C 506.989904 576 554 583.6111584 554 593 C 554 602.3888416 506.989904 610 449 610 C 391.010096 610 344 602.3888416 344 593 Z" fill="none" stroke="#000000" stroke-miterlimit="10"/></g><g transform="translate(-198,-118) scale(1,1)"><g><path fill="none" stroke="none"/><text fill="#000000" font-family="Arial" font-size="13px" font-style="normal" font-weight="bold" stroke="none" text-decoration="none" x="395.911376953125" y="598.5">gérer notification</text></g></g><g transform="translate(-198,-118) scale(1,1)"><path d="M 647 576 C 647 566.6111584 696.9202448 559 758.5 559 C 820.0797552 559 870 566.6111584 870 576 C 870 585.3888416 820.0797552 593 758.5 593 C 696.9202448 593 647 585.3888416 647 576 Z" fill="#C0C0C0" opacity="0.2" stroke="none"/></g><g transform="translate(-198,-118) scale(1,1)"><path d="M 640 569 C 640 559.6111584 689.9202448 552 751.5 552 C 813.0797552 552 863 559.6111584 863 569 C 863 578.3888416 813.0797552 586 751.5 586 C 689.9202448 586 640 578.3888416 640 569 Z" fill="#ffffff" stroke="none"/></g><g transform="translate(-198,-118) scale(1,1)"><path d="M 640 569 C 640 559.6111584 689.9202448 552 751.5 552 C 813.0797552 552 863 559.6111584 863 569 C 863 578.3888416 813.0797552 586 751.5 586 C 689.9202448 586 640 578.3888416 640 569 Z" fill="none" stroke="#000000" stroke-miterlimit="10"/></g><g transform="translate(-198,-118) scale(1,1)"><g><path fill="none" stroke="none"/><text fill="#000000" font-family="Arial" font-size="13px" font-style="normal" font-weight="bold" stroke="none" text-decoration="none" x="682.885009765625" y="574.5">supprimer notification</text></g></g><g transform="translate(-198,-118) scale(1,1)"><path d="M 655 640 C 655 630.6111584 699.77152 623 755 623 C 810.22848 623 855 630.6111584 855 640 C 855 649.3888416 810.22848 657 755 657 C 699.77152 657 655 649.3888416 655 640 Z" fill="#C0C0C0" opacity="0.2" stroke="none"/></g><g transform="translate(-198,-118) scale(1,1)"><path d="M 648 633 C 648 623.6111584 692.77152 616 748 616 C 803.22848 616 848 623.6111584 848 633 C 848 642.3888416 803.22848 650 748 650 C 692.77152 650 648 642.3888416 648 633 Z" fill="#ffffff" stroke="none"/></g><g transform="translate(-198,-118) scale(1,1)"><path d="M 648 633 C 648 623.6111584 692.77152 616 748 616 C 803.22848 616 848 623.6111584 848 633 C 848 642.3888416 803.22848 650 748 650 C 692.77152 650 648 642.3888416 648 633 Z" fill="none" stroke="#000000" stroke-miterlimit="10"/></g><g transform="translate(-198,-118) scale(1,1)"><g><path fill="none" stroke="none"/><text fill="#000000" font-family="Arial" font-size="13px" font-style="normal" font-weight="bold" stroke="none" text-decoration="none" x="681.91455078125" y="638.5">consulter notification</text></g></g><g transform="translate(-198,-118) scale(1,1)"><path d="M 288 591 L 343 592" fill="none" stroke="#000000" stroke-miterlimit="10"/></g><g transform="translate(-198,-118) scale(1,1)"><path d="M 332.7624804680674 596.0240767678188 L 343 592 L 332.9155285459008 587.6064324869807" fill="none" stroke="#000000" stroke-miterlimit="10"/></g><g transform="translate(-198,-118) scale(1,1)"><path d="M 639 578 L 555 585" fill="none" stroke="#000000" stroke-miterlimit="10"/></g><g transform="translate(-198,-118) scale(1,1)"><path d="M 574.5559781995721 574.9221174516737 L 555 585 L 575.9543038875769 591.7020257077306" fill="#FFFFFF" stroke="none"/></g><g transform="translate(-198,-118) scale(1,1)"><path d="M 574.5559781995721 574.9221174516737 L 555 585 L 575.9543038875769 591.7020257077306 L 574.5559781995721 574.9221174516737" fill="none" stroke="#000000" stroke-miterlimit="10"/></g><g transform="translate(-198,-118) scale(1,1)"><path d="M 647 619 L 555 607" fill="none" stroke="#000000" stroke-miterlimit="10"/></g><g transform="translate(-198,-118) scale(1,1)"><path d="M 576.2435363189078 601.2805450725399 L 555 607 L 574.0657139513802 617.9771832235846" fill="#FFFFFF" stroke="none"/></g><g transform="translate(-198,-118) scale(1,1)"><path d="M 576.2435363189078 601.2805450725399 L 555 607 L 574.0657139513802 617.9771832235846 L 576.2435363189078 601.2805450725399" fill="none" stroke="#000000" stroke-miterlimit="10"/></g><g transform="translate(-198,-118) scale(1,1)"><path d="M 234.88298313210228 273.68 C 234.88298313210228 268.886167936 238.76882545704774 265 243.562255859375 265 C 248.35568626170226 265 252.24152858664772 268.886167936 252.24152858664772 273.68 C 252.24152858664772 278.473832064 248.35568626170226 282.36 243.562255859375 282.36 C 238.76882545704774 282.36 234.88298313210228 278.473832064 234.88298313210228 273.68 Z" fill="#ffffff" stroke="none"/></g><g transform="translate(-198,-118) scale(1,1)"><path d="M 234.88298313210228 273.68 C 234.88298313210228 268.886167936 238.76882545704774 265 243.562255859375 265 C 248.35568626170226 265 252.24152858664772 268.886167936 252.24152858664772 273.68 C 252.24152858664772 278.473832064 248.35568626170226 282.36 243.562255859375 282.36 C 238.76882545704774 282.36 234.88298313210228 278.473832064 234.88298313210228 273.68 Z" fill="none" stroke="#000000" stroke-miterlimit="10"/></g><g transform="translate(-198,-118) scale(1,1)"><path d="M 243.562255859375 282.36 L 243.562255859375 299.64" fill="none" stroke="#000000" stroke-miterlimit="10"/></g><g transform="translate(-198,-118) scale(1,1)"><path d="M 234.37243767755683 288.84 L 252.75207404119317 288.84" fill="none" stroke="#000000" stroke-miterlimit="10"/></g><g transform="translate(-198,-118) scale(1,1)"><path d="M 243.562255859375 299.64 L 230.79861949573865 317" fill="none" stroke="#000000" stroke-miterlimit="10"/></g><g transform="translate(-198,-118) scale(1,1)"><path d="M 243.562255859375 299.64 L 256.32589222301135 317" fill="none" stroke="#000000" stroke-miterlimit="10"/></g><g transform="translate(-198,-118) scale(1,1)"><g><path fill="none" stroke="none"/><text fill="#000000" font-family="Arial" font-size="13px" font-style="normal" font-weight="bold" stroke="none" text-decoration="none" x="212.5" y="336">utilisateur</text></g></g><g transform="translate(-198,-118) scale(1,1)"><path d="M 327 312 C 327 302.6111584 379.1588208 295 443.5 295 C 507.8411792 295 560 302.6111584 560 312 C 560 321.3888416 507.8411792 329 443.5 329 C 379.1588208 329 327 321.3888416 327 312 Z" fill="#C0C0C0" opacity="0.2" stroke="none"/></g><g transform="translate(-198,-118) scale(1,1)"><path d="M 320 305 C 320 295.6111584 372.1588208 288 436.5 288 C 500.8411792 288 553 295.6111584 553 305 C 553 314.3888416 500.8411792 322 436.5 322 C 372.1588208 322 320 314.3888416 320 305 Z" fill="#ffffff" stroke="none"/></g><g transform="translate(-198,-118) scale(1,1)"><path d="M 320 305 C 320 295.6111584 372.1588208 288 436.5 288 C 500.8411792 288 553 295.6111584 553 305 C 553 314.3888416 500.8411792 322 436.5 322 C 372.1588208 322 320 314.3888416 320 305 Z" fill="none" stroke="#000000" stroke-miterlimit="10"/></g><g transform="translate(-198,-118) scale(1,1)"><g><path fill="none" stroke="none"/><text fill="#000000" font-family="Arial" font-size="13px" font-style="normal" font-weight="bold" stroke="none" text-decoration="none" x="358.46826171875" y="310.5">réinitialiser mot de passe</text></g></g><g transform="translate(-198,-118) scale(1,1)"><path d="M 663 304 C 663 294.6111584 723.8892672 287 799 287 C 874.1107328 287 935 294.6111584 935 304 C 935 313.3888416 874.1107328 321 799 321 C 723.8892672 321 663 313.3888416 663 304 Z" fill="#C0C0C0" opacity="0.2" stroke="none"/></g><g transform="translate(-198,-118) scale(1,1)"><path d="M 656 297 C 656 287.6111584 716.8892672 280 792 280 C 867.1107328 280 928 287.6111584 928 297 C 928 306.3888416 867.1107328 314 792 314 C 716.8892672 314 656 306.3888416 656 297 Z" fill="#ffffff" stroke="none"/></g><g transform="translate(-198,-118) scale(1,1)"><path d="M 656 297 C 656 287.6111584 716.8892672 280 792 280 C 867.1107328 280 928 287.6111584 928 297 C 928 306.3888416 867.1107328 314 792 314 C 716.8892672 314 656 306.3888416 656 297 Z" fill="none" stroke="#000000" stroke-miterlimit="10"/></g><g transform="translate(-198,-118) scale(1,1)"><g><path fill="none" stroke="none"/><text fill="#000000" font-family="Arial" font-size="13px" font-style="normal" font-weight="bold" stroke="none" text-decoration="none" x="700.2255859375" y="302.5">saisir une adress email valide</text></g></g><g transform="translate(-198,-118) scale(1,1)"><path d="M 280 303 L 319 304" fill="none" stroke="#000000" stroke-miterlimit="10"/></g><g transform="translate(-198,-118) scale(1,1)"><path d="M 308.73276339504196 307.9476388509854 L 319 304 L 308.94856517138015 299.5313695737947" fill="none" stroke="#000000" stroke-miterlimit="10"/></g><g transform="translate(-198,-118) scale(1,1)"><path d="M 554 302 L 655 300" fill="none" stroke="#000000" stroke-dasharray="3" stroke-miterlimit="10"/></g><g transform="translate(-198,-118) scale(1,1)"><path d="M 644.922657491789 304.40989432664804 L 655 300 L 644.7559765934155 295.99250895879345" fill="none" stroke="#000000" stroke-miterlimit="10"/></g><g transform="translate(-198,-118) scale(1,1)"><g><path fill="none" stroke="none"/><text fill="#000000" font-family="Arial" font-size="13px" font-style="normal" font-weight="normal" stroke="none" text-decoration="none" x="575.5" y="298">«include»</text></g></g></g></svg>