<?xml version="1.0" encoding="UTF-8" standalone="no"?><svg xmlns="http://www.w3.org/2000/svg" xmlns:xlink="http://www.w3.org/1999/xlink" height="99" version="1.1" width="643"><defs/><g><g transform="translate(-190,-222) scale(1,1)"><path d="M 226.88298313210228 241.68 C 226.88298313210228 236.886167936 230.76882545704774 233 235.562255859375 233 C 240.35568626170226 233 244.24152858664772 236.886167936 244.24152858664772 241.68 C 244.24152858664772 246.47383206400002 240.35568626170226 250.36 235.562255859375 250.36 C 230.76882545704774 250.36 226.88298313210228 246.47383206400002 226.88298313210228 241.68 Z" fill="#ffffff" stroke="none"/></g><g transform="translate(-190,-222) scale(1,1)"><path d="M 226.88298313210228 241.68 C 226.88298313210228 236.886167936 230.76882545704774 233 235.562255859375 233 C 240.35568626170226 233 244.24152858664772 236.886167936 244.24152858664772 241.68 C 244.24152858664772 246.47383206400002 240.35568626170226 250.36 235.562255859375 250.36 C 230.76882545704774 250.36 226.88298313210228 246.47383206400002 226.88298313210228 241.68 Z" fill="none" stroke="#000000" stroke-miterlimit="10"/></g><g transform="translate(-190,-222) scale(1,1)"><path d="M 235.562255859375 250.36 L 235.562255859375 267.64" fill="none" stroke="#000000" stroke-miterlimit="10"/></g><g transform="translate(-190,-222) scale(1,1)"><path d="M 226.37243767755683 256.84 L 244.75207404119317 256.84" fill="none" stroke="#000000" stroke-miterlimit="10"/></g><g transform="translate(-190,-222) scale(1,1)"><path d="M 235.562255859375 267.64 L 222.79861949573865 285" fill="none" stroke="#000000" stroke-miterlimit="10"/></g><g transform="translate(-190,-222) scale(1,1)"><path d="M 235.562255859375 267.64 L 248.32589222301135 285" fill="none" stroke="#000000" stroke-miterlimit="10"/></g><g transform="translate(-190,-222) scale(1,1)"><g><path fill="none" stroke="none"/><text fill="#000000" font-family="Arial" font-size="13px" font-style="normal" font-weight="bold" stroke="none" text-decoration="none" x="204.5" y="304">utilisateur</text></g></g><g transform="translate(-190,-222) scale(1,1)"><path d="M 351 280 C 351 270.6111584 396.4430928 263 452.5 263 C 508.5569072 263 554 270.6111584 554 280 C 554 289.3888416 508.5569072 297 452.5 297 C 396.4430928 297 351 289.3888416 351 280 Z" fill="#C0C0C0" opacity="0.2" stroke="none"/></g><g transform="translate(-190,-222) scale(1,1)"><path d="M 344 273 C 344 263.6111584 389.4430928 256 445.5 256 C 501.5569072 256 547 263.6111584 547 273 C 547 282.3888416 501.5569072 290 445.5 290 C 389.4430928 290 344 282.3888416 344 273 Z" fill="#ffffff" stroke="none"/></g><g transform="translate(-190,-222) scale(1,1)"><path d="M 344 273 C 344 263.6111584 389.4430928 256 445.5 256 C 501.5569072 256 547 263.6111584 547 273 C 547 282.3888416 501.5569072 290 445.5 290 C 389.4430928 290 344 282.3888416 344 273 Z" fill="none" stroke="#000000" stroke-miterlimit="10"/></g><g transform="translate(-190,-222) scale(1,1)"><g><path fill="none" stroke="none"/><text fill="#000000" font-family="Arial" font-size="13px" font-style="normal" font-weight="bold" stroke="none" text-decoration="none" x="378.31640625" y="278.5">consulter statistiques</text></g></g><g transform="translate(-190,-222) scale(1,1)"><path d="M 703 288 C 703 278.6111584 731.4299152 271 766.5 271 C 801.5700848 271 830 278.6111584 830 288 C 830 297.3888416 801.5700848 305 766.5 305 C 731.4299152 305 703 297.3888416 703 288 Z" fill="#C0C0C0" opacity="0.2" stroke="none"/></g><g transform="translate(-190,-222) scale(1,1)"><path d="M 696 281 C 696 271.6111584 724.4299152 264 759.5 264 C 794.5700848 264 823 271.6111584 823 281 C 823 290.3888416 794.5700848 298 759.5 298 C 724.4299152 298 696 290.3888416 696 281 Z" fill="#ffffff" stroke="none"/></g><g transform="translate(-190,-222) scale(1,1)"><path d="M 696 281 C 696 271.6111584 724.4299152 264 759.5 264 C 794.5700848 264 823 271.6111584 823 281 C 823 290.3888416 794.5700848 298 759.5 298 C 724.4299152 298 696 290.3888416 696 281 Z" fill="none" stroke="#000000" stroke-miterlimit="10"/></g><g transform="translate(-190,-222) scale(1,1)"><g><path fill="none" stroke="none"/><text fill="#000000" font-family="Arial" font-size="13px" font-style="normal" font-weight="bold" stroke="none" text-decoration="none" x="718.947998046875" y="286.5">s'authentifier</text></g></g><g transform="translate(-190,-222) scale(1,1)"><path d="M 272 271 L 343 272" fill="none" stroke="#000000" stroke-miterlimit="10"/></g><g transform="translate(-190,-222) scale(1,1)"><path d="M 332.77904989162334 276.0659782195771 L 343 272 L 332.89761609697774 267.64777763941726" fill="none" stroke="#000000" stroke-miterlimit="10"/></g><g transform="translate(-190,-222) scale(1,1)"><path d="M 548 276 L 695 279" fill="none" stroke="#000000" stroke-dasharray="3" stroke-miterlimit="10"/></g><g transform="translate(-190,-222) scale(1,1)"><path d="M 684.7535501825791 283.0012830616035 L 695 279 L 684.9253314647073 274.5840002373207" fill="none" stroke="#000000" stroke-miterlimit="10"/></g><g transform="translate(-190,-222) scale(1,1)"><g><path fill="none" stroke="none"/><text fill="#000000" font-family="Arial" font-size="13px" font-style="normal" font-weight="normal" stroke="none" text-decoration="none" x="593.5" y="275">«include»</text></g></g></g></svg>