<?xml version="1.0" encoding="UTF-8" standalone="no"?><svg xmlns="http://www.w3.org/2000/svg" xmlns:xlink="http://www.w3.org/1999/xlink" height="1214" version="1.1" width="1005"><defs/><g><g transform="translate(-102,-14) scale(1,1)"><path d="M 248.70891086647728 177.68 C 248.70891086647728 172.886167936 252.5947531914227 169 257.38818359375 169 C 262.18161399607726 169 266.06745632102275 172.886167936 266.06745632102275 177.68 C 266.06745632102275 182.47383206400002 262.18161399607726 186.36 257.38818359375 186.36 C 252.5947531914227 186.36 248.70891086647728 182.47383206400002 248.70891086647728 177.68 Z" fill="#ffffff" stroke="none"/></g><g transform="translate(-102,-14) scale(1,1)"><path d="M 248.70891086647728 177.68 C 248.70891086647728 172.886167936 252.5947531914227 169 257.38818359375 169 C 262.18161399607726 169 266.06745632102275 172.886167936 266.06745632102275 177.68 C 266.06745632102275 182.47383206400002 262.18161399607726 186.36 257.38818359375 186.36 C 252.5947531914227 186.36 248.70891086647728 182.47383206400002 248.70891086647728 177.68 Z" fill="none" stroke="#000000" stroke-miterlimit="10"/></g><g transform="translate(-102,-14) scale(1,1)"><path d="M 257.38818359375 186.36 L 257.38818359375 203.64" fill="none" stroke="#000000" stroke-miterlimit="10"/></g><g transform="translate(-102,-14) scale(1,1)"><path d="M 248.19836541193183 192.84 L 266.57800177556817 192.84" fill="none" stroke="#000000" stroke-miterlimit="10"/></g><g transform="translate(-102,-14) scale(1,1)"><path d="M 257.38818359375 203.64 L 244.62454723011365 221" fill="none" stroke="#000000" stroke-miterlimit="10"/></g><g transform="translate(-102,-14) scale(1,1)"><path d="M 257.38818359375 203.64 L 270.15181995738635 221" fill="none" stroke="#000000" stroke-miterlimit="10"/></g><g transform="translate(-102,-14) scale(1,1)"><g><path fill="none" stroke="none"/><text fill="#000000" font-family="Arial" font-size="13px" font-style="normal" font-weight="bold" stroke="none" text-decoration="none" x="228.5" y="240">plaignant</text></g></g><g transform="translate(-102,-14) scale(1,1)"><path d="M 351 216 C 351 206.6111584 386.81721600000003 199 431 199 C 475.18278399999997 199 511 206.6111584 511 216 C 511 225.3888416 475.18278399999997 233 431 233 C 386.81721600000003 233 351 225.3888416 351 216 Z" fill="#C0C0C0" opacity="0.2" stroke="none"/></g><g transform="translate(-102,-14) scale(1,1)"><path d="M 344 209 C 344 199.6111584 379.81721600000003 192 424 192 C 468.18278399999997 192 504 199.6111584 504 209 C 504 218.3888416 468.18278399999997 226 424 226 C 379.81721600000003 226 344 218.3888416 344 209 Z" fill="#ffffff" stroke="none"/></g><g transform="translate(-102,-14) scale(1,1)"><path d="M 344 209 C 344 199.6111584 379.81721600000003 192 424 192 C 468.18278399999997 192 504 199.6111584 504 209 C 504 218.3888416 468.18278399999997 226 424 226 C 379.81721600000003 226 344 218.3888416 344 209 Z" fill="none" stroke="#000000" stroke-miterlimit="10"/></g><g transform="translate(-102,-14) scale(1,1)"><g><path fill="none" stroke="none"/><text fill="#000000" font-family="Arial" font-size="13px" font-style="normal" font-weight="bold" stroke="none" text-decoration="none" x="371.977783203125" y="214.5">faire réclamation</text></g></g><g transform="translate(-102,-14) scale(1,1)"><path d="M 292 207 L 343 208" fill="none" stroke="#000000" stroke-miterlimit="10"/></g><g transform="translate(-102,-14) scale(1,1)"><path d="M 332.75675448686644 212.00947893842437 L 343 208 L 332.92180188992006 203.59206138268908" fill="none" stroke="#000000" stroke-miterlimit="10"/></g><g transform="translate(-102,-14) scale(1,1)"><path d="M 639 200 C 639 190.6111584 673.0263552 183 715 183 C 756.9736448 183 791 190.6111584 791 200 C 791 209.3888416 756.9736448 217 715 217 C 673.0263552 217 639 209.3888416 639 200 Z" fill="#C0C0C0" opacity="0.2" stroke="none"/></g><g transform="translate(-102,-14) scale(1,1)"><path d="M 632 193 C 632 183.6111584 666.0263552 176 708 176 C 749.9736448 176 784 183.6111584 784 193 C 784 202.3888416 749.9736448 210 708 210 C 666.0263552 210 632 202.3888416 632 193 Z" fill="#ffffff" stroke="none"/></g><g transform="translate(-102,-14) scale(1,1)"><path d="M 632 193 C 632 183.6111584 666.0263552 176 708 176 C 749.9736448 176 784 183.6111584 784 193 C 784 202.3888416 749.9736448 210 708 210 C 666.0263552 210 632 202.3888416 632 193 Z" fill="none" stroke="#000000" stroke-miterlimit="10"/></g><g transform="translate(-102,-14) scale(1,1)"><g><path fill="none" stroke="none"/><text fill="#000000" font-family="Arial" font-size="13px" font-style="normal" font-weight="bold" stroke="none" text-decoration="none" x="674.036865234375" y="198.5">saisir sujet</text></g></g><g transform="translate(-102,-14) scale(1,1)"><path d="M 631 248 C 631 238.6111584 667.936504 231 713.5 231 C 759.063496 231 796 238.6111584 796 248 C 796 257.3888416 759.063496 265 713.5 265 C 667.936504 265 631 257.3888416 631 248 Z" fill="#C0C0C0" opacity="0.2" stroke="none"/></g><g transform="translate(-102,-14) scale(1,1)"><path d="M 624 241 C 624 231.6111584 660.936504 224 706.5 224 C 752.063496 224 789 231.6111584 789 241 C 789 250.3888416 752.063496 258 706.5 258 C 660.936504 258 624 250.3888416 624 241 Z" fill="#ffffff" stroke="none"/></g><g transform="translate(-102,-14) scale(1,1)"><path d="M 624 241 C 624 231.6111584 660.936504 224 706.5 224 C 752.063496 224 789 231.6111584 789 241 C 789 250.3888416 752.063496 258 706.5 258 C 660.936504 258 624 250.3888416 624 241 Z" fill="none" stroke="#000000" stroke-miterlimit="10"/></g><g transform="translate(-102,-14) scale(1,1)"><g><path fill="none" stroke="none"/><text fill="#000000" font-family="Arial" font-size="13px" font-style="normal" font-weight="bold" stroke="none" text-decoration="none" x="652.675048828125" y="246.5">saisir description</text></g></g><g transform="translate(-102,-14) scale(1,1)"><path d="M 505 204 L 631 197" fill="none" stroke="#000000" stroke-dasharray="3" stroke-miterlimit="10"/></g><g transform="translate(-102,-14) scale(1,1)"><path d="M 621.0864741046723 201.7667603592659 L 631 197 L 620.6194700396172 193.36068718827354" fill="none" stroke="#000000" stroke-miterlimit="10"/></g><g transform="translate(-102,-14) scale(1,1)"><g><path fill="none" stroke="none"/><text fill="#000000" font-family="Arial" font-size="13px" font-style="normal" font-weight="normal" stroke="none" text-decoration="none" x="539.5" y="194">«include»</text></g></g><g transform="translate(-102,-14) scale(1,1)"><path d="M 505 218 L 623 232" fill="none" stroke="#000000" stroke-dasharray="3" stroke-miterlimit="10"/></g><g transform="translate(-102,-14) scale(1,1)"><path d="M 612.4121499051874 234.9828560759409 L 623 232 L 613.4040616411701 226.6224571583727" fill="none" stroke="#000000" stroke-miterlimit="10"/></g><g transform="translate(-102,-14) scale(1,1)"><g><path fill="none" stroke="none"/><text fill="#000000" font-family="Arial" font-size="13px" font-style="normal" font-weight="normal" stroke="none" text-decoration="none" x="527.5" y="243">«include»</text></g></g><g transform="translate(-102,-14) scale(1,1)"><path d="M 246.85661594460228 345.68 C 246.85661594460228 340.886167936 250.7424582695477 337 255.535888671875 337 C 260.32931907420226 337 264.21516139914775 340.886167936 264.21516139914775 345.68 C 264.21516139914775 350.473832064 260.32931907420226 354.36 255.535888671875 354.36 C 250.7424582695477 354.36 246.85661594460228 350.473832064 246.85661594460228 345.68 Z" fill="#ffffff" stroke="none"/></g><g transform="translate(-102,-14) scale(1,1)"><path d="M 246.85661594460228 345.68 C 246.85661594460228 340.886167936 250.7424582695477 337 255.535888671875 337 C 260.32931907420226 337 264.21516139914775 340.886167936 264.21516139914775 345.68 C 264.21516139914775 350.473832064 260.32931907420226 354.36 255.535888671875 354.36 C 250.7424582695477 354.36 246.85661594460228 350.473832064 246.85661594460228 345.68 Z" fill="none" stroke="#000000" stroke-miterlimit="10"/></g><g transform="translate(-102,-14) scale(1,1)"><path d="M 255.535888671875 354.36 L 255.535888671875 371.64" fill="none" stroke="#000000" stroke-miterlimit="10"/></g><g transform="translate(-102,-14) scale(1,1)"><path d="M 246.34607049005683 360.84 L 264.72570685369317 360.84" fill="none" stroke="#000000" stroke-miterlimit="10"/></g><g transform="translate(-102,-14) scale(1,1)"><path d="M 255.535888671875 371.64 L 242.77225230823865 389" fill="none" stroke="#000000" stroke-miterlimit="10"/></g><g transform="translate(-102,-14) scale(1,1)"><path d="M 255.535888671875 371.64 L 268.29952503551135 389" fill="none" stroke="#000000" stroke-miterlimit="10"/></g><g transform="translate(-102,-14) scale(1,1)"><g><path fill="none" stroke="none"/><text fill="#000000" font-family="Arial" font-size="13px" font-style="normal" font-weight="bold" stroke="none" text-decoration="none" x="220.5" y="408">demandeur</text></g></g><g transform="translate(-102,-14) scale(1,1)"><path d="M 367 384 C 367 374.6111584 402.81721600000003 367 447 367 C 491.18278399999997 367 527 374.6111584 527 384 C 527 393.3888416 491.18278399999997 401 447 401 C 402.81721600000003 401 367 393.3888416 367 384 Z" fill="#C0C0C0" opacity="0.2" stroke="none"/></g><g transform="translate(-102,-14) scale(1,1)"><path d="M 360 377 C 360 367.6111584 395.81721600000003 360 440 360 C 484.18278399999997 360 520 367.6111584 520 377 C 520 386.3888416 484.18278399999997 394 440 394 C 395.81721600000003 394 360 386.3888416 360 377 Z" fill="#ffffff" stroke="none"/></g><g transform="translate(-102,-14) scale(1,1)"><path d="M 360 377 C 360 367.6111584 395.81721600000003 360 440 360 C 484.18278399999997 360 520 367.6111584 520 377 C 520 386.3888416 484.18278399999997 394 440 394 C 395.81721600000003 394 360 386.3888416 360 377 Z" fill="none" stroke="#000000" stroke-miterlimit="10"/></g><g transform="translate(-102,-14) scale(1,1)"><g><path fill="none" stroke="none"/><text fill="#000000" font-family="Arial" font-size="13px" font-style="normal" font-weight="bold" stroke="none" text-decoration="none" x="387.9873046875" y="382.5">demander congé</text></g></g><g transform="translate(-102,-14) scale(1,1)"><path d="M 296 375 L 359 376" fill="none" stroke="#000000" stroke-miterlimit="10"/></g><g transform="translate(-102,-14) scale(1,1)"><path d="M 348.7717958305513 380.0476955750244 L 359 376 L 348.9054144831438 371.62972046170086" fill="none" stroke="#000000" stroke-miterlimit="10"/></g><g transform="translate(-102,-14) scale(1,1)"><path d="M 647 336 C 647 326.6111584 681.0263552 319 723 319 C 764.9736448 319 799 326.6111584 799 336 C 799 345.3888416 764.9736448 353 723 353 C 681.0263552 353 647 345.3888416 647 336 Z" fill="#C0C0C0" opacity="0.2" stroke="none"/></g><g transform="translate(-102,-14) scale(1,1)"><path d="M 640 329 C 640 319.6111584 674.0263552 312 716 312 C 757.9736448 312 792 319.6111584 792 329 C 792 338.3888416 757.9736448 346 716 346 C 674.0263552 346 640 338.3888416 640 329 Z" fill="#ffffff" stroke="none"/></g><g transform="translate(-102,-14) scale(1,1)"><path d="M 640 329 C 640 319.6111584 674.0263552 312 716 312 C 757.9736448 312 792 319.6111584 792 329 C 792 338.3888416 757.9736448 346 716 346 C 674.0263552 346 640 338.3888416 640 329 Z" fill="none" stroke="#000000" stroke-miterlimit="10"/></g><g transform="translate(-102,-14) scale(1,1)"><g><path fill="none" stroke="none"/><text fill="#000000" font-family="Arial" font-size="13px" font-style="normal" font-weight="bold" stroke="none" text-decoration="none" x="677.701416015625" y="334.5">saisir raison</text></g></g><g transform="translate(-102,-14) scale(1,1)"><path d="M 639 384 C 639 374.6111584 675.936504 367 721.5 367 C 767.063496 367 804 374.6111584 804 384 C 804 393.3888416 767.063496 401 721.5 401 C 675.936504 401 639 393.3888416 639 384 Z" fill="#C0C0C0" opacity="0.2" stroke="none"/></g><g transform="translate(-102,-14) scale(1,1)"><path d="M 632 377 C 632 367.6111584 668.936504 360 714.5 360 C 760.063496 360 797 367.6111584 797 377 C 797 386.3888416 760.063496 394 714.5 394 C 668.936504 394 632 386.3888416 632 377 Z" fill="#ffffff" stroke="none"/></g><g transform="translate(-102,-14) scale(1,1)"><path d="M 632 377 C 632 367.6111584 668.936504 360 714.5 360 C 760.063496 360 797 367.6111584 797 377 C 797 386.3888416 760.063496 394 714.5 394 C 668.936504 394 632 386.3888416 632 377 Z" fill="none" stroke="#000000" stroke-miterlimit="10"/></g><g transform="translate(-102,-14) scale(1,1)"><g><path fill="none" stroke="none"/><text fill="#000000" font-family="Arial" font-size="13px" font-style="normal" font-weight="bold" stroke="none" text-decoration="none" x="660.671875" y="382.5">saisir date départ</text></g></g><g transform="translate(-102,-14) scale(1,1)"><path d="M 655 432 C 655 422.6111584 687.9070672 415 728.5 415 C 769.0929328 415 802 422.6111584 802 432 C 802 441.3888416 769.0929328 449 728.5 449 C 687.9070672 449 655 441.3888416 655 432 Z" fill="#C0C0C0" opacity="0.2" stroke="none"/></g><g transform="translate(-102,-14) scale(1,1)"><path d="M 648 425 C 648 415.6111584 680.9070672 408 721.5 408 C 762.0929328 408 795 415.6111584 795 425 C 795 434.3888416 762.0929328 442 721.5 442 C 680.9070672 442 648 434.3888416 648 425 Z" fill="#ffffff" stroke="none"/></g><g transform="translate(-102,-14) scale(1,1)"><path d="M 648 425 C 648 415.6111584 680.9070672 408 721.5 408 C 762.0929328 408 795 415.6111584 795 425 C 795 434.3888416 762.0929328 442 721.5 442 C 680.9070672 442 648 434.3888416 648 425 Z" fill="none" stroke="#000000" stroke-miterlimit="10"/></g><g transform="translate(-102,-14) scale(1,1)"><g><path fill="none" stroke="none"/><text fill="#000000" font-family="Arial" font-size="13px" font-style="normal" font-weight="bold" stroke="none" text-decoration="none" x="679.595947265625" y="430.5">saisir date fin</text></g></g><g transform="translate(-102,-14) scale(1,1)"><path d="M 521 363 L 639 342" fill="none" stroke="#000000" stroke-dasharray="3" stroke-miterlimit="10"/></g><g transform="translate(-102,-14) scale(1,1)"><path d="M 629.7320987373092 347.92503216742455 L 639 342 L 628.2569737454497 339.6362345941183" fill="none" stroke="#000000" stroke-miterlimit="10"/></g><g transform="translate(-102,-14) scale(1,1)"><g><path fill="none" stroke="none"/><text fill="#000000" font-family="Arial" font-size="13px" font-style="normal" font-weight="normal" stroke="none" text-decoration="none" x="558.5" y="345">«include»</text></g></g><g transform="translate(-102,-14) scale(1,1)"><path d="M 521 377 L 631 377" fill="none" stroke="#000000" stroke-dasharray="3" stroke-miterlimit="10"/></g><g transform="translate(-102,-14) scale(1,1)"><path d="M 620.8373251423759 381.209517756016 L 631 377 L 620.8373251423758 372.790482243984" fill="none" stroke="#000000" stroke-miterlimit="10"/></g><g transform="translate(-102,-14) scale(1,1)"><g><path fill="none" stroke="none"/><text fill="#000000" font-family="Arial" font-size="13px" font-style="normal" font-weight="normal" stroke="none" text-decoration="none" x="559.5" y="382">«include»</text></g></g><g transform="translate(-102,-14) scale(1,1)"><path d="M 521 391 L 647 412" fill="none" stroke="#000000" stroke-dasharray="3" stroke-miterlimit="10"/></g><g transform="translate(-102,-14) scale(1,1)"><path d="M 636.2835588144249 414.4815092818907 L 647 412 L 637.6676397266908 406.1770238082953" fill="none" stroke="#000000" stroke-miterlimit="10"/></g><g transform="translate(-102,-14) scale(1,1)"><g><path fill="none" stroke="none"/><text fill="#000000" font-family="Arial" font-size="13px" font-style="normal" font-weight="normal" stroke="none" text-decoration="none" x="555.5" y="419">«include»</text></g></g><g transform="translate(-102,-14) scale(1,1)"><path d="M 223.42839328835228 33.68 C 223.42839328835228 28.886167936 227.31423561329774 25 232.107666015625 25 C 236.90109641795226 25 240.78693874289772 28.886167936 240.78693874289772 33.68 C 240.78693874289772 38.473832064 236.90109641795226 42.36 232.107666015625 42.36 C 227.31423561329774 42.36 223.42839328835228 38.473832064 223.42839328835228 33.68 Z" fill="#ffffff" stroke="none"/></g><g transform="translate(-102,-14) scale(1,1)"><path d="M 223.42839328835228 33.68 C 223.42839328835228 28.886167936 227.31423561329774 25 232.107666015625 25 C 236.90109641795226 25 240.78693874289772 28.886167936 240.78693874289772 33.68 C 240.78693874289772 38.473832064 236.90109641795226 42.36 232.107666015625 42.36 C 227.31423561329774 42.36 223.42839328835228 38.473832064 223.42839328835228 33.68 Z" fill="none" stroke="#000000" stroke-miterlimit="10"/></g><g transform="translate(-102,-14) scale(1,1)"><path d="M 232.107666015625 42.36 L 232.107666015625 59.64" fill="none" stroke="#000000" stroke-miterlimit="10"/></g><g transform="translate(-102,-14) scale(1,1)"><path d="M 222.91784783380683 48.84 L 241.29748419744317 48.84" fill="none" stroke="#000000" stroke-miterlimit="10"/></g><g transform="translate(-102,-14) scale(1,1)"><path d="M 232.107666015625 59.64 L 219.34402965198865 77" fill="none" stroke="#000000" stroke-miterlimit="10"/></g><g transform="translate(-102,-14) scale(1,1)"><path d="M 232.107666015625 59.64 L 244.87130237926135 77" fill="none" stroke="#000000" stroke-miterlimit="10"/></g><g transform="translate(-102,-14) scale(1,1)"><g><path fill="none" stroke="none"/><text fill="#000000" font-family="Arial" font-size="13px" font-style="normal" font-weight="bold" stroke="none" text-decoration="none" x="172.5" y="96">ressource humaine</text></g></g><g transform="translate(-102,-14) scale(1,1)"><path d="M 375 72 C 375 62.6111584 419.9953776 55 475.5 55 C 531.0046224 55 576 62.6111584 576 72 C 576 81.3888416 531.0046224 89 475.5 89 C 419.9953776 89 375 81.3888416 375 72 Z" fill="#C0C0C0" opacity="0.2" stroke="none"/></g><g transform="translate(-102,-14) scale(1,1)"><path d="M 368 65 C 368 55.6111584 412.9953776 48 468.5 48 C 524.0046224 48 569 55.6111584 569 65 C 569 74.3888416 524.0046224 82 468.5 82 C 412.9953776 82 368 74.3888416 368 65 Z" fill="#ffffff" stroke="none"/></g><g transform="translate(-102,-14) scale(1,1)"><path d="M 368 65 C 368 55.6111584 412.9953776 48 468.5 48 C 524.0046224 48 569 55.6111584 569 65 C 569 74.3888416 524.0046224 82 468.5 82 C 412.9953776 82 368 74.3888416 368 65 Z" fill="none" stroke="#000000" stroke-miterlimit="10"/></g><g transform="translate(-102,-14) scale(1,1)"><g><path fill="none" stroke="none"/><text fill="#000000" font-family="Arial" font-size="13px" font-style="normal" font-weight="bold" stroke="none" text-decoration="none" x="402.036865234375" y="70.5">répondre réclamation</text></g></g><g transform="translate(-102,-14) scale(1,1)"><path d="M 297 64 L 367 64" fill="none" stroke="#000000" stroke-miterlimit="10"/></g><g transform="translate(-102,-14) scale(1,1)"><path d="M 356.83732514237585 68.20951775601598 L 367 64 L 356.83732514237585 59.790482243984016" fill="none" stroke="#000000" stroke-miterlimit="10"/></g><g transform="translate(-102,-14) scale(1,1)"><path d="M 679 56 C 679 46.6111584 718.8466528 39 768 39 C 817.1533472 39 857 46.6111584 857 56 C 857 65.3888416 817.1533472 73 768 73 C 718.8466528 73 679 65.3888416 679 56 Z" fill="#C0C0C0" opacity="0.2" stroke="none"/></g><g transform="translate(-102,-14) scale(1,1)"><path d="M 672 49 C 672 39.6111584 711.8466528 32 761 32 C 810.1533472 32 850 39.6111584 850 49 C 850 58.3888416 810.1533472 66 761 66 C 711.8466528 66 672 58.3888416 672 49 Z" fill="#ffffff" stroke="none"/></g><g transform="translate(-102,-14) scale(1,1)"><path d="M 672 49 C 672 39.6111584 711.8466528 32 761 32 C 810.1533472 32 850 39.6111584 850 49 C 850 58.3888416 810.1533472 66 761 66 C 711.8466528 66 672 58.3888416 672 49 Z" fill="none" stroke="#000000" stroke-miterlimit="10"/></g><g transform="translate(-102,-14) scale(1,1)"><g><path fill="none" stroke="none"/><text fill="#000000" font-family="Arial" font-size="13px" font-style="normal" font-weight="bold" stroke="none" text-decoration="none" x="702.4873046875" y="54.5">prendre en compte</text></g></g><g transform="translate(-102,-14) scale(1,1)"><path d="M 695 104 C 695 94.6111584 730.817216 87 775 87 C 819.182784 87 855 94.6111584 855 104 C 855 113.3888416 819.182784 121 775 121 C 730.817216 121 695 113.3888416 695 104 Z" fill="#C0C0C0" opacity="0.2" stroke="none"/></g><g transform="translate(-102,-14) scale(1,1)"><path d="M 688 97 C 688 87.6111584 723.817216 80 768 80 C 812.182784 80 848 87.6111584 848 97 C 848 106.3888416 812.182784 114 768 114 C 723.817216 114 688 106.3888416 688 97 Z" fill="#ffffff" stroke="none"/></g><g transform="translate(-102,-14) scale(1,1)"><path d="M 688 97 C 688 87.6111584 723.817216 80 768 80 C 812.182784 80 848 87.6111584 848 97 C 848 106.3888416 812.182784 114 768 114 C 723.817216 114 688 106.3888416 688 97 Z" fill="none" stroke="#000000" stroke-miterlimit="10"/></g><g transform="translate(-102,-14) scale(1,1)"><g><path fill="none" stroke="none"/><text fill="#000000" font-family="Arial" font-size="13px" font-style="normal" font-weight="bold" stroke="none" text-decoration="none" x="748.12548828125" y="102.5">rejeter</text></g></g><g transform="translate(-102,-14) scale(1,1)"><path d="M 671 54 L 570 59" fill="none" stroke="#000000" stroke-miterlimit="10"/></g><g transform="translate(-102,-14) scale(1,1)"><path d="M 589.8842151671674 49.5862872794105 L 570 59 L 590.7167634841474 66.40376328240559" fill="#FFFFFF" stroke="none"/></g><g transform="translate(-102,-14) scale(1,1)"><path d="M 589.8842151671674 49.5862872794105 L 570 59 L 590.7167634841474 66.40376328240559 L 589.8842151671674 49.5862872794105" fill="none" stroke="#000000" stroke-miterlimit="10"/></g><g transform="translate(-102,-14) scale(1,1)"><path d="M 687 88 L 570 76" fill="none" stroke="#000000" stroke-miterlimit="10"/></g><g transform="translate(-102,-14) scale(1,1)"><path d="M 591.0782652718923 69.69867211393175 L 570 76 L 589.3602959881226 86.44887263068516" fill="#FFFFFF" stroke="none"/></g><g transform="translate(-102,-14) scale(1,1)"><path d="M 591.0782652718923 69.69867211393175 L 570 76 L 589.3602959881226 86.44887263068516 L 591.0782652718923 69.69867211393175" fill="none" stroke="#000000" stroke-miterlimit="10"/></g><g transform="translate(-102,-14) scale(1,1)"><path d="M 263.42839328835225 505.68 C 263.42839328835225 500.886167936 267.31423561329774 497 272.107666015625 497 C 276.90109641795226 497 280.78693874289775 500.886167936 280.78693874289775 505.68 C 280.78693874289775 510.473832064 276.90109641795226 514.36 272.107666015625 514.36 C 267.31423561329774 514.36 263.42839328835225 510.473832064 263.42839328835225 505.68 Z" fill="#ffffff" stroke="none"/></g><g transform="translate(-102,-14) scale(1,1)"><path d="M 263.42839328835225 505.68 C 263.42839328835225 500.886167936 267.31423561329774 497 272.107666015625 497 C 276.90109641795226 497 280.78693874289775 500.886167936 280.78693874289775 505.68 C 280.78693874289775 510.473832064 276.90109641795226 514.36 272.107666015625 514.36 C 267.31423561329774 514.36 263.42839328835225 510.473832064 263.42839328835225 505.68 Z" fill="none" stroke="#000000" stroke-miterlimit="10"/></g><g transform="translate(-102,-14) scale(1,1)"><path d="M 272.107666015625 514.36 L 272.107666015625 531.64" fill="none" stroke="#000000" stroke-miterlimit="10"/></g><g transform="translate(-102,-14) scale(1,1)"><path d="M 262.91784783380683 520.84 L 281.29748419744317 520.84" fill="none" stroke="#000000" stroke-miterlimit="10"/></g><g transform="translate(-102,-14) scale(1,1)"><path d="M 272.107666015625 531.64 L 259.34402965198865 549" fill="none" stroke="#000000" stroke-miterlimit="10"/></g><g transform="translate(-102,-14) scale(1,1)"><path d="M 272.107666015625 531.64 L 284.87130237926135 549" fill="none" stroke="#000000" stroke-miterlimit="10"/></g><g transform="translate(-102,-14) scale(1,1)"><g><path fill="none" stroke="none"/><text fill="#000000" font-family="Arial" font-size="13px" font-style="normal" font-weight="bold" stroke="none" text-decoration="none" x="212.5" y="568">ressource humaine</text></g></g><g transform="translate(-102,-14) scale(1,1)"><path d="M 423 544 C 423 534.6111584 457.0263552 527 499 527 C 540.9736448 527 575 534.6111584 575 544 C 575 553.3888416 540.9736448 561 499 561 C 457.0263552 561 423 553.3888416 423 544 Z" fill="#C0C0C0" opacity="0.2" stroke="none"/></g><g transform="translate(-102,-14) scale(1,1)"><path d="M 416 537 C 416 527.6111584 450.0263552 520 492 520 C 533.9736448 520 568 527.6111584 568 537 C 568 546.3888416 533.9736448 554 492 554 C 450.0263552 554 416 546.3888416 416 537 Z" fill="#ffffff" stroke="none"/></g><g transform="translate(-102,-14) scale(1,1)"><path d="M 416 537 C 416 527.6111584 450.0263552 520 492 520 C 533.9736448 520 568 527.6111584 568 537 C 568 546.3888416 533.9736448 554 492 554 C 450.0263552 554 416 546.3888416 416 537 Z" fill="none" stroke="#000000" stroke-miterlimit="10"/></g><g transform="translate(-102,-14) scale(1,1)"><g><path fill="none" stroke="none"/><text fill="#000000" font-family="Arial" font-size="13px" font-style="normal" font-weight="bold" stroke="none" text-decoration="none" x="442.8818359375" y="542.5">répondre congé</text></g></g><g transform="translate(-102,-14) scale(1,1)"><path d="M 639 512 C 639 502.6111584 661.6096176 495 689.5 495 C 717.3903824 495 740 502.6111584 740 512 C 740 521.3888416 717.3903824 529 689.5 529 C 661.6096176 529 639 521.3888416 639 512 Z" fill="#C0C0C0" opacity="0.2" stroke="none"/></g><g transform="translate(-102,-14) scale(1,1)"><path d="M 632 505 C 632 495.6111584 654.6096176 488 682.5 488 C 710.3903824 488 733 495.6111584 733 505 C 733 514.3888416 710.3903824 522 682.5 522 C 654.6096176 522 632 514.3888416 632 505 Z" fill="#ffffff" stroke="none"/></g><g transform="translate(-102,-14) scale(1,1)"><path d="M 632 505 C 632 495.6111584 654.6096176 488 682.5 488 C 710.3903824 488 733 495.6111584 733 505 C 733 514.3888416 710.3903824 522 682.5 522 C 654.6096176 522 632 514.3888416 632 505 Z" fill="none" stroke="#000000" stroke-miterlimit="10"/></g><g transform="translate(-102,-14) scale(1,1)"><g><path fill="none" stroke="none"/><text fill="#000000" font-family="Arial" font-size="13px" font-style="normal" font-weight="bold" stroke="none" text-decoration="none" x="655.760498046875" y="510">accepter</text></g></g><g transform="translate(-102,-14) scale(1,1)"><path d="M 647 568 C 647 558.6111584 669.6096176 551 697.5 551 C 725.3903824 551 748 558.6111584 748 568 C 748 577.3888416 725.3903824 585 697.5 585 C 669.6096176 585 647 577.3888416 647 568 Z" fill="#C0C0C0" opacity="0.2" stroke="none"/></g><g transform="translate(-102,-14) scale(1,1)"><path d="M 640 561 C 640 551.6111584 662.6096176 544 690.5 544 C 718.3903824 544 741 551.6111584 741 561 C 741 570.3888416 718.3903824 578 690.5 578 C 662.6096176 578 640 570.3888416 640 561 Z" fill="#ffffff" stroke="none"/></g><g transform="translate(-102,-14) scale(1,1)"><path d="M 640 561 C 640 551.6111584 662.6096176 544 690.5 544 C 718.3903824 544 741 551.6111584 741 561 C 741 570.3888416 718.3903824 578 690.5 578 C 662.6096176 578 640 570.3888416 640 561 Z" fill="none" stroke="#000000" stroke-miterlimit="10"/></g><g transform="translate(-102,-14) scale(1,1)"><g><path fill="none" stroke="none"/><text fill="#000000" font-family="Arial" font-size="13px" font-style="normal" font-weight="bold" stroke="none" text-decoration="none" x="670.62548828125" y="566.5">rejeter</text></g></g><g transform="translate(-102,-14) scale(1,1)"><path d="M 337 536 L 415 536" fill="none" stroke="#000000" stroke-miterlimit="10"/></g><g transform="translate(-102,-14) scale(1,1)"><path d="M 404.83732514237585 540.209517756016 L 415 536 L 404.83732514237585 531.790482243984" fill="none" stroke="#000000" stroke-miterlimit="10"/></g><g transform="translate(-102,-14) scale(1,1)"><path d="M 631 514 L 569 524" fill="none" stroke="#000000" stroke-miterlimit="10"/></g><g transform="translate(-102,-14) scale(1,1)"><path d="M 587.7254374746262 512.4519269406596 L 569 524 L 590.4066045888901 529.0751630490957" fill="#FFFFFF" stroke="none"/></g><g transform="translate(-102,-14) scale(1,1)"><path d="M 587.7254374746262 512.4519269406596 L 569 524 L 590.4066045888901 529.0751630490957 L 587.7254374746262 512.4519269406596" fill="none" stroke="#000000" stroke-miterlimit="10"/></g><g transform="translate(-102,-14) scale(1,1)"><path d="M 639 555 L 569 546" fill="none" stroke="#000000" stroke-miterlimit="10"/></g><g transform="translate(-102,-14) scale(1,1)"><path d="M 590.2330190722143 540.2416233989967 L 569 546 L 588.0857989142214 556.9422246278307" fill="#FFFFFF" stroke="none"/></g><g transform="translate(-102,-14) scale(1,1)"><path d="M 590.2330190722143 540.2416233989967 L 569 546 L 588.0857989142214 556.9422246278307 L 590.2330190722143 540.2416233989967" fill="none" stroke="#000000" stroke-miterlimit="10"/></g><g transform="translate(-102,-14) scale(1,1)"><path d="M 294.19206516335225 673.6800000000001 C 294.19206516335225 668.8861679360001 298.07790748829774 665 302.871337890625 665 C 307.66476829295226 665 311.55061061789775 668.8861679360001 311.55061061789775 673.6800000000001 C 311.55061061789775 678.473832064 307.66476829295226 682.36 302.871337890625 682.36 C 298.07790748829774 682.36 294.19206516335225 678.473832064 294.19206516335225 673.6800000000001 Z" fill="#ffffff" stroke="none"/></g><g transform="translate(-102,-14) scale(1,1)"><path d="M 294.19206516335225 673.6800000000001 C 294.19206516335225 668.8861679360001 298.07790748829774 665 302.871337890625 665 C 307.66476829295226 665 311.55061061789775 668.8861679360001 311.55061061789775 673.6800000000001 C 311.55061061789775 678.473832064 307.66476829295226 682.36 302.871337890625 682.36 C 298.07790748829774 682.36 294.19206516335225 678.473832064 294.19206516335225 673.6800000000001 Z" fill="none" stroke="#000000" stroke-miterlimit="10"/></g><g transform="translate(-102,-14) scale(1,1)"><path d="M 302.871337890625 682.36 L 302.871337890625 699.64" fill="none" stroke="#000000" stroke-miterlimit="10"/></g><g transform="translate(-102,-14) scale(1,1)"><path d="M 293.68151970880683 688.84 L 312.06115607244317 688.84" fill="none" stroke="#000000" stroke-miterlimit="10"/></g><g transform="translate(-102,-14) scale(1,1)"><path d="M 302.871337890625 699.64 L 290.10770152698865 717" fill="none" stroke="#000000" stroke-miterlimit="10"/></g><g transform="translate(-102,-14) scale(1,1)"><path d="M 302.871337890625 699.64 L 315.63497425426135 717" fill="none" stroke="#000000" stroke-miterlimit="10"/></g><g transform="translate(-102,-14) scale(1,1)"><g><path fill="none" stroke="none"/><text fill="#000000" font-family="Arial" font-size="13px" font-style="normal" font-weight="bold" stroke="none" text-decoration="none" x="276.5" y="736">employé</text></g></g><g transform="translate(-102,-14) scale(1,1)"><path d="M 439 712 C 439 702.6111584 473.2502128 695 515.5 695 C 557.7497872 695 592 702.6111584 592 712 C 592 721.3888416 557.7497872 729 515.5 729 C 473.2502128 729 439 721.3888416 439 712 Z" fill="#C0C0C0" opacity="0.2" stroke="none"/></g><g transform="translate(-102,-14) scale(1,1)"><path d="M 432 705 C 432 695.6111584 466.2502128 688 508.5 688 C 550.7497872 688 585 695.6111584 585 705 C 585 714.3888416 550.7497872 722 508.5 722 C 466.2502128 722 432 714.3888416 432 705 Z" fill="#ffffff" stroke="none"/></g><g transform="translate(-102,-14) scale(1,1)"><path d="M 432 705 C 432 695.6111584 466.2502128 688 508.5 688 C 550.7497872 688 585 695.6111584 585 705 C 585 714.3888416 550.7497872 722 508.5 722 C 466.2502128 722 432 714.3888416 432 705 Z" fill="none" stroke="#000000" stroke-miterlimit="10"/></g><g transform="translate(-102,-14) scale(1,1)"><g><path fill="none" stroke="none"/><text fill="#000000" font-family="Arial" font-size="13px" font-style="normal" font-weight="bold" stroke="none" text-decoration="none" x="459.023193359375" y="710.5">consulter forum</text></g></g><g transform="translate(-102,-14) scale(1,1)"><path d="M 679 672 C 679 662.6111584 716.3842192 655 762.5 655 C 808.6157808 655 846 662.6111584 846 672 C 846 681.3888416 808.6157808 689 762.5 689 C 716.3842192 689 679 681.3888416 679 672 Z" fill="#C0C0C0" opacity="0.2" stroke="none"/></g><g transform="translate(-102,-14) scale(1,1)"><path d="M 672 665 C 672 655.6111584 709.3842192 648 755.5 648 C 801.6157808 648 839 655.6111584 839 665 C 839 674.3888416 801.6157808 682 755.5 682 C 709.3842192 682 672 674.3888416 672 665 Z" fill="#ffffff" stroke="none"/></g><g transform="translate(-102,-14) scale(1,1)"><path d="M 672 665 C 672 655.6111584 709.3842192 648 755.5 648 C 801.6157808 648 839 655.6111584 839 665 C 839 674.3888416 801.6157808 682 755.5 682 C 709.3842192 682 672 674.3888416 672 665 Z" fill="none" stroke="#000000" stroke-miterlimit="10"/></g><g transform="translate(-102,-14) scale(1,1)"><g><path fill="none" stroke="none"/><text fill="#000000" font-family="Arial" font-size="13px" font-style="normal" font-weight="bold" stroke="none" text-decoration="none" x="700.938720703125" y="669">envoyer message</text></g></g><g transform="translate(-102,-14) scale(1,1)"><path d="M 335 703 L 431 704" fill="none" stroke="#000000" stroke-miterlimit="10"/></g><g transform="translate(-102,-14) scale(1,1)"><path d="M 420.79402969339105 708.1034339400819 L 431 704 L 420.8817232224253 699.6848551527912" fill="none" stroke="#000000" stroke-miterlimit="10"/></g><g transform="translate(-102,-14) scale(1,1)"><path d="M 671 679 L 586 692" fill="none" stroke="#000000" stroke-dasharray="3" stroke-miterlimit="10"/></g><g transform="translate(-102,-14) scale(1,1)"><path d="M 595.4094540898188 686.3024414235928 L 586 692 L 596.6822710997595 694.6247064885894" fill="none" stroke="#000000" stroke-miterlimit="10"/></g><g transform="translate(-102,-14) scale(1,1)"><g><path fill="none" stroke="none"/><text fill="#000000" font-family="Arial" font-size="13px" font-style="normal" font-weight="normal" stroke="none" text-decoration="none" x="615.5" y="698">«extend»</text></g></g><g transform="translate(-102,-14) scale(1,1)"><path d="M 242.46843235085228 809.6800000000001 C 242.46843235085228 804.8861679360001 246.3542746757977 801 251.147705078125 801 C 255.9411354804523 801 259.82697780539775 804.8861679360001 259.82697780539775 809.6800000000001 C 259.82697780539775 814.473832064 255.9411354804523 818.36 251.147705078125 818.36 C 246.3542746757977 818.36 242.46843235085228 814.473832064 242.46843235085228 809.6800000000001 Z" fill="#ffffff" stroke="none"/></g><g transform="translate(-102,-14) scale(1,1)"><path d="M 242.46843235085228 809.6800000000001 C 242.46843235085228 804.8861679360001 246.3542746757977 801 251.147705078125 801 C 255.9411354804523 801 259.82697780539775 804.8861679360001 259.82697780539775 809.6800000000001 C 259.82697780539775 814.473832064 255.9411354804523 818.36 251.147705078125 818.36 C 246.3542746757977 818.36 242.46843235085228 814.473832064 242.46843235085228 809.6800000000001 Z" fill="none" stroke="#000000" stroke-miterlimit="10"/></g><g transform="translate(-102,-14) scale(1,1)"><path d="M 251.147705078125 818.36 L 251.147705078125 835.64" fill="none" stroke="#000000" stroke-miterlimit="10"/></g><g transform="translate(-102,-14) scale(1,1)"><path d="M 241.95788689630683 824.84 L 260.33752325994317 824.84" fill="none" stroke="#000000" stroke-miterlimit="10"/></g><g transform="translate(-102,-14) scale(1,1)"><path d="M 251.147705078125 835.64 L 238.38406871448865 853" fill="none" stroke="#000000" stroke-miterlimit="10"/></g><g transform="translate(-102,-14) scale(1,1)"><path d="M 251.147705078125 835.64 L 263.91134144176135 853" fill="none" stroke="#000000" stroke-miterlimit="10"/></g><g transform="translate(-102,-14) scale(1,1)"><g><path fill="none" stroke="none"/><text fill="#000000" font-family="Arial" font-size="13px" font-style="normal" font-weight="bold" stroke="none" text-decoration="none" x="212.5" y="872">développeur</text></g></g><g transform="translate(-102,-14) scale(1,1)"><path d="M 359 848 C 359 838.6111584 409.5918176 831 472 831 C 534.4081824 831 585 838.6111584 585 848 C 585 857.3888416 534.4081824 865 472 865 C 409.5918176 865 359 857.3888416 359 848 Z" fill="#C0C0C0" opacity="0.2" stroke="none"/></g><g transform="translate(-102,-14) scale(1,1)"><path d="M 352 841 C 352 831.6111584 402.5918176 824 465 824 C 527.4081824 824 578 831.6111584 578 841 C 578 850.3888416 527.4081824 858 465 858 C 402.5918176 858 352 850.3888416 352 841 Z" fill="#ffffff" stroke="none"/></g><g transform="translate(-102,-14) scale(1,1)"><path d="M 352 841 C 352 831.6111584 402.5918176 824 465 824 C 527.4081824 824 578 831.6111584 578 841 C 578 850.3888416 527.4081824 858 465 858 C 402.5918176 858 352 850.3888416 352 841 Z" fill="none" stroke="#000000" stroke-miterlimit="10"/></g><g transform="translate(-102,-14) scale(1,1)"><g><path fill="none" stroke="none"/><text fill="#000000" font-family="Arial" font-size="13px" font-style="normal" font-weight="bold" stroke="none" text-decoration="none" x="389.49462890625" y="846.5">consulter espace de dev</text></g></g><g transform="translate(-102,-14) scale(1,1)"><path d="M 679 840 C 679 830.6111584 734.9644 823 804 823 C 873.0356 823 929 830.6111584 929 840 C 929 849.3888416 873.0356 857 804 857 C 734.9644 857 679 849.3888416 679 840 Z" fill="#C0C0C0" opacity="0.2" stroke="none"/></g><g transform="translate(-102,-14) scale(1,1)"><path d="M 672 833 C 672 823.6111584 727.9644 816 797 816 C 866.0356 816 922 823.6111584 922 833 C 922 842.3888416 866.0356 850 797 850 C 727.9644 850 672 842.3888416 672 833 Z" fill="#ffffff" stroke="none"/></g><g transform="translate(-102,-14) scale(1,1)"><path d="M 672 833 C 672 823.6111584 727.9644 816 797 816 C 866.0356 816 922 823.6111584 922 833 C 922 842.3888416 866.0356 850 797 850 C 727.9644 850 672 842.3888416 672 833 Z" fill="none" stroke="#000000" stroke-miterlimit="10"/></g><g transform="translate(-102,-14) scale(1,1)"><g><path fill="none" stroke="none"/><text fill="#000000" font-family="Arial" font-size="13px" font-style="normal" font-weight="bold" stroke="none" text-decoration="none" x="713.21728515625" y="838.5">ajouter code au production</text></g></g><g transform="translate(-102,-14) scale(1,1)"><path d="M 295 839 L 351 840" fill="none" stroke="#000000" stroke-miterlimit="10"/></g><g transform="translate(-102,-14) scale(1,1)"><path d="M 340.76378710161214 844.0273993468339 L 351 840 L 340.91410305718824 835.6097058345732" fill="none" stroke="#000000" stroke-miterlimit="10"/></g><g transform="translate(-102,-14) scale(1,1)"><path d="M 671 836 L 579 838" fill="none" stroke="#000000" stroke-dasharray="3" stroke-miterlimit="10"/></g><g transform="translate(-102,-14) scale(1,1)"><path d="M 589.0687846806596 833.570601050423 L 579 838 L 589.2517639598282 841.9876478921751" fill="none" stroke="#000000" stroke-miterlimit="10"/></g><g transform="translate(-102,-14) scale(1,1)"><g><path fill="none" stroke="none"/><text fill="#000000" font-family="Arial" font-size="13px" font-style="normal" font-weight="normal" stroke="none" text-decoration="none" x="607.5" y="850">«extend»</text></g></g><g transform="translate(-102,-14) scale(1,1)"><path d="M 607 928 C 607 918.6111584 655.5770992 911 715.5 911 C 775.4229008 911 824 918.6111584 824 928 C 824 937.3888416 775.4229008 945 715.5 945 C 655.5770992 945 607 937.3888416 607 928 Z" fill="#C0C0C0" opacity="0.2" stroke="none"/></g><g transform="translate(-102,-14) scale(1,1)"><path d="M 600 921 C 600 911.6111584 648.5770992 904 708.5 904 C 768.4229008 904 817 911.6111584 817 921 C 817 930.3888416 768.4229008 938 708.5 938 C 648.5770992 938 600 930.3888416 600 921 Z" fill="#ffffff" stroke="none"/></g><g transform="translate(-102,-14) scale(1,1)"><path d="M 600 921 C 600 911.6111584 648.5770992 904 708.5 904 C 768.4229008 904 817 911.6111584 817 921 C 817 930.3888416 768.4229008 938 708.5 938 C 648.5770992 938 600 930.3888416 600 921 Z" fill="none" stroke="#000000" stroke-miterlimit="10"/></g><g transform="translate(-102,-14) scale(1,1)"><g><path fill="none" stroke="none"/><text fill="#000000" font-family="Arial" font-size="13px" font-style="normal" font-weight="bold" stroke="none" text-decoration="none" x="677.42822265625" y="926.5">saisir titre</text></g></g><g transform="translate(-102,-14) scale(1,1)"><path d="M 847 928 C 847 918.6111584 904.5314032 911 975.5 911 C 1046.4685968 911 1104 918.6111584 1104 928 C 1104 937.3888416 1046.4685968 945 975.5 945 C 904.5314032 945 847 937.3888416 847 928 Z" fill="#C0C0C0" opacity="0.2" stroke="none"/></g><g transform="translate(-102,-14) scale(1,1)"><path d="M 840 921 C 840 911.6111584 897.5314032 904 968.5 904 C 1039.4685968 904 1097 911.6111584 1097 921 C 1097 930.3888416 1039.4685968 938 968.5 938 C 897.5314032 938 840 930.3888416 840 921 Z" fill="#ffffff" stroke="none"/></g><g transform="translate(-102,-14) scale(1,1)"><path d="M 840 921 C 840 911.6111584 897.5314032 904 968.5 904 C 1039.4685968 904 1097 911.6111584 1097 921 C 1097 930.3888416 1039.4685968 938 968.5 938 C 897.5314032 938 840 930.3888416 840 921 Z" fill="none" stroke="#000000" stroke-miterlimit="10"/></g><g transform="translate(-102,-14) scale(1,1)"><g><path fill="none" stroke="none"/><text fill="#000000" font-family="Arial" font-size="13px" font-style="normal" font-weight="bold" stroke="none" text-decoration="none" x="882.168701171875" y="926.5">soumettre une fichier valide</text></g></g><g transform="translate(-102,-14) scale(1,1)"><path d="M 779 851 L 726 903" fill="none" stroke="#000000" stroke-dasharray="3" stroke-miterlimit="10"/></g><g transform="translate(-102,-14) scale(1,1)"><path d="M 730.3061098516118 892.877874830558 L 726 903 L 736.2023028239404 898.8874561292774" fill="none" stroke="#000000" stroke-miterlimit="10"/></g><g transform="translate(-102,-14) scale(1,1)"><g><path fill="none" stroke="none"/><text fill="#000000" font-family="Arial" font-size="13px" font-style="normal" font-weight="normal" stroke="none" text-decoration="none" x="695.5" y="874">«include»</text></g></g><g transform="translate(-102,-14) scale(1,1)"><path d="M 832 851 L 933 903" fill="none" stroke="#000000" stroke-dasharray="3" stroke-miterlimit="10"/></g><g transform="translate(-102,-14) scale(1,1)"><path d="M 922.0376482927564 902.0906897962224 L 933 903 L 925.8914261813494 894.6054673587629" fill="none" stroke="#000000" stroke-miterlimit="10"/></g><g transform="translate(-102,-14) scale(1,1)"><g><path fill="none" stroke="none"/><text fill="#000000" font-family="Arial" font-size="13px" font-style="normal" font-weight="normal" stroke="none" text-decoration="none" x="879.5" y="875">«include»</text></g></g><g transform="translate(-102,-14) scale(1,1)"><path d="M 138.88615696022728 1097.6799999999998 C 138.88615696022728 1092.8861679359998 142.77199928517274 1089 147.5654296875 1089 C 152.35886008982726 1089 156.24470241477272 1092.8861679359998 156.24470241477272 1097.6799999999998 C 156.24470241477272 1102.473832064 152.35886008982726 1106.36 147.5654296875 1106.36 C 142.77199928517274 1106.36 138.88615696022728 1102.473832064 138.88615696022728 1097.6799999999998 Z" fill="#ffffff" stroke="none"/></g><g transform="translate(-102,-14) scale(1,1)"><path d="M 138.88615696022728 1097.6799999999998 C 138.88615696022728 1092.8861679359998 142.77199928517274 1089 147.5654296875 1089 C 152.35886008982726 1089 156.24470241477272 1092.8861679359998 156.24470241477272 1097.6799999999998 C 156.24470241477272 1102.473832064 152.35886008982726 1106.36 147.5654296875 1106.36 C 142.77199928517274 1106.36 138.88615696022728 1102.473832064 138.88615696022728 1097.6799999999998 Z" fill="none" stroke="#000000" stroke-miterlimit="10"/></g><g transform="translate(-102,-14) scale(1,1)"><path d="M 147.5654296875 1106.36 L 147.5654296875 1123.64" fill="none" stroke="#000000" stroke-miterlimit="10"/></g><g transform="translate(-102,-14) scale(1,1)"><path d="M 138.37561150568183 1112.84 L 156.75524786931817 1112.84" fill="none" stroke="#000000" stroke-miterlimit="10"/></g><g transform="translate(-102,-14) scale(1,1)"><path d="M 147.5654296875 1123.64 L 134.80179332386365 1141" fill="none" stroke="#000000" stroke-miterlimit="10"/></g><g transform="translate(-102,-14) scale(1,1)"><path d="M 147.5654296875 1123.64 L 160.32906605113635 1141" fill="none" stroke="#000000" stroke-miterlimit="10"/></g><g transform="translate(-102,-14) scale(1,1)"><g><path fill="none" stroke="none"/><text fill="#000000" font-family="Arial" font-size="13px" font-style="normal" font-weight="bold" stroke="none" text-decoration="none" x="116.5" y="1160">encadrant</text></g></g><g transform="translate(-102,-14) scale(1,1)"><path d="M 263 1136 C 263 1126.6111584 294.1162064 1119 332.5 1119 C 370.8837936 1119 402 1126.6111584 402 1136 C 402 1145.3888416 370.8837936 1153 332.5 1153 C 294.1162064 1153 263 1145.3888416 263 1136 Z" fill="#C0C0C0" opacity="0.2" stroke="none"/></g><g transform="translate(-102,-14) scale(1,1)"><path d="M 256 1129 C 256 1119.6111584 287.1162064 1112 325.5 1112 C 363.8837936 1112 395 1119.6111584 395 1129 C 395 1138.3888416 363.8837936 1146 325.5 1146 C 287.1162064 1146 256 1138.3888416 256 1129 Z" fill="#ffffff" stroke="none"/></g><g transform="translate(-102,-14) scale(1,1)"><path d="M 256 1129 C 256 1119.6111584 287.1162064 1112 325.5 1112 C 363.8837936 1112 395 1119.6111584 395 1129 C 395 1138.3888416 363.8837936 1146 325.5 1146 C 287.1162064 1146 256 1138.3888416 256 1129 Z" fill="none" stroke="#000000" stroke-miterlimit="10"/></g><g transform="translate(-102,-14) scale(1,1)"><g><path fill="none" stroke="none"/><text fill="#000000" font-family="Arial" font-size="13px" font-style="normal" font-weight="bold" stroke="none" text-decoration="none" x="280.6982421875" y="1134.5">gérer stagiaire</text></g></g><g transform="translate(-102,-14) scale(1,1)"><path d="M 495 1088 C 495 1078.6111584 549.6212544 1071 617 1071 C 684.3787456 1071 739 1078.6111584 739 1088 C 739 1097.3888416 684.3787456 1105 617 1105 C 549.6212544 1105 495 1097.3888416 495 1088 Z" fill="#C0C0C0" opacity="0.2" stroke="none"/></g><g transform="translate(-102,-14) scale(1,1)"><path d="M 488 1081 C 488 1071.6111584 542.6212544 1064 610 1064 C 677.3787456 1064 732 1071.6111584 732 1081 C 732 1090.3888416 677.3787456 1098 610 1098 C 542.6212544 1098 488 1090.3888416 488 1081 Z" fill="#ffffff" stroke="none"/></g><g transform="translate(-102,-14) scale(1,1)"><path d="M 488 1081 C 488 1071.6111584 542.6212544 1064 610 1064 C 677.3787456 1064 732 1071.6111584 732 1081 C 732 1090.3888416 677.3787456 1098 610 1098 C 542.6212544 1098 488 1090.3888416 488 1081 Z" fill="none" stroke="#000000" stroke-miterlimit="10"/></g><g transform="translate(-102,-14) scale(1,1)"><g><path fill="none" stroke="none"/><text fill="#000000" font-family="Arial" font-size="13px" font-style="normal" font-weight="bold" stroke="none" text-decoration="none" x="528.35009765625" y="1086.5">consulter espace stagiaire</text></g></g><g transform="translate(-102,-14) scale(1,1)"><path d="M 503 1144 C 503 1134.6111584 554.9349632 1127 619 1127 C 683.0650368 1127 735 1134.6111584 735 1144 C 735 1153.3888416 683.0650368 1161 619 1161 C 554.9349632 1161 503 1153.3888416 503 1144 Z" fill="#C0C0C0" opacity="0.2" stroke="none"/></g><g transform="translate(-102,-14) scale(1,1)"><path d="M 496 1137 C 496 1127.6111584 547.9349632 1120 612 1120 C 676.0650368 1120 728 1127.6111584 728 1137 C 728 1146.3888416 676.0650368 1154 612 1154 C 547.9349632 1154 496 1146.3888416 496 1137 Z" fill="#ffffff" stroke="none"/></g><g transform="translate(-102,-14) scale(1,1)"><path d="M 496 1137 C 496 1127.6111584 547.9349632 1120 612 1120 C 676.0650368 1120 728 1127.6111584 728 1137 C 728 1146.3888416 676.0650368 1154 612 1154 C 547.9349632 1154 496 1146.3888416 496 1137 Z" fill="none" stroke="#000000" stroke-miterlimit="10"/></g><g transform="translate(-102,-14) scale(1,1)"><g><path fill="none" stroke="none"/><text fill="#000000" font-family="Arial" font-size="13px" font-style="normal" font-weight="bold" stroke="none" text-decoration="none" x="556.37548828125" y="1142.5">ajouter une  tâche</text></g></g><g transform="translate(-102,-14) scale(1,1)"><path d="M 519 1200 C 519 1190.6111584 563.77152 1183 619 1183 C 674.22848 1183 719 1190.6111584 719 1200 C 719 1209.3888416 674.22848 1217 619 1217 C 563.77152 1217 519 1209.3888416 519 1200 Z" fill="#C0C0C0" opacity="0.2" stroke="none"/></g><g transform="translate(-102,-14) scale(1,1)"><path d="M 512 1193 C 512 1183.6111584 556.77152 1176 612 1176 C 667.22848 1176 712 1183.6111584 712 1193 C 712 1202.3888416 667.22848 1210 612 1210 C 556.77152 1210 512 1202.3888416 512 1193 Z" fill="#ffffff" stroke="none"/></g><g transform="translate(-102,-14) scale(1,1)"><path d="M 512 1193 C 512 1183.6111584 556.77152 1176 612 1176 C 667.22848 1176 712 1183.6111584 712 1193 C 712 1202.3888416 667.22848 1210 612 1210 C 556.77152 1210 512 1202.3888416 512 1193 Z" fill="none" stroke="#000000" stroke-miterlimit="10"/></g><g transform="translate(-102,-14) scale(1,1)"><g><path fill="none" stroke="none"/><text fill="#000000" font-family="Arial" font-size="13px" font-style="normal" font-weight="bold" stroke="none" text-decoration="none" x="561.79638671875" y="1198.5">noter une  tâche</text></g></g><g transform="translate(-102,-14) scale(1,1)"><path d="M 184 1127 L 255 1128" fill="none" stroke="#000000" stroke-miterlimit="10"/></g><g transform="translate(-102,-14) scale(1,1)"><path d="M 244.77904989162334 1132.0659782195771 L 255 1128 L 244.8976160969777 1123.6477776394172" fill="none" stroke="#000000" stroke-miterlimit="10"/></g><g transform="translate(-102,-14) scale(1,1)"><path d="M 503 1099 L 396 1117" fill="none" stroke="#000000" stroke-miterlimit="10"/></g><g transform="translate(-102,-14) scale(1,1)"><path d="M 414.6470537603591 1105.3257811371261 L 396 1117 L 417.440377486094 1121.930538840106" fill="#FFFFFF" stroke="none"/></g><g transform="translate(-102,-14) scale(1,1)"><path d="M 414.6470537603591 1105.3257811371261 L 396 1117 L 417.440377486094 1121.930538840106 L 414.6470537603591 1105.3257811371261" fill="none" stroke="#000000" stroke-miterlimit="10"/></g><g transform="translate(-102,-14) scale(1,1)"><path d="M 495 1134 L 396 1131" fill="none" stroke="#000000" stroke-miterlimit="10"/></g><g transform="translate(-102,-14) scale(1,1)"><path d="M 416.57102925373863 1123.2004644085798 L 396 1131 L 416.0610187881045 1140.0308097745065" fill="#FFFFFF" stroke="none"/></g><g transform="translate(-102,-14) scale(1,1)"><path d="M 416.57102925373863 1123.2004644085798 L 396 1131 L 416.0610187881045 1140.0308097745065 L 416.57102925373863 1123.2004644085798" fill="none" stroke="#000000" stroke-miterlimit="10"/></g><g transform="translate(-102,-14) scale(1,1)"><path d="M 531 1175 L 396 1145" fill="none" stroke="#000000" stroke-miterlimit="10"/></g><g transform="translate(-102,-14) scale(1,1)"><path d="M 417.6676886137556 1141.1906338929782 L 396 1145 L 414.01499815772235 1157.627740945128" fill="#FFFFFF" stroke="none"/></g><g transform="translate(-102,-14) scale(1,1)"><path d="M 417.6676886137556 1141.1906338929782 L 396 1145 L 414.01499815772235 1157.627740945128 L 417.6676886137556 1141.1906338929782" fill="none" stroke="#000000" stroke-miterlimit="10"/></g><g transform="translate(-102,-14) scale(1,1)"><path d="M 878.5570553977273 1057.6799999999998 C 878.5570553977273 1052.8861679359998 882.4428977226727 1049 887.236328125 1049 C 892.0297585273273 1049 895.9156008522727 1052.8861679359998 895.9156008522727 1057.6799999999998 C 895.9156008522727 1062.473832064 892.0297585273273 1066.36 887.236328125 1066.36 C 882.4428977226727 1066.36 878.5570553977273 1062.473832064 878.5570553977273 1057.6799999999998 Z" fill="#ffffff" stroke="none"/></g><g transform="translate(-102,-14) scale(1,1)"><path d="M 878.5570553977273 1057.6799999999998 C 878.5570553977273 1052.8861679359998 882.4428977226727 1049 887.236328125 1049 C 892.0297585273273 1049 895.9156008522727 1052.8861679359998 895.9156008522727 1057.6799999999998 C 895.9156008522727 1062.473832064 892.0297585273273 1066.36 887.236328125 1066.36 C 882.4428977226727 1066.36 878.5570553977273 1062.473832064 878.5570553977273 1057.6799999999998 Z" fill="none" stroke="#000000" stroke-miterlimit="10"/></g><g transform="translate(-102,-14) scale(1,1)"><path d="M 887.236328125 1066.36 L 887.236328125 1083.64" fill="none" stroke="#000000" stroke-miterlimit="10"/></g><g transform="translate(-102,-14) scale(1,1)"><path d="M 878.0465099431818 1072.84 L 896.4261463068182 1072.84" fill="none" stroke="#000000" stroke-miterlimit="10"/></g><g transform="translate(-102,-14) scale(1,1)"><path d="M 887.236328125 1083.64 L 874.4726917613636 1101" fill="none" stroke="#000000" stroke-miterlimit="10"/></g><g transform="translate(-102,-14) scale(1,1)"><path d="M 887.236328125 1083.64 L 899.9999644886364 1101" fill="none" stroke="#000000" stroke-miterlimit="10"/></g><g transform="translate(-102,-14) scale(1,1)"><g><path fill="none" stroke="none"/><text fill="#000000" font-family="Arial" font-size="13px" font-style="normal" font-weight="bold" stroke="none" text-decoration="none" x="860.5" y="1120">stagiaire</text></g></g><g transform="translate(-102,-14) scale(1,1)"><path d="M 791 1208 C 791 1198.6111584 820.7730607999999 1191 857.5 1191 C 894.2269392000001 1191 924 1198.6111584 924 1208 C 924 1217.3888416 894.2269392000001 1225 857.5 1225 C 820.7730607999999 1225 791 1217.3888416 791 1208 Z" fill="#C0C0C0" opacity="0.2" stroke="none"/></g><g transform="translate(-102,-14) scale(1,1)"><path d="M 784 1201 C 784 1191.6111584 813.7730607999999 1184 850.5 1184 C 887.2269392000001 1184 917 1191.6111584 917 1201 C 917 1210.3888416 887.2269392000001 1218 850.5 1218 C 813.7730607999999 1218 784 1210.3888416 784 1201 Z" fill="#ffffff" stroke="none"/></g><g transform="translate(-102,-14) scale(1,1)"><path d="M 784 1201 C 784 1191.6111584 813.7730607999999 1184 850.5 1184 C 887.2269392000001 1184 917 1191.6111584 917 1201 C 917 1210.3888416 887.2269392000001 1218 850.5 1218 C 813.7730607999999 1218 784 1210.3888416 784 1201 Z" fill="none" stroke="#000000" stroke-miterlimit="10"/></g><g transform="translate(-102,-14) scale(1,1)"><g><path fill="none" stroke="none"/><text fill="#000000" font-family="Arial" font-size="13px" font-style="normal" font-weight="bold" stroke="none" text-decoration="none" x="807.872314453125" y="1206.5">ajouter travail</text></g></g><g transform="translate(-102,-14) scale(1,1)"><path d="M 874 1128 L 856 1183" fill="none" stroke="#000000" stroke-miterlimit="10"/></g><g transform="translate(-102,-14) scale(1,1)"><path d="M 855.1602752490345 1172.0320985442695 L 856 1183 L 863.161702428995 1174.6507474395294" fill="none" stroke="#000000" stroke-miterlimit="10"/></g><g transform="translate(-102,-14) scale(1,1)"><path d="M 855 1086 L 733 1084" fill="none" stroke="#000000" stroke-miterlimit="10"/></g><g transform="translate(-102,-14) scale(1,1)"><path d="M 743.230308765809 1079.9576266184072 L 733 1084 L 743.0923103321481 1088.3755310717233" fill="none" stroke="#000000" stroke-miterlimit="10"/></g></g></svg>