<?xml version="1.0" encoding="UTF-8" standalone="no"?><svg xmlns="http://www.w3.org/2000/svg" xmlns:xlink="http://www.w3.org/1999/xlink" height="726" version="1.1" width="1082"><defs/><g><g transform="translate(10,2) scale(1,1)"><path d="M 266.88298313210225 273.68 C 266.88298313210225 268.886167936 270.76882545704774 265 275.562255859375 265 C 280.35568626170226 265 284.24152858664775 268.886167936 284.24152858664775 273.68 C 284.24152858664775 278.473832064 280.35568626170226 282.36 275.562255859375 282.36 C 270.76882545704774 282.36 266.88298313210225 278.473832064 266.88298313210225 273.68 Z" fill="#ffffff" stroke="none"/></g><g transform="translate(10,2) scale(1,1)"><path d="M 266.88298313210225 273.68 C 266.88298313210225 268.886167936 270.76882545704774 265 275.562255859375 265 C 280.35568626170226 265 284.24152858664775 268.886167936 284.24152858664775 273.68 C 284.24152858664775 278.473832064 280.35568626170226 282.36 275.562255859375 282.36 C 270.76882545704774 282.36 266.88298313210225 278.473832064 266.88298313210225 273.68 Z" fill="none" stroke="#000000" stroke-miterlimit="10"/></g><g transform="translate(10,2) scale(1,1)"><path d="M 275.562255859375 282.36 L 275.562255859375 299.64" fill="none" stroke="#000000" stroke-miterlimit="10"/></g><g transform="translate(10,2) scale(1,1)"><path d="M 266.37243767755683 288.84 L 284.75207404119317 288.84" fill="none" stroke="#000000" stroke-miterlimit="10"/></g><g transform="translate(10,2) scale(1,1)"><path d="M 275.562255859375 299.64 L 262.79861949573865 317" fill="none" stroke="#000000" stroke-miterlimit="10"/></g><g transform="translate(10,2) scale(1,1)"><path d="M 275.562255859375 299.64 L 288.32589222301135 317" fill="none" stroke="#000000" stroke-miterlimit="10"/></g><g transform="translate(10,2) scale(1,1)"><g><path fill="none" stroke="none"/><text fill="#000000" font-family="Arial" font-size="13px" font-style="normal" font-weight="bold" stroke="none" text-decoration="none" x="244.5" y="336">utilisateur</text></g></g><g transform="translate(10,2) scale(1,1)"><path d="M 479 144 C 479 134.6111584 501.6096176 127 529.5 127 C 557.3903824 127 580 134.6111584 580 144 C 580 153.3888416 557.3903824 161 529.5 161 C 501.6096176 161 479 153.3888416 479 144 Z" fill="#C0C0C0" opacity="0.2" stroke="none"/></g><g transform="translate(10,2) scale(1,1)"><path d="M 472 137 C 472 127.6111584 494.6096176 120 522.5 120 C 550.3903824 120 573 127.6111584 573 137 C 573 146.3888416 550.3903824 154 522.5 154 C 494.6096176 154 472 146.3888416 472 137 Z" fill="#ffffff" stroke="none"/></g><g transform="translate(10,2) scale(1,1)"><path d="M 472 137 C 472 127.6111584 494.6096176 120 522.5 120 C 550.3903824 120 573 127.6111584 573 137 C 573 146.3888416 550.3903824 154 522.5 154 C 494.6096176 154 472 146.3888416 472 137 Z" fill="none" stroke="#000000" stroke-miterlimit="10"/></g><g transform="translate(10,2) scale(1,1)"><g><path fill="none" stroke="none"/><text fill="#000000" font-family="Arial" font-size="13px" font-style="normal" font-weight="bold" stroke="none" text-decoration="none" x="493.85302734375" y="142.5">s'inscrire</text></g></g><g transform="translate(10,2) scale(1,1)"><path d="M 727 304 C 727 294.6111584 755.4299152 287 790.5 287 C 825.5700848 287 854 294.6111584 854 304 C 854 313.3888416 825.5700848 321 790.5 321 C 755.4299152 321 727 313.3888416 727 304 Z" fill="#C0C0C0" opacity="0.2" stroke="none"/></g><g transform="translate(10,2) scale(1,1)"><path d="M 720 297 C 720 287.6111584 748.4299152 280 783.5 280 C 818.5700848 280 847 287.6111584 847 297 C 847 306.3888416 818.5700848 314 783.5 314 C 748.4299152 314 720 306.3888416 720 297 Z" fill="#ffffff" stroke="none"/></g><g transform="translate(10,2) scale(1,1)"><path d="M 720 297 C 720 287.6111584 748.4299152 280 783.5 280 C 818.5700848 280 847 287.6111584 847 297 C 847 306.3888416 818.5700848 314 783.5 314 C 748.4299152 314 720 306.3888416 720 297 Z" fill="none" stroke="#000000" stroke-miterlimit="10"/></g><g transform="translate(10,2) scale(1,1)"><g><path fill="none" stroke="none"/><text fill="#000000" font-family="Arial" font-size="13px" font-style="normal" font-weight="bold" stroke="none" text-decoration="none" x="742.947998046875" y="302.5">s'authentifier</text></g></g><g transform="translate(10,2) scale(1,1)"><path d="M 423 288 C 423 278.6111584 470.010096 271 528 271 C 585.989904 271 633 278.6111584 633 288 C 633 297.3888416 585.989904 305 528 305 C 470.010096 305 423 297.3888416 423 288 Z" fill="#C0C0C0" opacity="0.2" stroke="none"/></g><g transform="translate(10,2) scale(1,1)"><path d="M 416 281 C 416 271.6111584 463.010096 264 521 264 C 578.989904 264 626 271.6111584 626 281 C 626 290.3888416 578.989904 298 521 298 C 463.010096 298 416 290.3888416 416 281 Z" fill="#ffffff" stroke="none"/></g><g transform="translate(10,2) scale(1,1)"><path d="M 416 281 C 416 271.6111584 463.010096 264 521 264 C 578.989904 264 626 271.6111584 626 281 C 626 290.3888416 578.989904 298 521 298 C 463.010096 298 416 290.3888416 416 281 Z" fill="none" stroke="#000000" stroke-miterlimit="10"/></g><g transform="translate(10,2) scale(1,1)"><g><path fill="none" stroke="none"/><text fill="#000000" font-family="Arial" font-size="13px" font-style="normal" font-weight="bold" stroke="none" text-decoration="none" x="451.299560546875" y="286.5">consulter notifications</text></g></g><g transform="translate(10,2) scale(1,1)"><path d="M 471 336 C 471 326.6111584 497.862912 319 531 319 C 564.137088 319 591 326.6111584 591 336 C 591 345.3888416 564.137088 353 531 353 C 497.862912 353 471 345.3888416 471 336 Z" fill="#C0C0C0" opacity="0.2" stroke="none"/></g><g transform="translate(10,2) scale(1,1)"><path d="M 464 329 C 464 319.6111584 490.862912 312 524 312 C 557.137088 312 584 319.6111584 584 329 C 584 338.3888416 557.137088 346 524 346 C 490.862912 346 464 338.3888416 464 329 Z" fill="#ffffff" stroke="none"/></g><g transform="translate(10,2) scale(1,1)"><path d="M 464 329 C 464 319.6111584 490.862912 312 524 312 C 557.137088 312 584 319.6111584 584 329 C 584 338.3888416 557.137088 346 524 346 C 490.862912 346 464 338.3888416 464 329 Z" fill="none" stroke="#000000" stroke-miterlimit="10"/></g><g transform="translate(10,2) scale(1,1)"><g><path fill="none" stroke="none"/><text fill="#000000" font-family="Arial" font-size="13px" font-style="normal" font-weight="bold" stroke="none" text-decoration="none" x="486.07275390625" y="334.5">gérer profile</text></g></g><g transform="translate(10,2) scale(1,1)"><path d="M 312 278 L 495 155" fill="none" stroke="#000000" stroke-miterlimit="10"/></g><g transform="translate(10,2) scale(1,1)"><path d="M 488.91369674429865 164.16280048236558 L 495 155 L 484.2172553397957 157.17541205127588" fill="none" stroke="#000000" stroke-miterlimit="10"/></g><g transform="translate(10,2) scale(1,1)"><path d="M 312 300 L 415 290" fill="none" stroke="#000000" stroke-miterlimit="10"/></g><g transform="translate(10,2) scale(1,1)"><path d="M 405.2916640589149 295.1718674823544 L 415 290 L 404.4781072538506 286.7922323901926" fill="none" stroke="#000000" stroke-miterlimit="10"/></g><g transform="translate(10,2) scale(1,1)"><path d="M 312 307 L 463 323" fill="none" stroke="#000000" stroke-miterlimit="10"/></g><g transform="translate(10,2) scale(1,1)"><path d="M 452.450341772217 326.11523855859696 L 463 323 L 453.33745881813644 317.7430714377319" fill="none" stroke="#000000" stroke-miterlimit="10"/></g><g transform="translate(10,2) scale(1,1)"><path d="M 415 384 C 415 374.6111584 467.1588208 367 531.5 367 C 595.8411791999999 367 648 374.6111584 648 384 C 648 393.3888416 595.8411791999999 401 531.5 401 C 467.1588208 401 415 393.3888416 415 384 Z" fill="#C0C0C0" opacity="0.2" stroke="none"/></g><g transform="translate(10,2) scale(1,1)"><path d="M 408 377 C 408 367.6111584 460.1588208 360 524.5 360 C 588.8411791999999 360 641 367.6111584 641 377 C 641 386.3888416 588.8411791999999 394 524.5 394 C 460.1588208 394 408 386.3888416 408 377 Z" fill="#ffffff" stroke="none"/></g><g transform="translate(10,2) scale(1,1)"><path d="M 408 377 C 408 367.6111584 460.1588208 360 524.5 360 C 588.8411791999999 360 641 367.6111584 641 377 C 641 386.3888416 588.8411791999999 394 524.5 394 C 460.1588208 394 408 386.3888416 408 377 Z" fill="none" stroke="#000000" stroke-miterlimit="10"/></g><g transform="translate(10,2) scale(1,1)"><g><path fill="none" stroke="none"/><text fill="#000000" font-family="Arial" font-size="13px" font-style="normal" font-weight="bold" stroke="none" text-decoration="none" x="446.46826171875" y="382.5">réinitialiser mot de passe</text></g></g><g transform="translate(10,2) scale(1,1)"><path d="M 312 314 L 463 359" fill="none" stroke="#000000" stroke-miterlimit="10"/></g><g transform="translate(10,2) scale(1,1)"><path d="M 452.0583725946368 360.13171980728663 L 463 359 L 454.4628543143156 352.0633478145866" fill="none" stroke="#000000" stroke-miterlimit="10"/></g><g transform="translate(10,2) scale(1,1)"><path d="M 627 287 L 719 293" fill="none" stroke="#000000" stroke-dasharray="3" stroke-miterlimit="10"/></g><g transform="translate(10,2) scale(1,1)"><path d="M 708.5849171519753 296.53921591158024 L 719 293 L 709.1328207203803 288.13802786270384" fill="none" stroke="#000000" stroke-miterlimit="10"/></g><g transform="translate(10,2) scale(1,1)"><g><path fill="none" stroke="none"/><text fill="#000000" font-family="Arial" font-size="13px" font-style="normal" font-weight="normal" stroke="none" text-decoration="none" x="645.5" y="286">«include»</text></g></g><g transform="translate(10,2) scale(1,1)"><path d="M 585 321 L 719 305" fill="none" stroke="#000000" stroke-dasharray="3" stroke-miterlimit="10"/></g><g transform="translate(10,2) scale(1,1)"><path d="M 709.4080884296957 310.38472213094246 L 719 305 L 708.4099207505014 302.02506781769074" fill="none" stroke="#000000" stroke-miterlimit="10"/></g><g transform="translate(10,2) scale(1,1)"><g><path fill="none" stroke="none"/><text fill="#000000" font-family="Arial" font-size="13px" font-style="normal" font-weight="normal" stroke="none" text-decoration="none" x="618.5" y="315">«include»</text></g></g><g transform="translate(10,2) scale(1,1)"><path d="M 582 359 L 725 315" fill="none" stroke="#000000" stroke-dasharray="3" stroke-miterlimit="10"/></g><g transform="translate(10,2) scale(1,1)"><path d="M 716.5246883010911 322.01206757000654 L 725 315 L 714.0487690961419 313.96533015392174" fill="none" stroke="#000000" stroke-miterlimit="10"/></g><g transform="translate(10,2) scale(1,1)"><g><path fill="none" stroke="none"/><text fill="#000000" font-family="Arial" font-size="13px" font-style="normal" font-weight="normal" stroke="none" text-decoration="none" x="624.5" y="347">«include»</text></g></g><g transform="translate(10,2) scale(1,1)"><path d="M 928.5602292258523 265.68 C 928.5602292258523 260.886167936 932.4460715507977 257 937.239501953125 257 C 942.0329323554523 257 945.9187746803977 260.886167936 945.9187746803977 265.68 C 945.9187746803977 270.473832064 942.0329323554523 274.36 937.239501953125 274.36 C 932.4460715507977 274.36 928.5602292258523 270.473832064 928.5602292258523 265.68 Z" fill="#ffffff" stroke="none"/></g><g transform="translate(10,2) scale(1,1)"><path d="M 928.5602292258523 265.68 C 928.5602292258523 260.886167936 932.4460715507977 257 937.239501953125 257 C 942.0329323554523 257 945.9187746803977 260.886167936 945.9187746803977 265.68 C 945.9187746803977 270.473832064 942.0329323554523 274.36 937.239501953125 274.36 C 932.4460715507977 274.36 928.5602292258523 270.473832064 928.5602292258523 265.68 Z" fill="none" stroke="#000000" stroke-miterlimit="10"/></g><g transform="translate(10,2) scale(1,1)"><path d="M 937.239501953125 274.36 L 937.239501953125 291.64" fill="none" stroke="#000000" stroke-miterlimit="10"/></g><g transform="translate(10,2) scale(1,1)"><path d="M 928.0496837713068 280.84 L 946.4293201349432 280.84" fill="none" stroke="#000000" stroke-miterlimit="10"/></g><g transform="translate(10,2) scale(1,1)"><path d="M 937.239501953125 291.64 L 924.4758655894886 309" fill="none" stroke="#000000" stroke-miterlimit="10"/></g><g transform="translate(10,2) scale(1,1)"><path d="M 937.239501953125 291.64 L 950.0031383167614 309" fill="none" stroke="#000000" stroke-miterlimit="10"/></g><g transform="translate(10,2) scale(1,1)"><g><path fill="none" stroke="none"/><text fill="#000000" font-family="Arial" font-size="13px" font-style="normal" font-weight="bold" stroke="none" text-decoration="none" x="884.5" y="328">base de données</text></g></g><g transform="translate(10,2) scale(1,1)"><path d="M 79.42839328835227 417.68 C 79.42839328835227 412.886167936 83.31423561329773 409 88.107666015625 409 C 92.90109641795227 409 96.78693874289773 412.886167936 96.78693874289773 417.68 C 96.78693874289773 422.473832064 92.90109641795227 426.36 88.107666015625 426.36 C 83.31423561329773 426.36 79.42839328835227 422.473832064 79.42839328835227 417.68 Z" fill="#ffffff" stroke="none"/></g><g transform="translate(10,2) scale(1,1)"><path d="M 79.42839328835227 417.68 C 79.42839328835227 412.886167936 83.31423561329773 409 88.107666015625 409 C 92.90109641795227 409 96.78693874289773 412.886167936 96.78693874289773 417.68 C 96.78693874289773 422.473832064 92.90109641795227 426.36 88.107666015625 426.36 C 83.31423561329773 426.36 79.42839328835227 422.473832064 79.42839328835227 417.68 Z" fill="none" stroke="#000000" stroke-miterlimit="10"/></g><g transform="translate(10,2) scale(1,1)"><path d="M 88.107666015625 426.36 L 88.107666015625 443.64" fill="none" stroke="#000000" stroke-miterlimit="10"/></g><g transform="translate(10,2) scale(1,1)"><path d="M 78.91784783380682 432.84 L 97.29748419744318 432.84" fill="none" stroke="#000000" stroke-miterlimit="10"/></g><g transform="translate(10,2) scale(1,1)"><path d="M 88.107666015625 443.64 L 75.34402965198863 461" fill="none" stroke="#000000" stroke-miterlimit="10"/></g><g transform="translate(10,2) scale(1,1)"><path d="M 88.107666015625 443.64 L 100.87130237926137 461" fill="none" stroke="#000000" stroke-miterlimit="10"/></g><g transform="translate(10,2) scale(1,1)"><g><path fill="none" stroke="none"/><text fill="#000000" font-family="Arial" font-size="13px" font-style="normal" font-weight="bold" stroke="none" text-decoration="none" x="28.5" y="480">ressource humaine</text></g></g><g transform="translate(10,2) scale(1,1)"><path d="M 140 407 L 239 331" fill="none" stroke="#000000" stroke-miterlimit="10"/></g><g transform="translate(10,2) scale(1,1)"><path d="M 228.00419406778434 350.0549797140026 L 239 331 L 217.7508856895757 336.6986964318624" fill="#FFFFFF" stroke="none"/></g><g transform="translate(10,2) scale(1,1)"><path d="M 228.00419406778434 350.0549797140026 L 239 331 L 217.7508856895757 336.6986964318624 L 228.00419406778434 350.0549797140026" fill="none" stroke="#000000" stroke-miterlimit="10"/></g><g transform="translate(10,2) scale(1,1)"><path d="M 7 568 C 7 558.6111584 49.532944 551 102 551 C 154.467056 551 197 558.6111584 197 568 C 197 577.3888416 154.467056 585 102 585 C 49.532944 585 7 577.3888416 7 568 Z" fill="#C0C0C0" opacity="0.2" stroke="none"/></g><g transform="translate(10,2) scale(1,1)"><path d="M 0 561 C 0 551.6111584 42.532944 544 95 544 C 147.467056 544 190 551.6111584 190 561 C 190 570.3888416 147.467056 578 95 578 C 42.532944 578 0 570.3888416 0 561 Z" fill="#ffffff" stroke="none"/></g><g transform="translate(10,2) scale(1,1)"><path d="M 0 561 C 0 551.6111584 42.532944 544 95 544 C 147.467056 544 190 551.6111584 190 561 C 190 570.3888416 147.467056 578 95 578 C 42.532944 578 0 570.3888416 0 561 Z" fill="none" stroke="#000000" stroke-miterlimit="10"/></g><g transform="translate(10,2) scale(1,1)"><g><path fill="none" stroke="none"/><text fill="#000000" font-family="Arial" font-size="13px" font-style="normal" font-weight="bold" stroke="none" text-decoration="none" x="40.4482421875" y="566.5">gérer réclamtions</text></g></g><g transform="translate(10,2) scale(1,1)"><path d="M 167 528 C 167 518.6111584 195.6537728 511 231 511 C 266.3462272 511 295 518.6111584 295 528 C 295 537.3888416 266.3462272 545 231 545 C 195.6537728 545 167 537.3888416 167 528 Z" fill="#C0C0C0" opacity="0.2" stroke="none"/></g><g transform="translate(10,2) scale(1,1)"><path d="M 160 521 C 160 511.6111584 188.6537728 504 224 504 C 259.3462272 504 288 511.6111584 288 521 C 288 530.3888416 259.3462272 538 224 538 C 188.6537728 538 160 530.3888416 160 521 Z" fill="#ffffff" stroke="none"/></g><g transform="translate(10,2) scale(1,1)"><path d="M 160 521 C 160 511.6111584 188.6537728 504 224 504 C 259.3462272 504 288 511.6111584 288 521 C 288 530.3888416 259.3462272 538 224 538 C 188.6537728 538 160 530.3888416 160 521 Z" fill="none" stroke="#000000" stroke-miterlimit="10"/></g><g transform="translate(10,2) scale(1,1)"><g><path fill="none" stroke="none"/><text fill="#000000" font-family="Arial" font-size="13px" font-style="normal" font-weight="bold" stroke="none" text-decoration="none" x="183.17822265625" y="526.5">gérer congés</text></g></g><g transform="translate(10,2) scale(1,1)"><path d="M 91 488 L 94 543" fill="none" stroke="#000000" stroke-miterlimit="10"/></g><g transform="translate(10,2) scale(1,1)"><path d="M 89.24322546253475 533.0816787710962 L 94 543 L 97.64976466692714 532.6231402690385" fill="none" stroke="#000000" stroke-miterlimit="10"/></g><g transform="translate(10,2) scale(1,1)"><path d="M 153 482 L 191 503" fill="none" stroke="#000000" stroke-miterlimit="10"/></g><g transform="translate(10,2) scale(1,1)"><path d="M 180.06911957794506 501.7688000979791 L 191 503 L 184.14129012894088 494.40011052951047" fill="none" stroke="#000000" stroke-miterlimit="10"/></g><g transform="translate(10,2) scale(1,1)"><path d="M 462.19206516335225 417.68 C 462.19206516335225 412.886167936 466.07790748829774 409 470.871337890625 409 C 475.66476829295226 409 479.55061061789775 412.886167936 479.55061061789775 417.68 C 479.55061061789775 422.473832064 475.66476829295226 426.36 470.871337890625 426.36 C 466.07790748829774 426.36 462.19206516335225 422.473832064 462.19206516335225 417.68 Z" fill="#ffffff" stroke="none"/></g><g transform="translate(10,2) scale(1,1)"><path d="M 462.19206516335225 417.68 C 462.19206516335225 412.886167936 466.07790748829774 409 470.871337890625 409 C 475.66476829295226 409 479.55061061789775 412.886167936 479.55061061789775 417.68 C 479.55061061789775 422.473832064 475.66476829295226 426.36 470.871337890625 426.36 C 466.07790748829774 426.36 462.19206516335225 422.473832064 462.19206516335225 417.68 Z" fill="none" stroke="#000000" stroke-miterlimit="10"/></g><g transform="translate(10,2) scale(1,1)"><path d="M 470.871337890625 426.36 L 470.871337890625 443.64" fill="none" stroke="#000000" stroke-miterlimit="10"/></g><g transform="translate(10,2) scale(1,1)"><path d="M 461.68151970880683 432.84 L 480.06115607244317 432.84" fill="none" stroke="#000000" stroke-miterlimit="10"/></g><g transform="translate(10,2) scale(1,1)"><path d="M 470.871337890625 443.64 L 458.10770152698865 461" fill="none" stroke="#000000" stroke-miterlimit="10"/></g><g transform="translate(10,2) scale(1,1)"><path d="M 470.871337890625 443.64 L 483.63497425426135 461" fill="none" stroke="#000000" stroke-miterlimit="10"/></g><g transform="translate(10,2) scale(1,1)"><g><path fill="none" stroke="none"/><text fill="#000000" font-family="Arial" font-size="13px" font-style="normal" font-weight="bold" stroke="none" text-decoration="none" x="444.5" y="480">employé</text></g></g><g transform="translate(10,2) scale(1,1)"><path d="M 439 424 L 312 330" fill="none" stroke="#000000" stroke-miterlimit="10"/></g><g transform="translate(10,2) scale(1,1)"><path d="M 333.3458303958722 335.324990583152 L 312 330 L 323.3284444718779 348.8591183740804" fill="#FFFFFF" stroke="none"/></g><g transform="translate(10,2) scale(1,1)"><path d="M 333.3458303958722 335.324990583152 L 312 330 L 323.3284444718779 348.8591183740804 L 333.3458303958722 335.324990583152" fill="none" stroke="#000000" stroke-miterlimit="10"/></g><g transform="translate(10,2) scale(1,1)"><path d="M 679 440 C 679 430.6111584 713.2502128 423 755.5 423 C 797.7497872 423 832 430.6111584 832 440 C 832 449.3888416 797.7497872 457 755.5 457 C 713.2502128 457 679 449.3888416 679 440 Z" fill="#C0C0C0" opacity="0.2" stroke="none"/></g><g transform="translate(10,2) scale(1,1)"><path d="M 672 433 C 672 423.6111584 706.2502128 416 748.5 416 C 790.7497872 416 825 423.6111584 825 433 C 825 442.3888416 790.7497872 450 748.5 450 C 706.2502128 450 672 442.3888416 672 433 Z" fill="#ffffff" stroke="none"/></g><g transform="translate(10,2) scale(1,1)"><path d="M 672 433 C 672 423.6111584 706.2502128 416 748.5 416 C 790.7497872 416 825 423.6111584 825 433 C 825 442.3888416 790.7497872 450 748.5 450 C 706.2502128 450 672 442.3888416 672 433 Z" fill="none" stroke="#000000" stroke-miterlimit="10"/></g><g transform="translate(10,2) scale(1,1)"><g><path fill="none" stroke="none"/><text fill="#000000" font-family="Arial" font-size="13px" font-style="normal" font-weight="bold" stroke="none" text-decoration="none" x="699.023193359375" y="438.5">consulter forum</text></g></g><g transform="translate(10,2) scale(1,1)"><path d="M 679 488 C 679 478.6111584 714.817216 471 759 471 C 803.182784 471 839 478.6111584 839 488 C 839 497.3888416 803.182784 505 759 505 C 714.817216 505 679 497.3888416 679 488 Z" fill="#C0C0C0" opacity="0.2" stroke="none"/></g><g transform="translate(10,2) scale(1,1)"><path d="M 672 481 C 672 471.6111584 707.817216 464 752 464 C 796.182784 464 832 471.6111584 832 481 C 832 490.3888416 796.182784 498 752 498 C 707.817216 498 672 490.3888416 672 481 Z" fill="#ffffff" stroke="none"/></g><g transform="translate(10,2) scale(1,1)"><path d="M 672 481 C 672 471.6111584 707.817216 464 752 464 C 796.182784 464 832 471.6111584 832 481 C 832 490.3888416 796.182784 498 752 498 C 707.817216 498 672 490.3888416 672 481 Z" fill="none" stroke="#000000" stroke-miterlimit="10"/></g><g transform="translate(10,2) scale(1,1)"><g><path fill="none" stroke="none"/><text fill="#000000" font-family="Arial" font-size="13px" font-style="normal" font-weight="bold" stroke="none" text-decoration="none" x="699.9873046875" y="486.5">demander congé</text></g></g><g transform="translate(10,2) scale(1,1)"><path d="M 687 528 C 687 518.6111584 722.817216 511 767 511 C 811.182784 511 847 518.6111584 847 528 C 847 537.3888416 811.182784 545 767 545 C 722.817216 545 687 537.3888416 687 528 Z" fill="#C0C0C0" opacity="0.2" stroke="none"/></g><g transform="translate(10,2) scale(1,1)"><path d="M 680 521 C 680 511.6111584 715.817216 504 760 504 C 804.182784 504 840 511.6111584 840 521 C 840 530.3888416 804.182784 538 760 538 C 715.817216 538 680 530.3888416 680 521 Z" fill="#ffffff" stroke="none"/></g><g transform="translate(10,2) scale(1,1)"><path d="M 680 521 C 680 511.6111584 715.817216 504 760 504 C 804.182784 504 840 511.6111584 840 521 C 840 530.3888416 804.182784 538 760 538 C 715.817216 538 680 530.3888416 680 521 Z" fill="none" stroke="#000000" stroke-miterlimit="10"/></g><g transform="translate(10,2) scale(1,1)"><g><path fill="none" stroke="none"/><text fill="#000000" font-family="Arial" font-size="13px" font-style="normal" font-weight="bold" stroke="none" text-decoration="none" x="707.977783203125" y="526.5">faire réclamation</text></g></g><g transform="translate(10,2) scale(1,1)"><path d="M 503 445 L 671 437" fill="none" stroke="#000000" stroke-miterlimit="10"/></g><g transform="translate(10,2) scale(1,1)"><path d="M 661.0490542316979 441.68814230973317 L 671 437 L 660.6486015496341 433.2786359863939" fill="none" stroke="#000000" stroke-miterlimit="10"/></g><g transform="translate(10,2) scale(1,1)"><path d="M 503 451 L 671 471" fill="none" stroke="#000000" stroke-miterlimit="10"/></g><g transform="translate(10,2) scale(1,1)"><path d="M 660.4109637733831 473.97864260887303 L 671 471 L 661.4062022904639 465.61863906539446" fill="none" stroke="#000000" stroke-miterlimit="10"/></g><g transform="translate(10,2) scale(1,1)"><path d="M 503 455 L 689 503" fill="none" stroke="#000000" stroke-miterlimit="10"/></g><g transform="translate(10,2) scale(1,1)"><path d="M 678.107846429221 504.5365515255167 L 689 503 L 680.2115783450415 496.38459035171235" fill="none" stroke="#000000" stroke-miterlimit="10"/></g><g transform="translate(10,2) scale(1,1)"><path d="M 227.14567844460228 569.6800000000001 C 227.14567844460228 564.8861679360001 231.03152076954774 561 235.824951171875 561 C 240.61838157420226 561 244.50422389914772 564.8861679360001 244.50422389914772 569.6800000000001 C 244.50422389914772 574.473832064 240.61838157420226 578.36 235.824951171875 578.36 C 231.03152076954774 578.36 227.14567844460228 574.473832064 227.14567844460228 569.6800000000001 Z" fill="#ffffff" stroke="none"/></g><g transform="translate(10,2) scale(1,1)"><path d="M 227.14567844460228 569.6800000000001 C 227.14567844460228 564.8861679360001 231.03152076954774 561 235.824951171875 561 C 240.61838157420226 561 244.50422389914772 564.8861679360001 244.50422389914772 569.6800000000001 C 244.50422389914772 574.473832064 240.61838157420226 578.36 235.824951171875 578.36 C 231.03152076954774 578.36 227.14567844460228 574.473832064 227.14567844460228 569.6800000000001 Z" fill="none" stroke="#000000" stroke-miterlimit="10"/></g><g transform="translate(10,2) scale(1,1)"><path d="M 235.824951171875 578.36 L 235.824951171875 595.64" fill="none" stroke="#000000" stroke-miterlimit="10"/></g><g transform="translate(10,2) scale(1,1)"><path d="M 226.63513299005683 584.84 L 245.01476935369317 584.84" fill="none" stroke="#000000" stroke-miterlimit="10"/></g><g transform="translate(10,2) scale(1,1)"><path d="M 235.824951171875 595.64 L 223.06131480823865 613" fill="none" stroke="#000000" stroke-miterlimit="10"/></g><g transform="translate(10,2) scale(1,1)"><path d="M 235.824951171875 595.64 L 248.58858753551135 613" fill="none" stroke="#000000" stroke-miterlimit="10"/></g><g transform="translate(10,2) scale(1,1)"><g><path fill="none" stroke="none"/><text fill="#000000" font-family="Arial" font-size="13px" font-style="normal" font-weight="bold" stroke="none" text-decoration="none" x="209.088623046875" y="632">stagiaire</text></g></g><g transform="translate(10,2) scale(1,1)"><path d="M 386.88615696022725 569.6800000000001 C 386.88615696022725 564.8861679360001 390.77199928517274 561 395.5654296875 561 C 400.35886008982726 561 404.24470241477275 564.8861679360001 404.24470241477275 569.6800000000001 C 404.24470241477275 574.473832064 400.35886008982726 578.36 395.5654296875 578.36 C 390.77199928517274 578.36 386.88615696022725 574.473832064 386.88615696022725 569.6800000000001 Z" fill="#ffffff" stroke="none"/></g><g transform="translate(10,2) scale(1,1)"><path d="M 386.88615696022725 569.6800000000001 C 386.88615696022725 564.8861679360001 390.77199928517274 561 395.5654296875 561 C 400.35886008982726 561 404.24470241477275 564.8861679360001 404.24470241477275 569.6800000000001 C 404.24470241477275 574.473832064 400.35886008982726 578.36 395.5654296875 578.36 C 390.77199928517274 578.36 386.88615696022725 574.473832064 386.88615696022725 569.6800000000001 Z" fill="none" stroke="#000000" stroke-miterlimit="10"/></g><g transform="translate(10,2) scale(1,1)"><path d="M 395.5654296875 578.36 L 395.5654296875 595.64" fill="none" stroke="#000000" stroke-miterlimit="10"/></g><g transform="translate(10,2) scale(1,1)"><path d="M 386.37561150568183 584.84 L 404.75524786931817 584.84" fill="none" stroke="#000000" stroke-miterlimit="10"/></g><g transform="translate(10,2) scale(1,1)"><path d="M 395.5654296875 595.64 L 382.80179332386365 613" fill="none" stroke="#000000" stroke-miterlimit="10"/></g><g transform="translate(10,2) scale(1,1)"><path d="M 395.5654296875 595.64 L 408.32906605113635 613" fill="none" stroke="#000000" stroke-miterlimit="10"/></g><g transform="translate(10,2) scale(1,1)"><g><path fill="none" stroke="none"/><text fill="#000000" font-family="Arial" font-size="13px" font-style="normal" font-weight="bold" stroke="none" text-decoration="none" x="364.5" y="632">encadrant</text></g></g><g transform="translate(10,2) scale(1,1)"><path d="M 557.0138425071023 585.6800000000001 C 557.0138425071023 580.8861679360001 560.8996848320477 577 565.693115234375 577 C 570.4865456367023 577 574.3723879616477 580.8861679360001 574.3723879616477 585.6800000000001 C 574.3723879616477 590.473832064 570.4865456367023 594.36 565.693115234375 594.36 C 560.8996848320477 594.36 557.0138425071023 590.473832064 557.0138425071023 585.6800000000001 Z" fill="#ffffff" stroke="none"/></g><g transform="translate(10,2) scale(1,1)"><path d="M 557.0138425071023 585.6800000000001 C 557.0138425071023 580.8861679360001 560.8996848320477 577 565.693115234375 577 C 570.4865456367023 577 574.3723879616477 580.8861679360001 574.3723879616477 585.6800000000001 C 574.3723879616477 590.473832064 570.4865456367023 594.36 565.693115234375 594.36 C 560.8996848320477 594.36 557.0138425071023 590.473832064 557.0138425071023 585.6800000000001 Z" fill="none" stroke="#000000" stroke-miterlimit="10"/></g><g transform="translate(10,2) scale(1,1)"><path d="M 565.693115234375 594.36 L 565.693115234375 611.64" fill="none" stroke="#000000" stroke-miterlimit="10"/></g><g transform="translate(10,2) scale(1,1)"><path d="M 556.5032970525568 600.84 L 574.8829334161932 600.84" fill="none" stroke="#000000" stroke-miterlimit="10"/></g><g transform="translate(10,2) scale(1,1)"><path d="M 565.693115234375 611.64 L 552.9294788707386 629" fill="none" stroke="#000000" stroke-miterlimit="10"/></g><g transform="translate(10,2) scale(1,1)"><path d="M 565.693115234375 611.64 L 578.4567515980114 629" fill="none" stroke="#000000" stroke-miterlimit="10"/></g><g transform="translate(10,2) scale(1,1)"><g><path fill="none" stroke="none"/><text fill="#000000" font-family="Arial" font-size="13px" font-style="normal" font-weight="bold" stroke="none" text-decoration="none" x="524.5" y="648">service client</text></g></g><g transform="translate(10,2) scale(1,1)"><path d="M 666.4684323508523 561.6800000000001 C 666.4684323508523 556.8861679360001 670.3542746757977 553 675.147705078125 553 C 679.9411354804523 553 683.8269778053977 556.8861679360001 683.8269778053977 561.6800000000001 C 683.8269778053977 566.473832064 679.9411354804523 570.36 675.147705078125 570.36 C 670.3542746757977 570.36 666.4684323508523 566.473832064 666.4684323508523 561.6800000000001 Z" fill="#ffffff" stroke="none"/></g><g transform="translate(10,2) scale(1,1)"><path d="M 666.4684323508523 561.6800000000001 C 666.4684323508523 556.8861679360001 670.3542746757977 553 675.147705078125 553 C 679.9411354804523 553 683.8269778053977 556.8861679360001 683.8269778053977 561.6800000000001 C 683.8269778053977 566.473832064 679.9411354804523 570.36 675.147705078125 570.36 C 670.3542746757977 570.36 666.4684323508523 566.473832064 666.4684323508523 561.6800000000001 Z" fill="none" stroke="#000000" stroke-miterlimit="10"/></g><g transform="translate(10,2) scale(1,1)"><path d="M 675.147705078125 570.36 L 675.147705078125 587.64" fill="none" stroke="#000000" stroke-miterlimit="10"/></g><g transform="translate(10,2) scale(1,1)"><path d="M 665.9578868963068 576.84 L 684.3375232599432 576.84" fill="none" stroke="#000000" stroke-miterlimit="10"/></g><g transform="translate(10,2) scale(1,1)"><path d="M 675.147705078125 587.64 L 662.3840687144886 605" fill="none" stroke="#000000" stroke-miterlimit="10"/></g><g transform="translate(10,2) scale(1,1)"><path d="M 675.147705078125 587.64 L 687.9113414417614 605" fill="none" stroke="#000000" stroke-miterlimit="10"/></g><g transform="translate(10,2) scale(1,1)"><g><path fill="none" stroke="none"/><text fill="#000000" font-family="Arial" font-size="13px" font-style="normal" font-weight="bold" stroke="none" text-decoration="none" x="636.5" y="624">développeur</text></g></g><g transform="translate(10,2) scale(1,1)"><path d="M 31 680 C 31 670.6111584 74.4283744 663 128 663 C 181.5716256 663 225 670.6111584 225 680 C 225 689.3888416 181.5716256 697 128 697 C 74.4283744 697 31 689.3888416 31 680 Z" fill="#C0C0C0" opacity="0.2" stroke="none"/></g><g transform="translate(10,2) scale(1,1)"><path d="M 24 673 C 24 663.6111584 67.4283744 656 121 656 C 174.5716256 656 218 663.6111584 218 673 C 218 682.3888416 174.5716256 690 121 690 C 67.4283744 690 24 682.3888416 24 673 Z" fill="#ffffff" stroke="none"/></g><g transform="translate(10,2) scale(1,1)"><path d="M 24 673 C 24 663.6111584 67.4283744 656 121 656 C 174.5716256 656 218 663.6111584 218 673 C 218 682.3888416 174.5716256 690 121 690 C 67.4283744 690 24 682.3888416 24 673 Z" fill="none" stroke="#000000" stroke-miterlimit="10"/></g><g transform="translate(10,2) scale(1,1)"><g><path fill="none" stroke="none"/><text fill="#000000" font-family="Arial" font-size="13px" font-style="normal" font-weight="bold" stroke="none" text-decoration="none" x="57.050537109375" y="678.5">accomplir les taches</text></g></g><g transform="translate(10,2) scale(1,1)"><path d="M 183 633 L 149 655" fill="none" stroke="#000000" stroke-miterlimit="10"/></g><g transform="translate(10,2) scale(1,1)"><path d="M 155.2454526259203 645.9449284101457 L 149 655 L 159.81910442868315 653.013299378052" fill="none" stroke="#000000" stroke-miterlimit="10"/></g><g transform="translate(10,2) scale(1,1)"><path d="M 263 696 C 263 686.6111584 299.936504 679 345.5 679 C 391.063496 679 428 686.6111584 428 696 C 428 705.3888416 391.063496 713 345.5 713 C 299.936504 713 263 705.3888416 263 696 Z" fill="#C0C0C0" opacity="0.2" stroke="none"/></g><g transform="translate(10,2) scale(1,1)"><path d="M 256 689 C 256 679.6111584 292.936504 672 338.5 672 C 384.063496 672 421 679.6111584 421 689 C 421 698.3888416 384.063496 706 338.5 706 C 292.936504 706 256 698.3888416 256 689 Z" fill="#ffffff" stroke="none"/></g><g transform="translate(10,2) scale(1,1)"><path d="M 256 689 C 256 679.6111584 292.936504 672 338.5 672 C 384.063496 672 421 679.6111584 421 689 C 421 698.3888416 384.063496 706 338.5 706 C 292.936504 706 256 698.3888416 256 689 Z" fill="none" stroke="#000000" stroke-miterlimit="10"/></g><g transform="translate(10,2) scale(1,1)"><g><path fill="none" stroke="none"/><text fill="#000000" font-family="Arial" font-size="13px" font-style="normal" font-weight="bold" stroke="none" text-decoration="none" x="284.681396484375" y="694.5">ajouter une tache</text></g></g><g transform="translate(10,2) scale(1,1)"><path d="M 431 704 C 431 694.6111584 464.57864 687 506 687 C 547.42136 687 581 694.6111584 581 704 C 581 713.3888416 547.42136 721 506 721 C 464.57864 721 431 713.3888416 431 704 Z" fill="#C0C0C0" opacity="0.2" stroke="none"/></g><g transform="translate(10,2) scale(1,1)"><path d="M 424 697 C 424 687.6111584 457.57864 680 499 680 C 540.42136 680 574 687.6111584 574 697 C 574 706.3888416 540.42136 714 499 714 C 457.57864 714 424 706.3888416 424 697 Z" fill="#ffffff" stroke="none"/></g><g transform="translate(10,2) scale(1,1)"><path d="M 424 697 C 424 687.6111584 457.57864 680 499 680 C 540.42136 680 574 687.6111584 574 697 C 574 706.3888416 540.42136 714 499 714 C 457.57864 714 424 706.3888416 424 697 Z" fill="none" stroke="#000000" stroke-miterlimit="10"/></g><g transform="translate(10,2) scale(1,1)"><g><path fill="none" stroke="none"/><text fill="#000000" font-family="Arial" font-size="13px" font-style="normal" font-weight="bold" stroke="none" text-decoration="none" x="450.602294921875" y="702.5">noter une tache</text></g></g><g transform="translate(10,2) scale(1,1)"><path d="M 369 640 L 349 671" fill="none" stroke="#000000" stroke-miterlimit="10"/></g><g transform="translate(10,2) scale(1,1)"><path d="M 350.9722154485628 660.1782456956162 L 349 671 L 358.04670277060416 664.7424310646751" fill="none" stroke="#000000" stroke-miterlimit="10"/></g><g transform="translate(10,2) scale(1,1)"><path d="M 432 634 L 480 679" fill="none" stroke="#000000" stroke-miterlimit="10"/></g><g transform="translate(10,2) scale(1,1)"><path d="M 469.70688827168857 675.1203284999245 L 480 679 L 475.4650129238797 668.9783288709207" fill="none" stroke="#000000" stroke-miterlimit="10"/></g><g transform="translate(10,2) scale(1,1)"><path d="M 615 696 C 615 686.6111584 663.129384 679 722.5 679 C 781.870616 679 830 686.6111584 830 696 C 830 705.3888416 781.870616 713 722.5 713 C 663.129384 713 615 705.3888416 615 696 Z" fill="#C0C0C0" opacity="0.2" stroke="none"/></g><g transform="translate(10,2) scale(1,1)"><path d="M 608 689 C 608 679.6111584 656.129384 672 715.5 672 C 774.870616 672 823 679.6111584 823 689 C 823 698.3888416 774.870616 706 715.5 706 C 656.129384 706 608 698.3888416 608 689 Z" fill="#ffffff" stroke="none"/></g><g transform="translate(10,2) scale(1,1)"><path d="M 608 689 C 608 679.6111584 656.129384 672 715.5 672 C 774.870616 672 823 679.6111584 823 689 C 823 698.3888416 774.870616 706 715.5 706 C 656.129384 706 608 698.3888416 608 689 Z" fill="none" stroke="#000000" stroke-miterlimit="10"/></g><g transform="translate(10,2) scale(1,1)"><g><path fill="none" stroke="none"/><text fill="#000000" font-family="Arial" font-size="13px" font-style="normal" font-weight="bold" stroke="none" text-decoration="none" x="643.974609375" y="694.5">gérer les souscriptions</text></g></g><g transform="translate(10,2) scale(1,1)"><path d="M 612 638 L 679 671" fill="none" stroke="#000000" stroke-miterlimit="10"/></g><g transform="translate(10,2) scale(1,1)"><path d="M 668.0232011590585 670.2859361334549 L 679 671 L 671.743150506084 662.7333117016153" fill="none" stroke="#000000" stroke-miterlimit="10"/></g><g transform="translate(10,2) scale(1,1)"><path d="M 767 576 C 767 566.6111584 834.6049952 559 918 559 C 1001.3950048 559 1069 566.6111584 1069 576 C 1069 585.3888416 1001.3950048 593 918 593 C 834.6049952 593 767 585.3888416 767 576 Z" fill="#C0C0C0" opacity="0.2" stroke="none"/></g><g transform="translate(10,2) scale(1,1)"><path d="M 760 569 C 760 559.6111584 827.6049952 552 911 552 C 994.3950048 552 1062 559.6111584 1062 569 C 1062 578.3888416 994.3950048 586 911 586 C 827.6049952 586 760 578.3888416 760 569 Z" fill="#ffffff" stroke="none"/></g><g transform="translate(10,2) scale(1,1)"><path d="M 760 569 C 760 559.6111584 827.6049952 552 911 552 C 994.3950048 552 1062 559.6111584 1062 569 C 1062 578.3888416 994.3950048 586 911 586 C 827.6049952 586 760 578.3888416 760 569 Z" fill="none" stroke="#000000" stroke-miterlimit="10"/></g><g transform="translate(10,2) scale(1,1)"><g><path fill="none" stroke="none"/><text fill="#000000" font-family="Arial" font-size="13px" font-style="normal" font-weight="bold" stroke="none" text-decoration="none" x="845.139892578125" y="574.5">gérer l'espace de dev</text></g></g><g transform="translate(10,2) scale(1,1)"><path d="M 719 587 L 759 583" fill="none" stroke="#000000" stroke-miterlimit="10"/></g><g transform="translate(10,2) scale(1,1)"><path d="M 749.3066232366605 588.19985066362 L 759 583 L 748.4688978926434 579.8225972234496" fill="none" stroke="#000000" stroke-miterlimit="10"/></g><g transform="translate(10,2) scale(1,1)"><path d="M 289 564 L 439 467" fill="none" stroke="#000000" stroke-miterlimit="10"/></g><g transform="translate(10,2) scale(1,1)"><path d="M 426.50408827434313 485.1066890994624 L 439 467 L 417.3606934346131 470.96741872874594" fill="#FFFFFF" stroke="none"/></g><g transform="translate(10,2) scale(1,1)"><path d="M 426.50408827434313 485.1066890994624 L 439 467 L 417.3606934346131 470.96741872874594 L 426.50408827434313 485.1066890994624" fill="none" stroke="#000000" stroke-miterlimit="10"/></g><g transform="translate(10,2) scale(1,1)"><path d="M 415 559 L 450 488" fill="none" stroke="#000000" stroke-miterlimit="10"/></g><g transform="translate(10,2) scale(1,1)"><path d="M 448.56444555687546 509.9531132972256 L 450 488 L 433.4617144378793 502.508104999129" fill="#FFFFFF" stroke="none"/></g><g transform="translate(10,2) scale(1,1)"><path d="M 448.56444555687546 509.9531132972256 L 450 488 L 433.4617144378793 502.508104999129 L 448.56444555687546 509.9531132972256" fill="none" stroke="#000000" stroke-miterlimit="10"/></g><g transform="translate(10,2) scale(1,1)"><path d="M 542 575 L 493 488" fill="none" stroke="#000000" stroke-miterlimit="10"/></g><g transform="translate(10,2) scale(1,1)"><path d="M 510.30996670898094 501.57810931367 L 493 488 L 495.6388216706456 509.8411680134221" fill="#FFFFFF" stroke="none"/></g><g transform="translate(10,2) scale(1,1)"><path d="M 510.30996670898094 501.57810931367 L 493 488 L 495.6388216706456 509.8411680134221 L 510.30996670898094 501.57810931367" fill="none" stroke="#000000" stroke-miterlimit="10"/></g><g transform="translate(10,2) scale(1,1)"><path d="M 631 560 L 503 470" fill="none" stroke="#000000" stroke-miterlimit="10"/></g><g transform="translate(10,2) scale(1,1)"><path d="M 524.4691622221698 474.80365209795207 L 503 470 L 514.7842952207674 488.57768516661315" fill="#FFFFFF" stroke="none"/></g><g transform="translate(10,2) scale(1,1)"><path d="M 524.4691622221698 474.80365209795207 L 503 470 L 514.7842952207674 488.57768516661315 L 524.4691622221698 474.80365209795207" fill="none" stroke="#000000" stroke-miterlimit="10"/></g><g transform="translate(10,2) scale(1,1)"><path d="M 152.40935031960228 25.68 C 152.40935031960228 20.886167936 156.29519264454774 17 161.088623046875 17 C 165.88205344920226 17 169.76789577414772 20.886167936 169.76789577414772 25.68 C 169.76789577414772 30.473832064 165.88205344920226 34.36 161.088623046875 34.36 C 156.29519264454774 34.36 152.40935031960228 30.473832064 152.40935031960228 25.68 Z" fill="#ffffff" stroke="none"/></g><g transform="translate(10,2) scale(1,1)"><path d="M 152.40935031960228 25.68 C 152.40935031960228 20.886167936 156.29519264454774 17 161.088623046875 17 C 165.88205344920226 17 169.76789577414772 20.886167936 169.76789577414772 25.68 C 169.76789577414772 30.473832064 165.88205344920226 34.36 161.088623046875 34.36 C 156.29519264454774 34.36 152.40935031960228 30.473832064 152.40935031960228 25.68 Z" fill="none" stroke="#000000" stroke-miterlimit="10"/></g><g transform="translate(10,2) scale(1,1)"><path d="M 161.088623046875 34.36 L 161.088623046875 51.64" fill="none" stroke="#000000" stroke-miterlimit="10"/></g><g transform="translate(10,2) scale(1,1)"><path d="M 151.89880486505683 40.84 L 170.27844122869317 40.84" fill="none" stroke="#000000" stroke-miterlimit="10"/></g><g transform="translate(10,2) scale(1,1)"><path d="M 161.088623046875 51.64 L 148.32498668323865 69" fill="none" stroke="#000000" stroke-miterlimit="10"/></g><g transform="translate(10,2) scale(1,1)"><path d="M 161.088623046875 51.64 L 173.85225941051135 69" fill="none" stroke="#000000" stroke-miterlimit="10"/></g><g transform="translate(10,2) scale(1,1)"><g><path fill="none" stroke="none"/><text fill="#000000" font-family="Arial" font-size="13px" font-style="normal" font-weight="bold" stroke="none" text-decoration="none" x="144.11181640625" y="88">client</text></g></g><g transform="translate(10,2) scale(1,1)"><path d="M 180 96 L 257 263" fill="none" stroke="#000000" stroke-miterlimit="10"/></g><g transform="translate(10,2) scale(1,1)"><path d="M 240.844023874405 248.0673366264017 L 257 263 L 256.1349872575512 241.01701219225646" fill="#FFFFFF" stroke="none"/></g><g transform="translate(10,2) scale(1,1)"><path d="M 240.844023874405 248.0673366264017 L 257 263 L 256.1349872575512 241.01701219225646 L 240.844023874405 248.0673366264017" fill="none" stroke="#000000" stroke-miterlimit="10"/></g><g transform="translate(10,2) scale(1,1)"><path d="M 239 56 C 239 46.6111584 291.38267840000003 39 356 39 C 420.61732159999997 39 473 46.6111584 473 56 C 473 65.3888416 420.61732159999997 73 356 73 C 291.38267840000003 73 239 65.3888416 239 56 Z" fill="#C0C0C0" opacity="0.2" stroke="none"/></g><g transform="translate(10,2) scale(1,1)"><path d="M 232 49 C 232 39.6111584 284.38267840000003 32 349 32 C 413.61732159999997 32 466 39.6111584 466 49 C 466 58.3888416 413.61732159999997 66 349 66 C 284.38267840000003 66 232 58.3888416 232 49 Z" fill="#ffffff" stroke="none"/></g><g transform="translate(10,2) scale(1,1)"><path d="M 232 49 C 232 39.6111584 284.38267840000003 32 349 32 C 413.61732159999997 32 466 39.6111584 466 49 C 466 58.3888416 413.61732159999997 66 349 66 C 284.38267840000003 66 232 58.3888416 232 49 Z" fill="none" stroke="#000000" stroke-miterlimit="10"/></g><g transform="translate(10,2) scale(1,1)"><g><path fill="none" stroke="none"/><text fill="#000000" font-family="Arial" font-size="13px" font-style="normal" font-weight="bold" stroke="none" text-decoration="none" x="270.6064453125" y="54.5">demander une assurance</text></g></g><g transform="translate(10,2) scale(1,1)"><path d="M 187 54 L 231 53" fill="none" stroke="#000000" stroke-miterlimit="10"/></g><g transform="translate(10,2) scale(1,1)"><path d="M 220.9355949430687 57.439341263072265 L 231 53 L 220.74430262451605 49.02247924675536" fill="none" stroke="#000000" stroke-miterlimit="10"/></g><g transform="translate(10,2) scale(1,1)"><path d="M 463 248 C 463 238.6111584 496.3547824 231 537.5 231 C 578.6452176 231 612 238.6111584 612 248 C 612 257.3888416 578.6452176 265 537.5 265 C 496.3547824 265 463 257.3888416 463 248 Z" fill="#C0C0C0" opacity="0.2" stroke="none"/></g><g transform="translate(10,2) scale(1,1)"><path d="M 456 241 C 456 231.6111584 489.3547824 224 530.5 224 C 571.6452176 224 605 231.6111584 605 241 C 605 250.3888416 571.6452176 258 530.5 258 C 489.3547824 258 456 250.3888416 456 241 Z" fill="#ffffff" stroke="none"/></g><g transform="translate(10,2) scale(1,1)"><path d="M 456 241 C 456 231.6111584 489.3547824 224 530.5 224 C 571.6452176 224 605 231.6111584 605 241 C 605 250.3888416 571.6452176 258 530.5 258 C 489.3547824 258 456 250.3888416 456 241 Z" fill="none" stroke="#000000" stroke-miterlimit="10"/></g><g transform="translate(10,2) scale(1,1)"><g><path fill="none" stroke="none"/><text fill="#000000" font-family="Arial" font-size="13px" font-style="normal" font-weight="bold" stroke="none" text-decoration="none" x="482.457763671875" y="246.5">de déconnecter</text></g></g><g transform="translate(10,2) scale(1,1)"><path d="M 312 294 L 456 259" fill="none" stroke="#000000" stroke-miterlimit="10"/></g><g transform="translate(10,2) scale(1,1)"><path d="M 447.119033897695 265.4906425791064 L 456 259 L 445.13063126362795 257.3097860275165" fill="none" stroke="#000000" stroke-miterlimit="10"/></g><g transform="translate(10,2) scale(1,1)"><path d="M 940.6329831321023 33.68 C 940.6329831321023 28.886167936 944.5188254570477 25 949.312255859375 25 C 954.1056862617023 25 957.9915285866477 28.886167936 957.9915285866477 33.68 C 957.9915285866477 38.473832064 954.1056862617023 42.36 949.312255859375 42.36 C 944.5188254570477 42.36 940.6329831321023 38.473832064 940.6329831321023 33.68 Z" fill="#ffffff" stroke="none"/></g><g transform="translate(10,2) scale(1,1)"><path d="M 940.6329831321023 33.68 C 940.6329831321023 28.886167936 944.5188254570477 25 949.312255859375 25 C 954.1056862617023 25 957.9915285866477 28.886167936 957.9915285866477 33.68 C 957.9915285866477 38.473832064 954.1056862617023 42.36 949.312255859375 42.36 C 944.5188254570477 42.36 940.6329831321023 38.473832064 940.6329831321023 33.68 Z" fill="none" stroke="#000000" stroke-miterlimit="10"/></g><g transform="translate(10,2) scale(1,1)"><path d="M 949.312255859375 42.36 L 949.312255859375 59.64" fill="none" stroke="#000000" stroke-miterlimit="10"/></g><g transform="translate(10,2) scale(1,1)"><path d="M 940.1224376775568 48.84 L 958.5020740411932 48.84" fill="none" stroke="#000000" stroke-miterlimit="10"/></g><g transform="translate(10,2) scale(1,1)"><path d="M 949.312255859375 59.64 L 936.5486194957386 77" fill="none" stroke="#000000" stroke-miterlimit="10"/></g><g transform="translate(10,2) scale(1,1)"><path d="M 949.312255859375 59.64 L 962.0758922230114 77" fill="none" stroke="#000000" stroke-miterlimit="10"/></g><g transform="translate(10,2) scale(1,1)"><g><path fill="none" stroke="none"/><text fill="#000000" font-family="Arial" font-size="13px" font-style="normal" font-weight="bold" stroke="none" text-decoration="none" x="908.5" y="96">supderadmin</text></g></g><g transform="translate(10,2) scale(1,1)"><path d="M 511 32 C 511 22.6111584 580.395856 15 666 15 C 751.604144 15 821 22.6111584 821 32 C 821 41.3888416 751.604144 49 666 49 C 580.395856 49 511 41.3888416 511 32 Z" fill="#C0C0C0" opacity="0.2" stroke="none"/></g><g transform="translate(10,2) scale(1,1)"><path d="M 504 25 C 504 15.611158399999999 573.395856 8 659 8 C 744.604144 8 814 15.611158399999999 814 25 C 814 34.3888416 744.604144 42 659 42 C 573.395856 42 504 34.3888416 504 25 Z" fill="#ffffff" stroke="none"/></g><g transform="translate(10,2) scale(1,1)"><path d="M 504 25 C 504 15.611158399999999 573.395856 8 659 8 C 744.604144 8 814 15.611158399999999 814 25 C 814 34.3888416 744.604144 42 659 42 C 573.395856 42 504 34.3888416 504 25 Z" fill="none" stroke="#000000" stroke-miterlimit="10"/></g><g transform="translate(10,2) scale(1,1)"><g><path fill="none" stroke="none"/><text fill="#000000" font-family="Arial" font-size="13px" font-style="normal" font-weight="bold" stroke="none" text-decoration="none" x="553.78125" y="30.5">gérer les demandes d'inscriptions</text></g></g><g transform="translate(10,2) scale(1,1)"><path d="M 903 57 L 796 43" fill="none" stroke="#000000" stroke-miterlimit="10"/></g><g transform="translate(10,2) scale(1,1)"><path d="M 806.6229098316186 40.14451637908726 L 796 43 L 805.5306634097852 48.492399745956234" fill="none" stroke="#000000" stroke-miterlimit="10"/></g><g transform="translate(10,2) scale(1,1)"><path d="M 647 88 C 647 78.6111584 684.3842192 71 730.5 71 C 776.6157808 71 814 78.6111584 814 88 C 814 97.3888416 776.6157808 105 730.5 105 C 684.3842192 105 647 97.3888416 647 88 Z" fill="#C0C0C0" opacity="0.2" stroke="none"/></g><g transform="translate(10,2) scale(1,1)"><path d="M 640 81 C 640 71.6111584 677.3842192 64 723.5 64 C 769.6157808 64 807 71.6111584 807 81 C 807 90.3888416 769.6157808 98 723.5 98 C 677.3842192 98 640 90.3888416 640 81 Z" fill="#ffffff" stroke="none"/></g><g transform="translate(10,2) scale(1,1)"><path d="M 640 81 C 640 71.6111584 677.3842192 64 723.5 64 C 769.6157808 64 807 71.6111584 807 81 C 807 90.3888416 769.6157808 98 723.5 98 C 677.3842192 98 640 90.3888416 640 81 Z" fill="none" stroke="#000000" stroke-miterlimit="10"/></g><g transform="translate(10,2) scale(1,1)"><g><path fill="none" stroke="none"/><text fill="#000000" font-family="Arial" font-size="13px" font-style="normal" font-weight="bold" stroke="none" text-decoration="none" x="668.9609375" y="86.5">ajouter utilisateur</text></g></g><g transform="translate(10,2) scale(1,1)"><path d="M 639 136 C 639 126.6111584 682.8760896 119 737 119 C 791.1239104 119 835 126.6111584 835 136 C 835 145.3888416 791.1239104 153 737 153 C 682.8760896 153 639 145.3888416 639 136 Z" fill="#C0C0C0" opacity="0.2" stroke="none"/></g><g transform="translate(10,2) scale(1,1)"><path d="M 632 129 C 632 119.6111584 675.8760896 112 730 112 C 784.1239104 112 828 119.6111584 828 129 C 828 138.3888416 784.1239104 146 730 146 C 675.8760896 146 632 138.3888416 632 129 Z" fill="#ffffff" stroke="none"/></g><g transform="translate(10,2) scale(1,1)"><path d="M 632 129 C 632 119.6111584 675.8760896 112 730 112 C 784.1239104 112 828 119.6111584 828 129 C 828 138.3888416 784.1239104 146 730 146 C 675.8760896 146 632 138.3888416 632 129 Z" fill="none" stroke="#000000" stroke-miterlimit="10"/></g><g transform="translate(10,2) scale(1,1)"><g><path fill="none" stroke="none"/><text fill="#000000" font-family="Arial" font-size="13px" font-style="normal" font-weight="bold" stroke="none" text-decoration="none" x="665.345947265625" y="134.5">supprimer utilisateur</text></g></g><g transform="translate(10,2) scale(1,1)"><path d="M 903 67 L 808 74" fill="none" stroke="#000000" stroke-miterlimit="10"/></g><g transform="translate(10,2) scale(1,1)"><path d="M 817.8258618880384 69.05505933734341 L 808 74 L 818.444534647164 77.45133249690483" fill="none" stroke="#000000" stroke-miterlimit="10"/></g><g transform="translate(10,2) scale(1,1)"><path d="M 903 77 L 790 111" fill="none" stroke="#000000" stroke-miterlimit="10"/></g><g transform="translate(10,2) scale(1,1)"><path d="M 798.5188352465724 104.04087318395797 L 790 111 L 800.9445719334228 112.10288040790186" fill="none" stroke="#000000" stroke-miterlimit="10"/></g><g transform="translate(10,2) scale(1,1)"><path d="M 544 119 L 637 43" fill="none" stroke="#000000" stroke-dasharray="3" stroke-miterlimit="10"/></g><g transform="translate(10,2) scale(1,1)"><path d="M 631.7944716257741 52.69032890799532 L 637 43 L 626.4670383041544 46.171232869697455" fill="none" stroke="#000000" stroke-miterlimit="10"/></g><g transform="translate(10,2) scale(1,1)"><g><path fill="none" stroke="none"/><text fill="#000000" font-family="Arial" font-size="13px" font-style="normal" font-weight="normal" stroke="none" text-decoration="none" x="559.5" y="82">«include»</text></g></g><g transform="translate(10,2) scale(1,1)"><path d="M 879 296 L 848 296" fill="none" stroke="#000000" stroke-miterlimit="10"/></g><g transform="translate(10,2) scale(1,1)"><path d="M 447 208 C 447 198.6111584 492.4430928 191 548.5 191 C 604.5569072 191 650 198.6111584 650 208 C 650 217.3888416 604.5569072 225 548.5 225 C 492.4430928 225 447 217.3888416 447 208 Z" fill="#C0C0C0" opacity="0.2" stroke="none"/></g><g transform="translate(10,2) scale(1,1)"><path d="M 440 201 C 440 191.6111584 485.4430928 184 541.5 184 C 597.5569072 184 643 191.6111584 643 201 C 643 210.3888416 597.5569072 218 541.5 218 C 485.4430928 218 440 210.3888416 440 201 Z" fill="#ffffff" stroke="none"/></g><g transform="translate(10,2) scale(1,1)"><path d="M 440 201 C 440 191.6111584 485.4430928 184 541.5 184 C 597.5569072 184 643 191.6111584 643 201 C 643 210.3888416 597.5569072 218 541.5 218 C 485.4430928 218 440 210.3888416 440 201 Z" fill="none" stroke="#000000" stroke-miterlimit="10"/></g><g transform="translate(10,2) scale(1,1)"><g><path fill="none" stroke="none"/><text fill="#000000" font-family="Arial" font-size="13px" font-style="normal" font-weight="bold" stroke="none" text-decoration="none" x="474.31640625" y="206.5">consulter statistiques</text></g></g><g transform="translate(10,2) scale(1,1)"><path d="M 312 289 L 494 219" fill="none" stroke="#000000" stroke-miterlimit="10"/></g><g transform="translate(10,2) scale(1,1)"><path d="M 486.0258408827551 226.5771225655166 L 494 219 L 483.0035832659772 218.71925276189404" fill="none" stroke="#000000" stroke-miterlimit="10"/></g></g></svg>