<?xml version="1.0" encoding="UTF-8" standalone="no"?><svg xmlns="http://www.w3.org/2000/svg" xmlns:xlink="http://www.w3.org/1999/xlink" height="1550" version="1.1" width="1005"><defs/><g><g transform="translate(-110,-118) scale(1,1)"><path d="M 146.88298313210228 289.68 C 146.88298313210228 284.886167936 150.76882545704774 281 155.562255859375 281 C 160.35568626170226 281 164.24152858664772 284.886167936 164.24152858664772 289.68 C 164.24152858664772 294.473832064 160.35568626170226 298.36 155.562255859375 298.36 C 150.76882545704774 298.36 146.88298313210228 294.473832064 146.88298313210228 289.68 Z" fill="#ffffff" stroke="none"/></g><g transform="translate(-110,-118) scale(1,1)"><path d="M 146.88298313210228 289.68 C 146.88298313210228 284.886167936 150.76882545704774 281 155.562255859375 281 C 160.35568626170226 281 164.24152858664772 284.886167936 164.24152858664772 289.68 C 164.24152858664772 294.473832064 160.35568626170226 298.36 155.562255859375 298.36 C 150.76882545704774 298.36 146.88298313210228 294.473832064 146.88298313210228 289.68 Z" fill="none" stroke="#000000" stroke-miterlimit="10"/></g><g transform="translate(-110,-118) scale(1,1)"><path d="M 155.562255859375 298.36 L 155.562255859375 315.64" fill="none" stroke="#000000" stroke-miterlimit="10"/></g><g transform="translate(-110,-118) scale(1,1)"><path d="M 146.37243767755683 304.84 L 164.75207404119317 304.84" fill="none" stroke="#000000" stroke-miterlimit="10"/></g><g transform="translate(-110,-118) scale(1,1)"><path d="M 155.562255859375 315.64 L 142.79861949573865 333" fill="none" stroke="#000000" stroke-miterlimit="10"/></g><g transform="translate(-110,-118) scale(1,1)"><path d="M 155.562255859375 315.64 L 168.32589222301135 333" fill="none" stroke="#000000" stroke-miterlimit="10"/></g><g transform="translate(-110,-118) scale(1,1)"><g><path fill="none" stroke="none"/><text fill="#000000" font-family="Arial" font-size="13px" font-style="normal" font-weight="bold" stroke="none" text-decoration="none" x="124.5" y="352">utilisateur</text></g></g><g transform="translate(-110,-118) scale(1,1)"><path d="M 327 328 C 327 318.6111584 357.4446336 311 395 311 C 432.5553664 311 463 318.6111584 463 328 C 463 337.3888416 432.5553664 345 395 345 C 357.4446336 345 327 337.3888416 327 328 Z" fill="#C0C0C0" opacity="0.2" stroke="none"/></g><g transform="translate(-110,-118) scale(1,1)"><path d="M 320 321 C 320 311.6111584 350.4446336 304 388 304 C 425.5553664 304 456 311.6111584 456 321 C 456 330.3888416 425.5553664 338 388 338 C 350.4446336 338 320 330.3888416 320 321 Z" fill="#ffffff" stroke="none"/></g><g transform="translate(-110,-118) scale(1,1)"><path d="M 320 321 C 320 311.6111584 350.4446336 304 388 304 C 425.5553664 304 456 311.6111584 456 321 C 456 330.3888416 425.5553664 338 388 338 C 350.4446336 338 320 330.3888416 320 321 Z" fill="none" stroke="#000000" stroke-miterlimit="10"/></g><g transform="translate(-110,-118) scale(1,1)"><g><path fill="none" stroke="none"/><text fill="#000000" font-family="Arial" font-size="13px" font-style="normal" font-weight="bold" stroke="none" text-decoration="none" x="359.35302734375" y="326.5">s'inscrire</text></g></g><g transform="translate(-110,-118) scale(1,1)"><path d="M 192 319 L 319 320" fill="none" stroke="#000000" stroke-miterlimit="10"/></g><g transform="translate(-110,-118) scale(1,1)"><path d="M 308.8044953896496 324.12936868544375 L 319 320 L 308.87078495290586 315.71059415189916" fill="none" stroke="#000000" stroke-miterlimit="10"/></g><g transform="translate(-110,-118) scale(1,1)"><path d="M 311 424 C 311 414.6111584 349.055792 407 396 407 C 442.944208 407 481 414.6111584 481 424 C 481 433.3888416 442.944208 441 396 441 C 349.055792 441 311 433.3888416 311 424 Z" fill="#C0C0C0" opacity="0.2" stroke="none"/></g><g transform="translate(-110,-118) scale(1,1)"><path d="M 304 417 C 304 407.6111584 342.055792 400 389 400 C 435.944208 400 474 407.6111584 474 417 C 474 426.3888416 435.944208 434 389 434 C 342.055792 434 304 426.3888416 304 417 Z" fill="#ffffff" stroke="none"/></g><g transform="translate(-110,-118) scale(1,1)"><path d="M 304 417 C 304 407.6111584 342.055792 400 389 400 C 435.944208 400 474 407.6111584 474 417 C 474 426.3888416 435.944208 434 389 434 C 342.055792 434 304 426.3888416 304 417 Z" fill="none" stroke="#000000" stroke-miterlimit="10"/></g><g transform="translate(-110,-118) scale(1,1)"><g><path fill="none" stroke="none"/><text fill="#000000" font-family="Arial" font-size="13px" font-style="normal" font-weight="bold" stroke="none" text-decoration="none" x="333.365966796875" y="422.5">saisir cordonnées</text></g></g><g transform="translate(-110,-118) scale(1,1)"><path d="M 388 339 L 389 399" fill="none" stroke="#000000" stroke-dasharray="3" stroke-miterlimit="10"/></g><g transform="translate(-110,-118) scale(1,1)"><path d="M 384.62171238296963 388.9088852180466 L 389 399 L 393.03957882806384 388.7685874439617" fill="none" stroke="#000000" stroke-miterlimit="10"/></g><g transform="translate(-110,-118) scale(1,1)"><g><path fill="none" stroke="none"/><text fill="#000000" font-family="Arial" font-size="13px" font-style="normal" font-weight="normal" stroke="none" text-decoration="none" x="391.5" y="371">«include»</text></g></g><g transform="translate(-110,-118) scale(1,1)"><path d="M 583 296 C 583 286.6111584 645.680128 279 723 279 C 800.319872 279 863 286.6111584 863 296 C 863 305.3888416 800.319872 313 723 313 C 645.680128 313 583 305.3888416 583 296 Z" fill="#C0C0C0" opacity="0.2" stroke="none"/></g><g transform="translate(-110,-118) scale(1,1)"><path d="M 576 289 C 576 279.6111584 638.680128 272 716 272 C 793.319872 272 856 279.6111584 856 289 C 856 298.3888416 793.319872 306 716 306 C 638.680128 306 576 298.3888416 576 289 Z" fill="#ffffff" stroke="none"/></g><g transform="translate(-110,-118) scale(1,1)"><path d="M 576 289 C 576 279.6111584 638.680128 272 716 272 C 793.319872 272 856 279.6111584 856 289 C 856 298.3888416 793.319872 306 716 306 C 638.680128 306 576 298.3888416 576 289 Z" fill="none" stroke="#000000" stroke-miterlimit="10"/></g><g transform="translate(-110,-118) scale(1,1)"><g><path fill="none" stroke="none"/><text fill="#000000" font-family="Arial" font-size="13px" font-style="normal" font-weight="bold" stroke="none" text-decoration="none" x="632.0966796875" y="294.5">s'inscrire en tant que client</text></g></g><g transform="translate(-110,-118) scale(1,1)"><path d="M 599 368 C 599 358.6111584 661.0085552 351 737.5 351 C 813.9914448 351 876 358.6111584 876 368 C 876 377.3888416 813.9914448 385 737.5 385 C 661.0085552 385 599 377.3888416 599 368 Z" fill="#C0C0C0" opacity="0.2" stroke="none"/></g><g transform="translate(-110,-118) scale(1,1)"><path d="M 592 361 C 592 351.6111584 654.0085552 344 730.5 344 C 806.9914448 344 869 351.6111584 869 361 C 869 370.3888416 806.9914448 378 730.5 378 C 654.0085552 378 592 370.3888416 592 361 Z" fill="#ffffff" stroke="none"/></g><g transform="translate(-110,-118) scale(1,1)"><path d="M 592 361 C 592 351.6111584 654.0085552 344 730.5 344 C 806.9914448 344 869 351.6111584 869 361 C 869 370.3888416 806.9914448 378 730.5 378 C 654.0085552 378 592 370.3888416 592 361 Z" fill="none" stroke="#000000" stroke-miterlimit="10"/></g><g transform="translate(-110,-118) scale(1,1)"><g><path fill="none" stroke="none"/><text fill="#000000" font-family="Arial" font-size="13px" font-style="normal" font-weight="bold" stroke="none" text-decoration="none" x="637.2021484375" y="366.5">s'inscrire en tant que employé</text></g></g><g transform="translate(-110,-118) scale(1,1)"><path d="M 575 303 L 457 314" fill="none" stroke="#000000" stroke-miterlimit="10"/></g><g transform="translate(-110,-118) scale(1,1)"><path d="M 476.4561698698184 303.73075202379596 L 457 314 L 478.0190445325261 320.49613476920587" fill="#FFFFFF" stroke="none"/></g><g transform="translate(-110,-118) scale(1,1)"><path d="M 476.4561698698184 303.73075202379596 L 457 314 L 478.0190445325261 320.49613476920587 L 476.4561698698184 303.73075202379596" fill="none" stroke="#000000" stroke-miterlimit="10"/></g><g transform="translate(-110,-118) scale(1,1)"><path d="M 591 345 L 457 329" fill="none" stroke="#000000" stroke-miterlimit="10"/></g><g transform="translate(-110,-118) scale(1,1)"><path d="M 478.1801584989972 323.0501356353815 L 457 329 L 476.18382314060875 339.76944426188487" fill="#FFFFFF" stroke="none"/></g><g transform="translate(-110,-118) scale(1,1)"><path d="M 478.1801584989972 323.0501356353815 L 457 329 L 476.18382314060875 339.76944426188487 L 478.1801584989972 323.0501356353815" fill="none" stroke="#000000" stroke-miterlimit="10"/></g><g transform="translate(-110,-118) scale(1,1)"><path d="M 663 480 C 663 470.6111584 693.6684912 463 731.5 463 C 769.3315088 463 800 470.6111584 800 480 C 800 489.3888416 769.3315088 497 731.5 497 C 693.6684912 497 663 489.3888416 663 480 Z" fill="#C0C0C0" opacity="0.2" stroke="none"/></g><g transform="translate(-110,-118) scale(1,1)"><path d="M 656 473 C 656 463.6111584 686.6684912 456 724.5 456 C 762.3315088 456 793 463.6111584 793 473 C 793 482.3888416 762.3315088 490 724.5 490 C 686.6684912 490 656 482.3888416 656 473 Z" fill="#ffffff" stroke="none"/></g><g transform="translate(-110,-118) scale(1,1)"><path d="M 656 473 C 656 463.6111584 686.6684912 456 724.5 456 C 762.3315088 456 793 463.6111584 793 473 C 793 482.3888416 762.3315088 490 724.5 490 C 686.6684912 490 656 482.3888416 656 473 Z" fill="none" stroke="#000000" stroke-miterlimit="10"/></g><g transform="translate(-110,-118) scale(1,1)"><g><path fill="none" stroke="none"/><text fill="#000000" font-family="Arial" font-size="13px" font-style="normal" font-weight="bold" stroke="none" text-decoration="none" x="680.4345703125" y="478.5">saisir position</text></g></g><g transform="translate(-110,-118) scale(1,1)"><path d="M 729 379 L 725 455" fill="none" stroke="#000000" stroke-dasharray="3" stroke-miterlimit="10"/></g><g transform="translate(-110,-118) scale(1,1)"><path d="M 721.3304388478734 444.63012435220156 L 725 455 L 729.7378378159722 445.07261903473307" fill="none" stroke="#000000" stroke-miterlimit="10"/></g><g transform="translate(-110,-118) scale(1,1)"><g><path fill="none" stroke="none"/><text fill="#000000" font-family="Arial" font-size="13px" font-style="normal" font-weight="normal" stroke="none" text-decoration="none" x="728.5" y="423">«include»</text></g></g><g transform="translate(-110,-118) scale(1,1)"><path d="M 664.6625241477273 137.68 C 664.6625241477273 132.886167936 668.5483664726727 129 673.341796875 129 C 678.1352272773273 129 682.0210696022727 132.886167936 682.0210696022727 137.68 C 682.0210696022727 142.47383206400002 678.1352272773273 146.36 673.341796875 146.36 C 668.5483664726727 146.36 664.6625241477273 142.47383206400002 664.6625241477273 137.68 Z" fill="#ffffff" stroke="none"/></g><g transform="translate(-110,-118) scale(1,1)"><path d="M 664.6625241477273 137.68 C 664.6625241477273 132.886167936 668.5483664726727 129 673.341796875 129 C 678.1352272773273 129 682.0210696022727 132.886167936 682.0210696022727 137.68 C 682.0210696022727 142.47383206400002 678.1352272773273 146.36 673.341796875 146.36 C 668.5483664726727 146.36 664.6625241477273 142.47383206400002 664.6625241477273 137.68 Z" fill="none" stroke="#000000" stroke-miterlimit="10"/></g><g transform="translate(-110,-118) scale(1,1)"><path d="M 673.341796875 146.36 L 673.341796875 163.64" fill="none" stroke="#000000" stroke-miterlimit="10"/></g><g transform="translate(-110,-118) scale(1,1)"><path d="M 664.1519786931818 152.84 L 682.5316150568182 152.84" fill="none" stroke="#000000" stroke-miterlimit="10"/></g><g transform="translate(-110,-118) scale(1,1)"><path d="M 673.341796875 163.64 L 660.5781605113636 181" fill="none" stroke="#000000" stroke-miterlimit="10"/></g><g transform="translate(-110,-118) scale(1,1)"><path d="M 673.341796875 163.64 L 686.1054332386364 181" fill="none" stroke="#000000" stroke-miterlimit="10"/></g><g transform="translate(-110,-118) scale(1,1)"><g><path fill="none" stroke="none"/><text fill="#000000" font-family="Arial" font-size="13px" font-style="normal" font-weight="bold" stroke="none" text-decoration="none" x="636.5" y="200">superadmin</text></g></g><g transform="translate(-110,-118) scale(1,1)"><path d="M 271 168 C 271 158.6111584 328.5314032 151 399.5 151 C 470.4685968 151 528 158.6111584 528 168 C 528 177.3888416 470.4685968 185 399.5 185 C 328.5314032 185 271 177.3888416 271 168 Z" fill="#C0C0C0" opacity="0.2" stroke="none"/></g><g transform="translate(-110,-118) scale(1,1)"><path d="M 264 161 C 264 151.6111584 321.5314032 144 392.5 144 C 463.4685968 144 521 151.6111584 521 161 C 521 170.3888416 463.4685968 178 392.5 178 C 321.5314032 178 264 170.3888416 264 161 Z" fill="#ffffff" stroke="none"/></g><g transform="translate(-110,-118) scale(1,1)"><path d="M 264 161 C 264 151.6111584 321.5314032 144 392.5 144 C 463.4685968 144 521 151.6111584 521 161 C 521 170.3888416 463.4685968 178 392.5 178 C 321.5314032 178 264 170.3888416 264 161 Z" fill="none" stroke="#000000" stroke-miterlimit="10"/></g><g transform="translate(-110,-118) scale(1,1)"><g><path fill="none" stroke="none"/><text fill="#000000" font-family="Arial" font-size="13px" font-style="normal" font-weight="bold" stroke="none" text-decoration="none" x="306.175048828125" y="166.5">valide inscription utilisateur</text></g></g><g transform="translate(-110,-118) scale(1,1)"><path d="M 631 166 L 522 164" fill="none" stroke="#000000" stroke-miterlimit="10"/></g><g transform="translate(-110,-118) scale(1,1)"><path d="M 532.238190404562 159.9776303949121 L 522 164 L 532.0837386863411 168.3952490379485" fill="none" stroke="#000000" stroke-miterlimit="10"/></g><g transform="translate(-110,-118) scale(1,1)"><path d="M 388 303 L 392 179" fill="none" stroke="#000000" stroke-dasharray="3" stroke-miterlimit="10"/></g><g transform="translate(-110,-118) scale(1,1)"><path d="M 395.8796715000754 189.29311172831143 L 392 179 L 387.4650129238797 189.02167112907932" fill="none" stroke="#000000" stroke-miterlimit="10"/></g><g transform="translate(-110,-118) scale(1,1)"><g><path fill="none" stroke="none"/><text fill="#000000" font-family="Arial" font-size="13px" font-style="normal" font-weight="normal" stroke="none" text-decoration="none" x="332.5" y="245">«include»</text></g></g><g transform="translate(-110,-118) scale(1,1)"><path d="M 154.88298313210228 665.6800000000001 C 154.88298313210228 660.8861679360001 158.76882545704774 657 163.562255859375 657 C 168.35568626170226 657 172.24152858664772 660.8861679360001 172.24152858664772 665.6800000000001 C 172.24152858664772 670.473832064 168.35568626170226 674.36 163.562255859375 674.36 C 158.76882545704774 674.36 154.88298313210228 670.473832064 154.88298313210228 665.6800000000001 Z" fill="#ffffff" stroke="none"/></g><g transform="translate(-110,-118) scale(1,1)"><path d="M 154.88298313210228 665.6800000000001 C 154.88298313210228 660.8861679360001 158.76882545704774 657 163.562255859375 657 C 168.35568626170226 657 172.24152858664772 660.8861679360001 172.24152858664772 665.6800000000001 C 172.24152858664772 670.473832064 168.35568626170226 674.36 163.562255859375 674.36 C 158.76882545704774 674.36 154.88298313210228 670.473832064 154.88298313210228 665.6800000000001 Z" fill="none" stroke="#000000" stroke-miterlimit="10"/></g><g transform="translate(-110,-118) scale(1,1)"><path d="M 163.562255859375 674.36 L 163.562255859375 691.64" fill="none" stroke="#000000" stroke-miterlimit="10"/></g><g transform="translate(-110,-118) scale(1,1)"><path d="M 154.37243767755683 680.84 L 172.75207404119317 680.84" fill="none" stroke="#000000" stroke-miterlimit="10"/></g><g transform="translate(-110,-118) scale(1,1)"><path d="M 163.562255859375 691.64 L 150.79861949573865 709" fill="none" stroke="#000000" stroke-miterlimit="10"/></g><g transform="translate(-110,-118) scale(1,1)"><path d="M 163.562255859375 691.64 L 176.32589222301135 709" fill="none" stroke="#000000" stroke-miterlimit="10"/></g><g transform="translate(-110,-118) scale(1,1)"><g><path fill="none" stroke="none"/><text fill="#000000" font-family="Arial" font-size="13px" font-style="normal" font-weight="bold" stroke="none" text-decoration="none" x="132.5" y="728">utilisateur</text></g></g><g transform="translate(-110,-118) scale(1,1)"><path d="M 359 703 C 359 685.3268864 386.9822 671 421.5 671 C 456.0178 671 484 685.3268864 484 703 C 484 720.6731136 456.0178 735 421.5 735 C 386.9822 735 359 720.6731136 359 703 Z" fill="#C0C0C0" opacity="0.2" stroke="none"/></g><g transform="translate(-110,-118) scale(1,1)"><path d="M 352 696 C 352 678.3268864 379.9822 664 414.5 664 C 449.0178 664 477 678.3268864 477 696 C 477 713.6731136 449.0178 728 414.5 728 C 379.9822 728 352 713.6731136 352 696 Z" fill="#ffffff" stroke="none"/></g><g transform="translate(-110,-118) scale(1,1)"><path d="M 352 696 C 352 678.3268864 379.9822 664 414.5 664 C 449.0178 664 477 678.3268864 477 696 C 477 713.6731136 449.0178 728 414.5 728 C 379.9822 728 352 713.6731136 352 696 Z" fill="none" stroke="#000000" stroke-miterlimit="10"/></g><g transform="translate(-110,-118) scale(1,1)"><g><path fill="none" stroke="none"/><text fill="#000000" font-family="Arial" font-size="13px" font-style="normal" font-weight="bold" stroke="none" text-decoration="none" x="376.57275390625" y="701.5">gérer profile</text></g></g><g transform="translate(-110,-118) scale(1,1)"><path d="M 200 695 L 351 696" fill="none" stroke="#000000" stroke-miterlimit="10"/></g><g transform="translate(-110,-118) scale(1,1)"><path d="M 340.8096710012187 700.1421244424326 L 351 696 L 340.86542498067723 691.7232735442025" fill="none" stroke="#000000" stroke-miterlimit="10"/></g><g transform="translate(-110,-118) scale(1,1)"><path d="M 639 672 C 639 658.19288 674.1456432 647 717.5 647 C 760.8543568 647 796 658.19288 796 672 C 796 685.80712 760.8543568 697 717.5 697 C 674.1456432 697 639 685.80712 639 672 Z" fill="#C0C0C0" opacity="0.2" stroke="none"/></g><g transform="translate(-110,-118) scale(1,1)"><path d="M 632 665 C 632 651.19288 667.1456432 640 710.5 640 C 753.8543568 640 789 651.19288 789 665 C 789 678.80712 753.8543568 690 710.5 690 C 667.1456432 690 632 678.80712 632 665 Z" fill="#ffffff" stroke="none"/></g><g transform="translate(-110,-118) scale(1,1)"><path d="M 632 665 C 632 651.19288 667.1456432 640 710.5 640 C 753.8543568 640 789 651.19288 789 665 C 789 678.80712 753.8543568 690 710.5 690 C 667.1456432 690 632 678.80712 632 665 Z" fill="none" stroke="#000000" stroke-miterlimit="10"/></g><g transform="translate(-110,-118) scale(1,1)"><g><path fill="none" stroke="none"/><text fill="#000000" font-family="Arial" font-size="13px" font-style="normal" font-weight="bold" stroke="none" text-decoration="none" x="659.575927734375" y="670.5">consulter profile</text></g></g><g transform="translate(-110,-118) scale(1,1)"><path d="M 639 751 C 639 737.7451648 674.817216 727 719 727 C 763.182784 727 799 737.7451648 799 751 C 799 764.2548352 763.182784 775 719 775 C 674.817216 775 639 764.2548352 639 751 Z" fill="#C0C0C0" opacity="0.2" stroke="none"/></g><g transform="translate(-110,-118) scale(1,1)"><path d="M 632 744 C 632 730.7451648 667.817216 720 712 720 C 756.182784 720 792 730.7451648 792 744 C 792 757.2548352 756.182784 768 712 768 C 667.817216 768 632 757.2548352 632 744 Z" fill="#ffffff" stroke="none"/></g><g transform="translate(-110,-118) scale(1,1)"><path d="M 632 744 C 632 730.7451648 667.817216 720 712 720 C 756.182784 720 792 730.7451648 792 744 C 792 757.2548352 756.182784 768 712 768 C 667.817216 768 632 757.2548352 632 744 Z" fill="none" stroke="#000000" stroke-miterlimit="10"/></g><g transform="translate(-110,-118) scale(1,1)"><g><path fill="none" stroke="none"/><text fill="#000000" font-family="Arial" font-size="13px" font-style="normal" font-weight="bold" stroke="none" text-decoration="none" x="664.69091796875" y="749.5">modifier profile</text></g></g><g transform="translate(-110,-118) scale(1,1)"><path d="M 631 673 L 478 689" fill="none" stroke="#000000" stroke-miterlimit="10"/></g><g transform="translate(-110,-118) scale(1,1)"><path d="M 497.339467377268 678.5126265650742 L 478 689 L 499.0907613996739 695.2593756543306" fill="#FFFFFF" stroke="none"/></g><g transform="translate(-110,-118) scale(1,1)"><path d="M 497.339467377268 678.5126265650742 L 478 689 L 499.0907613996739 695.2593756543306 L 497.339467377268 678.5126265650742" fill="none" stroke="#000000" stroke-miterlimit="10"/></g><g transform="translate(-110,-118) scale(1,1)"><path d="M 631 731 L 478 706" fill="none" stroke="#000000" stroke-miterlimit="10"/></g><g transform="translate(-110,-118) scale(1,1)"><path d="M 499.41698496141976 700.9688216924541 L 478 706 L 496.7016755974146 717.5865150001658" fill="#FFFFFF" stroke="none"/></g><g transform="translate(-110,-118) scale(1,1)"><path d="M 499.41698496141976 700.9688216924541 L 478 706 L 496.7016755974146 717.5865150001658 L 499.41698496141976 700.9688216924541" fill="none" stroke="#000000" stroke-miterlimit="10"/></g><g transform="translate(-110,-118) scale(1,1)"><path d="M 152.40935031960228 913.6800000000001 C 152.40935031960228 908.8861679360001 156.29519264454774 905 161.088623046875 905 C 165.88205344920226 905 169.76789577414772 908.8861679360001 169.76789577414772 913.6800000000001 C 169.76789577414772 918.473832064 165.88205344920226 922.36 161.088623046875 922.36 C 156.29519264454774 922.36 152.40935031960228 918.473832064 152.40935031960228 913.6800000000001 Z" fill="#ffffff" stroke="none"/></g><g transform="translate(-110,-118) scale(1,1)"><path d="M 152.40935031960228 913.6800000000001 C 152.40935031960228 908.8861679360001 156.29519264454774 905 161.088623046875 905 C 165.88205344920226 905 169.76789577414772 908.8861679360001 169.76789577414772 913.6800000000001 C 169.76789577414772 918.473832064 165.88205344920226 922.36 161.088623046875 922.36 C 156.29519264454774 922.36 152.40935031960228 918.473832064 152.40935031960228 913.6800000000001 Z" fill="none" stroke="#000000" stroke-miterlimit="10"/></g><g transform="translate(-110,-118) scale(1,1)"><path d="M 161.088623046875 922.36 L 161.088623046875 939.64" fill="none" stroke="#000000" stroke-miterlimit="10"/></g><g transform="translate(-110,-118) scale(1,1)"><path d="M 151.89880486505683 928.84 L 170.27844122869317 928.84" fill="none" stroke="#000000" stroke-miterlimit="10"/></g><g transform="translate(-110,-118) scale(1,1)"><path d="M 161.088623046875 939.64 L 148.32498668323865 957" fill="none" stroke="#000000" stroke-miterlimit="10"/></g><g transform="translate(-110,-118) scale(1,1)"><path d="M 161.088623046875 939.64 L 173.85225941051135 957" fill="none" stroke="#000000" stroke-miterlimit="10"/></g><g transform="translate(-110,-118) scale(1,1)"><g><path fill="none" stroke="none"/><text fill="#000000" font-family="Arial" font-size="13px" font-style="normal" font-weight="bold" stroke="none" text-decoration="none" x="144.11181640625" y="976">client</text></g></g><g transform="translate(-110,-118) scale(1,1)"><path d="M 311 947 C 311 931.5360256 388.0070144 919 483 919 C 577.9929856 919 655 931.5360256 655 947 C 655 962.4639744 577.9929856 975 483 975 C 388.0070144 975 311 962.4639744 311 947 Z" fill="#C0C0C0" opacity="0.2" stroke="none"/></g><g transform="translate(-110,-118) scale(1,1)"><path d="M 304 940 C 304 924.5360256 381.0070144 912 476 912 C 570.9929856 912 648 924.5360256 648 940 C 648 955.4639744 570.9929856 968 476 968 C 381.0070144 968 304 955.4639744 304 940 Z" fill="#ffffff" stroke="none"/></g><g transform="translate(-110,-118) scale(1,1)"><path d="M 304 940 C 304 924.5360256 381.0070144 912 476 912 C 570.9929856 912 648 924.5360256 648 940 C 648 955.4639744 570.9929856 968 476 968 C 381.0070144 968 304 955.4639744 304 940 Z" fill="none" stroke="#000000" stroke-miterlimit="10"/></g><g transform="translate(-110,-118) scale(1,1)"><g><path fill="none" stroke="none"/><text fill="#000000" font-family="Arial" font-size="13px" font-style="normal" font-weight="bold" stroke="none" text-decoration="none" x="358.974609375" y="945.5">demander une Assurance Automobile</text></g></g><g transform="translate(-110,-118) scale(1,1)"><path d="M 187 943 L 303 942" fill="none" stroke="#000000" stroke-miterlimit="10"/></g><g transform="translate(-110,-118) scale(1,1)"><path d="M 292.8739903452937 946.2969673576599 L 303 942 L 292.80141514965817 937.8782446639353" fill="none" stroke="#000000" stroke-miterlimit="10"/></g><g transform="translate(-110,-118) scale(1,1)"><path d="M 887 888 C 887 878.6111584 916.5492032 871 953 871 C 989.4507968 871 1019 878.6111584 1019 888 C 1019 897.3888416 989.4507968 905 953 905 C 916.5492032 905 887 897.3888416 887 888 Z" fill="#C0C0C0" opacity="0.2" stroke="none"/></g><g transform="translate(-110,-118) scale(1,1)"><path d="M 880 881 C 880 871.6111584 909.5492032 864 946 864 C 982.4507968 864 1012 871.6111584 1012 881 C 1012 890.3888416 982.4507968 898 946 898 C 909.5492032 898 880 890.3888416 880 881 Z" fill="#ffffff" stroke="none"/></g><g transform="translate(-110,-118) scale(1,1)"><path d="M 880 881 C 880 871.6111584 909.5492032 864 946 864 C 982.4507968 864 1012 871.6111584 1012 881 C 1012 890.3888416 982.4507968 898 946 898 C 909.5492032 898 880 890.3888416 880 881 Z" fill="none" stroke="#000000" stroke-miterlimit="10"/></g><g transform="translate(-110,-118) scale(1,1)"><g><path fill="none" stroke="none"/><text fill="#000000" font-family="Arial" font-size="13px" font-style="normal" font-weight="bold" stroke="none" text-decoration="none" x="903.727783203125" y="886.5">saisir marque</text></g></g><g transform="translate(-110,-118) scale(1,1)"><path d="M 799 952 C 799 942.6111584 869.0674288 935 955.5 935 C 1041.9325712 935 1112 942.6111584 1112 952 C 1112 961.3888416 1041.9325712 969 955.5 969 C 869.0674288 969 799 961.3888416 799 952 Z" fill="#C0C0C0" opacity="0.2" stroke="none"/></g><g transform="translate(-110,-118) scale(1,1)"><path d="M 792 945 C 792 935.6111584 862.0674288 928 948.5 928 C 1034.9325712 928 1105 935.6111584 1105 945 C 1105 954.3888416 1034.9325712 962 948.5 962 C 862.0674288 962 792 954.3888416 792 945 Z" fill="#ffffff" stroke="none"/></g><g transform="translate(-110,-118) scale(1,1)"><path d="M 792 945 C 792 935.6111584 862.0674288 928 948.5 928 C 1034.9325712 928 1105 935.6111584 1105 945 C 1105 954.3888416 1034.9325712 962 948.5 962 C 862.0674288 962 792 954.3888416 792 945 Z" fill="none" stroke="#000000" stroke-miterlimit="10"/></g><g transform="translate(-110,-118) scale(1,1)"><g><path fill="none" stroke="none"/><text fill="#000000" font-family="Arial" font-size="13px" font-style="normal" font-weight="bold" stroke="none" text-decoration="none" x="842.287841796875" y="950.5">saisir Date de première circulation</text></g></g><g transform="translate(-110,-118) scale(1,1)"><path d="M 887 1016 C 887 1006.6111584 913.6390544 999 946.5 999 C 979.3609456 999 1006 1006.6111584 1006 1016 C 1006 1025.3888416 979.3609456 1033 946.5 1033 C 913.6390544 1033 887 1025.3888416 887 1016 Z" fill="#C0C0C0" opacity="0.2" stroke="none"/></g><g transform="translate(-110,-118) scale(1,1)"><path d="M 880 1009 C 880 999.6111584 906.6390544 992 939.5 992 C 972.3609456 992 999 999.6111584 999 1009 C 999 1018.3888416 972.3609456 1026 939.5 1026 C 906.6390544 1026 880 1018.3888416 880 1009 Z" fill="#ffffff" stroke="none"/></g><g transform="translate(-110,-118) scale(1,1)"><path d="M 880 1009 C 880 999.6111584 906.6390544 992 939.5 992 C 972.3609456 992 999 999.6111584 999 1009 C 999 1018.3888416 972.3609456 1026 939.5 1026 C 906.6390544 1026 880 1018.3888416 880 1009 Z" fill="none" stroke="#000000" stroke-miterlimit="10"/></g><g transform="translate(-110,-118) scale(1,1)"><g><path fill="none" stroke="none"/><text fill="#000000" font-family="Arial" font-size="13px" font-style="normal" font-weight="bold" stroke="none" text-decoration="none" x="901.921875" y="1014.5">saisir usage</text></g></g><g transform="translate(-110,-118) scale(1,1)"><path d="M 649 918 L 879 889" fill="none" stroke="#000000" stroke-dasharray="3" stroke-miterlimit="10"/></g><g transform="translate(-110,-118) scale(1,1)"><path d="M 869.4437531176903 894.4477651862343 L 879 889 L 868.3905613213277 886.0948647323243" fill="none" stroke="#000000" stroke-miterlimit="10"/></g><g transform="translate(-110,-118) scale(1,1)"><g><path fill="none" stroke="none"/><text fill="#000000" font-family="Arial" font-size="13px" font-style="normal" font-weight="normal" stroke="none" text-decoration="none" x="727.5" y="899">«include»</text></g></g><g transform="translate(-110,-118) scale(1,1)"><path d="M 649 942 L 791 943" fill="none" stroke="#000000" stroke-dasharray="3" stroke-miterlimit="10"/></g><g transform="translate(-110,-118) scale(1,1)"><path d="M 780.8079333772884 947.1378470196719 L 791 943 L 780.867220889653 938.7190202638981" fill="none" stroke="#000000" stroke-miterlimit="10"/></g><g transform="translate(-110,-118) scale(1,1)"><g><path fill="none" stroke="none"/><text fill="#000000" font-family="Arial" font-size="13px" font-style="normal" font-weight="normal" stroke="none" text-decoration="none" x="687.5" y="955">«include»</text></g></g><g transform="translate(-110,-118) scale(1,1)"><path d="M 649 966 L 879 1000" fill="none" stroke="#000000" stroke-dasharray="3" stroke-miterlimit="10"/></g><g transform="translate(-110,-118) scale(1,1)"><path d="M 868.3309911527269 1002.6781057142706 L 879 1000 L 869.5621647842588 994.3495782068491" fill="none" stroke="#000000" stroke-miterlimit="10"/></g><g transform="translate(-110,-118) scale(1,1)"><g><path fill="none" stroke="none"/><text fill="#000000" font-family="Arial" font-size="13px" font-style="normal" font-weight="normal" stroke="none" text-decoration="none" x="725.5" y="995">«include»</text></g></g><g transform="translate(-110,-118) scale(1,1)"><path d="M 144.40935031960228 1145.6799999999998 C 144.40935031960228 1140.8861679359998 148.29519264454774 1137 153.088623046875 1137 C 157.88205344920226 1137 161.76789577414772 1140.8861679359998 161.76789577414772 1145.6799999999998 C 161.76789577414772 1150.473832064 157.88205344920226 1154.36 153.088623046875 1154.36 C 148.29519264454774 1154.36 144.40935031960228 1150.473832064 144.40935031960228 1145.6799999999998 Z" fill="#ffffff" stroke="none"/></g><g transform="translate(-110,-118) scale(1,1)"><path d="M 144.40935031960228 1145.6799999999998 C 144.40935031960228 1140.8861679359998 148.29519264454774 1137 153.088623046875 1137 C 157.88205344920226 1137 161.76789577414772 1140.8861679359998 161.76789577414772 1145.6799999999998 C 161.76789577414772 1150.473832064 157.88205344920226 1154.36 153.088623046875 1154.36 C 148.29519264454774 1154.36 144.40935031960228 1150.473832064 144.40935031960228 1145.6799999999998 Z" fill="none" stroke="#000000" stroke-miterlimit="10"/></g><g transform="translate(-110,-118) scale(1,1)"><path d="M 153.088623046875 1154.36 L 153.088623046875 1171.64" fill="none" stroke="#000000" stroke-miterlimit="10"/></g><g transform="translate(-110,-118) scale(1,1)"><path d="M 143.89880486505683 1160.84 L 162.27844122869317 1160.84" fill="none" stroke="#000000" stroke-miterlimit="10"/></g><g transform="translate(-110,-118) scale(1,1)"><path d="M 153.088623046875 1171.64 L 140.32498668323865 1189" fill="none" stroke="#000000" stroke-miterlimit="10"/></g><g transform="translate(-110,-118) scale(1,1)"><path d="M 153.088623046875 1171.64 L 165.85225941051135 1189" fill="none" stroke="#000000" stroke-miterlimit="10"/></g><g transform="translate(-110,-118) scale(1,1)"><g><path fill="none" stroke="none"/><text fill="#000000" font-family="Arial" font-size="13px" font-style="normal" font-weight="bold" stroke="none" text-decoration="none" x="136.11181640625" y="1208">client</text></g></g><g transform="translate(-110,-118) scale(1,1)"><path d="M 319 1183 C 319 1169.7451648 396.0070144 1159 491 1159 C 585.9929856 1159 663 1169.7451648 663 1183 C 663 1196.2548352 585.9929856 1207 491 1207 C 396.0070144 1207 319 1196.2548352 319 1183 Z" fill="#C0C0C0" opacity="0.2" stroke="none"/></g><g transform="translate(-110,-118) scale(1,1)"><path d="M 312 1176 C 312 1162.7451648 389.0070144 1152 484 1152 C 578.9929856 1152 656 1162.7451648 656 1176 C 656 1189.2548352 578.9929856 1200 484 1200 C 389.0070144 1200 312 1189.2548352 312 1176 Z" fill="#ffffff" stroke="none"/></g><g transform="translate(-110,-118) scale(1,1)"><path d="M 312 1176 C 312 1162.7451648 389.0070144 1152 484 1152 C 578.9929856 1152 656 1162.7451648 656 1176 C 656 1189.2548352 578.9929856 1200 484 1200 C 389.0070144 1200 312 1189.2548352 312 1176 Z" fill="none" stroke="#000000" stroke-miterlimit="10"/></g><g transform="translate(-110,-118) scale(1,1)"><g><path fill="none" stroke="none"/><text fill="#000000" font-family="Arial" font-size="13px" font-style="normal" font-weight="bold" stroke="none" text-decoration="none" x="370.945068359375" y="1181.5">demander une Assurance Habitation</text></g></g><g transform="translate(-110,-118) scale(1,1)"><path d="M 179 1175 L 311 1175" fill="none" stroke="#000000" stroke-miterlimit="10"/></g><g transform="translate(-110,-118) scale(1,1)"><path d="M 300.83732514237585 1179.2095177560159 L 311 1175 L 300.83732514237585 1170.7904822439841" fill="none" stroke="#000000" stroke-miterlimit="10"/></g><g transform="translate(-110,-118) scale(1,1)"><path d="M 799 1136 C 799 1126.6111584 833.2502128 1119 875.5 1119 C 917.7497872 1119 952 1126.6111584 952 1136 C 952 1145.3888416 917.7497872 1153 875.5 1153 C 833.2502128 1153 799 1145.3888416 799 1136 Z" fill="#C0C0C0" opacity="0.2" stroke="none"/></g><g transform="translate(-110,-118) scale(1,1)"><path d="M 792 1129 C 792 1119.6111584 826.2502128 1112 868.5 1112 C 910.7497872 1112 945 1119.6111584 945 1129 C 945 1138.3888416 910.7497872 1146 868.5 1146 C 826.2502128 1146 792 1138.3888416 792 1129 Z" fill="#ffffff" stroke="none"/></g><g transform="translate(-110,-118) scale(1,1)"><path d="M 792 1129 C 792 1119.6111584 826.2502128 1112 868.5 1112 C 910.7497872 1112 945 1119.6111584 945 1129 C 945 1138.3888416 910.7497872 1146 868.5 1146 C 826.2502128 1146 792 1138.3888416 792 1129 Z" fill="none" stroke="#000000" stroke-miterlimit="10"/></g><g transform="translate(-110,-118) scale(1,1)"><g><path fill="none" stroke="none"/><text fill="#000000" font-family="Arial" font-size="13px" font-style="normal" font-weight="bold" stroke="none" text-decoration="none" x="819.0009765625" y="1134.5">saisir superficie</text></g></g><g transform="translate(-110,-118) scale(1,1)"><path d="M 831 1216 C 831 1206.6111584 857.862912 1199 891 1199 C 924.137088 1199 951 1206.6111584 951 1216 C 951 1225.3888416 924.137088 1233 891 1233 C 857.862912 1233 831 1225.3888416 831 1216 Z" fill="#C0C0C0" opacity="0.2" stroke="none"/></g><g transform="translate(-110,-118) scale(1,1)"><path d="M 824 1209 C 824 1199.6111584 850.862912 1192 884 1192 C 917.137088 1192 944 1199.6111584 944 1209 C 944 1218.3888416 917.137088 1226 884 1226 C 850.862912 1226 824 1218.3888416 824 1209 Z" fill="#ffffff" stroke="none"/></g><g transform="translate(-110,-118) scale(1,1)"><path d="M 824 1209 C 824 1199.6111584 850.862912 1192 884 1192 C 917.137088 1192 944 1199.6111584 944 1209 C 944 1218.3888416 917.137088 1226 884 1226 C 850.862912 1226 824 1218.3888416 824 1209 Z" fill="none" stroke="#000000" stroke-miterlimit="10"/></g><g transform="translate(-110,-118) scale(1,1)"><g><path fill="none" stroke="none"/><text fill="#000000" font-family="Arial" font-size="13px" font-style="normal" font-weight="bold" stroke="none" text-decoration="none" x="851.8427734375" y="1214.5">saisir type</text></g></g><g transform="translate(-110,-118) scale(1,1)"><path d="M 657 1155 L 791 1138" fill="none" stroke="#000000" stroke-dasharray="3" stroke-miterlimit="10"/></g><g transform="translate(-110,-118) scale(1,1)"><path d="M 781.4479313893094 1143.4550880154823 L 791 1138 L 780.3883377833045 1135.1029972387385" fill="none" stroke="#000000" stroke-miterlimit="10"/></g><g transform="translate(-110,-118) scale(1,1)"><g><path fill="none" stroke="none"/><text fill="#000000" font-family="Arial" font-size="13px" font-style="normal" font-weight="normal" stroke="none" text-decoration="none" x="687.5" y="1138">«include»</text></g></g><g transform="translate(-110,-118) scale(1,1)"><path d="M 657 1190 L 823 1204" fill="none" stroke="#000000" stroke-dasharray="3" stroke-miterlimit="10"/></g><g transform="translate(-110,-118) scale(1,1)"><path d="M 812.5195122752693 1207.3405653790596 L 823 1204 L 813.2270396271706 1198.9513124922305" fill="none" stroke="#000000" stroke-miterlimit="10"/></g><g transform="translate(-110,-118) scale(1,1)"><g><path fill="none" stroke="none"/><text fill="#000000" font-family="Arial" font-size="13px" font-style="normal" font-weight="normal" stroke="none" text-decoration="none" x="703.5" y="1210">«include»</text></g></g><g transform="translate(-110,-118) scale(1,1)"><path d="M 375 1459 C 375 1447.954304 441.7095648 1439 524 1439 C 606.2904352 1439 673 1447.954304 673 1459 C 673 1470.045696 606.2904352 1479 524 1479 C 441.7095648 1479 375 1470.045696 375 1459 Z" fill="#C0C0C0" opacity="0.2" stroke="none"/></g><g transform="translate(-110,-118) scale(1,1)"><path d="M 368 1452 C 368 1440.954304 434.7095648 1432 517 1432 C 599.2904352 1432 666 1440.954304 666 1452 C 666 1463.045696 599.2904352 1472 517 1472 C 434.7095648 1472 368 1463.045696 368 1452 Z" fill="#ffffff" stroke="none"/></g><g transform="translate(-110,-118) scale(1,1)"><path d="M 368 1452 C 368 1440.954304 434.7095648 1432 517 1432 C 599.2904352 1432 666 1440.954304 666 1452 C 666 1463.045696 599.2904352 1472 517 1472 C 434.7095648 1472 368 1463.045696 368 1452 Z" fill="none" stroke="#000000" stroke-miterlimit="10"/></g><g transform="translate(-110,-118) scale(1,1)"><g><path fill="none" stroke="none"/><text fill="#000000" font-family="Arial" font-size="13px" font-style="normal" font-weight="bold" stroke="none" text-decoration="none" x="416.23095703125" y="1457.5">répondre Assurance Automobile</text></g></g><g transform="translate(-110,-118) scale(1,1)"><path d="M 229.01384250710228 1425.6799999999998 C 229.01384250710228 1420.8861679359998 232.89968483204774 1417 237.693115234375 1417 C 242.48654563670226 1417 246.37238796164772 1420.8861679359998 246.37238796164772 1425.6799999999998 C 246.37238796164772 1430.473832064 242.48654563670226 1434.36 237.693115234375 1434.36 C 232.89968483204774 1434.36 229.01384250710228 1430.473832064 229.01384250710228 1425.6799999999998 Z" fill="#ffffff" stroke="none"/></g><g transform="translate(-110,-118) scale(1,1)"><path d="M 229.01384250710228 1425.6799999999998 C 229.01384250710228 1420.8861679359998 232.89968483204774 1417 237.693115234375 1417 C 242.48654563670226 1417 246.37238796164772 1420.8861679359998 246.37238796164772 1425.6799999999998 C 246.37238796164772 1430.473832064 242.48654563670226 1434.36 237.693115234375 1434.36 C 232.89968483204774 1434.36 229.01384250710228 1430.473832064 229.01384250710228 1425.6799999999998 Z" fill="none" stroke="#000000" stroke-miterlimit="10"/></g><g transform="translate(-110,-118) scale(1,1)"><path d="M 237.693115234375 1434.36 L 237.693115234375 1451.64" fill="none" stroke="#000000" stroke-miterlimit="10"/></g><g transform="translate(-110,-118) scale(1,1)"><path d="M 228.50329705255683 1440.84 L 246.88293341619317 1440.84" fill="none" stroke="#000000" stroke-miterlimit="10"/></g><g transform="translate(-110,-118) scale(1,1)"><path d="M 237.693115234375 1451.64 L 224.92947887073865 1469" fill="none" stroke="#000000" stroke-miterlimit="10"/></g><g transform="translate(-110,-118) scale(1,1)"><path d="M 237.693115234375 1451.64 L 250.45675159801135 1469" fill="none" stroke="#000000" stroke-miterlimit="10"/></g><g transform="translate(-110,-118) scale(1,1)"><g><path fill="none" stroke="none"/><text fill="#000000" font-family="Arial" font-size="13px" font-style="normal" font-weight="bold" stroke="none" text-decoration="none" x="196.5" y="1488">service client</text></g></g><g transform="translate(-110,-118) scale(1,1)"><path d="M 783 1416 C 783 1406.6111584 805.6096176 1399 833.5 1399 C 861.3903824 1399 884 1406.6111584 884 1416 C 884 1425.3888416 861.3903824 1433 833.5 1433 C 805.6096176 1433 783 1425.3888416 783 1416 Z" fill="#C0C0C0" opacity="0.2" stroke="none"/></g><g transform="translate(-110,-118) scale(1,1)"><path d="M 776 1409 C 776 1399.6111584 798.6096176 1392 826.5 1392 C 854.3903824 1392 877 1399.6111584 877 1409 C 877 1418.3888416 854.3903824 1426 826.5 1426 C 798.6096176 1426 776 1418.3888416 776 1409 Z" fill="#ffffff" stroke="none"/></g><g transform="translate(-110,-118) scale(1,1)"><path d="M 776 1409 C 776 1399.6111584 798.6096176 1392 826.5 1392 C 854.3903824 1392 877 1399.6111584 877 1409 C 877 1418.3888416 854.3903824 1426 826.5 1426 C 798.6096176 1426 776 1418.3888416 776 1409 Z" fill="none" stroke="#000000" stroke-miterlimit="10"/></g><g transform="translate(-110,-118) scale(1,1)"><g><path fill="none" stroke="none"/><text fill="#000000" font-family="Arial" font-size="13px" font-style="normal" font-weight="bold" stroke="none" text-decoration="none" x="799.760498046875" y="1414">accepter</text></g></g><g transform="translate(-110,-118) scale(1,1)"><path d="M 791 1480 C 791 1470.6111584 813.6096176 1463 841.5 1463 C 869.3903824 1463 892 1470.6111584 892 1480 C 892 1489.3888416 869.3903824 1497 841.5 1497 C 813.6096176 1497 791 1489.3888416 791 1480 Z" fill="#C0C0C0" opacity="0.2" stroke="none"/></g><g transform="translate(-110,-118) scale(1,1)"><path d="M 784 1473 C 784 1463.6111584 806.6096176 1456 834.5 1456 C 862.3903824 1456 885 1463.6111584 885 1473 C 885 1482.3888416 862.3903824 1490 834.5 1490 C 806.6096176 1490 784 1482.3888416 784 1473 Z" fill="#ffffff" stroke="none"/></g><g transform="translate(-110,-118) scale(1,1)"><path d="M 784 1473 C 784 1463.6111584 806.6096176 1456 834.5 1456 C 862.3903824 1456 885 1463.6111584 885 1473 C 885 1482.3888416 862.3903824 1490 834.5 1490 C 806.6096176 1490 784 1482.3888416 784 1473 Z" fill="none" stroke="#000000" stroke-miterlimit="10"/></g><g transform="translate(-110,-118) scale(1,1)"><g><path fill="none" stroke="none"/><text fill="#000000" font-family="Arial" font-size="13px" font-style="normal" font-weight="bold" stroke="none" text-decoration="none" x="814.62548828125" y="1478.5">rejeter</text></g></g><g transform="translate(-110,-118) scale(1,1)"><path d="M 775 1416 L 667 1431" fill="none" stroke="#000000" stroke-miterlimit="10"/></g><g transform="translate(-110,-118) scale(1,1)"><path d="M 685.973908839495 1419.8648851218081 L 667 1431 L 688.2902948456831 1436.5428643663615" fill="#FFFFFF" stroke="none"/></g><g transform="translate(-110,-118) scale(1,1)"><path d="M 685.973908839495 1419.8648851218081 L 667 1431 L 688.2902948456831 1436.5428643663615 L 685.973908839495 1419.8648851218081" fill="none" stroke="#000000" stroke-miterlimit="10"/></g><g transform="translate(-110,-118) scale(1,1)"><path d="M 783 1470 L 667 1462" fill="none" stroke="#000000" stroke-miterlimit="10"/></g><g transform="translate(-110,-118) scale(1,1)"><path d="M 687.8564325643471 1454.9993414103499 L 667 1462 L 686.6979380591232 1471.7975117360963" fill="#FFFFFF" stroke="none"/></g><g transform="translate(-110,-118) scale(1,1)"><path d="M 687.8564325643471 1454.9993414103499 L 667 1462 L 686.6979380591232 1471.7975117360963 L 687.8564325643471 1454.9993414103499" fill="none" stroke="#000000" stroke-miterlimit="10"/></g><g transform="translate(-110,-118) scale(1,1)"><path d="M 284 1454 L 367 1454" fill="none" stroke="#000000" stroke-miterlimit="10"/></g><g transform="translate(-110,-118) scale(1,1)"><path d="M 356.83732514237585 1458.2095177560159 L 367 1454 L 356.83732514237585 1449.7904822439841" fill="none" stroke="#000000" stroke-miterlimit="10"/></g><g transform="translate(-110,-118) scale(1,1)"><path d="M 229.01384250710228 1577.6799999999998 C 229.01384250710228 1572.8861679359998 232.89968483204774 1569 237.693115234375 1569 C 242.48654563670226 1569 246.37238796164772 1572.8861679359998 246.37238796164772 1577.6799999999998 C 246.37238796164772 1582.473832064 242.48654563670226 1586.36 237.693115234375 1586.36 C 232.89968483204774 1586.36 229.01384250710228 1582.473832064 229.01384250710228 1577.6799999999998 Z" fill="#ffffff" stroke="none"/></g><g transform="translate(-110,-118) scale(1,1)"><path d="M 229.01384250710228 1577.6799999999998 C 229.01384250710228 1572.8861679359998 232.89968483204774 1569 237.693115234375 1569 C 242.48654563670226 1569 246.37238796164772 1572.8861679359998 246.37238796164772 1577.6799999999998 C 246.37238796164772 1582.473832064 242.48654563670226 1586.36 237.693115234375 1586.36 C 232.89968483204774 1586.36 229.01384250710228 1582.473832064 229.01384250710228 1577.6799999999998 Z" fill="none" stroke="#000000" stroke-miterlimit="10"/></g><g transform="translate(-110,-118) scale(1,1)"><path d="M 237.693115234375 1586.36 L 237.693115234375 1603.64" fill="none" stroke="#000000" stroke-miterlimit="10"/></g><g transform="translate(-110,-118) scale(1,1)"><path d="M 228.50329705255683 1592.84 L 246.88293341619317 1592.84" fill="none" stroke="#000000" stroke-miterlimit="10"/></g><g transform="translate(-110,-118) scale(1,1)"><path d="M 237.693115234375 1603.64 L 224.92947887073865 1621" fill="none" stroke="#000000" stroke-miterlimit="10"/></g><g transform="translate(-110,-118) scale(1,1)"><path d="M 237.693115234375 1603.64 L 250.45675159801135 1621" fill="none" stroke="#000000" stroke-miterlimit="10"/></g><g transform="translate(-110,-118) scale(1,1)"><g><path fill="none" stroke="none"/><text fill="#000000" font-family="Arial" font-size="13px" font-style="normal" font-weight="bold" stroke="none" text-decoration="none" x="196.5" y="1640">service client</text></g></g><g transform="translate(-110,-118) scale(1,1)"><path d="M 391 1612 C 391 1600.4020192 455.0232736 1591 534 1591 C 612.9767264 1591 677 1600.4020192 677 1612 C 677 1623.5979808 612.9767264 1633 534 1633 C 455.0232736 1633 391 1623.5979808 391 1612 Z" fill="#C0C0C0" opacity="0.2" stroke="none"/></g><g transform="translate(-110,-118) scale(1,1)"><path d="M 384 1605 C 384 1593.4020192 448.0232736 1584 527 1584 C 605.9767264 1584 670 1593.4020192 670 1605 C 670 1616.5979808 605.9767264 1626 527 1626 C 448.0232736 1626 384 1616.5979808 384 1605 Z" fill="#ffffff" stroke="none"/></g><g transform="translate(-110,-118) scale(1,1)"><path d="M 384 1605 C 384 1593.4020192 448.0232736 1584 527 1584 C 605.9767264 1584 670 1593.4020192 670 1605 C 670 1616.5979808 605.9767264 1626 527 1626 C 448.0232736 1626 384 1616.5979808 384 1605 Z" fill="none" stroke="#000000" stroke-miterlimit="10"/></g><g transform="translate(-110,-118) scale(1,1)"><g><path fill="none" stroke="none"/><text fill="#000000" font-family="Arial" font-size="13px" font-style="normal" font-weight="bold" stroke="none" text-decoration="none" x="430.201416015625" y="1610.5">répondre Assurance Habitation</text></g></g><g transform="translate(-110,-118) scale(1,1)"><path d="M 284 1607 L 383 1606" fill="none" stroke="#000000" stroke-miterlimit="10"/></g><g transform="translate(-110,-118) scale(1,1)"><path d="M 372.88036176597603 1610.3119510679599 L 383 1606 L 372.795325341268 1601.893345021866" fill="none" stroke="#000000" stroke-miterlimit="10"/></g><g transform="translate(-110,-118) scale(1,1)"><path d="M 815 1592 C 815 1582.6111584 837.6096176 1575 865.5 1575 C 893.3903824 1575 916 1582.6111584 916 1592 C 916 1601.3888416 893.3903824 1609 865.5 1609 C 837.6096176 1609 815 1601.3888416 815 1592 Z" fill="#C0C0C0" opacity="0.2" stroke="none"/></g><g transform="translate(-110,-118) scale(1,1)"><path d="M 808 1585 C 808 1575.6111584 830.6096176 1568 858.5 1568 C 886.3903824 1568 909 1575.6111584 909 1585 C 909 1594.3888416 886.3903824 1602 858.5 1602 C 830.6096176 1602 808 1594.3888416 808 1585 Z" fill="#ffffff" stroke="none"/></g><g transform="translate(-110,-118) scale(1,1)"><path d="M 808 1585 C 808 1575.6111584 830.6096176 1568 858.5 1568 C 886.3903824 1568 909 1575.6111584 909 1585 C 909 1594.3888416 886.3903824 1602 858.5 1602 C 830.6096176 1602 808 1594.3888416 808 1585 Z" fill="none" stroke="#000000" stroke-miterlimit="10"/></g><g transform="translate(-110,-118) scale(1,1)"><g><path fill="none" stroke="none"/><text fill="#000000" font-family="Arial" font-size="13px" font-style="normal" font-weight="bold" stroke="none" text-decoration="none" x="831.760498046875" y="1590">accepter</text></g></g><g transform="translate(-110,-118) scale(1,1)"><path d="M 815 1648 C 815 1638.6111584 837.6096176 1631 865.5 1631 C 893.3903824 1631 916 1638.6111584 916 1648 C 916 1657.3888416 893.3903824 1665 865.5 1665 C 837.6096176 1665 815 1657.3888416 815 1648 Z" fill="#C0C0C0" opacity="0.2" stroke="none"/></g><g transform="translate(-110,-118) scale(1,1)"><path d="M 808 1641 C 808 1631.6111584 830.6096176 1624 858.5 1624 C 886.3903824 1624 909 1631.6111584 909 1641 C 909 1650.3888416 886.3903824 1658 858.5 1658 C 830.6096176 1658 808 1650.3888416 808 1641 Z" fill="#ffffff" stroke="none"/></g><g transform="translate(-110,-118) scale(1,1)"><path d="M 808 1641 C 808 1631.6111584 830.6096176 1624 858.5 1624 C 886.3903824 1624 909 1631.6111584 909 1641 C 909 1650.3888416 886.3903824 1658 858.5 1658 C 830.6096176 1658 808 1650.3888416 808 1641 Z" fill="none" stroke="#000000" stroke-miterlimit="10"/></g><g transform="translate(-110,-118) scale(1,1)"><g><path fill="none" stroke="none"/><text fill="#000000" font-family="Arial" font-size="13px" font-style="normal" font-weight="bold" stroke="none" text-decoration="none" x="838.62548828125" y="1646.5">rejeter</text></g></g><g transform="translate(-110,-118) scale(1,1)"><path d="M 807 1588 L 671 1596" fill="none" stroke="#000000" stroke-miterlimit="10"/></g><g transform="translate(-110,-118) scale(1,1)"><path d="M 690.7958929584044 1586.401946969338 L 671 1596 L 691.7846585346998 1603.2109617663616" fill="#FFFFFF" stroke="none"/></g><g transform="translate(-110,-118) scale(1,1)"><path d="M 690.7958929584044 1586.401946969338 L 671 1596 L 691.7846585346998 1603.2109617663616 L 690.7958929584044 1586.401946969338" fill="none" stroke="#000000" stroke-miterlimit="10"/></g><g transform="translate(-110,-118) scale(1,1)"><path d="M 807 1635 L 671 1621" fill="none" stroke="#000000" stroke-miterlimit="10"/></g><g transform="translate(-110,-118) scale(1,1)"><path d="M 692.0806150461219 1614.706537576404 L 671 1621 L 690.3563958075636 1631.4560958938284" fill="#FFFFFF" stroke="none"/></g><g transform="translate(-110,-118) scale(1,1)"><path d="M 692.0806150461219 1614.706537576404 L 671 1621 L 690.3563958075636 1631.4560958938284 L 692.0806150461219 1614.706537576404" fill="none" stroke="#000000" stroke-miterlimit="10"/></g></g></svg>