<?xml version="1.0" encoding="UTF-8" standalone="no"?>
<svg
   xmlns:dc="http://purl.org/dc/elements/1.1/"
   xmlns:cc="http://creativecommons.org/ns#"
   xmlns:rdf="http://www.w3.org/1999/02/22-rdf-syntax-ns#"
   xmlns:svg="http://www.w3.org/2000/svg"
   xmlns="http://www.w3.org/2000/svg"
   viewBox="0 0 133.33333 133.33333"
   height="133.33333"
   width="133.33333"
   xml:space="preserve"
   id="svg2"
   version="1.1"><metadata
     id="metadata8"><rdf:RDF><cc:Work
         rdf:about=""><dc:format>image/svg+xml</dc:format><dc:type
           rdf:resource="http://purl.org/dc/dcmitype/StillImage" /></cc:Work></rdf:RDF></metadata><defs
     id="defs6"><clipPath
       id="clipPath18"
       clipPathUnits="userSpaceOnUse"><path
         id="path16"
         d="M 0,100 H 100 V 0 H 0 Z" /></clipPath></defs><g
     transform="matrix(1.3333333,0,0,-1.3333333,0,133.33333)"
     id="g10"><g
       id="g12"><g
         clip-path="url(#clipPath18)"
         id="g14"><g
           transform="translate(88.6729,67.172)"
           id="g20"><path
             id="path22"
             style="fill:none;stroke:#9ebf43;stroke-width:4;stroke-linecap:butt;stroke-linejoin:miter;stroke-miterlimit:10;stroke-dasharray:none;stroke-opacity:1"
             d="m 0,0 c -1.421,11.342 -10.354,20.276 -21.695,21.698 -5.743,0.72 -11.486,1.08 -17.226,1.08 -5.759,-10e-4 -11.512,-0.361 -17.226,-1.08 v -0.002 c -11.34,-1.422 -20.272,-10.353 -21.696,-21.694 -0.72,-5.742 -1.08,-11.485 -1.08,-17.225 0.001,-2.033 0.063,-4.065 0.153,-6.094 0.098,-2.213 0.237,-4.424 0.441,-6.63 0.14,-1.503 0.3,-3.004 0.489,-4.502 0.594,-4.741 2.515,-9.05 5.361,-12.576 1.05,-1.301 2.222,-2.497 3.508,-3.562 3.571,-2.957 7.973,-4.949 12.824,-5.558 1.367,-0.171 2.733,-0.318 4.099,-0.449 2.204,-0.211 4.408,-0.355 6.612,-0.459 2.172,-0.104 4.343,-0.172 6.515,-0.172 5.758,0.002 11.51,0.362 17.223,1.08 C -10.356,-54.723 -1.422,-45.791 0,-34.449 1.437,-23.01 1.437,-11.438 0,0 Z" /></g><g
           transform="translate(56.2383,32.6461)"
           id="g24"><path
             id="path26"
             style="fill:#32325d;fill-opacity:1;fill-rule:nonzero;stroke:none"
             d="m 0,0 h -21.628 c -1.193,0 -2.163,0.971 -2.163,2.163 v 25.954 c 0,1.193 0.97,2.163 2.163,2.163 h 2.163 c 0.597,0 1.081,-0.485 1.081,-1.082 0,-0.597 -0.484,-1.081 -1.081,-1.081 h -2.163 V 2.163 H 0 v 25.954 h -3.244 c -0.597,0 -1.081,0.484 -1.081,1.081 0,0.597 0.484,1.082 1.081,1.082 H 0 c 1.193,0 2.163,-0.97 2.163,-2.163 V 2.163 C 2.163,0.971 1.193,0 0,0" /></g><g
           transform="translate(52.9941,52.1115)"
           id="g28"><path
             id="path30"
             style="fill:#32325d;fill-opacity:1;fill-rule:nonzero;stroke:none"
             d="m 0,0 h -5.407 c -0.597,0 -1.081,0.484 -1.081,1.082 0,0.597 0.484,1.081 1.081,1.081 L 0,2.163 C 0.598,2.163 1.081,1.679 1.081,1.082 1.081,0.484 0.598,0 0,0" /></g><g
           transform="translate(52.9941,45.6237)"
           id="g32"><path
             id="path34"
             style="fill:#32325d;fill-opacity:1;fill-rule:nonzero;stroke:none"
             d="m 0,0 h -5.407 c -0.597,0 -1.081,0.483 -1.081,1.081 0,0.597 0.484,1.081 1.081,1.081 H 0 C 0.598,2.162 1.081,1.678 1.081,1.081 1.081,0.483 0.598,0 0,0" /></g><g
           transform="translate(52.9941,39.1344)"
           id="g36"><path
             id="path38"
             style="fill:#32325d;fill-opacity:1;fill-rule:nonzero;stroke:none"
             d="m 0,0 h -5.407 c -0.597,0 -1.081,0.484 -1.081,1.082 0,0.597 0.484,1.081 1.081,1.081 L 0,2.163 C 0.598,2.163 1.081,1.679 1.081,1.082 1.081,0.484 0.598,0 0,0" /></g><g
           transform="translate(40.0166,49.9489)"
           id="g40"><path
             id="path42"
             style="fill:#32325d;fill-opacity:1;fill-rule:nonzero;stroke:none"
             d="M 0,0 C -0.226,0 -0.453,0.07 -0.648,0.216 -1.126,0.575 -1.223,1.252 -0.864,1.73 L 2.38,6.056 C 2.738,6.533 3.416,6.631 3.894,6.272 4.372,5.914 4.468,5.236 4.11,4.758 L 0.866,0.433 C 0.653,0.149 0.329,0 0,0" /></g><g
           transform="translate(40.0176,49.9489)"
           id="g44"><path
             id="path46"
             style="fill:#32325d;fill-opacity:1;fill-rule:nonzero;stroke:none"
             d="m 0,0 c -0.277,0 -0.554,0.105 -0.765,0.317 l -2.163,2.162 c -0.422,0.423 -0.422,1.107 0,1.53 0.423,0.422 1.107,0.422 1.53,0 L 0.765,1.846 C 1.187,1.423 1.187,0.739 0.765,0.317 0.553,0.105 0.276,0 0,0" /></g><g
           transform="translate(40.0166,43.4606)"
           id="g48"><path
             id="path50"
             style="fill:#32325d;fill-opacity:1;fill-rule:nonzero;stroke:none"
             d="M 0,0 C -0.226,0 -0.453,0.07 -0.648,0.217 -1.126,0.574 -1.223,1.252 -0.864,1.73 L 2.38,6.056 C 2.738,6.533 3.416,6.631 3.894,6.272 4.372,5.914 4.468,5.235 4.11,4.758 L 0.866,0.433 C 0.653,0.149 0.329,0 0,0" /></g><g
           transform="translate(40.0176,43.4606)"
           id="g52"><path
             id="path54"
             style="fill:#32325d;fill-opacity:1;fill-rule:nonzero;stroke:none"
             d="m 0,0 c -0.277,0 -0.554,0.105 -0.765,0.316 l -2.163,2.163 c -0.422,0.423 -0.422,1.107 0,1.53 0.423,0.422 1.107,0.422 1.53,0 L 0.765,1.846 C 1.187,1.424 1.187,0.739 0.765,0.316 0.553,0.105 0.276,0 0,0" /></g><g
           transform="translate(40.0166,36.9723)"
           id="g56"><path
             id="path58"
             style="fill:#32325d;fill-opacity:1;fill-rule:nonzero;stroke:none"
             d="M 0,0 C -0.226,0 -0.453,0.07 -0.648,0.216 -1.126,0.574 -1.223,1.252 -0.864,1.73 L 2.38,6.056 C 2.738,6.532 3.416,6.631 3.894,6.271 4.372,5.914 4.468,5.235 4.11,4.758 L 0.866,0.433 C 0.653,0.149 0.329,0 0,0" /></g><g
           transform="translate(40.0176,36.9723)"
           id="g60"><path
             id="path62"
             style="fill:#32325d;fill-opacity:1;fill-rule:nonzero;stroke:none"
             d="m 0,0 c -0.277,0 -0.554,0.105 -0.765,0.316 l -2.163,2.163 c -0.422,0.422 -0.422,1.107 0,1.53 0.423,0.422 1.107,0.422 1.53,0 L 0.765,1.846 C 1.187,1.423 1.187,0.739 0.765,0.316 0.553,0.105 0.276,0 0,0" /></g><g
           transform="translate(38.936,60.7628)"
           id="g64"><path
             id="path66"
             style="fill:#32325d;fill-opacity:1;fill-rule:nonzero;stroke:none"
             d="M 0,0 H 12.977 V 2.163 H 9.534 C 9.077,2.163 8.668,2.451 8.515,2.882 8.208,3.746 7.394,4.326 6.488,4.326 5.583,4.326 4.769,3.746 4.462,2.882 4.308,2.451 3.9,2.163 3.443,2.163 H 0 Z m 14.058,-2.163 h -15.14 c -0.597,0 -1.081,0.484 -1.081,1.081 v 4.326 c 0,0.597 0.484,1.082 1.081,1.082 h 3.838 c 0.763,1.319 2.181,2.162 3.732,2.162 1.552,0 2.97,-0.843 3.733,-2.162 h 3.837 c 0.598,0 1.081,-0.485 1.081,-1.082 v -4.326 c 0,-0.597 -0.483,-1.081 -1.081,-1.081" /></g><path
           id="path68"
           style="fill:#32325d;fill-opacity:1;fill-rule:nonzero;stroke:none"
           d="m 62.727,42.38 h 2.163 v 14.058 h -2.163 z m 3.244,-2.164 h -4.325 c -0.598,0 -1.082,0.485 -1.082,1.082 v 16.221 c 0,0.597 0.484,1.081 1.082,1.081 h 4.325 c 0.597,0 1.082,-0.484 1.082,-1.081 V 41.298 c 0,-0.597 -0.485,-1.082 -1.082,-1.082" /><path
           id="path70"
           style="fill:#32325d;fill-opacity:1;fill-rule:nonzero;stroke:none"
           d="m 62.727,58.6 h 2.163 v 2.163 h -2.163 z m 3.244,-2.163 h -4.325 c -0.598,0 -1.082,0.485 -1.082,1.082 v 4.325 c 0,0.598 0.484,1.082 1.082,1.082 h 4.325 c 0.597,0 1.082,-0.484 1.082,-1.082 v -4.325 c 0,-0.597 -0.485,-1.082 -1.082,-1.082" /><g
           transform="translate(62.7266,38.3082)"
           id="g72"><path
             id="path74"
             style="fill:#32325d;fill-opacity:1;fill-rule:nonzero;stroke:none"
             d="M 0,0 1.082,-2.163 2.163,0 V 1.908 H 0 Z m 1.082,-5.662 c -0.41,0 -0.784,0.231 -0.968,0.598 l -2.163,4.326 c -0.074,0.149 -0.113,0.315 -0.113,0.483 v 3.244 c 0,0.598 0.483,1.082 1.081,1.082 h 4.325 c 0.598,0 1.082,-0.484 1.082,-1.082 v -3.244 c 0,-0.168 -0.039,-0.334 -0.114,-0.483 L 2.049,-5.064 C 1.866,-5.431 1.491,-5.662 1.082,-5.662" /></g></g></g></g></svg>